<?xml version="1.0" encoding="UTF-8"?>
<!DOCTYPE svg PUBLIC "-//W3C//DTD SVG 1.1//EN" "http://www.w3.org/Graphics/SVG/1.1/DTD/svg11.dtd">
<!-- Creator: CorelDRAW -->
<svg xmlns="http://www.w3.org/2000/svg" xml:space="preserve" width="150px" height="150px" style="shape-rendering:geometricPrecision; text-rendering:geometricPrecision; image-rendering:optimizeQuality; fill-rule:evenodd; clip-rule:evenodd"
viewBox="0 0 150 150"
 xmlns:xlink="http://www.w3.org/1999/xlink">
 <defs>
  <style type="text/css">
   <![CDATA[
    .str0 {stroke:white;stroke-width:1.5437;stroke-linecap:round}
    .fil1 {fill:none;fill-rule:nonzero}
    .fil0 {fill:#FFFDD7}
    .fil4 {fill:white}
    .fil3 {fill:#6D2B70}
    .fil5 {fill:#89BBA4}
    .fil2 {fill:#6D2B70;fill-rule:nonzero}
   ]]>
  </style>
 </defs>
 <g id="Camada_x0020_1">
  <metadata id="CorelCorpID_0Corel-Layer"/>
  <g id="_142042144">
   <path id="_142042576" class="fil0" d="M122.927 21.5067l-102.509 0c0,37.2626 -2.10118,75.5445 0,111.789 16.5142,4.41378 85.6547,-4.75394 102.509,0 0.487795,-25.7126 11.028,4.94764 -2.25,-47.152 -2.10472,-8.25827 1.07008,-17.1272 0.172441,-26.6315 -0.197244,-2.09291 1.44685,-1.85551 1.36181,-4.01575 -0.108661,-2.75669 -1.16102,-5.55 -1.82244,-8.55236 -0.548031,-2.48976 -2.92441,-0.390945 -2.85118,-3.17008 0.0791339,-2.96457 4.57323,-1.02992 4.68425,-4.33228 0.184252,-5.46496 0.416929,-11.4177 0.705118,-17.935z"/>
   <g>
    <path id="_142036336" class="fil1 str0" d="M60.2976 85.35c4.24724,0 7.64291,1.0689 10.1906,3.23031 2.77441,2.3563 4.14803,5.20748 4.14803,8.56063 0,3.23976 -1.06772,5.96693 -3.23268,8.15315 -2.2689,2.28071 -5.97165,3.41929 -11.1059,3.41929l-4.39016 0 0 16.7114c0,1.19291 0.46063,1.79409 1.39606,1.79409l2.07756 0 0 1.84961 -11.5689 0 0 -1.84961 1.61811 0c1.23425,0 1.84488,-0.601181 1.84488,-1.79409l0 -36.3803c0,-1.23425 -0.694488,-1.84843 -2.07992,-1.84843l-1.38307 0 0 -1.84606 12.4854 0zm-4.39016 21.5102l2.42953 0c7.78465,0 11.6882,-3.24213 11.6882,-9.71929 0,-2.85118 -0.946063,-5.27598 -2.84055,-7.28622 -1.97126,-1.77756 -4.4185,-2.65866 -7.35,-2.65866 -2.61614,0 -3.92717,0.614173 -3.92717,1.84843l0 17.8157zm34.2472 -7.63819c1.80591,0 3.58228,0.344882 5.3185,1.04291 0.571654,0.274016 1.03701,0.399213 1.37717,0.399213 0.784252,0 1.78228,-0.47126 3.01654,-1.44213l3.23858 8.61969 -1.84724 0.229134c-0.891732,-2.11063 -2.42953,-3.86929 -4.62756,-5.26654 -1.74331,-1.14921 -3.90472,-1.73622 -6.47598,-1.73622 -1.35472,0 -2.59016,0.549213 -3.70512,1.61811 -1.08071,1.12441 -1.62283,2.36575 -1.62283,3.70512 0,1.69961 1.07835,2.92441 3.24331,3.70512l9.48189 3.47362c1.69961,0.625984 3.0437,1.49528 4.04764,2.66575 0.999213,1.37835 1.50591,2.95866 1.50591,4.7315 0,2.6315 -0.914173,4.67126 -2.7189,6.12874 -2.00669,1.62283 -4.41496,2.43189 -7.23189,2.43189 -2.31024,0 -4.20118,-0.344882 -5.66339,-1.03465 -0.576378,-0.343701 -1.16102,-0.519685 -1.74921,-0.519685 -1.15157,0 -2.21811,0.519685 -3.22913,1.55433l-3.70157 -10.4055 1.85315 -0.464173c3.07677,5.70827 7.09606,8.56063 12.0319,8.56063 1.96772,0 3.56457,-0.559843 4.80118,-1.67717 0.954331,-1.1185 1.43858,-2.41181 1.43858,-3.87756 0,-0.922441 -0.303543,-1.87087 -0.915354,-2.8311 -0.543307,-0.657874 -1.31457,-1.17874 -2.32087,-1.56496l-9.02008 -3.24213c-2.2748,-0.80315 -3.80551,-1.6311 -4.57087,-2.47795 -0.961417,-1.39252 -1.44449,-2.95748 -1.44449,-4.6878 0,-1.70551 0.851575,-3.47362 2.54528,-5.32441 1.84488,-1.5437 4.15866,-2.31378 6.94488,-2.31378z"/>
    <path id="_1420363361" class="fil2" d="M60.2976 85.35c4.24724,0 7.64291,1.0689 10.1906,3.23031 2.77441,2.3563 4.14803,5.20748 4.14803,8.56063 0,3.23976 -1.06772,5.96693 -3.23268,8.15315 -2.2689,2.28071 -5.97165,3.41929 -11.1059,3.41929l-4.39016 0 0 16.7114c0,1.19291 0.46063,1.79409 1.39606,1.79409l2.07756 0 0 1.84961 -11.5689 0 0 -1.84961 1.61811 0c1.23425,0 1.84488,-0.601181 1.84488,-1.79409l0 -36.3803c0,-1.23425 -0.694488,-1.84843 -2.07992,-1.84843l-1.38307 0 0 -1.84606 12.4854 0zm-4.39016 21.5102l2.42953 0c7.78465,0 11.6882,-3.24213 11.6882,-9.71929 0,-2.85118 -0.946063,-5.27598 -2.84055,-7.28622 -1.97126,-1.77756 -4.4185,-2.65866 -7.35,-2.65866 -2.61614,0 -3.92717,0.614173 -3.92717,1.84843l0 17.8157zm34.2472 -7.63819c1.80591,0 3.58228,0.344882 5.3185,1.04291 0.571654,0.274016 1.03701,0.399213 1.37717,0.399213 0.784252,0 1.78228,-0.47126 3.01654,-1.44213l3.23858 8.61969 -1.84724 0.229134c-0.891732,-2.11063 -2.42953,-3.86929 -4.62756,-5.26654 -1.74331,-1.14921 -3.90472,-1.73622 -6.47598,-1.73622 -1.35472,0 -2.59016,0.549213 -3.70512,1.61811 -1.08071,1.12441 -1.62283,2.36575 -1.62283,3.70512 0,1.69961 1.07835,2.92441 3.24331,3.70512l9.48189 3.47362c1.69961,0.625984 3.0437,1.49528 4.04764,2.66575 0.999213,1.37835 1.50591,2.95866 1.50591,4.7315 0,2.6315 -0.914173,4.67126 -2.7189,6.12874 -2.00669,1.62283 -4.41496,2.43189 -7.23189,2.43189 -2.31024,0 -4.20118,-0.344882 -5.66339,-1.03465 -0.576378,-0.343701 -1.16102,-0.519685 -1.74921,-0.519685 -1.15157,0 -2.21811,0.519685 -3.22913,1.55433l-3.70157 -10.4055 1.85315 -0.464173c3.07677,5.70827 7.09606,8.56063 12.0319,8.56063 1.96772,0 3.56457,-0.559843 4.80118,-1.67717 0.954331,-1.1185 1.43858,-2.41181 1.43858,-3.87756 0,-0.922441 -0.303543,-1.87087 -0.915354,-2.8311 -0.543307,-0.657874 -1.31457,-1.17874 -2.32087,-1.56496l-9.02008 -3.24213c-2.2748,-0.80315 -3.80551,-1.6311 -4.57087,-2.47795 -0.961417,-1.39252 -1.44449,-2.95748 -1.44449,-4.6878 0,-1.70551 0.851575,-3.47362 2.54528,-5.32441 1.84488,-1.5437 4.15866,-2.31378 6.94488,-2.31378z"/>
   </g>
   <path class="fil3" d="M120.265 25.8437c1.36535,0.41811 0.964961,0.474803 0.894094,1.27559l0.360236 3.75591 4.05709 0.00944882 0 -9.99094c-73.924,2.66457 -77.9091,-0.816142 -6.10157,1.3878 0.27874,0.00944882 0.509055,3.55276 0.790157,3.5622z"/>
   <path class="fil3" d="M121.166 114.797l-0.0637795 2.57008 0.0271654 14.2217 -0.0602362 0.465354c1.73268,-0.448819 0.975591,-2.22283 0.975591,-3.04134 0,-2.82638 0.437008,-6.50079 -0.0295276,-9.13583 0.23622,21.626 0.100394,-13.1386 0.357874,-7.76102 0.0153543,0.32126 0.0791339,0.603543 -0.23622,0.922441 -1.17283,-65.7673 -0.9,-39.4677 -0.970866,1.75866z"/>
   <path class="fil4" d="M9.40512 140.213l38.4579 0.111024c-1.91693,-2.02913 -33.6413,1.15157 -38.1461,-0.537402 -0.672047,-4.68189 -1.08307,-25.3524 -0.323622,-30.15l0.011811 30.5764z"/>
   <path class="fil4" d="M123.872 140.236l-38.4579 0.0874016c1.91693,-1.60512 33.6413,0.911811 38.1461,-0.424016 0.672047,-3.7063 1.08307,-20.0646 0.323622,-23.8618l-0.011811 24.1984z"/>
   <path class="fil5" d="M86.8724 103.57l38.4579 0.0555118c-1.91693,-1.00748 -33.6413,0.570472 -38.1461,-0.266929 -3.77598,-0.472441 -0.322441,-1.1374 -0.311811,0.211417z"/>
   <path class="fil4" d="M18.3165 127.619l0.837402 1.90748 0.636614 -0.0732283 0.17126 -5.31378 0.455906 9.15591 -0.023622 -22.2189 0.011811 -10.9039 -0.403937 -9.14764 -0.197244 7.12323c-0.0838583,-1.46102 -0.0602362,-3.03661 -0.0637795,-4.51181 -0.00944882,-4.23189 -0.742913,-1.11732 -0.905906,-2.98819l-0.518504 -3.40984 0 40.3807z"/>
   <path class="fil3" d="M20.4059 100.173l-0.403937 -9.14764 -0.197244 7.12323c-0.0838583,-1.46102 -0.0602362,-3.03661 -0.0637795,-4.51181 -0.00944882,-4.23189 -0.742913,-1.11732 -0.905906,-2.98819l-0.518504 -3.40984c0,40.4787 2.08701,17.4201 2.08937,12.9343z"/>
   <g id="_142039408">
    <path id="_142041880" class="fil3" d="M99.3591 75.0732l0.725197 0.187795c-0.210236,3.47244 -0.800787,3.82559 -3.69331,2.26654 -0.401575,-3.07087 0.207874,-2.92795 2.96811,-2.45433zm-16.4717 1.5189c0.865748,-0.881102 2.55,-0.764173 3.64252,-0.31063 1.90394,0.788976 2.62087,-0.069685 3.59055,0.532677 -0.0484252,0.0826772 0.226772,0.552756 -1.5,0.674409 -3.0685,0.214961 -2.19094,-0.915354 -3.72874,-0.811417 -0.94252,0.0637795 -1.0122,0.509055 -2.00433,-0.0850394zm18.5764 -1.39843c3.78307,-1.29213 3.82677,1.80709 3.6626,2.23228 -0.251575,0.651969 -4.00748,4.02874 -3.6626,-2.23228zm-21.2492 1.51063l-0.174803 -1.32283c0.775984,-0.711024 0.882283,-0.987402 1.99252,-0.954331 -0.0543307,0.611811 -0.309449,1.07598 -0.553937,1.65 -0.335433,0.784252 -0.416929,0.77126 -1.26378,0.627165zm-10.4669 -2.00315c-0.765354,0.447638 -0.609449,0.334252 -1.54961,0.211417 0.102756,-0.327165 -0.138189,-0.535039 0.679134,-0.822047 1.02992,-0.361417 0.759449,0.0791339 0.870472,0.61063zm37.4776 -1.78701c0.650787,-0.462992 0.69685,-0.295276 1.17756,-0.217323 0.3,1.70787 -0.679134,3.00945 -2.38346,1.90512 -0.240945,-1.02638 0.284646,-1.4126 1.20591,-1.6878zm-15.5587 -1.23425c0.380315,-0.106299 0.312992,-0.18189 0.227953,0.200787 0.437008,-0.0649606 0.330709,-0.12874 0.173622,0.302362 0.440551,-0.120472 0.354331,-0.198425 0.243307,0.245669 0.45,-0.13937 0.380315,-0.245669 0.303543,0.204331l1.06299 0.558661c0.511417,-0.119291 0.413386,-0.250394 0.413386,0.231496l-0.0283465 -0.0165354 0.614173 0.188976 0.0779528 0.42874c0.514961,0.296457 0.304724,1.41969 0.145276,1.97598 -1.09016,0.214961 -2.18386,-1.16929 -2.68465,-2.04685 -0.403937,-0.103937 -0.361417,0.392126 -0.351969,-0.373228l-0.266929 -0.41811c-0.445276,0.092126 -0.337795,0.153543 -0.198425,-0.292913 -0.96378,-0.231496 -0.956693,-0.531496 -0.908268,-1.51063 0.929528,-0.108661 0.544488,-0.271654 1.17638,0.32126zm-48.3898 -0.0177165c0.537402,-0.891732 1.50827,-0.667323 3.59764,-0.825591 2.05039,-0.153543 1.73386,-1.22953 3.16535,-0.77126 -0.12874,1.19409 0.102756,0.849213 -1.22835,1.08661 -1.5248,0.271654 -4.18465,1.12795 -5.53465,0.510236zm24.8764 1.04055c-3.96969,1.27559 -4.62992,-0.905906 -6.56575,-1.96417 -0.70748,-0.387402 -1.13858,-0.00708661 -1.88386,-0.249213 -0.685039,-0.223228 -0.0673228,0.124016 -0.590551,-0.447638 2.10591,-0.820866 2.96457,-0.413386 4.66181,0.793701 2.33858,1.66417 1.51299,1.26969 3.03543,1.31457 1.32047,0.0401575 0.977953,0.146457 1.34291,0.552756zm13.9972 -0.592913c-0.848031,0.565748 -0.699213,0.346063 -1.78346,0.427559 -0.366142,0.820866 0.0850394,0.408661 -0.647244,0.799606 0.183071,0.517323 0.275197,0.447638 -0.23622,0.245669 0.18189,0.470079 0.183071,0.305906 -0.317717,0.168898 0.129921,0.451181 0.250394,0.412205 -0.187795,0.275197 -0.113386,0.853937 0.100394,0.843307 -0.616535,1.53543l0.17126 0.19252c0.184252,1.39724 0.116929,0.517323 -0.291732,0.629528 -0.231496,0.240945 0.0850394,0.545669 -1.56142,0.287008 -0.201969,-2.75906 1.08661,-3.00591 2.22874,-4.59094 -0.993307,-0.0614173 -1.14921,-0.00354331 -1.89331,-0.545669l-4.99606 -1.09724c0.0637795,-1.33465 4.99961,-6.63543 5.69173,-6.84331 0.711024,0.501969 2.04094,5.05866 3.81024,7.54134 1.7374,-0.138189 1.46339,-1.47047 3.33898,-1.65118 -0.057874,1.14803 -0.48189,1.09134 -1.20118,1.68307 -0.77126,0.633071 -0.361417,0.778346 -1.50827,0.94252zm32.5783 -3.59528c-0.373228,5.10236 -3.85748,7.31339 -3.87402,5.04331l1.68307 -9.14764c0.890551,-0.967323 2.48504,0.0909449 2.19094,4.10433zm-57.0685 0.354331c0.069685,0.806693 0.217323,0.248031 -0.264567,0.692126l-0.248031 1.16457c-0.595276,0.0956693 -1.35827,0.431102 -1.30039,-0.493701l-0.53622 -0.230315c0.271654,-1.05118 -0.0259843,-0.535039 0.532677,-0.81378l0.121654 -0.920079 0.88937 -0.108661 -0.0023622 0.12874c0.478346,-0.915354 0.191339,-0.891732 1.42087,-0.484252 0.0661417,0.382677 0.575197,-0.147638 -0.0555118,0.852756 -0.337795,0.537402 -0.119291,0.105118 -0.55748,0.212598zm-3.50079 -0.700394c0.116929,0.87874 0.15,0.431102 -0.239764,0.49252 0.188976,0.564567 0.320079,0.447638 -0.24685,0.447638l0.101575 -0.112205c0.0590551,0.633071 0.256299,0.604724 -0.288189,0.420472 0.185433,0.518504 0.232677,0.402756 -0.275197,0.204331 -0.327165,0.420472 0.638976,0.248031 -0.624803,0.35315 -0.688583,0.0566929 -0.295276,0.023622 -0.714567,-0.269291 -0.00472441,-0.884646 -0.142913,-0.552756 0.433465,-0.989764 -0.167717,-0.485433 -0.31063,-0.455906 0.172441,-0.309449l0.584646 -2.01969c-1.73504,-0.138189 -2.7874,-0.591732 -4.28504,-0.79252 -1.78583,-0.239764 -2.95157,-0.571654 -2.90197,-2.58661 1.45276,-0.376772 4.27087,1.06417 6.25394,1.1126 1.5,0.0366142 0.633071,-0.10748 0.916535,-0.327165 1.80945,-1.39961 -1.02992,0.218504 0.507874,-0.498425 0.714567,0.53622 1.12913,4.70551 0.605906,4.87441zm26.889 -3.93189c-0.369685,-0.831496 -0.766535,-1.21417 -0.948425,-2.15433 -0.548031,-2.8252 0.968504,-2.19803 1.04528,-2.2063 0.416929,0.70748 0.272835,1.22717 0.54685,2.13661 0.285827,0.943701 2.00906,4.2378 2.02087,5.82874 -1.68307,-0.138189 -2.03504,-2.19213 -2.66457,-3.60472zm-5.80157 -1.29567c-0.114567,0.845669 -0.680315,1.33228 -1.42205,1.63228 -0.157087,0.933071 -2.28425,3.1937 -3.08976,3.58583 0.161811,0.486614 0.25748,0.424016 -0.224409,0.248031 0.18189,0.511417 0.263386,0.427559 -0.248031,0.245669 0.172441,0.467717 0.239764,0.383858 -0.231496,0.222047 0.167717,0.509055 0.274016,0.454724 -0.226772,0.256299 0.198425,0.507874 0.25748,0.402756 -0.25748,0.230315 -0.220866,0.304724 0.579921,0.311811 -0.598819,0.347244 -1.06063,0.0330709 -0.550394,-0.146457 -0.772441,-0.343701l-4.32283 -0.790157 -1.78465 -0.34252c-0.856299,-1.56024 -1.7811,-2.4437 -1.41732,-4.45276 1.1563,-0.25748 2.04685,-0.187795 3.3248,-0.499606 1.04646,-0.255118 2.13425,-0.582283 3.14173,-0.809055l0.981496 -0.34252c0.466535,-0.480709 1.93937,-1.42441 2.7,-1.47165 -0.120472,-0.475984 -0.196063,-0.385039 0.269291,-0.223228 -0.178346,-0.496063 -0.227953,-0.387402 0.262205,-0.204331 -0.180709,-0.524409 -0.211417,-0.382677 0.301181,-0.183071 0.210236,-0.399213 -0.217323,-0.0519685 0.409843,-0.552756 0.296457,-0.235039 0.106299,-0.0814961 0.51378,-0.204331 -0.00472441,-0.574016 -0.232677,-0.790157 0.66378,-0.714567 0.146457,-0.499606 0.0141732,-0.628346 0.711024,-0.779528 0.131102,-1.09016 0.535039,-0.819685 1.07835,-1.71614 0.596457,-0.983858 0.198425,-1.13858 1.49764,-1.06299l0.223228 4.76929c1.11732,1.03346 -0.523228,2.83346 -1.48228,3.15591zm23.6906 -4.52008c-0.817323,-2.44724 3.63898,-3.1311 3.95315,-0.556299 -0.865748,0.807874 -2.87008,1.28622 -3.95315,0.556299zm-19.3937 -0.72874c-0.385039,-0.970866 -0.0188976,-2.02205 1.09252,-1.81654 0.400394,1.05 -0.0507874,2.01496 -1.09252,1.81654zm-29.3504 -3.15472c0.998031,-0.387402 1.22008,-0.337795 2.30787,0.0507874 0.590551,1.52835 -0.526772,3.25039 -2.18268,2.67756 -0.296457,-0.817323 -0.329528,-1.89567 -0.125197,-2.72835zm11.6693 1.58858c0.265748,0.157087 0.311811,-0.425197 0.218504,0.494882 0.516142,0.607087 0.224409,1.24606 -0.0401575,2.1 -0.73937,0.318898 -2.38701,1.41142 -2.8122,0.533858 -0.530315,0.184252 -0.322441,0.200787 -0.27874,-0.440551l0.135827 -0.190157c-0.61063,-0.591732 -1.24843,-2.69291 -1.29567,-3.6437 0.871654,-0.388583 1.95709,-0.805512 2.94213,-0.71811 0.702756,0.484252 1.10079,0.94252 1.13031,1.86378zm1.35827 -3.0626c0.820866,-0.333071 1.75276,-0.909449 2.54409,-0.375591 0.312992,0.210236 1.00748,1.58858 0.897638,2.06457 -0.372047,1.60039 -3.35079,0.444094 -3.44173,-1.68898zm49.5496 1.04882c0.51378,0.441732 0.522047,0.616535 0.48189,1.41496 0.237402,0.166535 0.242126,-0.239764 0.585827,0.680315 0.250394,0.668504 0.132283,0.558661 0.0909449,1.12441 0.00472441,1.43858 1.35709,4.54606 -1.00394,4.1811 -0.240945,-0.33189 -1.20354,-4.52008 -1.14331,-5.01614 -0.607087,-0.38622 -0.507874,-0.235039 -0.344882,-1.05945 -0.359055,-0.315354 -0.537402,-0.330709 -0.317717,-1.10079 -0.71811,-0.594094 -1.29567,-2.02323 -0.980315,-2.98583 1.68661,-0.695669 2.67992,1.30394 2.6315,2.76142zm-70.1386 -3.65669c0.459449,-0.116929 0.367323,-0.194882 0.244488,0.265748 0.47126,-0.165354 0.424016,-0.324803 0.388583,0.101575 0.833858,0.207874 0.579921,0.190157 1.17874,0.556299 0.100394,0.0614173 0.555118,0.314173 0.572835,0.325984 0.490157,0.346063 0.101575,0.00472441 0.298819,0.335433 0.856299,0.080315 0.970866,0.132283 1.70787,0.679134 0.283465,0.210236 0.538583,0.327165 0.625984,0.66378 0.277559,1.06535 -0.188976,0.791339 -0.388583,0.966142l0.0496063 0.863386c-1.39606,0.0944882 -1.36299,-0.369685 -2.42835,-1.06417 -0.680315,-0.168898 -1.9937,-1.39724 -2.5063,-2.00079 -0.799606,-0.94252 -1.22953,-1.57441 -1.19291,-2.85709 0.987402,0.0295276 1.27795,0.178346 1.44921,1.16457zm42.463 -1.89094c-0.0850394,-0.853937 0.106299,-1.80354 0.669685,-2.40827 1.30157,0.535039 0.413386,2.22638 -0.669685,2.40827zm-18.2457 1.9063c0.440551,-0.720472 0.516142,-0.45 0.896457,-0.937795 0.28937,-0.370866 0.318898,-0.666142 0.751181,-1.16575 0.970866,-1.12205 0.587008,-1.7126 1.4752,-2.21457 0.34252,0.897638 -0.0992126,2.39646 -0.301181,3.42874 -0.224409,1.15039 -0.3,2.19567 -1.53898,2.63268l-1.28268 -1.74331zm8.32913 -3.01772c0.119291,1.12205 -0.570472,2.82874 -1.27087,3.67087 -0.26811,1.44685 -0.872835,2.38346 -2.54055,1.94055 0.0165354,-0.933071 0.373228,-1.65709 0.453543,-2.58661 0.0909449,-1.05709 0.219685,-1.78228 0.272835,-2.88307l0.877559 -0.424016c-0.092126,-1.90512 0.38622,-1.8248 0.594094,-3.43937 1.01693,0.092126 1.79291,-0.148819 1.75748,1.38543 0.334252,0.501969 0.302362,0.545669 0.256299,1.21299 -0.0661417,0.960236 0.0590551,0.559843 -0.400394,1.12323zm12.7441 -2.46496c-1.04291,-1.06417 -1.62874,-2.77795 0.748819,-3.16654 0.683858,0.527953 1.60394,1.40669 1.82953,2.26063 -0.774803,0.757087 -1.50118,1.02756 -2.57835,0.905906zm11.3091 -1.93583c-0.937795,0.206693 -1.33465,0.31063 -2.03268,-0.392126 0.204331,-1.10669 1.88386,-0.888189 2.03268,0.392126zm5.68346 -0.989764c0.43937,-0.153543 0.361417,-0.220866 0.21378,0.219685 0.484252,-0.134646 0.388583,-0.201969 0.212598,0.270472 0.487795,-0.167717 0.399213,-0.238583 0.230315,0.248031 0.487795,-0.180709 0.420472,-0.281102 0.27874,0.217323 0.874016,0.148819 0.894094,0.269291 1.16811,1.1563 0.549213,0.40748 1.02047,0.761811 1.15276,1.48583 0.479528,-0.108661 0.316535,-0.135827 0.133465,0.347244 0.825591,0.614173 0.871654,1.3878 0.705118,2.33858 -1.05472,0.113386 -0.583465,0.238583 -1.28622,-0.583465 -0.565748,-0.661417 -0.565748,-0.355512 -0.708661,-1.16811 -0.498425,0.141732 -0.367323,0.187795 -0.198425,-0.31063l-0.282283 -0.507874 0.0897638 -0.034252c-0.973228,-0.494882 -1.0748,-0.711024 -1.49291,-1.76929l-0.87874 -1.02283c-0.512598,0.17126 -0.461811,0.287008 -0.274016,-0.222047 -0.595276,-0.474803 -0.767717,-0.849213 -0.961417,-1.59803 0.755906,0.142913 1.37717,0.511417 1.89803,0.933071zm-11.772 -2.32795l0.670866 0.556299c0.628346,0 0.563386,-0.170079 0.354331,0.392126 0.572835,-0.225591 0.438189,-0.262205 0.20315,0.291732 0.16063,0.200787 0.415748,0.219685 0.420472,0.974409 0.00944882,1.15157 0.0177165,0.604724 -0.361417,0.805512 -0.124016,0.264567 0.667323,0.472441 -0.53622,0.204331 -0.824409,0.42874 -0.804331,0.328346 -1.74567,0.217323 -0.474803,-0.844488 -1.08307,-2.52283 -0.977953,-3.48425 0.485433,-0.18189 0.45,-0.233858 0.989764,-0.226772 0.903543,0.0129921 0.441732,0.0011811 0.982677,0.269291zm-12.2811 11.9858c-1.10787,-0.237402 -1.12559,-0.98622 -0.959055,-2.11772 0.46063,-3.11575 0.935433,-3.11811 1.33346,-4.79882 0.897638,-3.7937 0.442913,-1.5815 1.76102,-4.20591 0.620079,-1.23307 1.77756,-2.27244 2.73543,-3.21378 0.6,-0.590551 0.774803,-1.15157 1.5,-0.924803 0.0909449,0.18189 0.531496,-0.0129921 -0.19252,0.767717 -0.291732,0.312992 -0.341339,0.193701 -0.775984,0.701575 -2.89961,3.3874 -1.1752,1.63937 -2.31969,3.3437 -1.17874,1.75394 -1.75866,3.49488 -2.33031,5.65157 -0.395669,1.49055 -0.0838583,3.59291 -0.752362,4.79646zm-55.2012 -19.4055c0.928346,0.261024 0.81378,1.65118 1.10669,2.68228 0.786614,2.76142 2.13307,5.63504 2.19921,5.87717 0.113386,0.411024 0.250394,1.32283 0.441732,1.70433 0.465354,0.929528 0.470079,0.19252 0.770079,1.07835l-0.701575 0.275197c-0.442913,-0.545669 -0.933071,-1.87441 -1.41378,-2.60906 -1.5626,-2.39173 -2.71417,-5.99291 -2.40236,-9.00827zm27.2492 1.94409c-0.602362,-0.399213 -0.406299,-0.0507874 -0.458268,-1.27087l0.533858 -0.125197c0.157087,-0.281102 -0.413386,-0.237402 0.416929,-0.285827 0.194882,-0.290551 -0.462992,-0.33189 0.434646,-0.263386 -0.0992126,-0.477165 -0.158268,-0.362598 0.305906,-0.186614 1.0878,-0.747638 2.51811,-0.424016 3.55512,0.421654 -0.034252,1.32165 -0.295276,1.47756 -1.57677,1.81417 -0.947244,0.249213 -1.8626,0.388583 -2.90787,0.400394l-0.303543 -0.504331zm-21.9839 -2.03622l-0.0507874 -1.2378c0.0850394,-0.108661 0.308268,-1.27323 1.14449,-0.185433 0.46063,-0.210236 0.31063,-0.188976 0.103937,0.224409 0.615354,0.644882 0.390945,1.16575 0.790157,2.8311 0.232677,0.969685 0.237402,1.8685 0.487795,2.86654 0.755906,3.01063 1.03583,2.7815 1.3252,3.7122 0.327165,1.05472 -0.0791339,1.17874 -0.172441,1.30512 -0.745276,-0.754724 -2.61732,-4.58268 -2.52402,-5.82402 -0.355512,-0.261024 -0.155906,0.591732 -0.493701,-0.735827 -0.184252,-0.725197 -0.0826772,-0.475984 0.0023622,-1.14213 -0.549213,-0.324803 -0.122835,0.317717 -0.338976,-0.419291 -0.175984,-0.598819 -0.0862205,-0.233858 0.0826772,-0.753543 -0.431102,-0.046063 -0.309449,0.700394 -0.356693,-0.641339zm41.2217 -3.83031l0.657874 0.785433c1.38071,2.60315 1.18701,2.35394 2.02913,5.35512 0.415748,1.48228 1.98425,5.99055 -1.05354,5.65866 -0.250394,-0.81378 -0.368504,-2.08819 -0.609449,-2.70709 -0.427559,-1.10315 -0.336614,-0.135827 -0.575197,-1.04646 -0.216142,-0.818504 0.26811,-2.1378 -0.793701,-4.30039 -0.954331,-1.94055 -0.912992,-1.13031 -0.812598,-2.34094 0.0850394,-1.15157 -0.338976,-0.892913 -0.414567,-2.09646 1.06654,0.17126 0.701575,0.36378 1.57205,0.692126zm-36.9543 -7.45866c-0.424016,0.685039 -0.780709,0.81378 -1.07835,1.3689 -0.347244,0.647244 -0.178346,0.764173 -0.731102,1.40787 -2.94803,-0.877559 -0.28937,-6.78898 0.695669,-7.35354 0.75,0.193701 2.40472,2.28898 2.56654,3.05551 -0.294094,0.698031 -0.766535,1.14449 -1.45276,1.52126zm22.2697 -2.75787c1.35,-0.046063 2.04213,0.799606 2.52874,1.99606 -1.32638,-0.256299 -2.58543,-0.564567 -2.52874,-1.99606zm4.61575 -1.82362c1.60157,0.296457 5.84764,4.92165 5.86299,6.54803 -1.34055,0.15 -1.05591,-0.444094 -1.75276,-1.44567 -1.19173,-1.71614 -3.93189,-4.17283 -4.11024,-5.10236zm-9.0248 -0.207874c0.608268,-0.311811 0.669685,-0.376772 1.29567,0.046063 -0.218504,0.940157 -1.02874,0.829134 -1.29567,-0.046063zm-11.6646 0.676772c-0.552756,0.662598 -1.42323,0.870472 -2.35866,0.644882 -0.762992,-0.542126 -1.09606,-1.68189 -1.38425,-2.14843 -0.259843,-0.422835 -0.0248031,0.0637795 -0.383858,-0.518504 -1.00276,-1.62638 -0.057874,-1.79173 1.56496,-1.49882 0.43937,0.529134 0.954331,1.41969 1.26969,1.7622 0.616535,0.668504 1.05354,0.695669 1.29213,1.75866zm4.21181 -4.87087l0.46063 -0.217323 0.351969 0.597638 1.86142 0.80315c1.00394,0.556299 1.14921,1.06535 0.751181,2.24055 -0.523228,0.217323 -4.27323,0.938976 -4.84016,0.848031 -0.034252,-0.0212598 -2.18622,-3.39213 -2.05866,-4.62756 0.764173,-0.220866 0.934252,-0.214961 1.75748,-0.0909449l1.19882 0.198425c0.0531496,0.0141732 0.137008,0.0496063 0.179528,0.0625984 0.0413386,0.0129921 0.13937,0.138189 0.168898,0.0850394 0.0307087,-0.0543307 0.115748,0.0625984 0.168898,0.100394zm-7.61693 -5.50984c-0.252756,0.223228 -0.281102,0.647244 -1.1622,0.276378 0.140551,0.490157 0.216142,0.400394 -0.263386,0.226772 -0.178346,0.929528 -0.121654,0.488976 -0.972047,0.969685 -0.45,0.255118 -0.700394,0.426378 -1.19528,0.69685 -0.891732,0.486614 -1.38898,1.04764 -2.2878,1.41969 -0.624803,1.02992 -1.06417,0.591732 -1.28386,1.69252 0.103937,0.633071 0.282283,0.608268 -0.290551,0.359055 0.16063,0.419291 0.239764,0.35315 -0.193701,0.238583 -0.170079,1.06417 -0.6,0.197244 -1.14213,1.96654 -0.629528,2.05276 -0.50315,0.175984 -1.77756,4.1811l-0.659055 2.0622c-0.284646,0.745276 -0.518504,4.10787 -0.525591,5.04803 -0.0283465,3.35906 0.553937,4.02165 -0.896457,4.21654 -0.922441,-1.27441 -0.392126,-3.29882 -0.585827,-4.85787 -0.239764,-1.93583 -0.220866,-2.95748 0.514961,-4.6311 0.625984,-1.42677 0.308268,-2.85591 1.28622,-4.14921 1.60748,-2.12598 0.480709,-2.81575 2.01732,-3.19961 -0.057874,-0.359055 -0.152362,-0.298819 0.183071,-0.269291 0.0259843,-0.753543 -0.122835,-0.42874 0.262205,-0.461811 -0.109843,-0.399213 -0.190157,-0.317717 0.217323,-0.266929l0.17126 -0.288189c0.399213,-1.03346 0.282283,-0.0129921 0.607087,-1.47165 -0.83622,0.287008 -1.7622,0.741732 -2.17205,1.52362 -0.392126,0.748819 -0.830315,1.39961 -1.68543,1.65591 0.264567,1.0311 0.0637795,0.304724 -0.279921,0.43937 0.193701,0.507874 0.262205,0.424016 -0.237402,0.218504 -0.229134,0.70748 -0.32126,0.81378 -0.947244,1.22008 0.0496063,1.06299 -1.0878,2.65157 -1.5874,3.75591l-1.47992 3.85394c0.080315,0.304724 -0.135827,8.81811 -0.271654,9.24685 0.61063,0.585827 0.388583,1.01929 0.265748,1.54134l0.00944882 1.85433c0.85748,0.951969 0.0153543,0.505512 0.719291,2.0374 2.21693,4.83071 2.34567,6.12992 5.7437,11.3374 0.615354,0.943701 1.62402,1.8437 2.29606,2.68937 0.488976,0.614173 0.695669,0.830315 1.23661,1.3748 0.556299,0.559843 0.452362,0.740551 1.05236,1.32283 1.52362,1.47756 3.83858,2.93976 5.2063,4.39488 0.981496,0.403937 1.07362,0.611811 1.95354,1.05591l1.39606 0.827953c1.3122,0.833858 1.86614,2.36575 2.25827,4.14213 -1.02756,0.458268 -2.0811,1.39606 -2.43543,2.57835 -0.296457,0.990945 -0.523228,3.69094 -0.0212598,4.56496 0.933071,1.35236 3.07205,0.918898 4.54843,2.08583l1.07598 0.144094c4.06535,0.242126 9.9685,-1.85079 10.9146,-0.793701 9.56575,16.878 2.7,3.20433 2.71535,3.16772 1.01575,-0.478346 2.51457,-0.0413386 3.30827,0.548031l3.29764 0.413386c0.438189,-0.604724 0.304724,-1.18701 1.2189,-1.38543 0.307087,-0.0673228 0.454724,-0.178346 0.727559,0.0755906 0.364961,0.34252 0.127559,-0.0885827 -0.023622,0.426378l0.924803 0.622441c0.0401575,0.817323 -0.0023622,0.217323 -0.402756,1.10551l2.7248 1.15276c1.11378,0.287008 0.448819,-0.277559 1.09843,0.43937l9.8811 1.86732c0.0377953,0.0165354 0.109843,0.069685 0.13937,0.0850394 0.0283465,0.0141732 0.092126,0.0531496 0.127559,0.0909449 0.674409,-0.125197 0.329528,-0.168898 1.07953,-0.100394 1.15039,0.105118 0.630709,0.155906 0.793701,0.348425 0.552756,-0.0779528 0.487795,-0.144094 1.10433,-0.0956693 1.41142,0.111024 0.55748,0.0188976 0.814961,0.341339 0.604724,-0.0141732 0.174803,-0.158268 0.887008,0.0614173 0.961417,0.295276 0.318898,0.0779528 0.708661,0.409843l2.82283 0.281102 0.406299 -1.27677c0.962598,-0.0755906 3.74055,0.95315 4.45866,1.36417 1.15394,-0.185433 2.42126,0.153543 3.62717,0.0248031 1.21299,-0.129921 2.0563,-0.232677 3.34134,-0.265748 4.98071,-0.129921 4.24843,-1.18937 5.94449,-1.28386 0.488976,-0.871654 2.68583,-2.00433 3.69331,-3.53268 0.49252,-0.747638 1.02874,-1.3311 1.41496,-2.15669 0.419291,-0.894094 0.740551,-1.89803 1.41378,-2.48622 0.28937,-5.43661 2.58898,-3.32717 0.00590551,-17.2181 -0.668504,-3.58937 -3.96969,-10.0134 -6.33189,-12.8894 -4.49409,-5.47323 -11.7921,-11.0528 -19.2354,-8.35039 -1.52953,0.556299 -2.39291,0.399213 -3.80079,0.904724 -0.938976,0.336614 -2.57008,1.32874 -3.17362,1.40433 -0.699213,1.04173 -1.52362,1.80472 -2.4378,2.72126 -1.16811,1.17047 -0.797244,2.60197 -2.33504,2.54409l-0.349606 -5.42598c-0.741732,-1.86732 -0.957874,-4.35 -1.85315,-6.13701 -0.937795,-1.87441 -0.767717,-2.39764 -1.11969,-3.13819 -0.57874,-1.21772 -0.274016,0.315354 -1.42677,-2.68583 -0.487795,-1.27087 -2.39528,-3.7748 -3.22913,-5.04449 -0.61063,-0.928346 -3.54685,-3.76063 -3.66024,-4.45039 -0.576378,0 -0.455906,0.11811 -0.231496,-0.435827 -0.51378,0.250394 -0.379134,0.26811 -0.20315,-0.261024 -0.86811,-0.0779528 -0.452362,0.0295276 -1.23071,-0.666142 -3.6874,-3.29055 -3.92953,-3.03898 -7.2874,-5.28425 -1.95945,-1.31102 -2.80394,-1.40787 -4.81181,-2.29488 -1.10787,-0.488976 -4.61575,-1.49291 -5.66339,-1.30039 -0.699213,0.113386 -4.32992,0.140551 -5.30906,0.138189 -1.76693,-0.00354331 -2.68819,1.00748 -4.14685,0.797244z"/>
    <path id="_142041616" class="fil3" d="M109.293 81.6886c1.02874,-0.140551 3.3685,-2.27008 3.44291,-2.36339 0.894094,-1.13386 3.15709,-4.36417 3.07913,-5.8122 -0.673228,0.588189 -0.994488,1.59213 -1.41378,2.48622 -0.38622,0.825591 -0.922441,1.40906 -1.41496,2.15669 -1.00748,1.52835 -3.20433,2.66102 -3.69331,3.53268z"/>
   </g>
  </g>
 </g>
</svg>
