<?xml version="1.0" encoding="UTF-8"?>
<!DOCTYPE svg PUBLIC "-//W3C//DTD SVG 1.1//EN" "http://www.w3.org/Graphics/SVG/1.1/DTD/svg11.dtd">
<!-- Creator: CorelDRAW -->
<svg xmlns="http://www.w3.org/2000/svg" xml:space="preserve" width="3508px" height="1772px" style="shape-rendering:geometricPrecision; text-rendering:geometricPrecision; image-rendering:optimizeQuality; fill-rule:evenodd; clip-rule:evenodd"
viewBox="0 0 3508 1771.72"
 xmlns:xlink="http://www.w3.org/1999/xlink">
 <defs>
  <style type="text/css">
   <![CDATA[
    .fil1 {fill:#4D4948}
    .fil2 {fill:#DA251D;fill-rule:nonzero}
    .fil0 {fill:white;fill-rule:nonzero}
   ]]>
  </style>
 </defs>
 <g id="Layer_x0020_1">
  <metadata id="CorelCorpID_0Corel-Layer"/>
  <polygon class="fil0" points="1412.72,1230.02 1418.71,1230.92 1410.92,1253.7 1402.22,1266.89 1400.42,1272.29 1395.03,1280.98 1383.64,1288.78 1354.86,1327.44 1348.56,1331.94 1338.97,1344.23 1330.88,1344.23 1323.98,1349.63 1324.88,1355.62 1325.78,1360.12 1323.98,1365.22 1323.09,1367.92 1314.39,1373.31 1296.71,1389.8 1291.61,1393.39 1287.11,1402.09 1282.61,1404.79 1273.02,1412.88 1257.14,1417.98 1226.56,1448.85 1181.59,1481.23 1162.41,1488.42 1157.01,1493.52 1145.62,1498.91 1137.83,1502.21 1121.04,1507.61 1017.62,1554.07 1011.32,1558.57 1003.53,1560.37 986.741,1552.27 978.948,1553.17 971.753,1555.87 969.054,1561.27 928.884,1567.26 849.744,1566.36 781.996,1551.37 729.538,1528.59 725.039,1528.59 712.75,1521.7 695.061,1511.21 684.571,1500.71 685.469,1498.02 681.871,1498.91 661.788,1482.13 653.995,1468.04 649.496,1465.34 650.397,1462.94 630.911,1443.46 633.61,1439.86 629.413,1437.46 620.42,1422.47 595.839,1373.31 582.649,1332.84 582.649,1305.56 569.459,1261.8 547.574,1246.81 524.791,1209.93 491.518,1113.41 490.617,1044.76 494.813,1022.88 496.612,1011.49 506.206,992.899 511.601,955.128 522.094,939.242 525.692,918.257 531.688,906.866 533.486,899.97 538.882,894.573 557.166,853.205 566.159,845.411 569.459,838.518 578.451,814.536 594.04,795.351 595.839,792.651 600.333,787.557 604.832,778.563 674.978,686.532 731.034,628.376 734.632,627.478 752.32,609.194 792.787,575.918 821.565,543.244 837.455,536.348 875.226,504.572 948.971,456.31 1030.51,414.942 1039.5,412.544 1043.7,412.544 1105.45,389.46 1108.75,387.962 1112.34,387.962 1114.14,393.057 1116.84,390.361 1115.94,387.061 1135.13,379.867 1267.03,364.878 1267.03,368.476 1328.48,365.779 1329.38,369.377 1353.06,368.476 1359.96,373.871 1365.35,383.465 1361.75,391.258 1360.85,398.452 1355.46,398.452 1347.66,405.349 1346.77,398.452 1342.57,402.65 1336.27,401.752 1330.28,409.844 1332.68,408.947 1336.27,406.246 1344.97,408.045 1344.97,413.441 1337.17,414.342 1335.38,419.436 1327.58,424.833 1317.09,440.421 1319.49,443.121 1319.49,445.817 1317.09,449.414 1311.69,454.512 1271.22,448.516 1194.78,448.516 1194.78,445.817 1192.39,446.718 1106.05,456.31 1085.96,463.505 1073.68,463.505 1070.08,465.003 1064.08,465.904 1050.89,473.098 1040.4,473.996 1027.21,477.295 1009.52,476.695 959.46,502.773 949.868,508.17 939.377,513.565 892.014,541.446 883.918,547.739 880.623,550.439 868.929,562.728 823.364,597.803 811.972,597.803 781.996,628.376 776.902,629.277 774.201,636.472 768.806,643.365 769.707,639.168 768.806,636.472 754.118,649.662 741.826,668.847 731.935,679.338 729.538,683.836 726.838,684.733 712.75,703.919 703.157,708.418 696.86,734.797 674.978,759.378 676.777,766.271 671.382,776.166 640.804,840.015 629.413,895.474 630.311,910.463 628.512,920.954 629.413,927.851 625.817,946.436 625.817,948.235 634.507,956.029 643.203,950.034 646.8,941.04 674.978,882.284 680.974,874.491 682.773,871.791 686.37,869.095 688.169,862.198 694.164,851.407 695.061,839.117 706.453,819.031 710.951,819.031 712.75,815.434 716.348,810.34 718.145,798.949 756.516,747.086 815.57,689.231 817.968,685.634 829.661,675.14 833.858,670.646 845.25,657.456 863.835,643.365 876.124,625.982 891.112,614.289 903.404,606.494 905.803,601.4 933.982,579.217 938.476,575.918 950.77,565.126 986.741,535.451 991.237,537.25 991.237,543.244 962.161,581.913 951.666,587.309 924.389,618.788 895.309,645.164 874.325,669.745 867.433,679.338 867.433,682.934 861.135,687.433 833.858,718.907 826.961,728.499 823.364,732.097 814.672,742.59 807.478,751.584 801.482,761.177 794.288,771.667 755.016,825.328 743.326,848.11 734.632,879.586 733.734,882.284 731.034,889.178 728.636,904.166 718.745,914.061 700.458,976.413 698.659,977.91 695.962,985.104 696.86,996.496 687.268,1037.86 686.37,1077.14 677.675,1113.41 685.469,1224.92 693.263,1270.49 701.359,1290.57 704.956,1295.07 709.152,1301.97 716.348,1316.05 720.544,1321.45 719.643,1322.35 719.643,1339.74 722.343,1344.23 729.538,1349.63 733.734,1350.53 733.734,1354.73 737.331,1353.82 737.331,1361.02 740.929,1366.12 744.224,1373.31 757.414,1395.19 783.794,1416.18 787.391,1419.77 793.387,1428.47 794.288,1432.07 815.57,1434.76 829.661,1448.85 872.527,1465.34 892.014,1465.34 907.602,1462.94 920.792,1468.94 981.346,1470.74 1053.59,1460.25 1056.89,1454.85 1084.17,1450.65 1135.13,1429.37 1155.21,1417.08 1166.9,1415.28 1269.42,1365.22 1297.6,1335.54 1303.9,1328.35 1315.29,1322.35 1339.87,1302.86 1366.25,1275.88 1367.75,1269.59 1372.24,1268.69 1380.04,1265.99 1388.13,1259.1 "/>
  <path class="fil1" d="M719.781 896.569c15.5167,-82.6955 43.4,-194.203 16.0399,-214.905 -81.9915,53.0558 -84.8747,-60.327 -104.312,-51.0703 -35.9529,2.25835 -54.8146,144.024 -77.8493,281.958 -2.82884,16.94 -5.72383,33.8233 -8.71567,50.3794 -1.34414,7.44357 -5.03168,10.9705 -6.41952,18.2581 -1.71384,8.9956 0.0507892,18.9786 -0.383872,27.8266 -0.10276,2.11189 -2.47095,0.563406 -4.46591,3.60013 -1.55202,2.36347 -2.67884,9.13261 -3.64619,12.076 -3.39815,10.3386 -2.42489,22.9969 -4.91711,32.8783 -1.9607,7.77548 1.6725,23.0146 -0.406314,30.2243 -4.16826,14.4655 -14.2434,19.9885 -18.9621,31.65 -3.6084,3.95093 -7.21798,7.80264 -10.8358,11.5551 -2.96704,3.07806 -2.85837,8.40857 -5.83958,11.3579 -5.6376,5.57618 -14.3946,8.61527 -20.1173,13.7509 -1.82014,1.63116 -1.17288,4.4352 -2.91034,6.12424 -2.05165,1.99259 -6.69237,2.66112 -8.77354,4.57103 -1.98196,1.81896 -3.98164,3.60485 -5.99313,5.35177 -40.9019,35.5454 -87.524,56.2319 -145.328,74.0412 52.0176,-24.7721 99.2268,-56.7729 132.817,-109.816 1.9418,-3.06743 0.768925,-7.23333 2.63868,-10.4366 1.89219,-3.24106 5.55374,-4.24267 7.37271,-7.6302 1.68077,-3.12649 2.30678,-5.80651 3.92494,-9.06174 1.67959,-3.38044 2.55718,-9.66531 4.16826,-13.1887 7.85816,-17.1833 14.8824,-36.0674 21.0149,-56.8993 1.15752,-3.93085 4.08558,-6.77741 5.17932,-10.8512 0.760657,-2.83357 -0.28938,-6.86245 0.438205,-9.76689 0.93901,-3.74069 4.6856,-6.25771 5.575,-10.1189 0.95909,-4.16826 -0.936648,-9.69602 -0.0377966,-14.0037 7.95029,-38.1226 13.4745,-81.7683 16.3423,-131.952 -10.7567,-206.805 35.7662,-396.963 152.975,-489.911 2.51702,-1.68313 3.45367,-8.48416 5.89273,-10.1071 17.0794,-11.3744 37.4576,-14.6403 51.4412,-23.3004 11.6638,-7.22152 17.2648,-20.3606 27.5951,-25.749 8.88811,-4.63836 45.6418,-18.8452 81.0159,-15.3927 7.31601,0.714593 -16.0069,-4.77773 -11.2138,-7.21207 5.62461,-2.85601 -14.0426,-4.98443 -10.5334,-6.54236 5.37657,-2.38709 -8.70976,1.36304 0,0 17.2861,-2.70836 68.543,0.923655 84.0762,1.20004 16.8301,0.29883 39.964,-1.49769 55.2977,1.24256 45.9997,8.22549 86.5637,24.9245 129.517,35.0528 30.8078,7.2664 62.8558,11.1583 99.0225,6.12424 25.0249,-20.044 32.0586,-66.9733 31.9098,-69.4277 -1.20713,-19.933 -15.9277,-29.8192 -1.04649,-60.2667 6.22345,-12.7339 -12.6607,-62.1849 -8.04123,-74.8692 0.308279,-0.846881 0.721679,-1.53076 1.25201,-2.02566 0.620101,-0.581123 -1.1339,-2.96349 -0.408676,-3.29303 0.624826,-0.283475 1.86503,-0.0342532 2.54655,-0.157092 0.455922,-0.081499 1.69967,1.47643 2.17331,1.45399 0.791367,-0.0389778 0.799635,-1.62053 1.56502,-1.53903 0.766563,0.0803178 1.52013,0.216149 2.25717,0.395684 2.63277,0.636637 5.08365,1.82014 7.30184,3.00483 0.355525,0.190164 0.718136,0.376785 1.05949,0.561044 1.01578,0.550413 3.48674,3.02019 4.28047,3.49383 0.80436,0.480726 0.0803178,-0.93901 0.889402,-0.41222 0.463009,0.301192 0.931923,0.611833 1.39493,0.926018 2.58789,1.75754 5.16987,3.71352 7.65027,5.76162 0.692151,0.570493 1.92763,1.14453 2.60088,1.72801 0.823258,0.71223 1.09138,1.44454 1.88274,2.16976 0.777193,0.71223 1.1528,2.07055 1.88747,2.78396 0.739397,0.714593 1.95834,0.700419 2.54064,1.50124 1.31934,1.81896 4.97616,9.76216 2.83829,3.04027 -2.46859,-7.75776 8.59165,11.4595 7.2416,13.6056 -2.75443,4.3785 2.4993,-5.01396 9.9913,-17.0061 0.566949,-0.907119 1.14925,-1.83077 1.73628,-2.76034 0.86696,-1.37131 1.79416,-2.28315 2.69537,-3.68045 0.641362,-0.993343 0.654354,-2.83357 1.30635,-3.82573 0.975626,-1.4847 1.13154,0.0507892 2.11543,-1.4032 0.568131,-0.839794 0.917749,-2.9942 1.48234,-3.81274 0.256308,-0.369698 2.1863,-2.09535 2.44143,-2.45914 0.355525,-0.512617 0.364974,0.809084 0.720498,0.307098 0.294105,-0.416944 0.943735,-2.66466 1.2343,-3.06861 0.737034,-1.0276 1.47289,-2.02803 2.18984,-2.98712 7.41759,-9.90862 13.4981,-15.734 13.5536,-8.3944 0.160636,21.3031 -20.7834,65.6504 -6.62268,100.911 37.447,-1.68904 62.2298,15.2061 65.2606,22.1146 3.97573,9.06411 43.7142,19.2208 68.3257,29.6231 2.2241,0.940191 2.77805,1.75872 4.48717,2.45442 1.70794,0.693332 7.14947,-0.272844 8.60818,0.688607 0.81499,0.538602 -0.71223,3.7147 0.0389778,4.24385 1.14571,0.805541 3.0379,1.49179 3.84108,2.29733 0.857511,0.863417 4.85332,3.78793 5.26436,4.65253 0.103941,2.82412 -1.88511,4.12574 -4.19543,4.68796 -7.35381,1.79062 -10.4201,-1.17051 -0.276388,4.90175 1.92763,1.15398 13.9422,18.766 -0.275207,2.54891 -1.02523,-1.17051 -0.877591,1.40202 -1.47171,2.68002 -0.483088,1.03232 -2.46623,3.66391 -1.6725,4.38205 7.78256,7.04435 -2.72136,5.52894 -5.14743,0.537421 -0.212606,-0.438205 3.7714,1.3595 3.45603,1.72683 -0.613014,0.719317 -1.26855,1.39257 -1.95716,2.0174 -0.634275,0.575218 -2.07527,5.36122 -2.77215,5.86202 -0.455922,0.329539 -0.158273,-3.59895 -0.638999,-3.29894 -14.9497,9.29797 -41.3672,4.54741 -61.4833,11.4772 -25.0769,8.63653 -51.844,3.834 -72.0605,24.5796 -38.6447,98.8642 -90.7119,164.644 -118.286,174.468 -2.35402,5.6128 -7.94202,12.6831 -8.75465,20.3074 -0.716955,6.72426 6.53055,15.1175 6.67937,22.8457 0.0720498,3.80329 -3.10051,6.41716 -2.87373,10.3693 0.281112,4.86395 -1.8981,8.79362 -1.44454,13.7769 0.501987,5.51595 3.66627,12.102 4.28992,17.6132 0.419306,3.68872 0.85633,7.36444 1.29572,10.9941 3.88833,32.1082 8.01525,60.8644 2.66939,69.7844 -22.6402,37.7659 -31.9299,81.1269 -48.434,104.032 -5.51358,7.64909 3.12649,-23.6501 0.493719,-30.242 -3.3828,-8.47471 -17.6404,6.21046 -22.6,10.1649 17.8873,-24.1131 23.0205,-52.6909 21.459,-81.0088 -0.360249,-6.53646 -1.07957,-13.0587 -2.07645,-19.5066 -0.760657,-4.91356 1.13862,-10.048 0.0838613,-14.8517 -1.19296,-5.43681 -5.38838,-10.537 -6.86954,-15.7647 -1.70675,-6.0262 -6.66402,-12.1528 -8.61763,-17.7928 -3.41115,-9.85193 -0.926018,-15.9478 -4.47654,-24.1509 -1.70085,-3.93085 -6.46204,-10.4708 -8.06249,-13.9186 -6.93923,-14.9497 -12.5331,-25.0651 -13.2926,-27.6258 -22.7996,3.38398 -56.7103,3.84935 -71.8195,17.7833 17.9959,31.7374 9.82712,36.3781 1.91109,38.2844 10.3043,14.8505 16.0541,25.5269 18.3042,32.9362 -21.7602,21.5476 -36.1395,7.85343 -70.8439,-8.8893 -9.89091,51.8168 -35.7072,111.173 -53.4858,129.562 -37.0454,38.3152 -76.3161,66.9308 -101.684,96.059l6.34393 13.6564 4.13283 9.31687 2.29496 4.75056 1.24611 9.48459 7.82627 15.6006 0.203157 8.70504 4.1222 8.82315 0.721679 5.84312 1.12209 3.06035 -0.620101 3.43477 3.92376 20.3133 -1.34651 5.27499 0.559863 3.45012 2.87845 11.3579 -0.852787 11.274 0.0295286 1.48352 -0.360249 3.08633 0.655535 4.55331 -2.34457 52.8763 -5.88801 36.4749 -1.11736 1.278 -1.8733 11.4843 -6.52464 23.0595 -2.28788 19.7842 -4.16944 6.73607 -5.90218 21.7933 -15.1139 37.3714 -19.8432 36.8175 -2.75325 3.2446 -1.57683 1.09492 -17.1786 24.784 -0.848062 1.42328 -1.35241 0.937829 -2.0044 -1.44336 -0.310641 1.7162 1.19886 1.00397 -5.33169 7.70933 -45.6465 40.042 -0.936648 -1.35123 -22.3851 17.0475 -1.278 -1.11618 -8.66252 6.51519 -3.99699 -0.227961 -4.53205 -2.19693 -0.681521 -3.86589 -1.53903 -2.93869 2.02803 -1.40792 1.12917 -4.623 2.13787 2.35402 0.481907 -2.67175 2.59852 -1.30398 0.141737 -4.6041 -0.666166 0.962633 -0.647267 1.95243 -3.73714 1.591 -1.40674 -2.02566 2.69301 -2.37056 -0.653173 -2.38591 1.52131 -4.05959 -0.126382 -8.59519 -1.60399 -0.386234 -0.705143 -1.01342 -0.0366155 -1.97842 0.698057 -3.32138 16.7687 -8.30699 28.7195 -19.9424 0.703962 1.01342 0.666166 -0.962633 29.9349 -26.1281 5.66949 -7.9432 4.61709 -3.20681 0.960271 -1.50124 2.01858 -1.90282 3.07924 -6.1455 3.70643 -3.07334 4.09503 -4.68088 6.80221 -4.38913 12.0052 -22.8599 2.19693 -4.52851 2.53356 -4.76592 10.5216 -22.8315 1.39848 -4.47536 0.535059 -1.87448 1.18587 -7.66681 7.97036 -25.0663 4.27929 -2.97176 3.28358 -19.3094 1.68195 -1.66778 -0.864598 -3.40524 0.230323 -3.99936 0.757114 1.81069 1.04177 0.779556 2.07645 -8.7889 -0.388597 -10.413 0.98035 -6.52346 -0.270482 -2.31504 0.778374 -1.04177 0.287018 -10.8842 2.43198 -4.19188 -4.51788 -11.554 1.80951 -14.945 -2.47568 -2.12134 -0.552776 -5.12499 -5.17105 -31.9641 -10.1874 -23.8107 -4.24976 -5.39547 -2.05992 -4.41276 -2.13669 -2.3552 -3.49737 -7.92194 -0.470096 -0.674434 -5.2998 -0.661441 -1.70203 4.52024 0.994524 4.31827 4.7423 29.427 -0.219693 4.49189 0.0283475 1.48352 -0.647267 1.95243 1.12209 3.05798 0.563406 5.61871 2.86782 4.85451 0.960271 10.5169 -1.68904 1.1717 0.262214 1.82251 -0.0212606 2.85246 2.29615 4.75056 -0.88704 29.4944 -7.09277 37.1435 0.0366155 1.97842 -1.65478 6.9912 -0.40277 2.78632 -0.838613 7.92548 -3.30721 10.1437 -0.081499 9.73854 -2.58198 8.30227 -2.58434 6.13605 0.428756 2.54064 -4.80017 15.6856 -0.827982 2.4119 -1.80361 7.26168 -5.77344 20.5354 -2.15795 0.497262 -1.56384 -2.25362 0.836251 -22.1146 2.53474 -4.76356 2.03747 -18.9444 4.04306 -17.4975 1.47053 -14.71 0.0874047 -5.40374 -0.93901 -1.35123 1.19296 -3.33083 2.03747 -18.9432 0.0874047 -5.40256 0.413401 -2.29024 0.527972 -6.20928 0.355525 -5.25728 -0.249222 -5.16869 -0.0330721 -5.81832 0.754752 -30.405 -1.55202 -11.6107 -4.94545 -14.0934 -0.366155 -1.24847 -0.785461 -3.29421 -3.00838 -6.25771 1.13508 -6.29786 -9.39719 -28.1963 0.284656 -1.03232 -0.863417 -3.4076 -3.30957 -4.0466 -7.18845 -18.0432 -12.4599 -22.5244z"/>
  <path class="fil0" d="M2228.15 1362.92l0.172447 0.445292 -0.285837 1.19059 -0.116933 0.735853 -0.211425 0.674434 -0.674434 0.904757 -0.966176 2.08236 -0.787824 0.848062 -1.25201 0.844519 -1.73392 1.81424 -1.25556 0.904757 -0.287018 0.383872 -0.385053 0.520885 -0.28938 0.173628 -0.501987 0.15473 -3.2765 2.16031 -0.558681 0.26812 -0.28938 0.229142 -0.558681 0.173628 -0.403952 0.501987 -5.02931 2.10008 -4.80017 1.52368 -6.26361 -0.0566949 -5.41437 -1.36895 -2.93042 -1.40674 -2.3682 -1.81306 -0.406314 -0.498443 -0.287018 -0.233867 -0.388597 -0.787824 -0.346075 -0.271663 -0.324815 -0.633094 -0.9083 -1.29335 -0.0566949 -1.13508 -0.403952 -0.388597 -0.0413401 -0.11339 -0.403952 -1.02169 -0.346075 -2.58198 0.463009 -4.41276 0.961452 -2.42843 -0.0555138 -0.791367 1.11618 -2.19811 2.37174 -3.73714 2.04338 -2.63986 0.961452 -0.579942 1.11973 -1.7918 1.63707 -1.30753 0.229142 0.112209 2.81703 -2.75561 5.08719 -3.56351 0.500805 -0.328358 0.904757 -0.519704 -0.0555138 -0.116933 -0.675615 -0.211425 -2.98593 -0.848062 -1.87093 -1.42564 -0.674434 -0.731129 -0.328358 -0.558681 -0.519704 -0.501987 -0.211425 -0.463009 -0.57758 -2.13787 0.905938 -3.74069 0.674434 -0.82562 0.230323 -0.407495 0.173628 -0.11339 0.383872 -0.445292 0.520885 -0.40277 0.44411 -0.388597 0.11339 -0.0566949 0 -0.674434 0.909481 -1.25201 0.383872 -0.116933 0.347257 -0.26812 0.290562 -0.173628 0.211425 -0.500805 0.614195 0 2.33394 -2.10008 1.28981 -0.61892 0.383872 -0.287018 0.637818 -0.327177 1.75282 -0.905938 0.943735 -0.0602384 -0.11339 0.792548 -1.46698 0.674434 0.0602384 0.441748 -1.17642 0.519704 -2.21701 2.25481 -0.441748 0.61892 -0.173628 0.285837 -0.0602384 0.290562 -0.266939 0.098035 -0.73231 1.58037 -0.172447 0.459465 -0.116933 0.501987 -0.0566949 1.07839 0.173628 0.61892 0.172447 0.848062 0.324815 0.614195 -0.0566949 0.581123 0.0566949 0.328358 0.407495 0.519704 0.15473 0.151187 1.57919 1.42919 2.21701 0.999248 1.11618 0.233867 0.961452 0.5575 2.83593 0.347257 2.48513 -0.347257 0.098035 0.230323 0.173628 0.233867 0.961452 2.63986 -0.441748 0.750027 -0.0602384 0.328358 -0.904757 0.5575 -1.42564 -0.0377966 -4.62654 1.05949 -4.06432 1.754 -4.50961 3.45012 -1.58037 0.848062 -0.230323 0.385053 -0.674434 0.617739 -0.290562 0.403952 -1.58037 1.63589 -1.35005 1.02287 0 0.561044 -1.28863 1.46344 -1.19532 2.54537 -0.290562 0.5575 -0.26812 0.615376 -0.9083 2.42843 -0.347257 2.71781 0.173628 1.81069 0.233867 1.35005 0.328358 0.674434 0.346075 1.46344 0.173628 0.0602384 0.173628 0.576399 0.328358 0.731129 0.459465 0.73231 0.501987 0.445292 0.500805 0.848062 1.92763 1.92645 1.46226 0.558681 0.290562 0.500805 0.385053 0.46419 -0.15473 0.614195 0.735853 0.233867 0.5575 -0.116933 0.173628 0 0.15473 0 0.173628 0.116933 1.30753 0.558681 1.64061 0.40277 0.558681 0.271663 0.961452 0.0566949 0.44411 0.347257 1.63707 -0.173628 1.29335 0.40277 1.13508 -0.285837 0.791367 -0.116933 0.290562 -0.116933 2.98593 -0.558681 0.347257 -0.463009 1.90755 -0.672071 0.73231 -0.0602384 1.80951 -1.69258 0.964995 -0.445292 3.89187 -3.60485 0.674434 -0.961452 0.407495 -0.290562 0.844519 -1.17642 1.85204 -3.21626 0.964995 -0.75357 0.287018 -0.82562 0.791367 -0.754752 0.441748 0.46419zm2.60088 -56.467l-0.5575 1.69731 -0.787824 0.904757 -0.116933 2.14142 -2.19811 -0.327177 -0.347257 -0.233867 -0.173628 -0.173628 -0.848062 -0.11339 -0.501987 0.0566949 -0.51616 0.116933 -5.85966 0.848062 -3.68045 1.58037 -2.37174 1.40674 -0.558681 0.0555138 -3.56706 2.10126 -0.942554 0.848062 -1.13862 0.617739 -1.69258 1.46344 -0.271663 0.403952 -0.347257 0.271663 -0.40277 0.172447 -0.88704 0.73231 -0.9083 0.5575 -0.576399 0.290562 -0.558681 0.675615 -0.5575 -0.0566949 -1.52368 1.98314 -0.347257 0.500805 -0.328358 0.347257 -0.519704 0.385053 -0.271663 0.40277 -0.11339 0.271663 -0.233867 0.290562 -0.285837 0.558681 -0.15473 0.576399 -0.403952 0.731129 -0.561044 0.214968 -0.347257 -0.098035 0.116933 -0.519704 -0.116933 -0.904757 1.40674 -2.48985 0.734672 -0.787824 0.173628 -0.5575 1.69258 -2.02566 0.46419 -0.28938 0.211425 -0.347257 0.579942 -0.942554 0.328358 -0.116933 0 -0.11339 1.92763 -1.69612 0.497262 -0.230323 0.46419 -0.562225 1.85085 -1.25201 0.230323 -0.0944916 0.904757 -0.9083 0.233867 -0.230323 0.501987 -0.383872 5.588 -3.22098 2.08118 -0.961452 1.07839 -0.519704 0.5575 -0.501987 0.403952 -0.116933 3.16311 -1.57919 3.83518 -1.28981 0.675615 -0.407495 0.633094 -0.26812 0.5575 -0.173628 0.966176 -0.463009 2.3115 -0.15473 0.674434 0.098035 0.290562 0.230323 0.26812 0.848062 0.232686 0 -0.0602384 0.731129zm46.5796 75.95l0.501987 0.558681 -0.328358 0.0602384 0.271663 0.112209 -0.5575 0.388597 -0.735853 0 -0.848062 -0.791367 -1.01815 -0.385053 -1.06303 -1.36895 -1.25201 -0.848062 -1.34651 -0.501987 -0.791367 -1.07839 -2.65876 -1.79062 -0.233867 -0.581123 -0.0944916 -0.0555138 0.26812 -0.211425 -0.441748 -2.21701 -0.791367 -1.11618 -0.173628 -1.81424 0 -0.848062 0.173628 -0.615376 -0.11339 -0.791367 -1.08193 -3.83518 -0.614195 -3.45012 0.116933 -0.674434 -0.116933 -1.25201 -0.347257 -2.02094 0.46419 -12.5875 -0.233867 -2.32922 -0.441748 -1.23312 -1.19532 1.57919 -2.7001 6.43724 -0.346075 0.5575 -0.347257 0.57758 -0.787824 1.4658 -0.388597 0.789005 0.328358 0.271663 -4.44937 7.91839 -0.116933 0.270482 -0.558681 1.40674 -1.13862 2.15677 -0.15473 0.116933 0 0.445292 -0.11339 0.5575 -1.75282 2.719 -0.116933 0.11339 -0.230323 0.445292 -0.5575 0.731129 -0.675615 1.80951 -0.233867 0.0602384 -0.731129 1.52013 -0.5575 0.46419 -0.347257 1.63943 -1.69731 3.10051 -1.02169 1.11973 -1.11618 0.112209 -0.407495 0.562225 -1.34532 0.904757 -1.69731 -0.15473 -0.385053 0.15473 -0.233867 0.0566949 -0.285837 0 -0.61892 -0.11339 -0.500805 -0.44411 0 -0.558681 -0.287018 -1.46698 -0.445292 -5.81714 0.328358 -0.0566949 -0.271663 -0.562225 0.15473 -0.961452 -0.0566949 -3.15956 -0.5575 -1.64061 0.346075 -1.754 -0.463009 -2.8312 0.0566949 -2.08118 0.0602384 -0.558681 0 -1.25556 0.11339 -0.614195 0.346075 -4.0655 -0.519704 -1.75636 0.116933 -0.385053 0.28938 -2.8879 -0.232686 -0.735853 0.28938 -0.614195 -0.28938 -1.69731 0.172447 -9.03812 0.173628 -0.0944916 0.388597 -1.48588 0.904757 -0.791367 5.81832 -1.28981 0.735853 0.791367 0.229142 1.40674 -0.0555138 2.03984 -0.116933 1.12091 0.116933 0.229142 -0.347257 0.501987 -0.61892 2.10008 -0.346075 1.02169 -0.271663 0.830345 -0.173628 0.459465 -0.520885 5.41909 -0.383872 1.34532 -0.173628 2.60206 -0.173628 0.407495 -0.15473 0.5575 0.0413401 0.230323 -0.098035 2.37174 0.558681 8.92119 -0.347257 1.46698 0.173628 0.26812 0 1.48588 0.173628 0.15473 0.233867 2.48395 -0.0602384 0.694513 0.153549 0.327177 0.520885 0.347257 0.791367 0.0566949 1.46344 -0.848062 0.445292 -0.787824 0.230323 -0.347257 0.229142 -1.23312 1.29335 -1.36895 1.69731 -2.75679 0.0566949 -0.406314 0.116933 -0.11339 1.96424 -2.52647 0.693332 -2.15677 1.84849 -3.2765 1.19532 -1.40674 1.63943 -3.89187 0.0566949 -0.116933 0.328358 -0.617739 0.46419 -1.40674 0.173628 -0.403952 0.497262 -0.5575 0.562225 -0.61892 0.285837 -0.904757 0.792548 -2.60206 1.07839 -2.3115 1.61699 -5.08955 1.42919 -2.42843 3.04263 -1.52013 0.445292 -0.0602384 0.633094 -0.173628 2.37174 -0.383872 0.211425 1.75282 -0.327177 0.558681 -0.11339 0.387415 0.11339 0.520885 0.674434 4.33598 -0.11339 0.347257 -0.0602384 1.07839 -0.500805 1.23312 0.327177 4.79663 -0.327177 1.58392 0 0.904757 -0.11339 0.285837 -0.0602384 1.90873 0.674434 2.31504 0.848062 9.26844 0.849243 5.64823 0.290562 0.961452 0.210244 1.46344 0.116933 2.19811 0.403952 1.13862 0.440567 0.848062 0.407495 0.73231 0.328358 0.848062 0.961452 2.3115 1.75282 3.33319zm37.8699 -46.5194l0.347257 0.0377966 -0.173628 1.54258 -0.328358 1.05949 -0.173628 0.459465 -0.229142 0.15473 -0.116933 -0.15473 0 2.31504 -0.385053 0.11339 -0.290562 -0.230323 -0.385053 -3.2765 -0.964995 -1.02169 -0.459465 -0.385053 -0.271663 -0.346075 -3.62375 -0.385053 -5.00805 1.58037 -3.85644 2.19811 -1.34651 1.17288 -1.08193 0.848062 -2.69655 1.58037 -0.116933 0.233867 -0.403952 0.0566949 -4.79899 5.08601 -0.385053 0.271663 -0.403952 0.961452 -1.23312 1.81424 -1.19532 2.60088 0.347257 1.34651 -0.0602384 0.407495 0.0602384 0.26812 0.173628 0.28938 0.501987 0.966176 0.848062 0.942554 1.34651 0.693332 5.14625 -0.519704 6.08998 -2.19929 1.58037 -0.285837 2.15677 -0.849243 3.72179 -1.00279 3.21626 -0.346075 0.233867 0.116933 0.500805 -0.116933 1.13508 0.172447 3.22098 1.69731 0.614195 1.02169 0 1.61817 -0.290562 0.346075 0.233867 0 0.287018 1.69731 -1.3654 3.50682 -1.29335 1.73392 -0.558681 1.54258 -4.12456 5.588 0 0.0944916 -0.614195 0.637818 -5.14743 4.16235 -2.93042 1.98314 -2.77451 1.41029 -1.63707 0.287018 -3.60485 1.23312 -3.90959 0.290562 -2.08118 -0.173628 -0.909481 -0.445292 -0.383872 -0.285837 -1.48234 -0.290562 -0.15473 -0.385053 -1.81424 -0.173628 -1.46226 -0.5575 -0.230323 -0.407495 -0.0602384 -0.558681 1.81424 -0.787824 0.848062 -0.0602384 1.63589 -0.961452 1.69731 0.460646 0.942554 -0.0566949 1.19532 0.44411 2.48513 0.11339 0.388597 0.173628 0.0566949 0.116933 0.787824 -0.0566949 0.636637 -0.0602384 1.96542 -0.0566949 1.4658 -0.731129 1.36895 -0.233867 2.25481 -0.848062 1.90873 -0.441748 1.63589 -1.02169 1.02169 -1.13508 1.40674 -0.791367 1.81069 -2.93042 1.5225 -1.13508 1.36895 -2.19811 0.385053 -2.54537 -0.11339 -1.34651 -0.116933 -0.327177 -0.15473 -0.520885 -1.02169 -1.17642 -2.54182 0 -2.71781 0.787824 -1.754 1.00279 -1.35005 0.173628 -1.69612 0.966176 -3.10051 1.1339 -2.08118 0.445292 -0.617739 0.173628 -0.290562 0.0566949 -0.347257 -0.230323 -0.999248 0.173628 -0.636637 0.26812 -2.42843 0.346075 -4.00881 0 -2.42843 -1.63589 -0.500805 -0.290562 -0.347257 -0.385053 -0.0944916 -0.229142 -0.519704 -1.46698 -0.173628 -1.19532 0.0566949 -0.615376 0 -0.44411 0.731129 -3.09932 2.48513 -4.29937 0.290562 -0.383872 0.115752 -0.849243 3.27768 -4.58875 0.731129 0 0.848062 -1.84731 1.40674 -1.13862 0.0566949 -0.347257 0.347257 -0.211425 0.674434 -0.904757 8.74874 -7.342 3.15956 -2.04338 4.33598 -2.02448 3.00956 -0.230323 0.961452 -0.271663 0.44411 -0.0566949 0.441748 0.211425 0.233867 0.347257 1.13508 0.40277 0.791367 1.00397 0.328358 1.69612 -0.271663 0.520885 -0.40277 0.271663 0.0555138 0.40277 0.46419 -0.0566949 0.0377966 0.173628zm12.9489 28.0014l-1.13862 0.558681 -1.46344 1.69612 -0.964995 0.498443 -0.347257 0.579942 -0.26812 0.615376 -0.40277 0.791367 -0.445292 0.440567 0 1.08311 -0.0566949 0.285837 -0.290562 0.445292 -0.44411 0.614195 -0.287018 1.19532 0.230323 0.501987 0.271663 1.02169 0.750027 0.675615 -0.0566949 -0.290562 0.848062 0.0602384 0.441748 -0.214968 0.500805 -0.57758 0.173628 -0.617739 0 -0.441748 0.116933 -0.28938 0.73231 -2.13905 0.285837 -0.791367 0.388597 -0.633094 0 -0.0602384 0.230323 -0.26812 0.173628 -0.576399 0.327177 -0.947278 1.69731 -2.54537 0.459465 -0.961452 -0.172447 -0.290562 -0.403952 -0.153549 -0.501987 0.153549 -0.383872 0.46419 0 0.116933zm26.7494 -10.6787l-0.0602384 -0.5575 -1.05949 -0.792548 -0.789005 -0.731129 -0.848062 -0.230323 -2.48513 -0.230323 -2.77451 0.615376 -0.966176 0.40277 -1.115 0.501987 -0.46419 0.290562 -0.385053 0.116933 -4.24149 2.08118 -0.385053 0.459465 -0.347257 0.271663 -0.674434 0.230323 -0.520885 0.230323 -0.327177 0.328358 -0.789005 0.617739 -0.115752 0.116933 -0.173628 0.230323 -0.211425 0.230323 -0.637818 0.500805 -2.13787 2.48513 -0.229142 0.501987 -0.271663 0.848062 -0.57758 0.519704 -0.116933 0.445292 -0.787824 1.69258 -0.328358 0.290562 -0.346075 0.675615 -0.501987 0.848062 0.116933 1.46344 -0.674434 1.17642 -0.233867 1.63589 0.172447 2.27725 0.735853 1.46344 0.67089 0.385053 0.562225 1.19532 1.40674 0.964995 1.59809 0.211425 2.37174 -0.15473 2.81349 -1.07839 0.500805 -0.407495 0.905938 -0.26812 2.3115 -1.36777 2.33394 -2.08236 0.323634 -0.172447 0.290562 -0.271663 3.66155 -4.46827 0.290562 -0.328358 0.5575 -0.520885 0.347257 -0.500805 0.904757 -1.46344 0.946097 -2.21701 0.460646 -0.791367 0.271663 -0.558681 0 -0.290562 0.346075 -0.497262 0.501987 -1.64061 -0.0602384 -0.5575 0.173628 -0.290562 0.233867 -0.328358 0 -2.8879 -0.173628 -0.61892zm22.0248 23.4351l0.328358 0.0566949 0 0.501987 -0.558681 0.40277 -0.5575 0.445292 -2.83239 1.92645 -2.25481 0.904757 -0.501987 0.098035 -0.116933 -0.210244 -1.07839 -0.0614195 -1.5225 -1.25083 -1.87093 -2.87018 -0.885859 -0.964995 -0.693332 -1.80951 -1.28981 -2.42843 -0.403952 -0.501987 -0.098035 -0.5575 -0.576399 -0.520885 -0.0602384 -0.388597 -0.328358 -0.961452 -0.11339 -1.29335 -0.964995 -1.80951 -0.173628 -1.81069 -0.328358 -0.500805 -0.285837 -1.02169 -0.116933 -1.02287 -0.792548 -0.904757 -0.266939 -0.098035 -0.290562 0.0377966 -0.347257 0.407495 0 0.385053 -0.15473 0 0 0.172447 -0.285837 0.675615 -2.48867 3.95211 -2.3115 2.38591 -0.403952 0.830345 -2.7001 2.2737 -0.848062 1.23312 -1.30871 0.674434 -0.791367 0.964995 -2.02094 1.28981 -1.13862 0.347257 -0.558681 0.501987 -1.11973 0.463009 -0.347257 0.385053 -0.731129 0.173628 -1.98314 1.40556 -1.17642 0.347257 -1.87093 1.02169 -3.89069 1.17642 -1.07839 0 -0.73231 0.520885 -1.17642 -0.347257 -2.48867 -1.46698 -0.961452 -0.848062 -0.445292 0 -0.633094 0.328358 -0.791367 0.693332 -0.789005 -0.0566949 -0.44411 0.211425 -1.52368 -0.5575 -2.48513 -1.29335 -0.848062 -1.69376 0.328358 -3.56706 0.346075 -0.440567 -0.0566949 -0.347257 1.81069 -2.42843 0.328358 -0.271663 0.519704 -0.848062 1.02169 -1.81069 3.66155 -3.45012 0.441748 -0.210244 0.116933 -0.173628 0.848062 -0.520885 0.519704 -0.848062 1.11618 -0.675615 1.35005 -1.34887 1.92763 -1.07839 0.5575 -0.385053 0.116933 -0.116933 0.116933 -0.290562 0.403952 -0.211425 0.791367 -0.693332 0.211425 -0.0566949 0.230323 -0.445292 0.346075 -0.731129 1.52368 -0.848062 0.558681 0 1.75282 -1.07839 1.29335 -0.385053 0.787824 -0.5575 0.675615 -0.233867 0.0566949 -0.230323 2.16031 -0.848062 0.116933 -0.0566949 0.67089 -0.385053 1.29335 -0.636637 2.71545 -0.61892 0.791367 -0.440567 3.60485 0.229142 2.10008 1.11973 0.885859 0.789005 0.520885 0.848062 0.385053 0 -0.849243 -1.40674 -0.266939 -2.10008 -0.675615 -1.29335 -0.964995 -2.65876 -0.848062 -1.46226 -1.69376 -1.52368 -2.42843 -0.230323 -0.964995 0.634275 -4.12574 4.73875 -1.57919 1.35005 -0.675615 0.501987 -0.440567 0.0566949 -0.347257 -0.0566949 -0.328358 -0.328358 0 -0.285837 1.00397 -0.849243 0.0555138 -0.233867 0.0566949 -0.266939 0.347257 -0.520885 1.17642 -1.40674 1.52368 -1.29335 1.48588 -1.98314 5.06711 -4.56631 1.19532 -0.173628 1.58037 -0.964995 0.328358 -0.211425 0.346075 -0.0566949 0.385053 0.11339 0.347257 0.328358 1.23312 0 2.21701 2.25481 0.942554 1.52368 1.25201 3.12177 0.44411 0.501987 1.42564 4.00762 0.0566949 0.441748 0.214968 0.693332 0.170085 1.79534 0.500805 1.01815 -0.0377966 0.561044 0.271663 0.849243 0.11339 0.787824 0.290562 1.02169 0.791367 2.92924 0.558681 0.789005 0.112209 1.57919 0.909481 1.64061 0.11339 2.10008 0.617739 1.11618 0.787824 2.89262 1.90873 4.18125 0.693332 0.791367 0.214968 0.385053 0.731129 0.848062 0.11339 1.13508 2.60206 1.96542 1.52368 -0.230323 0.290562 -0.0944916 0.172447 -0.116933 0.615376 0zm13.7025 -5.31988l0.116933 0.28938 -0.614195 3.71824 -0.290562 3.68399 -2.13787 0.904757 -3.2765 0.675615 -0.290562 -0.0602384 -0.26812 0 -0.116933 -0.558681 -0.5575 -3.50682 -0.233867 -1.07839 0 -0.211425 0 -0.693332 -0.173628 -1.52368 0.173628 -0.383872 -0.173628 0 -0.173628 -2.99066 -0.0566949 -0.287018 0.173628 -0.233867 -0.271663 -0.229142 0.271663 -2.13787 -0.173628 -0.233867 -0.15473 -0.789005 0.0566949 -1.90755 -0.519704 -7.45893 0.28938 -1.92645 -0.229142 -0.829164 0 -0.403952 -0.116933 -0.229142 0.28938 -3.54934 0.11339 -0.674434 -0.11339 -0.633094 -0.28938 -2.6434 0.40277 -1.19178 0 -6.43724 -0.11339 -0.500805 0.230323 -0.675615 0.73231 -0.693332 1.90755 -0.885859 0.233867 -0.0602384 0.230323 -0.0566949 0.5575 0.116933 1.58037 -0.233867 0.5575 3.45012 -0.323634 4.9549 0.172447 0.904757 -0.406314 2.04338 -0.0566949 2.3682 0 1.05949 -0.173628 0.694513 0.230323 3.04617 -0.558681 2.48513 0.0566949 2.98593 0.562225 0.445292 0.173628 -0.0566949 0.787824 -0.271663 0.791367 -0.0566949 0.501987 -0.617739 0.173628 -0.848062 0.346075 -0.230323 0.26812 0.230323 0.347257 0.674434 -0.290562 2.37174 0.116933 3.50682 -0.441748 3.15956 0.151187 0.61892 -0.0566949 2.71427 -0.328358 0.61892 0.173628 0.328358 0.211425 -0.0602384zm0.792548 -39.5624l1.19532 1.05949 -0.46419 0.28938 -0.0944916 -0.28938 -0.173628 0 -0.848062 1.57919 -0.173628 0.0566949 -0.116933 0.290562 0.0566949 0.385053 0.290562 1.13862 -0.116933 0.614195 -0.441748 1.42564 0.0377966 0.500805 -0.15473 1.08311 -0.40277 4.00762 0.40277 2.98712 -0.285837 1.28863 0.285837 2.94932 -0.0566949 1.58037 -0.229142 0.0602384 -0.290562 0 0 -0.290562 -0.946097 -1.40674 0.387415 -1.69731 -0.172447 -0.519704 0 -0.0944916 -0.388597 -1.69731 -0.0566949 -0.28938 0.116933 -0.501987 0.211425 -0.961452 0 -1.64061 0.519704 -11.0024 -0.0566949 -2.39064 -0.173628 -0.558681 -0.116933 -0.383872 -0.229142 -0.347257 -0.445292 -0.116933 -0.441748 0.0602384 -0.346075 0.173628 -0.388597 0.230323 -1.13508 0.5575 -1.07839 -0.674434 -0.735853 -0.961452 -0.383872 -0.501987 -0.287018 -0.173628 0 -0.346075 -1.02169 -2.48985 0.675615 -2.19339 4.46827 -2.48513 1.4658 -0.328358 1.69376 1.90755 0.233867 1.19178 1.35005 2.75679 -0.290562 0.734672 -1.00279 1.01815 -0.46419 0.792548 0 1.46226 0.562225 1.19532 0.0566949 0.966176zm22.2575 9.01922l0.0944916 -0.328358 -0.674434 -0.347257 -4.0655 3.16074 -0.791367 1.07839 -0.15473 0.383872 -0.806722 0.637818 -0.946097 1.23312 -0.347257 0.5575 -0.173628 0.233867 -0.211425 0.230323 -1.48116 1.92645 -0.675615 1.67841 0.11339 4.06432 0.46419 0.230323 0.383872 -0.347257 -0.0566949 -0.0933104 0.230323 -0.0566949 1.17642 -2.60206 0.290562 -0.501987 0.614195 -0.848062 0.0602384 -0.173628 0.347257 -0.791367 0.614195 -1.63707 0.445292 -0.290562 0.520885 -0.961452 0.266939 -0.946097 0.905938 -0.693332 0.172447 -0.26812 0.735853 -0.791367 0.403952 -0.615376 1.23193 -1.36895 0.116933 -0.210244 0.441748 -0.407495 0.116933 -0.230323 0.290562 -0.385053 0.346075 -0.519704zm22.7382 6.22109l0.173628 -0.112209 -0.173628 -0.849243 -0.558681 -0.731129 -0.463009 -1.75282 -0.0944916 -0.0614195 -0.57758 -0.731129 -0.674434 -1.19532 -2.25481 -2.46623 -0.61892 -0.290562 -0.173628 -0.229142 -1.40556 -0.501987 -0.173628 -0.230323 -0.347257 -0.0566949 -0.904757 -0.791367 -0.675615 -0.116933 -0.383872 0.407495 0 0.385053 -0.347257 0 -1.05949 -0.792548 -1.36895 -0.173628 -0.271663 0.173628 -0.285837 -0.0566949 -0.61892 -0.15473 -0.230323 -0.173628 -1.13862 0.173628 -2.02094 0.830345 -0.500805 0.28938 -0.46419 0.343713 -0.173628 0.173628 -0.0566949 0.15473 -0.791367 0.848062 -0.15473 0.0602384 -0.694513 0.961452 -1.23193 1.46698 -1.07839 0.614195 -2.25599 2.65876 -0.383872 0.501987 0 0.173628 -1.36895 1.98669 -0.15473 0.385053 -0.173628 0.28938 -0.173628 0.173628 -1.19532 1.17288 -0.731129 1.98669 -0.674434 1.06067 -0.615376 0.787824 -0.173628 0 -0.233867 1.08193 -0.440567 1.58037 0 0.346075 -0.233867 0.849243 0.347257 0.497262 -0.0566949 0.445292 0.731129 0.229142 0.173628 0.233867 2.02448 1.40674 0.57758 0.287018 0.15473 0 0.28938 -0.0566949 0.347257 -0.173628 0.942554 0.403952 1.19532 3.04617 -3.04617 0.501987 -0.787824 0.5575 -2.04456 0.290562 -0.848062 0.347257 -0.0566949 1.46226 0.290562 0.445292 0.5575 1.13508 0.961452 1.86975 0.290562 0.441748 0.173628 0.407495 1.28981 1.57919 0.388597 0.15473 0.904757 0.173628 0.787824 0.287018 1.19532 1.17642 1.90873 0.0602384 2.04338 0.519704 2.65758 -0.346075 0.61892 -0.116933 1.02169 0.229142 1.35005 -0.904757 0.497262 -0.116933 0.637818 -0.285837 0.674434 -0.328358 0.501987 -0.290562 0.558681 -0.328358 1.19532 -0.731129 0.383872 -0.347257 0.520885 -0.346075 0.271663 -0.0377966 0.731129 -0.904757 0.290562 -0.347257 0.787824 -0.735853 0.731129 -0.787824 0.735853 -0.731129 0.285837 -0.290562 0.445292 -0.731129 0.403952 -0.558681 0.229142 -0.290562 1.64061 -2.54537 1.90873 -4.21905 -0.0614195 -0.230323 0.520885 -1.40556 0.61892 -1.64061 0.383872 -2.42843 0.173628 -1.07839 0.173628 -0.501987 -0.0566949 -0.961452 -0.290562 -0.617739 -0.0944916 -0.403952 -0.0602384 -1.40674 -0.173628 -0.500805 -0.112209 -0.694513 -0.233867 -0.214968zm3.95093 5.35885l-0.0555138 0.0602384 -0.792548 2.19457 0 0.731129 -0.328358 0.675615 -0.229142 0.406314 -0.116933 0 0.463009 1.34651 -2.8312 4.91711 -0.173628 0.230323 -0.15473 0.500805 -0.519704 0.849243 -1.35005 1.57919 -1.52368 2.19929 -0.287018 0.519704 -1.17642 1.28981 -0.848062 1.30871 -1.02169 0.791367 -0.73231 0.942554 -0.229142 0.0602384 -0.116933 0.230323 -1.11973 1.07839 -0.8457 0.964995 -0.232686 0.328358 -0.73231 0.674434 -5.47106 3.04381 -1.81424 0.40277 -2.31032 0.909481 -4.85687 -0.0602384 -2.3115 -0.501987 -2.10008 -0.844519 -1.7351 -1.64061 -0.46419 -0.636637 -0.848062 -0.844519 -0.674434 -0.675615 -0.558681 -1.52368 -0.46419 -0.617739 -0.0555138 -0.230323 0 -0.614195 -0.61892 -1.75754 0 -1.90401 -0.173628 -0.520885 0.173628 -2.08118 0 -0.964995 0.116933 -0.675615 0.501987 -1.98314 0.172447 -1.17642 -0.172447 -0.791367 -0.211425 -0.347257 -0.581123 -0.440567 -0.383872 -1.46698 -1.02287 -1.52013 0 -2.54537 0.173628 -1.02169 0.116933 -0.40277 0.501987 -1.40674 1.35005 -2.63986 2.42843 -3.33673 2.94814 -2.94932 0.324815 -0.731129 0.346075 0 0.0602384 -0.211425 1.02287 -0.904757 2.81231 -2.16031 0.731129 -0.385053 0.73231 -0.519704 6.72662 -3.37099 1.754 -0.347257 0.500805 -0.233867 1.07839 -0.385053 1.00279 -0.40277 1.25201 0.229142 1.58037 -0.5575 1.35005 0.116933 1.98314 0.731129 0.674434 1.58037 1.17642 0.848062 0.57758 0.558681 0.617739 0.383872 0.287018 0.520885 0.501987 0.388597 0.173628 0.51616 0.791367 0.791367 0.328358 0.328358 0.346075 0.57758 1.13508 1.23312 0.501987 -0.230323 -0.173628 -0.558681 0.116933 -0.290562 0.230323 -0.210244 0.383872 -0.116933 0.407495 0.0602384 0.501987 0.323634 0.500805 0.966176 0.807903 1.75282 0.383872 1.87093 0 1.11618 0.233867 0.731129 0.11339 1.58392 -0.173628 0.229142 0.0602384 1.07839 -0.290562 2.75679 -0.173628 0.230323zm113.431 24.4001l1.75282 3.37099 -0.116933 1.13862 -0.67089 0.11339 -0.500805 -0.173628 -0.694513 -0.501987 -0.500805 -0.961452 -0.173628 -0.28938 -1.11973 -0.385053 -0.173628 -0.576399 -0.961452 -1.06421 -1.64061 -0.519704 -0.787824 0 -0.904757 -0.385053 -0.0602384 -0.173628 -0.441748 -0.173628 -0.791367 -0.674434 -0.789005 -0.26812 -0.463009 -0.346075 -0.271663 -0.173628 -0.230323 -0.385053 -0.5575 -0.46419 -0.230323 -0.270482 -0.347257 -0.751208 -0.734672 -1.85085 -0.789005 -1.19178 -0.172447 -0.964995 -0.385053 -0.615376 -0.562225 -1.23666 -0.0566949 -0.787824 -1.07839 -2.10008 -0.731129 -2.19811 -0.116933 -1.90873 -0.385053 -0.750027 -0.406314 -4.45292 -0.0566949 0 -0.230323 -0.441748 0 -0.791367 -0.328358 -2.3304 -1.63943 1.36895 -0.173628 0.173628 -0.173628 0.731129 -0.0944916 0.385053 -2.04338 4.35488 -1.07839 1.57919 -0.271663 0 -0.11339 0.116933 -0.791367 1.96542 -1.35005 1.63943 -0.403952 1.07839 -0.614195 0.385053 -0.46419 0.61892 -0.500805 0.633094 -0.347257 0.791367 -1.00279 0.675615 -0.173628 0.230323 -0.0566949 0.327177 0 0.347257 -0.290562 0 -0.942554 0.731129 -0.290562 0.558681 -0.40277 0.346075 -1.58037 1.1776 -1.46698 0.519704 -1.17288 1.23312 -1.75636 1.19532 -0.287018 -0.230323 -0.233867 0.11339 -1.84731 -0.520885 -0.403952 0.0614195 -0.0602384 -0.271663 -0.15473 0 -0.750027 -1.19532 -0.445292 -1.96542 0.347257 -2.2737 -0.173628 -2.02448 0.562225 -2.48513 0.614195 -0.5575 -0.0566949 -0.520885 -0.210244 0 0.327177 -2.87254 0.347257 -0.287018 -0.0602384 -0.173628 0.445292 -0.388597 0.172447 -0.285837 -0.383872 -1.05949 0.0944916 -0.173628 0.28938 -0.792548 1.13508 -2.98593 -0.172447 -0.693332 0.346075 -0.271663 1.46698 -4.85687 0.26812 -0.848062 0.173628 -0.403952 0.28938 -0.558681 0.173628 -0.172447 0 -0.501987 0.26812 -0.403952 0.347257 -1.00279 0.791367 -1.13862 0.0566949 -0.844519 0.328358 -0.562225 0.116933 -0.731129 1.5225 -3.56351 0.230323 -0.9083 0.290562 -0.441748 0.15473 -0.848062 0.173628 -0.230323 0.285837 -0.500805 0.849243 -2.25481 -0.290562 -0.520885 -0.385053 -0.328358 -0.519704 0.0566949 -1.05949 2.02566 -0.403952 1.30753 -2.31504 2.99066 -0.403952 0.787824 -0.0944916 0.501987 -0.848062 1.40556 -0.116933 0.290562 -0.46419 0.675615 -0.440567 0.0566949 0.230323 0.28938 -2.3115 3.33437 -0.792548 1.40556 -0.40277 0.0566949 -0.501987 0.61892 -2.21701 3.71824 -0.787824 1.92645 -2.19811 2.81231 -0.0566949 0.116933 -0.558681 0.73231 -0.233867 0.579942 0 0.11339 -2.13787 2.93042 -0.290562 -0.230323 -0.383872 0.0566949 0.116933 0.233867 0.15473 0 -0.116933 0.5575 -0.328358 0.675615 -0.173628 0.40277 -0.614195 0.26812 -0.407495 0.347257 -0.15473 0.28938 -0.173628 0.61892 -2.3115 3.66155 0.116933 0.230323 -1.86975 1.81306 -0.173628 0.614195 -1.02169 0.966176 -0.501987 0.0566949 -0.287018 0.172447 -0.44411 1.52368 -0.46419 0.26812 -0.0944916 0.347257 -0.463009 0.848062 -0.789005 0.500805 0.0566949 0.403952 -0.327177 0.328358 -0.347257 0.519704 -1.92645 2.19929 -0.211425 0 -0.173628 0.383872 -0.46419 0.694513 -0.328358 -0.230323 -0.172447 0.0566949 -0.403952 1.05949 -0.15473 0.290562 -0.347257 0 -0.327177 0.112209 -0.230323 0.290562 -0.347257 0.385053 -0.500805 0.346075 -1.58037 0.792548 -0.233867 0 -0.497262 0.211425 -0.173628 0.0566949 -0.347257 -0.151187 -0.098035 -0.290562 -0.290562 -0.5575 -0.0566949 -0.407495 0.558681 -0.441748 0.233867 -0.674434 0.285837 -1.36895 0.445292 -0.271663 0.230323 -0.693332 0.731129 -0.942554 2.1426 -5.26082 0.519704 -0.791367 0.26812 -0.441748 0.579942 -0.407495 1.05949 -3.04263 3.77494 -6.43606 -0.0377966 -0.61892 2.19811 -4.29464 0.230323 0 0 -0.501987 0.385053 -0.116933 -0.11339 -0.346075 0.787824 -1.7918 0.290562 0 3.77848 -7.19081 0.844519 -1.34532 0.233867 -0.328358 0.787824 -1.81424 0.116933 -0.459465 0.211425 -0.61892 0.346075 -1.69612 1.1398 -0.615376 0.210244 -1.40556 0.290562 -0.46419 0.385053 -0.787824 0.230323 -0.328358 0.519704 -1.08193 1.23312 -2.75325 -0.173628 -0.173628 0.233867 -0.463009 1.34651 -3.22098 -0.173628 -0.210244 0.964995 -1.98432 0.46419 -0.44411 -0.233867 -0.287018 1.64061 -6.55299 0 -0.445292 0.112209 -0.230323 -0.112209 -1.57919 0.112209 -0.501987 -0.112209 -0.693332 0.229142 -0.441748 -0.964995 -2.719 -1.13508 -1.00279 -1.17642 -0.230323 -1.92645 0.173628 -0.904757 0.904757 -0.558681 0 -0.290562 0.098035 -0.327177 0.230323 -1.19532 0.46419 -0.11339 0.211425 -0.501987 0.519704 -0.561044 0.328358 -0.460646 0.173628 -0.791367 0.5575 -0.173628 0.290562 -0.615376 0.558681 -3.48674 2.48395 -0.637818 0.347257 -0.445292 0.271663 -0.459465 0.230323 -0.15473 0.5575 -1.31225 0.46419 -1.754 1.57919 -0.0933104 0.385053 -0.520885 0.520885 -0.674434 0.731129 -0.347257 0.233867 -2.19811 1.84731 -0.26812 0.233867 -0.116933 0.230323 -1.02169 0.674434 0 0.441748 -0.347257 0.290562 -1.85085 1.28863 -0.0566949 0.173628 -0.290562 0.675615 -0.67089 0.579942 -0.61892 0.73231 -0.674434 0.731129 -0.460646 0.61892 -0.734672 0.40277 -0.615376 1.23312 -0.463009 0.116933 0 0.501987 0 0.346075 -0.558681 0.558681 -1.40556 0.674434 -0.173628 -0.116933 -2.81349 3.73714 -1.31225 2.08118 -0.731129 1.81424 -0.290562 0.0566949 -0.731129 0.964995 -0.15473 0.15473 -0.403952 0.519704 -0.383872 1.69376 -0.966176 1.63943 -0.116933 1.46344 -0.285837 0.675615 -0.116933 0.229142 -0.445292 0.445292 -0.497262 0.791367 -0.0602384 0.287018 -0.520885 0.328358 0.290562 3.45012 -0.445292 3.66155 -0.459465 0.173628 -0.116933 -0.328358 -1.02169 -0.46419 -0.211425 -0.614195 -0.290562 -0.290562 -0.5575 -1.79062 -0.116933 -0.290562 -0.230323 -0.173628 -0.328358 -0.230323 -0.904757 -1.28981 -0.173628 -1.69612 0.61892 -0.173628 0.229142 -0.271663 -0.5575 -0.347257 0.731129 -1.90755 3.21626 -5.588 0.61892 -0.520885 0.116933 -0.440567 0.904757 -0.849243 1.40674 -2.04338 0.0566949 -0.0566949 0.617739 -0.674434 0.403952 -0.558681 1.96424 -3.2765 1.02169 -1.02169 0.385053 -0.501987 0.693332 -0.791367 0.271663 -0.287018 0.964995 -1.40556 6.14668 -6.43724 0.347257 -0.233867 0.116933 -0.211425 0.323634 -0.346075 0.116933 -0.347257 0.403952 -0.15473 0.674434 -0.576399 2.02566 -1.7351 1.25083 -1.69612 1.85204 -1.25201 0.576399 -0.385053 0.61892 -0.46419 0.674434 -0.674434 0.520885 -0.347257 0.5575 -0.440567 4.33716 -3.33792 0.459465 -0.172447 0.909481 -0.672071 1.46226 -0.9083 0.328358 0 0.576399 -0.328358 0.173628 -0.173628 0.211425 0 0.116933 -0.229142 4.91356 -2.54182 0.0602384 -0.15473 0.5575 -0.116933 -0.116933 0.271663 0.290562 0 -0.116933 -0.445292 0.347257 -0.116933 0.328358 -0.0566949 0.229142 -0.116933 0.675615 -0.327177 3.2198 -1.07839 2.15677 0.28938 1.29335 0.675615 0.11339 0.173628 0.173628 0 0 0.383872 0.214968 0.116933 0.459465 0 0.385053 0.615376 0.519704 0.173628 0.0614195 0.500805 0.440567 0.347257 0.388597 1.40674 0.287018 0.731129 0 0.290562 0.346075 1.80951 -1.02169 4.00881 -0.287018 0.561044 -0.214968 0.0566949 0.15473 1.02169 -0.0566949 0.441748 -0.270482 0.407495 -0.520885 0.383872 0.116933 0.849243 -1.17642 3.04263 -0.230323 1.19532 -0.116933 0.173628 -0.173628 0.271663 -0.848062 1.25083 -0.787824 2.25599 -2.02448 3.2765 -0.287018 1.35005 -1.17642 2.36701 -0.61892 0.792548 -0.459465 1.25201 -0.328358 0.787824 -0.0602384 0.214968 -0.787824 1.07839 -0.792548 1.92645 -1.69258 2.81349 -0.233867 0.46419 -0.40277 0.266939 0 0.46419 -4.56749 8.57393 -0.327177 0.347257 -0.347257 0.792548 -0.501987 0.848062 -0.576399 0.731129 -0.15473 0.445292 -3.50682 6.49275 -0.347257 0.849243 0 0.172447 0 0.173628 0.460646 0.615376 1.29335 -1.07839 1.98314 -2.98712 4.9738 -6.72662 0.211425 -0.501987 0.290562 -0.346075 0.0555138 -0.211425 0.116933 -0.0566949 4.39386 -6.60969 0.172447 -0.173628 0.347257 -0.290562 1.7918 -2.25481 1.5225 -2.63986 0.290562 -0.290562 0.173628 -0.519704 0.67089 -0.942554 0.407495 -0.403952 0.0944916 -0.271663 2.31504 -3.73596 0.230323 -0.0614195 0.229142 -0.172447 0.116933 -0.385053 0.385053 -0.230323 5.0305 -6.99828 0.290562 -0.173628 0.440567 -0.112209 1.40674 -1.85204 0.636637 -0.520885 0.328358 -0.266939 1.25201 -0.637818 0.791367 -0.731129 0.385053 -0.173628 0.520885 -0.328358 0.440567 -0.229142 0.501987 -0.675615 0.791367 -0.116933 0.731129 -0.500805 0.290562 -0.230323 0.287018 0 0.328358 0.0566949 0.28938 0.230323 0.116933 0.270482 0 0.0566949 -0.0602384 1.46698 -0.5575 1.30871 -0.290562 1.07839 -0.173628 0.674434 -0.230323 0.388597 -1.11618 2.42843 -0.406314 0.520885 -0.0566949 0.210244 -0.0566949 0.347257 -0.0413401 0.501987 -0.287018 0.67089 -3.95211 8.42392 -0.115752 0.173628 -0.230323 0.674434 -0.230323 0.904757 -0.214968 0.385053 -0.173628 0.407495 -1.19178 3.33319 -0.561044 0.942554 -0.11339 0.520885 -0.445292 0.617739 -0.0566949 0.173628 0 0.211425 0.0566949 0.229142 -0.116933 0.290562 -0.285837 0.441748 -0.098035 0.964995 -0.460646 0.848062 -0.233867 0.501987 -0.210244 0.904757 0.153549 0.675615 -0.617739 3.17846 -0.904757 2.87254 -0.26812 0.230323 0 0.675615 -0.116933 3.10287 0 0.787824 -0.173628 0.290562 0.116933 2.869 0.328358 1.1398 0.576399 0.5575 0.211425 0.0602384 0.637818 0.0566949 0.440567 -0.403952 0.290562 -0.327177 0.0566949 -0.233867 2.48867 -2.98712 1.11618 -0.961452 0.230323 -0.848062 0.617739 -0.735853 0.614195 -0.787824 0.637818 -0.290562 -0.173628 -0.383872 0.230323 -0.787824 0.271663 -1.36895 1.46226 -0.947278 -0.323634 -0.229142 -0.0602384 -0.347257 0.904757 -0.964995 1.58037 -3.16074 1.00279 -4.00762 0.290562 -0.441748 0.614195 -2.42843 1.08193 -1.40556 0.848062 -1.93117 0.230323 -0.173628 0.116933 -0.112209 0.0944916 -0.098035 0.230323 0 0.233867 0 1.46226 -0.73231 2.60206 -2.15677 1.64061 -0.271663 0.173628 0.0377966 0.885859 0.754752 0 0.210244 0.173628 0.460646 0 8.01997 0.40277 1.7918 0.271663 3.56233 0.694513 3.56706 0.0366155 0.0566949 0.11339 0.211425 -0.150005 0.46419 0.0933104 0.328358 0.290562 0.791367 0.287018 0.633094 1.05949 5.18523 0.734672 1.07839 0.789005 2.98593 1.13862 2.42843 1.13508 1.64061 0.0602384 0.787824 0.266939 0.0602384 0.116933 1.07839 0.403952 0.385053 0.61892 0.617739 0.229142 0.173628 0.328358 0.347257zm8.59755 -12.8733l-1.13862 0.558681 -1.46344 1.69612 -0.964995 0.498443 -0.347257 0.579942 -0.26812 0.615376 -0.40277 0.791367 -0.445292 0.440567 0 1.08311 -0.0566949 0.285837 -0.290562 0.445292 -0.44411 0.614195 -0.287018 1.19532 0.230323 0.501987 0.271663 1.02169 0.750027 0.675615 -0.0566949 -0.290562 0.848062 0.0602384 0.441748 -0.214968 0.500805 -0.57758 0.173628 -0.617739 0 -0.441748 0.116933 -0.28938 0.73231 -2.13905 0.285837 -0.791367 0.388597 -0.633094 0 -0.0602384 0.230323 -0.26812 0.173628 -0.576399 0.327177 -0.947278 1.69731 -2.54537 0.459465 -0.961452 -0.172447 -0.290562 -0.403952 -0.153549 -0.501987 0.153549 -0.383872 0.46419 0 0.116933zm26.7494 -10.6787l-0.0602384 -0.5575 -1.05949 -0.792548 -0.789005 -0.731129 -0.848062 -0.230323 -2.48513 -0.230323 -2.77451 0.615376 -0.966176 0.40277 -1.11618 0.501987 -0.463009 0.290562 -0.385053 0.116933 -4.24149 2.08118 -0.385053 0.459465 -0.347257 0.271663 -0.674434 0.230323 -0.520885 0.230323 -0.327177 0.328358 -0.789005 0.617739 -0.116933 0.116933 -0.172447 0.230323 -0.211425 0.230323 -0.637818 0.500805 -2.13787 2.48513 -0.230323 0.501987 -0.270482 0.848062 -0.57758 0.519704 -0.116933 0.445292 -0.787824 1.69258 -0.328358 0.290562 -0.346075 0.675615 -0.501987 0.848062 0.116933 1.46344 -0.675615 1.17642 -0.232686 1.63589 0.172447 2.27725 0.735853 1.46344 0.67089 0.385053 0.562225 1.19532 1.40674 0.964995 1.59809 0.211425 2.37174 -0.15473 2.81349 -1.07839 0.500805 -0.407495 0.905938 -0.26812 2.3115 -1.36777 2.33394 -2.08236 0.323634 -0.172447 0.290562 -0.271663 3.66155 -4.46827 0.290562 -0.328358 0.5575 -0.520885 0.347257 -0.500805 0.904757 -1.46344 0.946097 -2.21701 0.460646 -0.791367 0.271663 -0.558681 0 -0.290562 0.346075 -0.497262 0.501987 -1.64061 -0.0602384 -0.5575 0.173628 -0.290562 0.233867 -0.328358 0 -2.8879 -0.173628 -0.61892zm22.0248 23.4351l0.327177 0.0566949 0 0.501987 -0.5575 0.40277 -0.5575 0.445292 -2.83239 1.92645 -2.25481 0.904757 -0.501987 0.098035 -0.116933 -0.210244 -1.07839 -0.0614195 -1.5225 -1.25083 -1.87093 -2.87018 -0.885859 -0.964995 -0.693332 -1.80951 -1.28981 -2.42843 -0.403952 -0.501987 -0.098035 -0.5575 -0.576399 -0.520885 -0.0602384 -0.388597 -0.328358 -0.961452 -0.11339 -1.29335 -0.964995 -1.80951 -0.173628 -1.81069 -0.328358 -0.500805 -0.285837 -1.02169 -0.116933 -1.02287 -0.792548 -0.904757 -0.266939 -0.098035 -0.290562 0.0377966 -0.347257 0.407495 0 0.385053 -0.15473 0 0 0.172447 -0.285837 0.675615 -2.48867 3.95211 -2.3115 2.38591 -0.403952 0.830345 -2.7001 2.2737 -0.848062 1.23312 -1.30871 0.674434 -0.791367 0.964995 -2.02094 1.28981 -1.13862 0.347257 -0.558681 0.501987 -1.11973 0.463009 -0.347257 0.385053 -0.731129 0.173628 -1.98314 1.40556 -1.17642 0.347257 -1.87093 1.02169 -3.89069 1.17642 -1.07839 0 -0.73231 0.520885 -1.17642 -0.347257 -2.48867 -1.46698 -0.961452 -0.848062 -0.445292 0 -0.633094 0.328358 -0.791367 0.693332 -0.789005 -0.0566949 -0.44411 0.211425 -1.52368 -0.5575 -2.48513 -1.29335 -0.848062 -1.69376 0.328358 -3.56706 0.346075 -0.440567 -0.0566949 -0.347257 1.81069 -2.42843 0.328358 -0.271663 0.519704 -0.848062 1.02169 -1.81069 3.66155 -3.45012 0.441748 -0.210244 0.116933 -0.173628 0.848062 -0.520885 0.519704 -0.848062 1.11618 -0.675615 1.35005 -1.34887 1.92763 -1.07839 0.5575 -0.385053 0.116933 -0.116933 0.116933 -0.290562 0.403952 -0.211425 0.791367 -0.693332 0.211425 -0.0566949 0.230323 -0.445292 0.346075 -0.731129 1.52368 -0.848062 0.5575 0 1.754 -1.07839 1.29335 -0.385053 0.787824 -0.5575 0.675615 -0.233867 0.0555138 -0.230323 2.16149 -0.848062 0.116933 -0.0566949 0.67089 -0.385053 1.29335 -0.636637 2.71427 -0.61892 0.792548 -0.440567 3.60485 0.229142 2.10008 1.11973 0.885859 0.789005 0.520885 0.848062 0.383872 0 -0.848062 -1.40674 -0.26812 -2.10008 -0.674434 -1.29335 -0.964995 -2.65876 -0.849243 -1.46226 -1.69258 -1.52368 -2.42843 -0.230323 -0.964995 0.634275 -4.12574 4.73875 -1.57919 1.35005 -0.675615 0.501987 -0.440567 0.0566949 -0.347257 -0.0566949 -0.328358 -0.328358 0 -0.285837 1.00397 -0.849243 0.0555138 -0.233867 0.0566949 -0.266939 0.347257 -0.520885 1.17642 -1.40674 1.52368 -1.29335 1.48588 -1.98314 5.06711 -4.56631 1.19532 -0.173628 1.58037 -0.964995 0.328358 -0.211425 0.346075 -0.0566949 0.385053 0.11339 0.347257 0.328358 1.23312 0 2.21701 2.25481 0.942554 1.52368 1.25201 3.12177 0.44411 0.501987 1.42564 4.00762 0.0566949 0.441748 0.214968 0.693332 0.170085 1.79534 0.500805 1.01815 -0.0377966 0.561044 0.271663 0.849243 0.11339 0.787824 0.290562 1.02169 0.791367 2.92924 0.558681 0.789005 0.112209 1.57919 0.909481 1.64061 0.11339 2.10008 0.617739 1.11618 0.787824 2.89262 1.90873 4.18125 0.693332 0.791367 0.214968 0.385053 0.731129 0.848062 0.11339 1.13508 2.60206 1.96542 1.52368 -0.230323 0.290562 -0.0944916 0.172447 -0.116933 0.615376 0zm-3.38989 -59.9726l0.440567 0.229142 -0.150005 0.61892 -1.58392 1.80951 -0.287018 0.233867 -0.233867 0.230323 -1.51895 1.73392 -3.72179 2.37174 -2.48513 1.01815 -1.92645 0.233867 -3.60485 -1.02169 -0.173628 -0.173628 -0.347257 -0.327177 -4.73993 -2.54537 -3.71824 -0.230323 -2.77451 0.403952 -6.76442 2.08118 -1.69731 0.964995 -0.904757 0.347257 -0.233867 -0.0566949 -0.211425 -0.233867 -0.173628 -0.287018 1.81424 -1.85085 1.96424 -1.54258 0.230323 -0.26812 0.5575 -0.561044 1.64061 -0.460646 0.347257 -0.674434 0.327177 -0.116933 0.230323 -0.0566949 0.230323 -0.116933 2.08118 -1.23312 1.35005 -0.347257 0 -0.172447 0.290562 -0.098035 0.848062 -0.347257 4.12101 -0.904757 3.27768 0.0602384 0.116933 0.229142 0.787824 0.0566949 2.08118 1.11973 0.675615 0.0566949 0.346075 0.173628 0 0.230323 0.562225 0.116933 1.28981 1.00279 2.8312 1.02169 1.69731 -0.290562 1.07839 0.116933 3.77848 -1.11973 2.25481 -1.42446zm20.1019 27.1144l0.440567 -1.36895 -1.69258 0.966176 -2.81703 2.54064 -0.287018 1.19532 0.11339 0.385053 0.675615 0.116933 1.40556 -1.58037 0.116933 -0.0566949 0.558681 -0.674434 1.48588 -1.52368zm23.8757 16.9388l0.848062 0 -0.519704 1.11973 -0.271663 0.519704 -0.403952 0.942554 -1.63589 1.754 -0.0602384 0.233867 -0.942554 1.02169 -5.93525 5.12499 -0.849243 0.617739 -0.383872 0.460646 -1.13862 0.848062 -0.290562 0.328358 -0.324815 0.346075 -0.233867 0.116933 -0.383872 0.11339 -1.81069 1.58037 -5.5313 3.2198 -1.69612 0.614195 -0.849243 0.173628 -0.40277 0.173628 -1.7918 0.562225 -0.519704 0.173628 -1.46698 0.500805 -3.38989 0.403952 -2.75679 0.0377966 -2.21701 -0.789005 -1.17642 -1.34887 -0.787824 -0.558681 -1.81424 -2.60206 -0.787824 -4.12456 0.674434 -2.81349 -0.0602384 -1.19532 1.81424 -5.91635 4.06432 -7.8617 -1.07839 -1.90755 0.0566949 -2.21701 1.19532 -2.08236 1.58037 -2.13787 1.96424 -2.21701 3.74069 -3.15956 2.02448 -1.35005 0.520885 -0.445292 0.440567 -0.229142 2.93042 -2.13905 0.519704 -0.463009 0.73231 -0.441748 3.60485 -1.86975 4.91238 -1.81424 2.19929 -0.266939 1.75282 0.327177 0.57758 0.287018 1.57919 1.08193 0.271663 2.81349 -0.445292 1.86621 -2.3115 4.80017 -0.787824 1.17642 -0.519704 0.46419 -0.675615 0.67089 -3.77848 3.95211 -1.5225 0.731129 -3.27768 2.42843 -6.60969 2.92924 -2.65876 0.637818 -0.383872 0.0944916 -0.290562 0.0602384 -0.5575 -0.0602384 -1.35005 -0.0944916 -0.637818 -0.173628 -0.0944916 -0.904757 1.67841 -1.02169 1.3654 -1.35005 1.29335 -0.403952 0.904757 -0.734672 5.08601 -0.904757 1.52368 -0.501987 4.9738 -2.71545 1.79062 -2.08118 1.19532 -2.719 0.230323 -1.46226 -0.11339 -2.60206 -1.81306 -1.35005 -2.37174 -0.0566949 -1.01815 0.347257 -1.46698 1.01815 -0.501987 0.328358 -0.633094 0.617739 -0.501987 0.230323 -1.57919 1.64061 -1.58037 1.69258 -0.617739 0.674434 -0.849243 0.966176 -1.40674 1.35005 -1.75282 2.36701 -0.403952 0.46419 -0.327177 0.211425 -0.792548 0.964995 -1.30871 1.69376 -0.44411 1.02169 -1.40674 1.40556 -2.77569 5.82304 -1.35005 4.68324 0 1.1339 -0.229142 1.29335 -0.230323 4.35606 0.787824 1.79062 1.02169 1.42564 1.19532 1.11973 1.23312 0.904757 0.347257 0.173628 0.61892 0.26812 1.28863 0.290562 4.85687 0.116933 4.35488 -1.29335 4.62773 -2.48513 1.80951 -1.63707 0.385053 -0.290562 0.406314 -0.28938 5.06829 -3.77494 0.403952 0 -0.0566949 -0.290562 0.285837 -0.500805 2.25481 -1.96542 3.95211 -4.06786zm39.468 -34.1103l0 -0.961452 -0.463009 -1.35005 -0.675615 -0.904757 -0.0566949 -0.792548 -0.116933 -0.500805 0.173628 -1.92763 -0.116933 -0.440567 -0.385053 -1.31225 0.116933 -1.05949 -0.346075 -0.520885 -0.445292 -0.327177 -0.520885 -0.230323 -0.323634 -0.0602384 -0.407495 0.290562 -0.173628 0.5575 0.0602384 0.388597 0.230323 0.693332 -0.116933 0.0944916 -0.11339 0 0.173628 0.290562 0.173628 -0.0602384 0.11339 0.46419 0 0.674434 0.15473 0.501987 0.346075 2.60088 0.675615 1.13508 -0.0566949 2.93042 0.0566949 0.173628 0.731129 0.848062 0.347257 0.098035 0.445292 -0.214968 0.519704 -1.07839zm4.44937 6.4963l0.233867 0.11339 -0.173628 3.33319 -0.346075 -0.229142 -0.098035 -0.290562 0 -0.904757 -0.290562 0.28938 -0.0566949 -0.0555138 -0.347257 -1.35005 0.0566949 -0.849243 0.290562 -0.0566949 0.116933 -0.561044 0.173628 -0.0566949 -0.290562 -0.173628 -0.173628 -0.230323 -0.0566949 -0.271663 0.11339 -1.02169 0.0602384 -0.173628 -0.290562 -0.440567 -0.211425 -0.173628 -0.28938 -1.40674 0.172447 -0.173628 0 -0.406314 0 -0.211425 0.501987 0 0.230323 -0.0566949 0.173628 0.26812 -0.11339 0.116933 0.440567 1.19532 -0.0566949 1.23312 0.347257 1.63589 -0.116933 0.9083zm1.98787 3.60131l0.0566949 1.54258 -0.905938 4.45292 -0.346075 -1.29335 0.614195 -5.20294 0.347257 0 -0.11339 0.406314 0.347257 0.0944916zm0.999248 -5.01042l0.0602384 1.06303 -0.385053 1.42564 -0.791367 1.00279 0 0.346075 -0.57758 0.287018 0.11339 -0.787824 0.407495 -0.173628 -0.233867 -1.13862 0.116933 -1.58037 0.445292 -0.904757 -0.214968 -0.674434 0.214968 -0.61892 -0.271663 -0.287018 -0.230323 -1.17642 -1.17642 -2.15677 0.15473 -0.44411 1.36895 -0.347257 0.383872 0.791367 0.0566949 0.173628 0.173628 0.173628 0.445292 3.21626 -0.0602384 1.28981 -0.26812 0.46419 0.26812 0.0566949zm31.3381 24.667l0.347257 1.08311 -0.501987 4.73875 -0.520885 2.25599 -0.5575 1.02169 -0.347257 0.210244 -0.214968 0.173628 -0.0566949 0.347257 -0.0555138 0.26812 -1.36895 2.6623 -0.271663 0.112209 -0.347257 0.675615 -2.19457 2.19811 -0.964995 0.576399 -0.848062 1.00397 -0.501987 0.463009 -0.520885 0.558681 -0.844519 0.463009 -1.5225 0.672071 -0.0614195 0.214968 -2.02094 0.904757 -0.0602384 0.230323 -0.383872 0.463009 -1.19532 0.787824 -2.25481 0.675615 -0.8457 0.328358 -0.9083 0.346075 -0.5575 0.385053 -1.92763 0.581123 -1.28981 -0.116933 -0.28938 0.0555138 -0.230323 0.0614195 -0.445292 0.266939 -6.93804 0.46419 -0.576399 0 -0.558681 0.116933 -2.31504 -0.290562 -0.519704 0.0566949 -0.675615 -0.347257 -3.21626 -0.211425 -0.15473 -0.172447 -0.848062 -0.290562 -0.230323 -0.173628 -1.64061 0.0602384 -2.60088 -0.964995 -0.498443 0 -1.41029 -0.885859 -0.844519 -0.116933 -0.233867 -0.347257 -0.173628 -0.230323 -1.86621 -0.942554 -1.00279 -0.9083 -0.731129 -1.07839 0.150005 -0.558681 0.0602384 -0.230323 1.87093 -1.63943 0.11339 -0.328358 0.44411 -0.173628 0.520885 -0.40277 0.787824 0.463009 -0.173628 0.787824 0 0.116933 0.116933 0.675615 1.28981 1.46226 3.45012 1.754 0.445292 0.116933 0.519704 0.15473 0.615376 0.230323 0.327177 0.0555138 2.48513 0.501987 0.233867 0.290562 0.731129 0 6.43724 0.848062 1.35005 -0.0566949 0.961452 0.0566949 0.674434 -0.116933 1.31225 0.0602384 3.71824 -0.44411 0.61892 0.098035 0.346075 -0.0425212 0.441748 -0.229142 3.45012 -0.904757 5.31988 -2.42843 1.52013 -1.58037 0.445292 0.230323 0.848062 -1.52368 0.731129 -0.520885 0.558681 -0.674434 0.463009 -0.67089 0.173628 -0.173628 0.558681 -1.08193 0.44411 -1.17288 0.173628 -1.40674 0.615376 -0.347257 0.406314 -5.9388 -0.734672 -3.25405 -0.848062 -1.60281 -0.11339 -0.150005 -0.116933 -0.347257 -0.614195 -1.08193 -0.290562 -0.324815 -0.173628 -0.346075 -0.0377966 -0.214968 0 -0.287018 -1.81424 -1.25556 -1.13508 -1.52013 -1.05949 -0.674434 -0.636637 -0.0602384 -0.116933 -0.324815 -0.211425 -0.290562 -0.230323 -0.0555138 -0.28938 0 -1.06067 -0.562225 -0.731129 -0.287018 -0.46419 -0.271663 -0.172447 -0.229142 -0.211425 -0.290562 -3.79738 -1.23312 -0.116933 -0.116933 -0.151187 -0.173628 -1.98669 -0.497262 -4.39268 0.150005 -1.36895 -0.731129 -0.271663 -1.11618 1.17642 -1.92645 0.116933 -0.233867 0.230323 -0.15473 0.173628 -0.961452 0.383872 -0.230323 0.61892 -1.64061 0.731129 -0.674434 0.173628 -1.07839 0.347257 -0.385053 0.116933 -0.346075 0.327177 -0.445292 0.615376 -1.02169 0.233867 -0.385053 0.904757 -1.30871 0.787824 -0.734672 0.233867 -0.11339 1.80951 -3.15956 0.328358 -1.17642 -3.2198 -1.46698 -3.09932 -1.19178 -0.407495 -0.233867 -0.328358 -0.11339 -0.40277 0.0566949 -3.27768 -1.69612 -1.00279 -0.211425 -0.347257 -0.173628 -0.383872 -0.290562 -0.0566949 -0.15473 -1.02169 -0.519704 -2.87018 -1.46344 -1.58273 -0.500805 -0.230323 0.153549 -0.904757 -0.098035 -0.501987 0.445292 0.445292 1.46344 -0.0602384 1.86975 0.173628 0.385053 0.172447 0.0602384 0.501987 4.68324 0.0566949 1.02169 0.290562 0.460646 0.271663 3.2198 0.459465 0.999248 0.271663 1.58392 0.40277 0.519704 0.501987 0.385053 -0.173628 1.02169 0.403952 1.80951 -0.0566949 2.81349 0.848062 0.904757 0.501987 0.0602384 0.0566949 0.230323 0.406314 1.29335 -0.232686 1.52013 0.232686 0.28938 -0.346075 2.25481 0.173628 0.615376 -0.562225 5.09073 -0.57758 8.92119 -0.270482 1.28981 0.116933 0.233867 -0.0566949 0.961452 -0.233867 1.35005 0.173628 0.731129 -0.230323 2.31504 0.290562 0.576399 -0.0602384 1.46344 -2.94932 2.60206 -0.497262 0.15473 -1.23666 -0.11339 -0.844519 -0.735853 0.942554 -4.85569 0.28938 -3.16074 0 -0.787824 0.347257 -0.791367 0.0944916 -0.441748 -0.0377966 -0.173628 -0.0566949 -0.387415 0.26812 -8.42038 0 -0.116933 -0.211425 -0.614195 -0.116933 -4.4541 -0.287018 -1.36895 -0.561044 -5.70493 0 -0.323634 0.0602384 -0.233867 0.211425 -0.558681 0.0566949 -0.229142 -0.211425 -0.407495 -0.403952 -0.0944916 0.11339 -1.48588 -0.173628 -0.328358 -0.11339 -0.0555138 -0.116933 -2.08236 0.173628 -0.576399 -0.116933 -0.211425 -0.211425 -0.347257 0.15473 -0.44411 -0.15473 -0.230323 -0.112209 -0.520885 -1.02169 -3.60485 -0.558681 -4.00762 -0.173628 -0.347257 -0.0602384 -0.328358 -0.904757 -4.18125 0.0566949 -1.07839 -0.441748 -1.00279 -0.0602384 -0.347257 -0.346075 -0.904757 -0.173628 -0.116933 -0.211425 -0.5575 -0.0566949 -0.230323 0 -0.675615 -1.25201 -2.48867 -0.214968 -0.5575 -0.173628 -0.403952 -0.112209 -0.211425 -2.60206 -4.79899 0.519704 -0.73231 0.501987 -0.173628 0.287018 -1.07839 0.561044 -0.500805 0.441748 -0.675615 0.576399 -0.346075 1.7351 0.787824 3.00838 1.98669 0.0566949 0.0944916 0.211425 0.290562 4.24149 2.65758 2.65876 1.1776 5.588 3.15956 1.00279 0.674434 0.637818 0.347257 6.43606 3.2765 3.54462 1.46344 2.719 0.734672 1.23312 0.675615 0.520885 0.51616 0.674434 1.06303 0.11339 0.403952 -0.0566949 0.385053 -0.230323 0.346075 -1.92999 2.37174 -0.672071 1.35005 -0.116933 0.11339 -0.270482 0.290562 -0.460646 0.328358 -1.90755 2.32922 -0.290562 0.88704 -2.98712 4.58875 -0.40277 1.63589 0.40277 0.385053 1.02287 0.290562 2.19457 0.230323 2.37174 0.674434 1.86975 0.848062 0.614195 0.445292 0.562225 0.11339 0.460646 0.347257 0.327177 0.0602384 2.3115 1.40556 0.290562 0.26812 0.328358 0.116933 0.787824 0.614195 0.754752 0.290562 0.440567 0.347257 1.46698 1.23312 0.230323 0.230323 0.327177 0.387415 0.694513 0.905938 0.5575 0.346075 0.116933 0.173628 0.73231 1.23312 0.500805 0.731129 0.0566949 0.347257 0.848062 1.35005 0.501987 2.19811 0.116933 1.86621zm22.1417 -12.5827l0.440567 -1.36895 -1.69258 0.966176 -2.81703 2.54064 -0.285837 1.19532 0.112209 0.385053 0.675615 0.116933 1.40674 -1.58037 0.116933 -0.0566949 0.5575 -0.674434 1.48588 -1.52368zm23.8757 16.9388l0.849243 0 -0.520885 1.11973 -0.271663 0.519704 -0.40277 0.942554 -1.63707 1.754 -0.0602384 0.233867 -0.942554 1.02169 -5.93525 5.12499 -0.848062 0.617739 -0.385053 0.460646 -1.13862 0.848062 -0.290562 0.328358 -0.323634 0.346075 -0.233867 0.116933 -0.385053 0.11339 -1.80951 1.58037 -5.53248 3.2198 -1.69612 0.614195 -0.849243 0.173628 -0.40277 0.173628 -1.7918 0.562225 -0.519704 0.173628 -1.46698 0.500805 -3.38989 0.403952 -2.75679 0.0377966 -2.21701 -0.789005 -1.17642 -1.34887 -0.787824 -0.558681 -1.81424 -2.60206 -0.787824 -4.12456 0.675615 -2.81349 -0.0602384 -1.19532 1.81306 -5.91635 4.0655 -7.8617 -1.07839 -1.90755 0.0555138 -2.21701 1.19532 -2.08236 1.58037 -2.13787 1.96424 -2.21701 3.74069 -3.15956 2.02566 -1.35005 0.519704 -0.445292 0.441748 -0.229142 2.92924 -2.13905 0.520885 -0.463009 0.731129 -0.441748 3.60485 -1.86975 4.91356 -1.81424 2.19811 -0.266939 1.75282 0.327177 0.57758 0.287018 1.57919 1.08193 0.271663 2.81349 -0.44411 1.86621 -2.3115 4.80017 -0.789005 1.17642 -0.519704 0.46419 -0.675615 0.67089 -3.7773 3.95211 -1.52368 0.731129 -3.2765 2.42843 -6.61087 2.92924 -2.65758 0.637818 -0.385053 0.0944916 -0.290562 0.0602384 -0.5575 -0.0602384 -1.35005 -0.0944916 -0.637818 -0.173628 -0.0933104 -0.904757 1.67723 -1.02169 1.3654 -1.35005 1.29335 -0.403952 0.904757 -0.734672 5.08719 -0.904757 1.5225 -0.501987 4.9738 -2.71545 1.7918 -2.08118 1.19532 -2.719 0.229142 -1.46226 -0.112209 -2.60206 -1.81424 -1.35005 -2.37174 -0.0566949 -1.01815 0.347257 -1.46698 1.01815 -0.500805 0.328358 -0.634275 0.617739 -0.500805 0.230323 -1.58037 1.64061 -1.58037 1.69258 -0.617739 0.674434 -0.849243 0.966176 -1.40556 1.35005 -1.754 2.36701 -0.40277 0.46419 -0.328358 0.211425 -0.792548 0.964995 -1.30753 1.69376 -0.445292 1.02169 -1.40674 1.40556 -2.77451 5.82304 -1.35005 4.68324 0 1.1339 -0.230323 1.29335 -0.230323 4.35606 0.787824 1.79062 1.02287 1.42564 1.19532 1.11973 1.23312 0.904757 0.346075 0.173628 0.61892 0.26812 1.28981 0.290562 4.85569 0.116933 4.35606 -1.29335 4.62654 -2.48513 1.80951 -1.63707 0.385053 -0.290562 0.407495 -0.28938 5.06711 -3.77494 0.403952 0 -0.0566949 -0.290562 0.287018 -0.500805 2.25481 -1.96542 3.95093 -4.06786zm36.8671 -12.0252l-0.230323 -0.287018 0.287018 -1.63943 -0.230323 -2.08236 -0.116933 -0.112209 0.290562 -0.347257 -0.230323 -1.81424 -0.848062 -2.02448 -1.05949 -1.34651 -1.52368 -0.0602384 -3.50682 1.17642 -4.00881 2.94932 -0.561044 0.098035 -2.48513 1.86621 -0.787824 0.675615 -0.290562 0.0602384 0.116933 0.229142 -1.25556 0.441748 -1.17288 1.64061 -0.909481 1.80951 -0.383872 1.86975 -0.116933 6.49393 0.0602384 0.561044 0.0566949 0.173628 0.15473 0.211425 -0.211425 0.230323 0.11339 5.70493 0.388597 3.39343 -0.116933 2.81349 0.463009 5.70139 0.441748 0.346075 0.904757 -0.731129 0.388597 -0.230323 0.904757 -0.731129 1.02169 -1.07839 0.347257 -0.562225 0.731129 -0.5575 1.05949 -0.904757 0.731129 -1.36895 0.966176 -0.830345 0.519704 -0.904757 0.385053 -0.347257 0.46419 -0.848062 0.0933104 -0.173628 0.407495 -0.614195 0.11339 -0.290562 0.271663 -0.15473 0.230323 -0.230323 0.172447 0 0.230323 -0.731129 0.909481 -0.9083 0.5575 -1.34651 0.614195 -0.347257 0.173628 -0.233867 0 -0.210244 -0.173628 -0.403952 0.735853 -0.9083 0.40277 -0.615376 0.26812 -0.44411 0.233867 -0.57758 0.173628 -0.731129 0.501987 -0.675615 0.112209 -0.731129 1.52368 -2.77569 0.0566949 -0.617739 0.233867 -0.787824 1.17642 -4.28047 0 -0.173628 0.230323 -0.674434zm6.93804 -7.805l0.229142 1.25556 -0.28938 4.00762 -0.498443 1.46344 -0.233867 0.385053 -0.0944916 0.406314 0 0.230323 -0.519704 1.96424 -1.87093 4.35606 -0.210244 0.383872 -0.233867 0.407495 -0.501987 0.848062 -0.285837 0 -0.61892 1.46344 -0.576399 1.07839 -1.11618 1.23312 -0.675615 1.35005 0.26812 0.116933 -2.08118 2.3682 -1.19532 2.16031 -3.04381 3.10287 -1.85085 2.48513 -0.11339 0.385053 -0.964995 0.791367 -0.792548 0.460646 -2.08118 2.37174 -1.75282 0.791367 -0.403952 1.34651 -0.328358 0.0602384 0.15473 0.173628 -2.25481 1.73392 -0.0566949 0.11339 -0.674434 0.46419 0.173628 0.270482 0.0566949 0.230323 -0.11339 0.615376 0.904757 13.1627 -0.674434 0.116933 -0.46419 -0.848062 -0.558681 -1.75282 -0.0555138 -0.558681 0.112209 -0.407495 0.116933 -0.173628 -0.463009 -0.999248 -0.211425 -0.9083 0.0566949 -0.230323 0.44411 -0.674434 -0.40277 -0.501987 -0.562225 -1.92645 -0.0566949 -0.731129 -0.173628 -0.290562 0 -1.23312 -0.210244 -0.848062 -0.403952 -0.460646 -0.501987 -0.098035 -0.172447 0 -0.233867 0.098035 -0.26812 0.173628 -0.637818 0.287018 -0.327177 0.387415 -0.675615 0 -0.40277 0.11339 -0.26812 0.0602384 -0.290562 0 -0.731129 -0.388597 -1.40674 -0.346075 -0.9083 0.346075 -0.460646 -0.172447 -0.388597 -0.460646 -0.112209 -0.445292 0.0566949 -0.500805 -0.173628 -1.13508 -1.35005 -2.6623 -0.230323 -0.385053 -0.116933 -0.463009 -1.23312 -1.84849 -0.230323 -0.463009 -0.116933 -0.675615 -0.112209 -0.731129 -0.116933 -0.674434 0.519704 -1.02287 -0.229142 -0.787824 -0.388597 -0.617739 0.0413401 -0.675615 0.230323 -0.11339 0.0555138 -0.346075 0.290562 -0.73231 0.211425 -0.0602384 1.07839 1.87093 2.10008 5.5313 0.0413401 0.173628 0.347257 0.328358 0.230323 0.229142 1.11618 1.36895 2.719 1.05949 1.92645 0.290562 0.211425 -0.173628 1.31225 -0.290562 0.210244 -0.153549 0 -0.46419 -0.153549 -0.11339 0 -0.15473 -0.230323 0 0 -0.904757 -0.230323 -0.290562 -0.328358 -0.40277 0.0944916 -1.35005 0 -0.328358 -0.15473 -0.576399 -0.40277 -2.87373 -1.52368 -3.10287 -1.17288 -0.73231 -2.42843 -0.230323 -1.08193 1.52368 -0.848062 0.11339 -0.961452 -0.230323 -0.675615 -0.44411 -0.904757 -0.73231 -0.558681 -1.13508 -0.28938 -0.791367 -0.328358 -2.54537 0.211425 -3.44658 0.346075 -0.098035 0 -0.576399 2.37174 -4.91711 2.48513 -2.81349 1.17642 -1.07839 0.403952 -0.904757 0.617739 -0.791367 0 -0.849243 -0.383872 -0.731129 0.0566949 -3.04263 -0.173628 -0.735853 -0.0566949 -0.323634 -0.233867 -1.08311 0.347257 -2.77451 -0.11339 -1.28981 0.230323 -0.403952 -0.116933 -0.674434 -0.0566949 -0.328358 -0.0566949 -1.07839 0.26812 -1.02169 0 -0.445292 0.116933 -0.11339 -0.445292 -1.19532 0.116933 -0.387415 0.116933 -0.905938 0.0944916 -1.46226 0.172447 -1.25201 0.116933 -0.388597 -0.327177 -0.844519 -0.0566949 -0.407495 0.0566949 -0.15473 0.098035 -0.285837 -0.15473 -1.13862 0.211425 0 0 -0.441748 -0.271663 -0.734672 -0.0566949 -3.83518 0.271663 -1.86621 -0.098035 -0.347257 -0.290562 -0.445292 0.116933 -2.48513 -0.116933 -0.233867 0.388597 -0.5575 0.112209 -0.328358 -0.383872 -2.65758 -0.0566949 -0.403952 0.440567 -2.58316 -0.383872 -0.519704 -0.403952 -2.98712 -0.9083 -2.14142 0.233867 -1.54258 1.19532 -0.440567 0.999248 -0.61892 0.519704 -0.5575 1.17642 -1.02169 0.347257 -0.403952 0.501987 -0.61892 0.172447 -0.346075 1.28981 -0.0944916 1.02169 -0.290562 0.173628 0 0.328358 0.116933 0.290562 0.26812 0.0566949 0.290562 0.346075 1.07839 0.501987 7.49554 -0.230323 1.81424 0.0566949 2.10008 -0.500805 1.17642 0.383872 1.28981 -0.266939 11.4099 0 0.11339 -0.173628 1.02169 -0.230323 0.674434 0.11339 1.02169 0 1.1776 0.116933 0.961452 -0.403952 1.34887 0.230323 0.849243 -0.116933 1.42446 -0.11339 0.445292 0.11339 0.615376 -0.614195 10.8512 5.24074 -3.33673 0.520885 -0.459465 0.440567 -0.328358 0.116933 -0.230323 0.5575 -0.271663 0.520885 -0.173628 0.445292 -0.463009 0.731129 -0.15473 3.2765 -1.92645 0.615376 -0.173628 0.28938 -0.173628 0.905938 -0.211425 0.617739 -0.287018 0.287018 -0.0602384 1.23666 -0.112209 0.403952 -0.445292 1.57919 -0.173628 0.558681 -0.230323 0.406314 -0.116933 0.385053 -0.0566949 3.50682 0.849243 1.35005 1.69258 0.961452 2.77569 0.385053 0.44411 0.0602384 0.789005zm18.1932 2.89144l0.441748 -1.36895 -1.69376 0.966176 -2.81585 2.54064 -0.287018 1.19532 0.11339 0.385053 0.674434 0.116933 1.40674 -1.58037 0.116933 -0.0566949 0.5575 -0.674434 1.48588 -1.52368zm23.8768 16.9388l0.848062 0 -0.520885 1.11973 -0.271663 0.519704 -0.40277 0.942554 -1.63707 1.754 -0.0602384 0.233867 -0.942554 1.02169 -5.93525 5.12499 -0.848062 0.617739 -0.385053 0.460646 -1.13862 0.848062 -0.290562 0.328358 -0.323634 0.346075 -0.233867 0.116933 -0.385053 0.11339 -1.80951 1.58037 -5.5313 3.2198 -1.69731 0.614195 -0.848062 0.173628 -0.403952 0.173628 -1.79062 0.562225 -0.520885 0.173628 -1.46698 0.500805 -3.38989 0.403952 -2.75561 0.0377966 -2.21701 -0.789005 -1.17642 -1.34887 -0.789005 -0.558681 -1.81306 -2.60206 -0.787824 -4.12456 0.674434 -2.81349 -0.0602384 -1.19532 1.81424 -5.91635 4.06432 -7.8617 -1.07839 -1.90755 0.0566949 -2.21701 1.19532 -2.08236 1.57919 -2.13787 1.96542 -2.21701 3.74069 -3.15956 2.02448 -1.35005 0.519704 -0.445292 0.441748 -0.229142 2.92924 -2.13905 0.520885 -0.463009 0.731129 -0.441748 3.60485 -1.86975 4.91356 -1.81424 2.19811 -0.266939 1.754 0.327177 0.576399 0.287018 1.58037 1.08193 0.271663 2.81349 -0.445292 1.86621 -2.3115 4.80017 -0.787824 1.17642 -0.520885 0.46419 -0.674434 0.67089 -3.77848 3.95211 -1.52368 0.731129 -3.2765 2.42843 -6.60969 2.92924 -2.65876 0.637818 -0.385053 0.0944916 -0.28938 0.0602384 -0.558681 -0.0602384 -1.35005 -0.0944916 -0.636637 -0.173628 -0.0944916 -0.904757 1.67723 -1.02169 1.3654 -1.35005 1.29335 -0.403952 0.904757 -0.734672 5.08719 -0.904757 1.52368 -0.501987 4.97262 -2.71545 1.7918 -2.08118 1.19532 -2.719 0.230323 -1.46226 -0.11339 -2.60206 -1.81424 -1.35005 -2.37174 -0.0566949 -1.01815 0.347257 -1.46698 1.01815 -0.500805 0.328358 -0.633094 0.617739 -0.501987 0.230323 -1.58037 1.64061 -1.57919 1.69258 -0.61892 0.674434 -0.848062 0.966176 -1.40674 1.35005 -1.75282 2.36701 -0.403952 0.46419 -0.328358 0.211425 -0.791367 0.964995 -1.30871 1.69376 -0.445292 1.02169 -1.40556 1.40556 -2.77569 5.82304 -1.35005 4.68324 0 1.1339 -0.230323 1.29335 -0.229142 4.35606 0.787824 1.79062 1.02169 1.42564 1.19532 1.11973 1.23312 0.904757 0.347257 0.173628 0.617739 0.26812 1.28981 0.290562 4.85687 0.116933 4.35488 -1.29335 4.62654 -2.48513 1.81069 -1.63707 0.383872 -0.290562 0.407495 -0.28938 5.06829 -3.77494 0.40277 0 -0.0566949 -0.290562 0.287018 -0.500805 2.25481 -1.96542 3.95211 -4.06786zm5.588 -33.0319l0.346075 0.562225 -0.172447 0.285837 -0.460646 0.328358 -0.271663 0.116933 -0.576399 -0.0566949 -2.7001 0.520885 -1.46344 -0.290562 -2.04338 -0.964995 -0.848062 -0.73231 -0.904757 0 -0.73231 -0.787824 -1.69612 -0.501987 -0.966176 -1.08193 -0.82562 -0.440567 -0.848062 -0.904757 -0.520885 -0.46419 -0.270482 -0.173628 -0.173628 -0.211425 -1.40674 -1.46698 -0.347257 -0.459465 -0.40277 -0.290562 -0.271663 -0.385053 -0.347257 -0.40277 -0.440567 -0.946097 -1.69731 -1.754 -0.347257 0.0566949 -0.15473 0.173628 -0.0555138 0.445292 -0.173628 0 -0.520885 0.731129 -0.731129 0.964995 -0.214968 0.230323 -0.230323 0.211425 -0.40277 0.579942 -0.214968 0.26812 -0.520885 0.403952 -0.26812 0.617739 -0.636637 0.501987 -0.441748 0.459465 -1.63943 1.90755 -0.441748 0.347257 -0.233867 0.173628 -1.01815 1.29335 -0.328358 0.347257 -0.232686 0.328358 -1.25201 0.576399 -0.385053 0.501987 -0.848062 0.229142 -0.230323 0.0602384 -0.791367 0.26812 -1.46344 0.290562 -0.848062 0.440567 -1.90873 -0.210244 1.17642 -0.905938 0.441748 -0.791367 0.40277 -0.11339 0.233867 -0.407495 1.84849 -1.28863 1.81306 -1.58037 8.19006 -9.65704 1.13862 -0.5575 0.0377966 -0.961452 -0.328358 -0.46419 0.789005 -0.885859 0.9083 -0.290562 0.441748 -0.403952 0.5575 -0.098035 0.407495 -0.693332 1.28981 -0.26812 0.346075 -0.116933 0.230323 0.0566949 0.328358 0.445292 0.346075 0.674434 0.233867 0.46419 0.0944916 0.26812 0.290562 0.576399 0.173628 0.328358 4.56631 6.4963 2.42843 2.65876 1.64061 1.35005 0.614195 0.520885 0.230323 0.112209 3.51036 2.6434 1.90755 0.904757 0.11339 0.11339 0.173628 0.173628z"/>
  <path class="fil0" d="M914.117 1135.48l-8.0873 3.9781 -10.4224 12.0654 -6.85536 3.56351 -2.46977 4.11393 -1.91936 4.38913 -2.87727 5.62225 -3.15602 3.15248 0 7.68098 -0.411038 2.05519 -2.05519 3.15248 -3.15602 4.38913 -2.05519 8.50188 1.64415 3.56351 1.91936 7.26995 5.34704 4.79663 -0.411038 -2.05519 6.03329 0.411038 3.15602 -1.50832 3.56351 -4.11393 1.23666 -4.38913 0 -3.15248 0.822077 -2.05874 5.21121 -15.2179 2.05519 -5.62225 2.74144 -4.52497 0 -0.411038 1.6477 -1.91936 1.23312 -4.11393 2.32922 -6.71953 12.0666 -18.0999 3.29185 -6.85418 -1.23312 -2.05874 -2.88081 -1.09728 -3.56351 1.09728 -2.74498 3.29185 0 0.822077zm190.324 -75.9653l-0.411038 -3.97455 -7.54161 -5.62225 -5.62225 -5.21121 -6.03329 -1.6477 -17.6876 -1.64415 -19.744 4.38913 -6.85891 2.87727 -7.95265 3.56706 -3.28831 2.05519 -2.74498 0.82562 -30.1653 14.808 -2.74144 3.29185 -2.46977 1.91936 -4.80017 1.64415 -3.69935 1.6477 -2.33394 2.3304 -5.62225 4.38441 -0.822077 0.826801 -1.23312 1.64297 -1.50832 1.64415 -4.52497 3.56706 -15.2214 17.6888 -1.64415 3.56351 -1.91936 6.03329 -4.11393 3.70289 -0.822077 3.15602 -5.62225 12.0666 -2.3304 2.05401 -2.46977 4.80017 -3.56351 6.03329 0.822077 10.4224 -4.80017 8.36369 -1.64415 11.6555 1.23312 16.1793 5.21121 10.4224 4.80017 2.74144 3.97455 8.49952 10.0114 6.85891 11.3803 1.50832 16.8656 -1.09728 20.0192 -7.68098 3.56706 -2.87727 6.44433 -1.91936 16.451 -9.73618 16.5951 -14.8104 2.3304 -1.23312 2.05519 -1.91936 26.0561 -31.8141 2.05519 -2.3304 3.9781 -3.70289 2.46505 -3.56351 6.44433 -10.4212 6.71953 -15.7695 3.29185 -5.62225 1.91936 -3.97455 0 -2.05874 2.46977 -3.56351 3.56351 -11.6555 -0.411038 -3.9781 1.23312 -2.05519 1.6477 -2.32922 0 -20.5696 -1.23666 -4.38913zm156.73 166.737l2.3304 0.414582 0 3.56351 -3.97455 2.88081 -3.9781 3.15248 -20.1586 13.7143 -16.0399 6.44314 -3.56706 0.682702 -0.822077 -1.50832 -7.67744 -0.411038 -10.8335 -8.90938 -13.3032 -20.4338 -6.30377 -6.85536 -4.936 -12.8887 -9.18931 -17.2766 -2.87727 -3.56706 -0.686245 -3.97455 -4.11393 -3.70289 -0.411038 -2.74144 -2.33394 -6.85536 -0.822077 -9.18931 -6.85536 -12.8887 -1.23312 -12.8875 -2.3304 -3.56706 -2.05874 -7.2664 -0.822077 -7.26995 -5.62225 -6.44433 -1.91936 -0.682702 -2.05874 0.271663 -2.46505 2.88081 0 2.74144 -1.09728 0 0 1.23312 -2.05874 4.80017 -17.6888 28.1101 -16.4522 17.0026 -2.88081 5.89746 -19.196 16.1805 -6.03329 8.77354 -9.32514 4.80017 -5.62225 6.85536 -14.397 9.18931 -8.09202 2.46623 -3.97337 3.56706 -7.95265 3.28831 -2.46977 2.74498 -5.21121 1.23312 -14.1218 10.0114 -8.36369 2.46623 -13.3032 7.26522 -27.6955 8.36723 -7.68098 0 -5.21121 3.70289 -8.36369 -2.46977 -17.6876 -10.4224 -6.85536 -6.03211 -3.15602 0 -4.52497 2.32922 -5.62225 4.94073 -5.61871 -0.415763 -3.15602 1.50832 -10.8335 -3.97337 -17.6876 -9.18931 -6.03329 -12.0666 2.33394 -25.3663 2.46623 -3.15129 -0.411038 -2.47095 12.8875 -17.2766 2.3304 -1.91936 3.70289 -6.03329 7.26995 -12.8887 26.0525 -24.5466 3.15248 -1.50832 0.822077 -1.23312 6.03211 -3.70289 3.70289 -6.03329 7.95265 -4.80017 9.60034 -9.5968 13.7107 -7.67744 3.9781 -2.74498 0.822077 -0.822077 0.822077 -2.05519 2.88081 -1.50832 5.62225 -4.93955 1.50832 -0.411038 1.64415 -3.15129 2.46977 -5.21121 10.8323 -6.03329 3.97455 0 12.4776 -7.67744 9.18931 -2.74498 5.62225 -3.97455 4.80017 -1.6477 0.411038 -1.64415 15.3537 -6.03329 0.826801 -0.411038 4.79545 -2.74144 9.18931 -4.52497 19.333 -4.38913 5.62225 -3.15129 25.6403 1.64297 14.9474 7.95265 6.30849 5.62225 3.70289 6.03329 2.74144 0 -6.03329 -10.0114 -1.91936 -14.9427 -4.80017 -9.18931 -6.85536 -18.9219 -6.03329 -10.4224 -12.0666 -10.8287 -17.2766 -1.64888 -6.85536 4.52497 -29.3432 33.7335 -11.2445 9.5968 -4.80017 3.56706 -3.15248 0.411038 -2.46977 -0.411038 -2.3304 -2.3304 0 -2.05874 7.13057 -6.03329 0.411038 -1.64415 0.411038 -1.91936 2.46623 -3.70289 8.36723 -10.0114 10.8323 -9.18576 10.5583 -14.1253 36.0592 -32.4957 8.50306 -1.23312 11.2445 -6.85891 2.3304 -1.50832 2.46977 -0.411038 2.74144 0.822077 2.46977 2.33394 8.77472 0 15.7695 16.0411 6.71835 10.8335 8.91056 22.2126 3.15602 3.56706 10.1472 28.5187 0.411038 3.15602 1.50832 4.936 1.23312 12.7516 3.56706 7.2664 -0.275207 3.9781 1.91936 6.03329 0.822077 5.62225 2.05874 7.2664 5.62225 20.8401 3.97455 5.62225 0.822077 11.2445 6.44314 11.6555 0.826801 14.9474 4.38441 7.95147 5.62225 20.5696 13.5749 29.7554 4.936 5.62107 1.50832 2.74144 5.21121 6.03329 0.822077 8.09202 18.5133 13.9859 10.8299 -1.6477 2.05874 -0.682702 1.23312 -0.82562 4.38913 0zm328.539 40.9987l3.56706 3.9781 -2.33394 0.411038 1.91936 0.822077 -3.97455 2.74498 -5.21121 0 -6.03329 -5.62225 -7.26522 -2.74498 -7.54161 -9.73618 -8.9141 -6.03329 -9.60034 -3.56233 -5.62225 -7.67744 -18.9219 -12.7528 -1.64415 -4.11393 -0.686245 -0.411038 1.91936 -1.50832 -3.15248 -15.7695 -5.62107 -7.95147 -1.23784 -12.8922 0 -6.03329 1.23784 -4.38559 -0.822077 -5.62225 -7.68098 -27.2892 -4.38559 -24.543 0.822077 -4.80017 -0.822077 -8.9141 -2.46977 -14.397 3.29185 -89.539 -1.6477 -16.5915 -3.15248 -8.77354 -8.50306 11.2433 -19.1971 45.7953 -2.46623 3.9781 -2.46977 4.11393 -5.62225 10.4224 -2.74026 5.61871 2.3304 1.9229 -31.6748 56.3536 -0.822077 1.91936 -3.9781 10.0114 -8.08848 15.3572 -1.09728 0.822077 0 3.15248 -0.822077 3.9781 -12.48 19.333 -0.822077 0.82562 -1.64415 3.15248 -3.9781 5.21121 -4.79663 12.8887 -1.6477 0.411038 -5.21121 10.8323 -3.97455 3.29185 -2.46977 11.6555 -12.0666 22.0744 -7.2664 7.95619 -7.95147 0.822077 -2.88081 3.97337 -9.60034 6.44433 -12.0666 -1.09374 -2.74144 1.09374 -1.64415 0.414582 -2.05874 0 -4.38559 -0.82562 -3.56706 -3.15248 0 -3.9781 -2.05519 -10.4177 -3.15602 -41.4098 2.3304 -0.411038 -1.91936 -3.9781 1.09728 -6.85536 -0.411038 -22.489 -3.97455 -11.6555 2.46623 -12.4764 -3.29185 -20.1586 0.415763 -14.808 0.409857 -3.9781 0 -8.91056 0.822077 -4.38913 2.46623 -28.9321 -3.69816 -12.4776 0.820896 -2.74144 2.05519 -20.5685 -1.64415 -5.21121 2.05519 -4.38913 -2.05519 -12.0666 1.23312 -64.3098 1.23312 -0.682702 2.74498 -10.5618 6.44433 -5.61752 41.4098 -9.18931 5.21121 5.62225 1.64415 10.0102 -0.411038 14.5328 -0.822077 7.95265 0.822077 1.6477 -2.46977 3.56351 -4.38559 14.9474 -2.46977 7.26522 -1.91818 5.89746 -1.23312 3.29185 -3.70289 38.5301 -2.74144 9.59916 -1.23666 18.5109 -1.23312 2.88081 -1.09728 3.97455 0.275207 1.6477 -0.686245 16.8632 3.9781 63.4865 -2.46977 10.4224 1.23312 1.91936 0 10.5583 1.23666 1.09728 1.64415 17.6888 -0.411038 4.936 1.09728 2.3304 3.70289 2.46977 5.62225 0.411038 10.4177 -6.03329 3.15602 -5.62225 1.64415 -2.46977 1.6477 -8.77472 9.18576 -9.73618 12.0666 -19.6082 0.411038 -2.88081 0.822077 -0.820896 13.9848 -17.964 4.93955 -15.3549 13.1639 -23.3099 8.49952 -10.0114 11.6555 -27.7002 0.411038 -0.822077 2.3304 -4.38559 3.29185 -10.0102 1.23312 -2.88081 3.56706 -3.97455 3.9781 -4.38913 2.05401 -6.44433 5.62225 -18.5109 7.67744 -16.4557 11.5197 -36.1985 10.1472 -17.2766 21.6669 -10.8335 3.15129 -0.411038 4.52497 -1.23312 16.8667 -2.74498 1.50832 12.4812 -2.3304 3.97337 -0.82562 2.74144 0.82562 3.70289 4.79663 30.8527 -0.822077 2.46977 -0.411038 7.67744 -3.56351 8.77827 2.3304 34.1398 -2.3304 11.2445 0 6.44314 -0.82562 2.05874 -0.411038 13.5749 4.80017 16.4557 6.03329 65.9539 6.03329 40.1766 2.05874 6.85536 1.50832 10.4224 0.822077 15.6289 2.87727 8.09202 3.15602 6.03329 2.88081 5.21121 2.3304 6.03329 6.85418 16.4522 12.4776 23.7209zm584.409 -346.773l12.4764 -3.56706 0.411038 17.2766 -1.23312 8.36369 0.822077 4.52497 0.822077 3.9781 -1.64415 17.2778 -0.686245 5.62225 -1.23312 0.411038 1.91936 1.23193 -1.50832 20.8448 4.38559 17.6888 -0.822077 17.6888 -1.23312 3.97337 1.23312 1.23312 -0.822077 20.4338 1.23312 11.2445 0.411038 14.9427 -2.46623 12.0666 3.29185 1.09728 0.411038 11.2445 3.56351 15.3584 -3.15248 1.23312 2.3304 1.91936 3.97455 15.6325 -2.74144 0.822077 3.15602 3.29185 1.23312 16.4557 8.9141 16.8667 0 2.74144 3.15248 0 5.62225 14.1206 7.67744 17.2778 0 0.822077 9.59916 16.0447 9.18576 5.21121 11.6555 4.80017 18.9219 -3.9781 3.56706 3.56706 -7.54161 9.32041 -17.2778 6.03329 -6.85536 2.74498 -11.2445 2.05519 -8.50306 -1.64415 -5.21003 -2.3304 -10.8299 -4.52378 -5.21121 -7.13057 -8.36369 -4.11393 -14.9474 -9.18931 -4.80017 -10.8299 -5.62107 -10.0114 -13.2997 -15.7695 -3.15602 -3.56233 -1.23312 -6.03683 -3.97455 -4.79663 0.411038 -4.80017 -6.44787 -19.333 -4.38559 -12.4812 0 -12.8875 2.74144 -1.50832 -4.38913 -11.6555 0 -11.6555 -2.74144 -12.8887 -1.23312 -12.4764 -1.23312 -12.4776 2.46623 -1.09728 -2.46623 -1.6477 -0.82562 -10.0078 -6.44433 17.9605 -8.77354 15.7683 -8.09202 16.8667 -4.79663 7.54161 -2.05874 0 -0.822077 4.11393 -1.50832 3.9781 -8.08848 16.451 -1.6477 0 0 2.88081 1.6477 0 -6.44787 13.9859 -8.77472 16.4557 -9.59562 16.4557 -5.62225 11.2433 -8.9141 8.91056 -13.9859 20.8448 -5.62225 6.85536 -5.76162 3.56351 -12.3382 9.32396 -12.0654 5.62225 -12.8922 5.62225 -7.67744 2.05874 -7.95265 -2.88081 -0.411038 1.64415 -15.2226 -1.23312 -10.146 -7.67626 -6.85536 -10.8335 -3.9781 -8.77472 -1.64415 -4.52851 0.411038 -4.38559 -1.09728 -8.77827 -1.23312 -9.32159 -0.822077 -17.5518 1.23312 -15.3584 4.38913 -2.3304 -2.46977 -2.05519 -0.411038 -8.09202 1.23312 -7.95265 4.11393 -1.64415 -2.87727 -0.82562 -0.411038 -7.54161 0.822077 -7.67626 0.411038 -19.3365 4.38559 -9.5968 1.23666 -9.18576 2.74144 -0.414582 0 -10.1472 0.822077 -9.59562 2.05874 -9.60034 2.3304 -9.73263 -0.275207 -17.964 0.275207 -18.5097 -1.50832 -0.82562 2.74026 -1.64415 -5.21003 -16.8667 2.05874 -16.8667 -3.9781 -13.5737 -2.05519 -4.52497 -4.80017 -4.79663 -8.9141 -6.44787 -11.2445 1.23666 -15.6301 9.18576 -2.46977 -1.50832 -1.09728 3.15248 -10.8287 8.09084 -11.3839 5.21121 -1.91936 -0.822077 -7.67744 6.85536 -4.38913 -1.6477 -2.46623 -2.3304 7.2664 -8.0873 8.50306 -6.44433 1.09374 0 16.1805 -13.3032 16.8656 -12.7528 16.8667 -12.8887 12.7528 -8.49834 14.1253 -7.13057 4.38441 -1.6477 4.11393 0.411038 11.2445 -0.411038 5.21121 0.822077 5.62225 0.82562 3.56351 8.36369 2.05874 0 4.38559 8.49834 1.6477 13.1639 -2.05874 13.3032 -2.05519 0.411038 0 26.0513 0 18.9219 -1.91936 9.60034 -2.46977 9.73618 -5.21121 20.8401 -3.56351 3.15602 2.74144 2.05519 -0.822077 10.0114 -1.91936 9.73618 2.74144 3.15248 -0.411038 3.29185 -3.56351 17.9593 -6.85891 21.3917 0.411038 13.5749 -3.15248 13.7143 -0.822077 0.820896 -0.411038 26.8746 1.91936 12.4812 0.822077 13.5749 5.62225 14.1206 5.21121 8.09202 6.85536 4.80017 7.2664 4.38559 8.36723 -0.411038 8.0873 -2.46623 2.88081 2.46623 10.0078 -7.67744 8.36723 -7.54161 6.85536 -9.73618 8.08848 -10.0102 3.9781 -9.5968 4.80017 -9.32514 5.21121 -8.77472 5.62225 -8.09202 3.69816 -11.6555 4.38913 -11.2433 4.38913 -11.6555 5.21121 -11.2445 5.62225 -7.54161 9.5968 -19.3318 3.29185 -21.2559 1.64415 0 7.54161 -17.6888 8.50188 -19.3318 4.38559 -20.8413 3.15602 -21.2559 0 -2.46977 0 -5.61752 4.11393 -16.8667 5.62225 -16.8667 4.79663 -7.2664 9.60034 -3.56706 10.1472 -3.9781 11.9307 -3.69816zm208.969 110.515l-0.411038 -6.85418 -2.05519 -2.05519 0 -1.50832 -4.80017 -2.46977 -10.4224 0.411038 -1.23312 3.56706 -3.15248 2.46623 4.79663 21.6657 3.9781 0 7.2664 -7.95265 2.46977 -1.23666 1.50832 -1.23312 1.64415 -2.3304 0.411038 -2.46977zm146.582 -75.1385l3.70289 8.49952 0.411038 4.80017 -8.09202 5.62107 -5.62225 3.97928 -5.62225 1.23193 -5.20767 3.15248 -1.23666 0 -5.62225 -1.09728 -7.26522 -15.3572 -7.13057 -9.5968 -2.46623 -2.46977 -1.23666 -0.822077 -1.50832 -0.275207 -1.64415 -2.46623 -3.70289 -0.411038 -1.50832 -0.822077 -6.03329 1.23312 -6.85536 2.05519 -3.15602 3.15602 -30.5763 13.7107 -6.44433 2.32922 -2.46977 2.05992 -7.54161 5.21003 -8.91056 18.0999 -5.62225 24.1332 -3.15602 8.36251 -2.46505 5.21121 -1.50832 5.62225 0.411038 10.0114 -7.2664 20.5661 -1.23666 14.8116 -3.15248 14.1206 -0.822077 1.23312 -1.23666 1.9229 -0.822077 7.67744 -2.74144 4.80017 0 1.64415 0.686245 2.74144 0.822077 6.44787 -1.23312 5.20767 -1.09728 2.46977 1.09728 5.21121 -2.74498 9.59562 -2.87727 33.7335 2.05519 5.21121 -2.05519 8.49834 1.64415 39.3557 1.23312 1.64415 -0.411038 6.85891 -5.62225 5.21121 -11.2445 3.97337 -14.1218 1.23312 -3.15129 2.33394 -2.46977 -2.74498 -0.686245 -2.87609 0.275207 -12.7528 -1.91936 -11.6555 2.74144 -26.1919 -1.91936 0 1.09728 -3.56233 0 -2.05992 -0.275207 0 0.686245 -0.411038 0.822077 -3.15129 0 -22.9 -2.3304 -8.9141 1.50832 -8.36369 0.411038 -8.09202 0.822077 -1.91936 -0.411038 -1.64415 -0.822077 -3.70171 1.64297 -2.74144 -0.820896 -1.23312 -1.50832 0 3.15602 -1.23666 -2.46977 -7.95265 -0.411038 -5.62225 0 -14.1218 -0.686245 -1.9229 1.91936 -2.87727 -2.74144 -9.18931 -0.411038 -2.87727 0 -1.91818 0.411038 -4.11393 0.822077 -7.54161 -1.64415 0 -4.38913 -3.29185 -1.64415 -0.411038 -3.15602 0.822077 -1.64415 1.23312 -3.9781 4.38913 -6.44433 3.9781 -2.87727 6.85418 -2.33394 0.822077 -16.1805 26.8746 -6.44433 15.7695 -4.38441 23.9961 2.05519 11.6555 -1.23312 1.64415 0.822077 1.23666 -1.64415 1.91936 -5.21121 -6.30849 -2.3304 -2.46623 -2.05874 -3.9781 0.411038 -3.29185 -0.411038 -1.50832 -0.411038 -2.05519 0.411038 -3.29185 2.74144 -5.21121 -0.682702 -6.03211 1.09374 -1.50832 0 -2.46623 1.6477 -5.21121 3.97455 -8.36723 2.46977 -11.241 1.23312 -4.93955 1.23193 -0.822077 17.2778 -28.1065 2.74498 -9.60034 1.23312 -0.411038 1.91936 -2.3304 1.23312 -1.23666 0.82562 -2.05519 1.23312 -0.822077 0.411038 -3.56706 2.3304 -3.97455 2.88081 -2.88081 4.38559 -5.62225 3.9781 -2.3304 0.822077 -0.822077 3.70289 -6.85418 -0.822077 -8.9141 -0.822077 -2.74144 -1.23666 -4.38913 -0.411038 -9.73618 13.7143 -9.60034 3.15129 -2.05519 2.88081 -3.56351 3.15248 0 2.05874 1.64415 1.23312 1.91936 8.77472 4.52497 4.38913 -0.411038 17.2778 -15.7695 3.29185 -5.62225 7.95265 -4.80017 2.46505 -2.32922 0.822077 -1.64415 1.23666 -3.56706 5.62225 -7.2664 0.686245 -6.44433 2.46623 -2.05874 3.15248 -0.411038 11.3839 -5.21121 6.71953 0.411038 7.67744 -3.56351 1.64415 -0.411038 1.50832 0 6.85891 -0.822077 26.5982 -10.8335 6.03329 -0.411038 6.30849 -2.05874 28.9321 -13.1627 8.50306 -1.23312 6.03329 4.80017 0.822077 2.88081 0 0.411038 -0.822077 12.3371 1.64415 18.1034 1.09728 4.11038 0 2.33394zm293.302 -35.3765l12.4776 -3.56706 0.409857 17.2766 -1.23193 8.36369 0.822077 4.52497 0.820896 3.9781 -1.64297 17.2778 -0.686245 5.62225 -1.23312 0.411038 1.91936 1.23193 -1.50832 20.8448 4.38441 17.6888 -0.822077 17.6888 -1.23193 3.97337 1.23193 1.23312 -0.822077 20.4338 1.23312 11.2445 0.411038 14.9427 -2.46505 12.0666 3.29185 1.09728 0.411038 11.2445 3.56233 15.3584 -3.15248 1.23312 2.3304 1.91936 3.97455 15.6325 -2.74144 0.822077 3.15602 3.29185 1.23312 16.4557 8.9141 16.8667 0 2.74144 3.15248 0 5.62225 14.1206 7.67744 17.2778 0 0.822077 9.60034 16.0447 9.18458 5.21121 11.6555 4.80017 18.9219 -3.9781 3.56706 3.56706 -7.54161 9.32041 -17.2778 6.03329 -6.85536 2.74498 -11.2433 2.05519 -8.50306 -1.64415 -5.21121 -2.3304 -10.8299 -4.52378 -5.21121 -7.13057 -8.36369 -4.11393 -14.9462 -9.18931 -4.80017 -10.8299 -5.62225 -10.0114 -13.2997 -15.7695 -3.15602 -3.56233 -1.23312 -6.03683 -3.97455 -4.79663 0.411038 -4.80017 -6.44787 -19.333 -4.38559 -12.4812 0 -12.8875 2.74144 -1.50832 -4.38913 -11.6555 0 -11.6555 -2.74144 -12.8887 -1.23312 -12.4764 -1.23193 -12.4776 2.46505 -1.09728 -2.46505 -1.6477 -0.826801 -10.0078 -6.44314 17.9605 -8.77472 15.7683 -8.09202 16.8667 -4.79663 7.54161 -2.05874 0 -0.822077 4.11393 -1.50832 3.9781 -8.08848 16.451 -1.6477 0 0 2.88081 1.6477 0 -6.44787 13.9859 -8.77354 16.4557 -9.5968 16.4557 -5.62225 11.2433 -8.9141 8.91056 -13.9859 20.8448 -5.62225 6.85536 -5.76162 3.56351 -12.3371 9.32396 -12.0666 5.62225 -12.8922 5.62225 -7.67744 2.05874 -7.95265 -2.88081 -0.411038 1.64415 -15.2214 -1.23312 -10.1472 -7.67626 -6.85536 -10.8335 -3.9781 -8.77472 -1.64415 -4.52851 0.411038 -4.38559 -1.09728 -8.77827 -1.23312 -9.32159 -0.822077 -17.5518 1.23312 -15.3584 4.38913 -2.3304 -2.46977 -2.05519 -0.411038 -8.09202 1.23312 -7.95265 4.11393 -1.64415 -2.87727 -0.82562 -0.411038 -7.54161 0.822077 -7.67626 0.411038 -19.3365 4.38559 -9.5968 1.23666 -9.18576 2.74144 -0.414582 0 -10.1472 0.822077 -9.59562 2.05874 -9.60034 2.3304 -9.73263 -0.275207 -17.964 0.275207 -18.5097 -1.50832 -0.82562 2.74144 -1.64415 -5.21121 -16.8667 2.05874 -16.8667 -3.9781 -13.5737 -2.05519 -4.52497 -4.80017 -4.79663 -8.9141 -6.44787 -11.2445 1.23666 -15.6289 9.18576 -2.46977 -1.50832 -1.09728 3.15248 -10.8299 8.09084 -11.3839 5.21121 -1.91936 -0.822077 -7.67744 6.85536 -4.38913 -1.6477 -2.46505 -2.3304 7.26522 -8.0873 8.50306 -6.44433 1.09374 0 16.1805 -13.3032 16.8656 -12.7528 16.8667 -12.8887 12.7528 -8.49834 14.1253 -7.13057 4.38559 -1.6477 4.11393 0.411038 11.2433 -0.411038 5.21121 0.822077 5.62225 0.82562 3.56351 8.36369 2.05874 0 4.38559 8.49834 1.6477 13.1639 -2.05874 13.3032 -2.05519 0.411038 0 26.0513 0 18.9219 -1.91936 9.60034 -2.46977 9.73618 -5.21121 20.8401 -3.56351 3.15602 2.74144 2.05519 -0.822077 10.0114 -1.91936 9.73618 2.74144 3.15248 -0.411038 3.29185 -3.56351 17.9593 -6.85891 21.3917 0.411038 13.5749 -3.15248 13.7143 -0.822077 0.820896 -0.409857 26.8746 1.91818 12.4812 0.822077 13.5749 5.62225 14.1206 5.21121 8.09202 6.85536 4.80017 7.2664 4.38559 8.36723 -0.411038 8.08848 -2.46623 2.88081 2.46623 10.0067 -7.67744 8.36723 -7.54161 6.85536 -9.73618 8.08848 -10.0102 3.9781 -9.5968 4.80017 -9.32514 5.21121 -8.77472 5.62225 -8.09202 3.69935 -11.6555 4.38913 -11.2433 4.38795 -11.6555 5.21121 -11.2445 5.62225 -7.54161 9.5968 -19.3318 3.29185 -21.2559 1.64415 0 7.54161 -17.6888 8.50306 -19.3318 4.38559 -20.8413 3.15602 -21.2559 0 -2.46977 0 -5.61752 4.11393 -16.8667 5.62107 -16.8667 4.79663 -7.2664 9.60034 -3.56706 10.1472 -3.9781 11.9307 -3.69816zm30.1653 -143.842l1.23312 1.23666 -7.67744 20.9771 -4.80017 5.21121 -4.80017 3.9781 -3.15129 2.46505 -6.85536 5.62225 -0.411038 1.50832 -10.4224 11.2445 -10.8335 3.70289 -13.2997 9.5968 -4.80017 3.56706 -2.88081 1.23312 -3.97337 3.70289 -1.23784 0.275207 -2.05401 1.23312 -0.686245 0.411038 -2.46623 2.46977 -12.4812 7.13057 -3.15248 1.64297 -2.05519 3.29185 -0.82562 0.687426 -5.21121 2.87609 -4.38559 5.62225 -3.29185 2.46977 -0.686245 0.686245 -8.49952 3.28831 -2.74498 -2.05519 -3.69816 3.70289 -1.64888 0.411038 -1.50832 0 -3.29185 -1.6477 0.411038 -2.05519 2.05992 -5.21121 0.820896 -1.23312 1.50832 -1.91936 9.73618 -13.7131 2.74144 -4.38559 3.29185 -2.46977 0.822077 -1.50832 5.21121 -12.0666 6.03329 -7.2664 0.411038 0 1.91936 -1.6477 3.70289 -4.79663 0.411038 -1.6477 1.91936 -1.91936 18.9255 -28.9321 6.85418 -14.5328 3.97455 -4.80017 2.46977 -1.23312 3.56706 -5.62225 1.64415 -1.23666 2.74144 -2.74144 2.88081 -5.62225 0.411038 -0.820896 3.97455 -2.74144 2.05874 -0.415763 6.71953 -0.822077 1.64415 1.23784 2.88081 1.09256 13.9848 15.7695 0 1.50832 0.822077 1.23666 1.23784 0.411038 10.8287 2.87727 3.9781 0.686245z"/>
  <path class="fil2" d="M1795.8 1060.75l-1.23312 -17.2778 -6.03211 -21.3905 -23.3111 -41.2751 -7.2664 -16.0435 -0.411038 -10.5583 1.23312 -0.411038 -0.411038 -4.38559 0.411038 -3.56706 -2.74144 -3.70289 -2.88081 0.411038 -8.36369 6.85891 -18.5097 24.5442 -1.6477 0.411038 -6.85536 8.77354 -19.1971 27.7002 -0.411038 0.822077 -3.29185 5.21121 -3.97455 4.52497 -22.4878 33.7323 -21.6669 46.8926 -2.46623 10.9693 0.822077 12.3418 3.97455 5.62225 7.26995 4.936 12.0666 4.38795 30.1653 -2.46977 20.4303 -7.54043 14.8116 -7.67744 5.20649 -2.88081 3.70289 -2.74144 12.4776 -8.09202 30.4416 -26.8734 8.91292 -14.1253 0.411038 -2.3304 0.822077 -4.79663zm61.8436 -90.7757l3.56351 17.6876 -4.38559 9.60034 -0.82562 16.4522 -9.59562 16.8656 -0.411038 8.50306 -4.38913 11.2445 -12.0666 13.5749 -12.8887 19.7428 -10.0114 4.80017 -36.6096 33.7335 -30.9921 17.2778 -10.4177 9.18458 -12.0666 6.85536 -11.6555 2.05874 -0.275207 2.3304 -2.88081 1.23312 -9.18576 1.23666 -10.5571 6.85536 -14.397 3.15248 -15.2226 -3.15248 -10.1472 1.91936 -6.03329 -1.09728 -8.36251 -5.62225 -3.1572 -2.46623 -1.23193 0 -12.4776 -16.4557 -2.88081 -14.5352 4.11393 -21.6634 1.09728 -2.74498 0.822077 -2.46623 2.05874 -2.33394 4.80017 -8.49952 0.822077 -3.56706 0.822077 -1.23312 5.62107 -13.2985 15.2191 -22.9 3.29185 -7.54161 7.13057 -7.2664 17.2778 -24.9576 11.6544 -10.8335 3.70289 -8.77472 12.7528 -11.6555 0.411038 -2.46505 3.29185 -2.33512 14.808 -16.5904 -5.21121 -11.2445 1.23312 -13.1639 0.411038 -4.52497 0.82562 -2.3304 -1.23666 -11.2445 3.9781 -12.4764 -1.91936 -45.3879 0.686245 -1.64415 0.411038 -6.03329 2.05519 -3.15248 -0.822077 -10.4224 3.70289 -23.3111 -1.64415 -1.64297 1.64415 -0.415763 1.50832 -25.6403 1.64415 -8.49952 -1.23312 -12.8922 0.411038 -2.3304 -0.411038 -4.79545 1.23312 -4.52969 10.4224 -7.12585 2.88081 -5.62225 4.79545 -4.11393 6.44787 4.11393 8.36369 1.91936 2.05519 0.822077 0.411038 2.05519 2.33394 0.82562 1.64415 36.0592 -3.15248 15.7695 -0.414582 11.2433 -1.64415 2.74144 -1.64415 3.9781 -1.91936 1.64415 0.682702 8.09202 -3.97455 32.0858 -5.21121 7.68098 -0.822077 16.862 -6.85418 28.5223 -0.415763 0.411038 -1.09256 4.38913 -0.415763 2.46977 -1.64297 22.0732 3.9781 -1.23312 2.05401 0 7.68098 -4.38913 15.2191 -17.6888 7.2664 -4.11275 5.62225 -7.54161 1.91936 -3.28831 1.6477 -1.09728 2.05519 -0.411038 2.3304 0 0.411038 3.15248 11.2433 5.21121 1.6477 0.411038 3.97455 2.88081 3.70289 1.91936 18.3751 10.8287 16.8667 13.7143 5.7569 13.2997 7.54161 8.36723 2.46977 3.97455 0.411038 2.05874 -0.411038 2.87727zm63.8988 407.659l-1.23666 2.05519 3.15602 13.7143 -2.74498 14.808 -0.411038 5.62107 1.23666 3.56824 0.682702 1.23193 -5.62225 34.5556 -0.411038 12.0666 -5.20767 20.8401 -3.15602 4.11393 0.411038 1.91936 1.23666 0 -5.62107 14.5363 -3.29185 4.38913 -0.411038 2.74144 -1.50832 3.70289 -2.05874 2.74144 -6.03329 8.0873 -2.87727 3.9781 -0.686245 3.70289 -18.9255 23.5863 -2.05519 2.05519 -3.15248 2.05874 -7.26995 10.0078 -3.56351 3.9781 -4.38913 2.46505 -8.91292 6.44433 -2.46623 4.38913 -20.8448 13.7107 -8.36369 4.80017 -2.05519 1.50832 -8.09202 2.05874 -19.607 11.2445 -9.73618 1.23312 -3.56351 2.05519 -2.74144 0.275207 -3.70289 1.64297 -1.91936 2.88199 -33.0461 6.03211 -1.91936 0 -4.80017 0.686245 -8.09202 1.64415 -3.15248 -1.64415 -5.34704 -0.275207 -4.80017 -1.23312 -8.36369 -0.411038 -3.70171 0.822077 -5.21121 -0.822077 -9.18576 1.64415 -10.0114 -1.64415 -24.9552 -10.8323 -3.9781 0.411038 -10.0067 -7.2664 -11.3839 -4.80017 -20.0192 -14.1218 0 -2.33394 2.74144 -3.69935 1.23666 -10.0114 11.2445 3.97455 3.28831 5.62225 3.9781 2.46977 4.38559 3.15248 6.03683 2.05874 7.2664 6.03329 32.4957 9.5968 25.7797 0.82562 0.822077 1.23312 3.15248 0.822077 7.26995 -2.46977 2.3304 0 4.11393 0.414582 1.50832 0 4.11393 -0.414582 9.18576 -1.23312 3.9781 0.411038 0.822077 0 5.21121 -1.09728 13.2985 -2.46623 10.8335 -4.38913 0.411038 1.50832 0.411038 -0.686245 2.05874 -0.822077 9.5968 -3.70289 4.38913 -1.91936 2.46623 -1.64415 4.38913 -0.822077 8.36369 -3.15602 4.52378 -4.11393 1.09728 0 19.7476 -13.1639 3.56351 -5.21121 2.88081 -1.64297 3.15248 -3.15248 2.46977 -2.05874 -0.411038 -2.05519 3.56351 -0.411038 2.88081 -4.38913 4.38559 -3.56351 11.6544 -16.4557 3.29185 -2.88081 1.50832 -2.46623 8.09202 -12.3406 0.411038 -2.46977 1.23312 -1.64415 2.3304 -3.9781 18.0999 -44.1524 5.62225 -31.4019 2.46977 -27.6955 -6.44433 -28.5223 0.822077 -3.15248 -1.23312 -5.62225 -2.46977 -14.9474 -12.0666 -31.6736 0 -2.88081 -1.91936 -4.80017 -5.62225 -19.607 -21.3905 -30.5775 -2.74144 -2.05874 -5.21121 -5.61871 -12.8887 -12.4812 -17.2778 -7.54043 -3.9781 -0.411038 -8.91292 -2.46623 -7.54161 1.64415 -9.73263 1.64415 -18.7861 7.95619 -12.8922 1.64297 -8.90938 2.88081 -4.38913 3.15248 -19.1971 4.80017 -7.67744 4.79663 -7.26995 1.23666 -5.62225 2.87727 -4.38441 5.62225 -10.8335 5.21121 -14.5363 1.23312 -7.95265 -5.34704 -2.05519 -2.3304 -5.62225 -1.64415 -2.46977 -1.6477 -1.09728 -1.09728 -1.23312 -4.11393 1.23312 0 0 -1.50832 1.09728 -2.05519 2.05874 -2.88081 29.7554 -23.1705 2.46623 -2.88081 3.9781 -2.74144 13.9848 -12.0666 0.822077 -2.46977 2.05874 -0.411038 3.97455 -3.56351 4.80017 -4.38913 0.822077 -0.822077 12.8887 -14.9474 1.23666 -2.32922 0.411038 -2.05874 0 -1.64415 -2.05874 -6.71953 2.74498 -5.75808 10.9693 -10.0114 36.0627 -22.9 2.46623 -2.74144 0.822077 -1.64297 13.5749 -9.60034 7.68098 -9.73618 16.8656 -5.21121 4.79663 -4.38559 2.05874 -1.6477 2.74144 -0.411038 2.05874 0.411038 2.05519 1.6477 1.50832 3.56351 1.6477 8.9141 5.20767 5.21121 -0.411038 10.0067 -3.15248 12.0666 -8.9141 14.5363 -10.0078 4.80017 -2.05874 6.85536 -3.97455 4.38913 -3.56706 4.79663 -14.9462 9.59916 -0.682702 2.47095 -1.6477 3.15129 -1.64415 1.23312 -3.9781 0.411038 -6.03329 6.03329 14.397 2.05874 33.0461 -10.1472 10.0114 2.87727 7.95265 4.38913 2.46977 1.23312 0.411038 0.82562 14.3958 11.2445 25.3663 27.6955 3.15602 10.0114 2.87727 2.87727 1.6477 7.54161 2.74144 2.46977 3.56706 1.64415 2.05519 3.15602 3.56706 3.56351 0.822077 2.05874 0.822077 3.56351 2.88081 11.2445 4.38441 8.9141 7.68098 9.18458 0.682702 10.8335 1.23666 0.822077 3.28831 4.11393 5.21121 40.4518 1.23666 6.85536z"/>
 </g>
</svg>
