<?xml version="1.0" encoding="UTF-8"?>
<!DOCTYPE svg PUBLIC "-//W3C//DTD SVG 1.1//EN" "http://www.w3.org/Graphics/SVG/1.1/DTD/svg11.dtd">
<!-- Creator: CorelDRAW -->
<svg xmlns="http://www.w3.org/2000/svg" xml:space="preserve" width="3508px" height="1772px" style="shape-rendering:geometricPrecision; text-rendering:geometricPrecision; image-rendering:optimizeQuality; fill-rule:evenodd; clip-rule:evenodd"
viewBox="0 0 3508 1771.72"
 xmlns:xlink="http://www.w3.org/1999/xlink">
 <defs>
  <style type="text/css">
   <![CDATA[
    .str0 {stroke:white;stroke-width:19.4416}
    .fil3 {fill:none;fill-rule:nonzero}
    .fil5 {fill:#DA251D;fill-rule:nonzero}
    .fil6 {fill:#DEDEDD;fill-rule:nonzero}
    .fil0 {fill:white;fill-rule:nonzero}
    .fil2 {fill:#C2C1C1;fill-rule:nonzero;fill-opacity:0.180392}
    .fil1 {fill:#C2C1C1;fill-rule:nonzero;fill-opacity:0.309804}
    .fil4 {fill:url(#id0);fill-rule:nonzero}
   ]]>
  </style>
  <linearGradient id="id0" gradientUnits="userSpaceOnUse" x1="1692.66" y1="1175.13" x2="1692.66" y2="287.515">
   <stop offset="0" style="stop-color:#1F1A17"/>
   <stop offset="0.231373" style="stop-color:#1F1A17"/>
   <stop offset="0.25098" style="stop-color:white"/>
   <stop offset="0.270588" style="stop-color:#1F1A17"/>
   <stop offset="0.360784" style="stop-color:#1F1A17"/>
   <stop offset="0.380392" style="stop-color:#1F1A17"/>
   <stop offset="0.4" style="stop-color:white"/>
   <stop offset="0.45098" style="stop-color:#1F1A17"/>
   <stop offset="0.470588" style="stop-color:white"/>
   <stop offset="0.501961" style="stop-color:#1F1A17"/>
   <stop offset="1" style="stop-color:#1F1A17"/>
  </linearGradient>
 </defs>
 <g id="Layer_x0020_1">
  <metadata id="CorelCorpID_0Corel-Layer"/>
  <g id="_128139200">
   <path id="_149564392" class="fil0" d="M291.189 1021.28l-27.9624 8.85386 0 -7.19199 18.3278 -5.23956 -18.3278 -4.81671 0 -7.13766 18.3278 -4.66434 -18.3278 -5.34822 0 -7.29121 27.9624 8.98024 0 7.11049 -17.9853 4.81789 17.9853 4.73757 0 7.18963zm0 -41.9472l-27.9624 8.85386 0 -7.19199 18.3278 -5.23956 -18.3278 -4.81671 0 -7.13766 18.3278 -4.66434 -18.3278 -5.34822 0 -7.29121 27.9624 8.98024 0 7.11049 -17.9853 4.81671 17.9853 4.73875 0 7.18963zm0 -41.9472l-27.9624 8.85386 0 -7.19199 18.3278 -5.23956 -18.3278 -4.81789 0 -7.13648 18.3278 -4.66434 -18.3278 -5.34822 0 -7.29121 27.9624 8.98024 0 7.11049 -17.9853 4.81671 17.9853 4.73875 0 7.18963zm0 -34.7316l-7.39869 0 0 -7.39633 7.39869 0 0 7.39633zm-14.3828 -13.2654c-2.45206,0 -4.83443,-0.611833 -7.1353,-1.81424 -2.2926,-1.2154 -4.05369,-2.93042 -5.25846,-5.15215 -1.21304,-2.21937 -1.82487,-4.70096 -1.82487,-7.44121 0,-4.22377 1.37603,-7.69516 4.12574,-10.4 2.75207,-2.70482 6.21991,-4.05369 10.4177,-4.05369 4.22495,0 7.73059,1.36658 10.5169,4.0903 2.78514,2.73317 4.17062,6.16439 4.17062,10.309 0,2.57135 -0.575218,5.00687 -1.7351,7.33491 -1.16107,2.32804 -2.85955,4.09739 -5.09546,5.31279 -2.23945,1.20241 -4.96317,1.81424 -8.18179,1.81424zm0.396865 -7.58649c2.77687,0 4.89939,-0.656716 6.37228,-1.97606 1.47407,-1.31343 2.2111,-2.93987 2.2111,-4.87222 0,-1.93353 -0.737034,-3.54934 -2.2111,-4.85332 -1.47289,-1.31225 -3.61312,-1.96897 -6.42661,-1.96897 -2.73199,0 -4.84506,0.656716 -6.31794,1.96897 -1.47525,1.30398 -2.2111,2.91979 -2.2111,4.85332 0,1.93235 0.735853,3.55879 2.2111,4.87222 1.47289,1.31934 3.60249,1.97606 6.37228,1.97606zm6.00494 -24.4651l-1.13272 -7.42586c1.43745,-0.314185 2.53356,-0.952003 3.28004,-1.9229 0.745302,-0.960271 1.12327,-2.30914 1.12327,-4.05369 0,-1.91464 -0.3508,-3.35209 -1.05949,-4.31472 -0.485451,-0.654354 -1.1528,-0.979169 -1.96897,-0.979169 -0.566949,0 -1.0335,0.180715 -1.4032,0.530334 -0.349619,0.369698 -0.673253,1.19532 -0.968539,2.47214 -1.31461,5.96714 -2.51938,9.75153 -3.60485,11.352 -1.51068,2.21228 -3.61548,3.31784 -6.30259,3.31784 -2.4178,0 -4.45764,-0.954365 -6.10179,-2.869 -1.6536,-1.91345 -2.48159,-4.87931 -2.48159,-8.89756 0,-3.82809 0.62955,-6.67937 1.86975,-8.5385 1.24965,-1.86148 3.09106,-3.13712 5.53603,-3.83872l1.28627 6.97466c-1.08783,0.297648 -1.92408,0.863417 -2.4993,1.69849 -0.584667,0.835069 -0.871685,2.0233 -0.871685,3.56942 0,1.94889 0.269301,3.34264 0.817352,4.18834 0.387415,0.5575 0.890583,0.835069 1.50242,0.835069 0.530334,0 0.96972,-0.242135 1.33942,-0.735853 0.493719,-0.664985 1.18469,-2.96585 2.08472,-6.91206 0.890583,-3.93794 1.98669,-6.68764 3.28949,-8.25148 1.3217,-1.5473 3.15484,-2.31859 5.50177,-2.31859 2.5619,0 4.77301,1.06894 6.61559,3.21626 1.8414,2.13905 2.75915,5.30334 2.75915,9.50113 0,3.81274 -0.77365,6.82229 -2.32095,9.05111 -1.53431,2.22173 -3.63911,3.66745 -6.2896,4.35134zm-19.9814 -32.0445l0 -6.82111 3.81155 0c-2.96822,-2.4367 -4.45055,-5.34822 -4.45055,-8.71921 0,-1.78825 0.369698,-3.345 1.10555,-4.65607 0.737034,-1.3217 1.85204,-2.40009 3.345,-3.24579 -1.49297,-1.22248 -2.60797,-2.55127 -3.345,-3.97219 -0.735853,-1.41974 -1.10555,-2.93751 -1.10555,-4.55686 0,-2.04929 0.424031,-3.79266 1.2591,-5.21357 0.82562,-1.41974 2.05874,-2.47922 3.66745,-3.18082 1.19532,-0.512617 3.12649,-0.764201 5.79706,-0.764201l17.8778 0 0 7.39633 -15.9821 0c-2.77687,0 -4.56631,0.252765 -5.37421,0.765382 -1.0524,0.682702 -1.58273,1.73392 -1.58273,3.15484 0,1.04295 0.315366,2.01267 0.952003,2.93042 0.630731,0.907119 1.55675,1.56384 2.77923,1.96779 1.22248,0.403952 3.14657,0.610652 5.77934,0.610652l13.4284 0 0 7.39751 -15.3254 0c-2.72372,0 -4.47654,0.134651 -5.26791,0.396865 -0.790186,0.259852 -1.37367,0.672071 -1.75991,1.22248 -0.387415,0.555138 -0.585848,1.30162 -0.585848,2.25599 0,1.14099 0.305916,2.16504 0.927199,3.07216 0.610652,0.917749 1.50005,1.57447 2.65994,1.96897 1.1587,0.395684 3.07452,0.594116 5.76044,0.594116l13.5914 0 0 7.39633 -27.9624 0zm8.52905 -54.0362l-1.21185 6.71363c-2.70718,-0.755933 -4.70096,-2.05047 -6.00494,-3.89187 -1.29453,-1.85204 -1.95125,-4.58402 -1.95125,-8.21486 0,-3.30721 0.396865,-5.76162 1.1776,-7.37979 0.783099,-1.6099 1.77054,-2.74971 2.9753,-3.40642 1.20477,-0.655535 3.40642,-0.987437 6.62504,-0.987437l8.63771 0.0791367c2.45442,0 4.26866,-0.115752 5.43681,-0.359068 1.15988,-0.233867 2.4178,-0.682702 3.74895,-1.32879l0 7.3231c-0.493719,0.188983 -1.22248,0.432299 -2.18512,0.71223 -0.440567,0.115752 -0.728766,0.205519 -0.871685,0.259852 1.23193,1.26737 2.1485,2.61624 2.7686,4.05369 0.611833,1.43745 0.917749,2.9753 0.917749,4.61119 0,2.87609 -0.783099,5.14979 -2.33749,6.80339 -1.56502,1.66305 -3.54107,2.48985 -5.93289,2.48985 -1.5721,0 -2.98357,-0.377966 -4.22259,-1.1339 -1.24256,-0.75357 -2.18512,-1.81424 -2.84183,-3.17137 -0.656716,-1.35832 -1.23193,-3.3261 -1.72565,-5.88801 -0.647267,-3.45131 -1.2591,-5.85021 -1.81424,-7.18136l-0.739397 0c-1.428,0 -2.43434,0.3508 -3.04617,1.0524 -0.602384,0.700419 -0.9083,2.02094 -0.9083,3.97219 0,1.3217 0.261033,2.34575 0.783099,3.08279 0.511436,0.738215 1.41855,1.32997 2.72254,1.78943zm6.00494 -9.89681c0.315366,0.943735 0.692151,2.44615 1.13272,4.50371 0.439386,2.04811 0.870504,3.38752 1.28509,4.02652 0.69097,0.962633 1.55439,1.44808 2.60561,1.44808 1.04413,0 1.93353,-0.387415 2.6871,-1.15988 0.755933,-0.77365 1.1339,-1.75282 1.1339,-2.94814 0,-1.33942 -0.441748,-2.60797 -1.31225,-3.821 -0.664985,-0.898851 -1.48234,-1.48234 -2.45442,-1.76227 -0.62955,-0.19607 -1.83432,-0.287018 -3.60485,-0.287018l-1.47289 0zm13.4284 -21.6527l0 7.39633 -27.9624 0 0 -6.86481 3.97219 0c-1.8792,-1.1776 -3.11822,-2.23945 -3.71116,-3.17374 -0.595297,-0.944916 -0.900032,-2.00558 -0.900032,-3.2009 0,-1.68904 0.468914,-3.30721 1.4032,-4.87104l6.44433 2.2926c-0.800816,1.2402 -1.20477,2.40009 -1.20477,3.46902 0,1.04295 0.27875,1.91345 0.853968,2.63277 0.565768,0.728766 1.59927,1.28627 3.09224,1.70085 1.49297,0.411038 4.61946,0.61892 9.37475,0.61892l8.63771 0zm-14.3828 -12.1882c-2.45206,0 -4.83443,-0.611833 -7.1353,-1.81424 -2.2926,-1.21422 -4.05369,-2.93042 -5.25846,-5.15215 -1.21304,-2.21937 -1.82487,-4.70096 -1.82487,-7.44003 0,-4.22495 1.37603,-7.69516 4.12574,-10.4012 2.75207,-2.70482 6.21991,-4.05369 10.4177,-4.05369 4.22495,0 7.73059,1.36658 10.5169,4.09149 2.78514,2.73199 4.17062,6.16321 4.17062,10.309 0,2.57017 -0.575218,5.00569 -1.7351,7.33373 -1.16107,2.32804 -2.85955,4.09857 -5.09546,5.31279 -2.23945,1.20241 -4.96317,1.81424 -8.18179,1.81424zm0.396865 -7.58649c2.77687,0 4.89939,-0.656716 6.37228,-1.97606 1.47407,-1.31343 2.2111,-2.93987 2.2111,-4.87104 0,-1.93353 -0.737034,-3.55052 -2.2111,-4.85451 -1.47289,-1.31225 -3.61312,-1.96897 -6.42661,-1.96897 -2.73199,0 -4.84506,0.656716 -6.31794,1.96897 -1.47525,1.30398 -2.2111,2.92097 -2.2111,4.85451 0,1.93117 0.735853,3.55761 2.2111,4.87104 1.47289,1.31934 3.60249,1.97606 6.37228,1.97606zm13.9859 -27.073l-38.6057 0 0 -7.39633 38.6057 0 0 7.39633zm-31.7551 -14.9828l-6.85064 0 0 -7.39515 6.85064 0 0 7.39515zm31.7551 0l-27.9624 0 0 -7.39515 27.9624 0 0 7.39515zm0 -22.6662l-27.9624 11.2717 0 -7.76603 14.2741 -5.26791 4.76238 -1.52722c-1.21304,-0.403952 -2.01267,-0.664985 -2.40009,-0.764201 -0.790186,-0.252765 -1.58155,-0.512617 -2.36229,-0.790186l-14.2741 -5.32106 0 -7.61366 27.9624 11.1169 0 6.66166zm-8.89874 -38.4971l1.23193 -7.37861c2.70482,0.952003 4.76356,2.44379 6.17384,4.49426 1.42092,2.03866 2.12252,4.60174 2.12252,7.67626 0,4.86159 -1.58155,8.457 -4.76474,10.7945 -2.54419,1.84259 -5.76044,2.76742 -9.6346,2.76742 -4.63954,0 -8.26919,-1.21304 -10.8949,-3.64029 -2.6245,-2.41662 -3.93676,-5.48406 -3.93676,-9.18576 0,-4.16235 1.37603,-7.44239 4.12574,-9.85193 2.75207,-2.39772 6.95694,-3.55052 12.6288,-3.45131l0 18.5428c2.1922,-0.0531515 3.90014,-0.647267 5.11554,-1.78825 1.2213,-1.14099 1.83196,-2.57017 1.83196,-4.26866 0,-1.16107 -0.314185,-2.13079 -0.942554,-2.92097 -0.638999,-0.791367 -1.65596,-1.39375 -3.0568,-1.78943zm-7.47783 -0.421669c-2.1485,0.0543327 -3.77494,0.602384 -4.89112,1.6536 -1.11264,1.05122 -1.67132,2.33749 -1.67132,3.84699 0,1.61699 0.592935,2.94814 1.77054,3.99936 1.17051,1.05122 2.76978,1.5721 4.7919,1.55439l0 -11.0543zm-15.3785 -13.3859l-6.85064 0 0 -7.39633 6.85064 0 0 7.39633zm31.7551 0l-27.9624 0 0 -7.39633 27.9624 0 0 7.39633zm0 -22.0638l0 7.39633 -27.9624 0 0 -6.86599 3.97219 0c-1.8792,-1.1776 -3.11822,-2.23827 -3.71116,-3.17255 -0.595297,-0.944916 -0.900032,-2.00558 -0.900032,-3.2009 0,-1.68904 0.468914,-3.30721 1.4032,-4.87222l6.44433 2.29378c-0.800816,1.23902 -1.20477,2.40009 -1.20477,3.46784 0,1.04413 0.27875,1.91464 0.853968,2.63395 0.565768,0.728766 1.59927,1.28627 3.09224,1.69967 1.49297,0.41222 4.61946,0.620101 9.37475,0.620101l8.63771 0zm-19.4334 -19.4322l-1.21185 6.71363c-2.70718,-0.755933 -4.70096,-2.05047 -6.00494,-3.89187 -1.29453,-1.85204 -1.95125,-4.58402 -1.95125,-8.21486 0,-3.30721 0.396865,-5.76162 1.1776,-7.37979 0.783099,-1.6099 1.77054,-2.74971 2.9753,-3.40642 1.20477,-0.655535 3.40642,-0.987437 6.62504,-0.987437l8.63771 0.0791367c2.45442,0 4.26866,-0.115752 5.43681,-0.359068 1.15988,-0.233867 2.4178,-0.682702 3.74895,-1.32879l0 7.3231c-0.493719,0.188983 -1.22248,0.432299 -2.18512,0.71223 -0.440567,0.115752 -0.728766,0.205519 -0.871685,0.259852 1.23193,1.26737 2.1485,2.61624 2.7686,4.05369 0.611833,1.43745 0.917749,2.9753 0.917749,4.61119 0,2.87609 -0.783099,5.14979 -2.33749,6.80339 -1.56502,1.66305 -3.54107,2.48985 -5.93289,2.48985 -1.5721,0 -2.98357,-0.377966 -4.22259,-1.1339 -1.24256,-0.75357 -2.18512,-1.81424 -2.84183,-3.17137 -0.656716,-1.35832 -1.23193,-3.3261 -1.72565,-5.88801 -0.647267,-3.45131 -1.2591,-5.85021 -1.81424,-7.18136l-0.739397 0c-1.428,0 -2.43434,0.3508 -3.04617,1.0524 -0.602384,0.700419 -0.9083,2.02094 -0.9083,3.97219 0,1.3217 0.261033,2.34575 0.783099,3.08279 0.511436,0.738215 1.41855,1.33115 2.72254,1.78943zm6.00494 -9.89681c0.315366,0.943735 0.692151,2.44615 1.13272,4.50371 0.439386,2.04811 0.870504,3.38752 1.28509,4.02652 0.69097,0.962633 1.55439,1.44808 2.60561,1.44808 1.04413,0 1.93353,-0.387415 2.6871,-1.15988 0.755933,-0.77365 1.1339,-1.75282 1.1339,-2.94814 0,-1.33942 -0.441748,-2.60797 -1.31225,-3.821 -0.664985,-0.898851 -1.48234,-1.48234 -2.45442,-1.76227 -0.62955,-0.19607 -1.83432,-0.287018 -3.60485,-0.287018l-1.47289 0zm13.4284 -14.5706l-7.39869 0 0 -7.39633 7.39869 0 0 7.39633zm-19.6932 -39.3676l1.31107 7.29947c-1.45517,0.243316 -2.55127,0.798454 -3.28949,1.67132 -0.737034,0.872866 -1.10555,1.99613 -1.10555,3.37926 0,1.85204 0.638999,3.31665 1.90637,4.41276 1.27682,1.0961 3.40642,1.64652 6.39117,1.64652 3.31547,0 5.66241,-0.5575 7.02899,-1.67368 1.3654,-1.11264 2.04811,-2.60561 2.04811,-4.48481 0,-1.41029 -0.394502,-2.55127 -1.19532,-3.45131 -0.800816,-0.89767 -2.17449,-1.52722 -4.11511,-1.89692l1.22957 -7.27113c3.33437,0.755933 5.86084,2.2111 7.55933,4.35134 1.70794,2.13905 2.55364,5.00569 2.55364,8.61055 0,4.0903 -1.28627,7.35263 -3.86589,9.77752 -2.5808,2.43788 -6.15613,3.64974 -10.7224,3.64974 -4.61119,0 -8.20659,-1.22248 -10.7779,-3.65682 -2.57844,-2.44497 -3.86471,-5.74391 -3.86471,-9.90508 0,-3.40642 0.737034,-6.11361 2.20165,-8.12628 1.4658,-2.0044 3.70407,-3.45131 6.70654,-4.33244zm5.31043 -3.89187c-2.45206,0 -4.83443,-0.611833 -7.1353,-1.81542 -2.2926,-1.21422 -4.05369,-2.93042 -5.25846,-5.15097 -1.21304,-2.21937 -1.82487,-4.70096 -1.82487,-7.44121 0,-4.22377 1.37603,-7.69516 4.12574,-10.4 2.75207,-2.70482 6.21991,-4.05369 10.4177,-4.05369 4.22495,0 7.73059,1.36658 10.5169,4.0903 2.78514,2.73199 4.17062,6.16439 4.17062,10.309 0,2.57135 -0.575218,5.00569 -1.7351,7.33373 -1.16107,2.32804 -2.85955,4.09857 -5.09546,5.31279 -2.23945,1.20359 -4.96317,1.81542 -8.18179,1.81542zm0.396865 -7.58649c2.77687,0 4.89939,-0.656716 6.37228,-1.97606 1.47407,-1.31343 2.2111,-2.93987 2.2111,-4.87222 0,-1.93353 -0.737034,-3.55052 -2.2111,-4.85451 -1.47289,-1.31107 -3.61312,-1.96779 -6.42661,-1.96779 -2.73199,0 -4.84506,0.656716 -6.31794,1.96779 -1.47525,1.30398 -2.2111,2.92097 -2.2111,4.85451 0,1.93235 0.735853,3.55879 2.2111,4.87222 1.47289,1.31934 3.60249,1.97606 6.37228,1.97606zm-13.9765 -26.5155l0 -6.82111 3.81155 0c-2.96822,-2.4367 -4.45055,-5.34822 -4.45055,-8.71921 0,-1.78825 0.369698,-3.345 1.10555,-4.65607 0.737034,-1.3217 1.85204,-2.40009 3.345,-3.24579 -1.49297,-1.2213 -2.60797,-2.55127 -3.345,-3.97101 -0.735853,-1.42092 -1.10555,-2.93869 -1.10555,-4.55804 0,-2.04929 0.424031,-3.79266 1.2591,-5.21357 0.82562,-1.41974 2.05874,-2.47922 3.66745,-3.18082 1.19532,-0.512617 3.12649,-0.764201 5.79706,-0.764201l17.8778 0 0 7.39633 -15.9821 0c-2.77687,0 -4.56631,0.252765 -5.37421,0.765382 -1.0524,0.682702 -1.58273,1.73392 -1.58273,3.15484 0,1.04295 0.315366,2.01267 0.952003,2.93042 0.630731,0.907119 1.55675,1.56384 2.77923,1.96779 1.22248,0.403952 3.14657,0.610652 5.77934,0.610652l13.4284 0 0 7.39751 -15.3254 0c-2.72372,0 -4.47654,0.134651 -5.26791,0.396865 -0.790186,0.259852 -1.37367,0.672071 -1.75991,1.22248 -0.387415,0.555138 -0.585848,1.30162 -0.585848,2.25599 0,1.14099 0.305916,2.16504 0.927199,3.07216 0.610652,0.917749 1.50005,1.57447 2.65994,1.96897 1.1587,0.395684 3.07452,0.594116 5.76044,0.594116l13.5914 0 0 7.39633 -27.9624 0z"/>
   <path id="_149565304" class="fil1" d="M276.016 349.244l0 33.1748c22.1181,-0.197251 39.4939,0.394502 52.3294,1.7788 12.8355,1.57801 22.3142,5.13444 28.4361,10.8583 6.12069,5.5313 10.0704,14.6143 11.6496,26.8569 1.7788,12.2437 2.56663,29.0278 2.37056,50.5518l0 626.764c0.19607,21.1283 -0.591754,37.9147 -2.37056,50.1573 -1.97369,12.2426 -5.92344,21.1283 -12.0465,26.8557 -6.12069,5.72619 -15.4021,9.47751 -28.0392,11.0567 -12.6382,1.58037 -29.6207,2.17331 -51.1448,1.97487l0 33.1748 231.039 0 0 -33.1748c-20.9334,0.198432 -37.5191,-0.394502 -49.764,-1.97487 -12.2426,-1.57919 -21.5228,-5.33051 -27.4463,-11.0567 -5.92462,-5.72737 -9.87319,-14.6131 -11.652,-26.8557 -1.77526,-12.2426 -2.56663,-29.029 -2.3682,-50.1573l0 -671.786 2.3682 0 464.445 804.485 61.6109 0 0 -759.463c-0.197251,-21.1295 0.789005,-37.9136 2.56781,-50.1561 1.77644,-12.2437 5.72501,-21.1283 11.6496,-26.8557 5.92344,-5.72619 14.8092,-9.47869 26.8557,-11.0591 11.8481,-1.58037 27.8431,-2.17213 47.7868,-1.97487l0 -33.1748 -231.038 0 0 33.1748c21.7213,-0.197251 39.1006,0.394502 51.9349,1.97487 13.0316,1.58037 22.7099,5.33287 29.0266,11.0591 6.32031,5.72737 10.4673,14.6119 12.441,26.8557 1.97487,12.2426 2.76506,29.0266 2.56663,50.1561l0 650.46 -2.3682 0 -444.303 -773.681 -176.537 0zm1120.83 887.421c37.323,0.198432 72.0758,-4.936 104.463,-15.2037 32.3834,-10.4673 61.0156,-27.4486 85.5031,-51.5393 24.6836,-23.8946 43.8382,-55.8847 57.856,-96.1664 13.8253,-40.2841 20.9334,-90.243 21.1295,-149.88 0,-64.1763 -10.4638,-119.27 -31.0003,-165.28 -20.5389,-45.8119 -50.9487,-80.9616 -90.8359,-105.645 -39.8896,-24.4851 -88.8611,-36.9261 -147.115,-37.1246 -58.4489,0.198432 -107.817,12.8355 -147.705,37.7175 -39.8896,24.8808 -70.1021,60.2266 -90.4414,106.238 -20.5366,45.8119 -30.8043,100.511 -30.8043,164.094 0,102.091 22.3142,179.697 66.9414,232.817 44.6284,52.9212 111.964,79.5784 202.009,79.973zm-1.18351 -582.924c24.4851,-0.395684 48.1813,3.55525 71.0884,11.6508 22.9059,8.09557 43.6398,22.3142 62.0042,42.2578 18.1672,19.9436 32.7803,47.5907 43.6421,82.9364 10.6622,35.5442 16.1911,80.1714 16.3884,134.476 0.197251,27.4486 -1.57919,54.5004 -5.33169,80.9616 -3.55406,26.4612 -9.67594,51.3408 -18.1672,74.6424 -8.6885,23.3016 -20.3381,43.8382 -35.1485,61.8081 -14.6131,17.7727 -33.1748,31.7917 -55.2917,42.0617 -22.1158,10.0693 -48.3785,15.2037 -79.1839,15.4021 -30.6082,-0.198432 -57.0694,-5.33287 -79.1851,-15.4021 -22.1169,-10.2701 -40.6786,-24.2891 -55.2906,-42.0617 -14.8116,-17.9699 -26.4612,-38.5065 -34.9524,-61.8081 -8.6885,-23.3016 -14.8104,-48.1813 -18.3644,-74.6424 -3.7525,-26.4612 -5.52894,-53.5129 -5.33169,-80.9616 0.197251,-53.3169 5.53012,-97.7456 15.9951,-132.897 10.4661,-35.1497 24.6824,-62.9916 42.8508,-83.1337 17.9688,-20.3381 38.5053,-34.754 61.6109,-43.048 23.1032,-8.49125 47.1938,-12.4398 72.6676,-12.2426zm479.848 -248.811c-14.0214,0 -25.4749,5.92462 -34.5579,17.3782 -9.08182,11.4524 -13.6257,28.2376 -14.0202,50.1561 0.394502,21.9197 4.93837,38.7038 14.0202,50.1573 9.083,11.4536 20.5366,17.1798 34.5579,17.377 9.28025,0 17.5743,-2.56781 25.0769,-7.70106 7.50499,-5.33051 13.4284,-12.8355 17.7739,-22.9059 4.5415,-10.0716 6.71363,-22.3142 6.9097,-36.9273 0,-13.23 -1.97369,-24.8796 -6.12069,-34.9513 -3.94975,-10.0704 -9.67594,-17.9699 -16.9825,-23.6961 -7.50263,-5.92344 -16.3896,-8.88693 -26.6573,-8.88693zm34.3583 210.896c-16.3896,9.87437 -31.7917,18.1684 -46.7993,25.2765 -14.8104,6.91206 -30.6082,12.6382 -47.3923,17.377 -16.7841,4.73875 -36.3332,8.68732 -58.6474,11.8481l0 23.6961c21.5228,-0.197251 38.3092,0.197251 50.5518,1.38312 12.2426,1.18351 21.3256,3.94857 26.8557,8.88457 5.72619,4.73993 9.28144,12.441 10.6622,23.1056 1.58037,10.8606 2.17331,25.6698 1.97487,44.8244l0 336.486c0.198432,18.7589 -0.394502,33.965 -1.97487,45.4186 -1.57919,11.2551 -5.33169,19.9436 -11.0591,25.6698 -5.72501,5.72737 -14.6108,9.67594 -26.8533,11.6496 -12.2449,1.7788 -29.029,2.76506 -50.1573,2.56781l0 28.4349 247.623 0 0 -28.4349c-20.3381,0.197251 -36.1371,-0.789005 -47.7868,-2.56781 -11.6496,-1.97369 -20.1421,-5.72619 -25.4726,-11.4536 -5.33169,-5.72619 -8.88575,-14.2163 -10.2701,-25.4714 -1.38194,-11.2563 -1.97369,-26.0679 -1.77644,-44.6296l0 -488.139 -9.47869 -5.9258zm636.241 100.71c6.51756,-16.7864 12.4398,-29.2274 17.9688,-37.323 5.53012,-8.294 12.0465,-13.6245 19.3531,-16.1911 7.30656,-2.56899 16.9825,-3.55643 29.029,-3.35799l0 -28.4361 -157.581 0 0 28.4361c20.3405,-0.198432 34.7552,1.38194 42.8508,4.34543 8.09793,3.1572 12.0465,8.88457 11.652,16.9825 0,2.96113 -0.592935,6.51519 -1.58037,10.6622 -1.18469,4.147 -2.56663,8.88693 -4.34543,14.2174l-159.949 418.237 -2.3682 0 -151.657 -398.097c-3.55406,-9.47632 -6.31676,-17.5743 -8.09557,-24.4851 -1.77762,-6.91206 -2.56663,-13.0328 -2.56663,-18.1672 -0.198432,-9.28025 4.147,-15.6006 13.23,-18.9562 9.08418,-3.35799 24.2879,-4.93837 46.0103,-4.73993l0 -28.4361 -201.417 0 0 28.4361c10.4661,-0.198432 19.3507,0.592935 26.4612,2.17331 7.10813,1.57919 13.4284,4.93482 18.9562,10.2677 5.33051,5.33169 10.8606,13.4284 16.588,24.4851 5.52894,11.0591 12.2426,26.0667 19.7452,44.8256l196.68 495.249 26.0655 0 204.971 -520.129zm496.435 127.957l-80.5682 18.9586c-45.0217,9.47751 -84.5156,20.7326 -118.481,33.3721 -33.9638,12.8355 -62.7944,27.0518 -86.4905,42.4539 -29.8168,18.9586 -51.3408,40.4826 -64.1763,64.7716 -12.8355,24.2879 -19.1546,51.3408 -18.7601,80.9616 0.198432,25.4726 5.13444,47.7868 14.6131,66.7429 9.67594,18.9574 22.7087,34.7552 39.4928,47.1962 16.588,12.6371 35.7426,22.1169 57.2666,28.4337 21.7213,6.12305 44.6272,9.28144 68.719,9.28144 28.6321,-0.19607 54.5004,-3.15838 77.4063,-9.28144 22.9071,-6.12069 43.6421,-14.8092 62.3999,-26.0643 18.7601,-11.0591 36.1371,-24.2891 52.1322,-39.2967l3.55406 0c5.33169,21.9197 14.6131,38.7038 27.6471,50.1573 13.2288,11.4536 30.4098,17.377 51.7353,17.377 15.2061,0 28.4349,-1.38194 39.4939,-4.147 11.2563,-2.76388 21.7201,-6.51638 31.5944,-11.2563l-8.294 -27.2502c-5.33051,2.96231 -11.0579,5.33287 -16.9825,6.91206 -6.12069,1.77644 -12.6371,2.56781 -19.7452,2.56781 -13.6257,0 -23.6961,-7.30656 -30.4098,-22.1181 -6.51874,-14.6119 -9.87437,-36.5316 -9.87437,-65.5583l0 -312.79c0,-61.4124 -16.7852,-106.83 -49.9589,-136.253 -33.3721,-29.4223 -82.5419,-44.0366 -147.904,-43.8382 -33.1748,0.198432 -63.1901,4.5415 -89.8485,12.6394 -26.6573,8.29164 -49.3659,18.9562 -68.3233,31.9878 -18.9574,13.0339 -33.3732,27.0541 -43.4425,41.8633 -10.0704,14.8116 -15.2061,29.029 -15.2061,42.6535 0,9.08418 2.37056,16.9837 7.50499,23.3016 4.93482,6.31912 12.6359,9.67712 23.3016,9.87319 11.0567,0 19.7452,-2.56663 25.6698,-7.50263 6.12187,-4.93837 10.6622,-12.0465 13.4284,-20.9334 4.5415,-10.6622 10.2677,-21.3244 16.9813,-32.5807 6.91088,-11.0591 15.6006,-21.3268 26.2639,-31.0027 10.6622,-9.47869 24.0906,-17.3782 40.4802,-23.3016 16.1923,-5.92462 36.1359,-8.88575 59.636,-9.083 31.0015,0 56.0808,5.13444 75.0369,15.5994 19.1546,10.2677 32.7791,25.4737 41.47,45.4174 8.49007,20.1421 12.8343,44.8256 12.6371,74.0507l0 55.6851zm0 274.876c-12.6371,12.8355 -26.8569,24.882 -42.8508,36.1371 -15.9951,11.2551 -33.965,20.5366 -53.7126,27.6447 -19.7452,7.10931 -41.6649,10.6646 -65.7555,10.8618 -26.2639,0 -49.1711,-4.34307 -68.5218,-13.0339 -19.5491,-8.6885 -34.5568,-21.7201 -45.4174,-39.0983 -10.8606,-17.377 -16.1911,-39.0983 -16.3896,-65.1638 -0.198432,-20.9322 4.936,-40.2829 15.2037,-58.0568 10.2689,-17.5731 26.8557,-34.1599 49.7628,-49.5632 22.9059,-15.4033 53.1196,-30.2137 90.4403,-44.2339 37.5202,-14.019 83.1337,-27.6447 137.241,-41.2692l0 235.775z"/>
   <path id="_149543320" class="fil1" d="M214.286 358.063l0 33.176c22.1181,-0.198432 39.4951,0.394502 52.3306,1.77762 12.8343,1.57801 22.3142,5.13444 28.4349,10.8594 6.12187,5.53012 10.0704,14.6131 11.6508,26.8557 1.77762,12.2437 2.56663,29.0278 2.37056,50.5518l0 626.764c0.19607,21.1283 -0.592935,37.9147 -2.37056,50.1573 -1.97487,12.2426 -5.92344,21.1295 -12.0465,26.8557 -6.12187,5.72737 -15.4021,9.47751 -28.0392,11.0567 -12.6394,1.58037 -29.6219,2.17331 -51.1448,1.97487l0 33.1748 231.038 0 0 -33.1748c-20.9322,0.198432 -37.5191,-0.394502 -49.7628,-1.97487 -12.2426,-1.57919 -21.524,-5.32933 -27.4463,-11.0567 -5.9258,-5.72619 -9.87437,-14.6131 -11.652,-26.8557 -1.77644,-12.2426 -2.56781,-29.029 -2.36938,-50.1573l0 -671.786 2.36938 0 464.445 804.485 61.6109 0 0 -759.463c-0.198432,-21.1295 0.789005,-37.9136 2.56663,-50.1561 1.77644,-12.2437 5.72501,-21.1283 11.6496,-26.8557 5.92344,-5.72619 14.8104,-9.47869 26.8569,-11.0591 11.8481,-1.57919 27.8431,-2.17213 47.7868,-1.97369l0 -33.176 -231.039 0 0 33.176c21.7224,-0.198432 39.1006,0.394502 51.9361,1.97369 13.0316,1.58037 22.7087,5.33287 29.0266,11.0591 6.31912,5.72737 10.4661,14.6119 12.441,26.8557 1.97369,12.2426 2.76506,29.0266 2.56663,50.1561l0 650.46 -2.36938 0 -444.303 -773.681 -176.537 0zm1120.83 887.421c37.3218,0.198432 72.0758,-4.936 104.462,-15.2037 32.3846,-10.4673 61.0168,-27.4486 85.5031,-51.5393 24.6836,-23.8946 43.8382,-55.8847 57.8572,-96.1664 13.8241,-40.2841 20.9322,-90.243 21.1295,-149.88 0,-64.1763 -10.4649,-119.27 -31.0015,-165.28 -20.5377,-45.8119 -50.9487,-80.9616 -90.8359,-105.645 -39.8884,-24.4851 -88.8611,-36.9261 -147.114,-37.1246 -58.4501,0.198432 -107.818,12.8355 -147.706,37.7175 -39.8896,24.8808 -70.1009,60.2278 -90.4414,106.238 -20.5366,45.8119 -30.8043,100.511 -30.8043,164.094 0,102.091 22.3142,179.697 66.9414,232.817 44.6296,52.9212 111.965,79.5784 202.01,79.973zm-1.18351 -582.923c24.4851,-0.396865 48.1813,3.55406 71.0884,11.6496 22.9048,8.09557 43.6398,22.3142 62.003,42.2578 18.1684,19.9436 32.7815,47.5907 43.6421,82.9364 10.6622,35.5442 16.1911,80.1714 16.3896,134.476 0.19607,27.4486 -1.58037,54.5004 -5.33287,80.9616 -3.55406,26.4612 -9.67476,51.3408 -18.1672,74.6424 -8.6885,23.3016 -20.3381,43.8382 -35.1473,61.8081 -14.6131,17.7727 -33.176,31.7917 -55.2917,42.0617 -22.1169,10.0693 -48.3797,15.2037 -79.1839,15.4021 -30.6082,-0.198432 -57.0694,-5.33287 -79.1863,-15.4021 -22.1158,-10.2701 -40.6786,-24.2891 -55.2894,-42.0617 -14.8116,-17.9699 -26.4612,-38.5065 -34.9536,-61.8081 -8.6885,-23.3016 -14.8092,-48.1813 -18.3633,-74.6424 -3.7525,-26.4612 -5.52894,-53.5129 -5.33287,-80.9616 0.198432,-53.3169 5.53012,-97.7456 15.9951,-132.895 10.4661,-35.1497 24.6836,-62.9928 42.8508,-83.1349 17.9699,-20.3381 38.5053,-34.754 61.6109,-43.0468 23.1032,-8.49243 47.1938,-12.441 72.6688,-12.2426zm479.847 -248.812c-14.0202,0 -25.4737,5.92462 -34.5568,17.3782 -9.083,11.4524 -13.6269,28.2376 -14.0214,50.1561 0.394502,21.9197 4.93837,38.7038 14.0214,50.1573 9.083,11.4536 20.5366,17.1809 34.5568,17.377 9.28144,0 17.5754,-2.56781 25.0781,-7.70106 7.50499,-5.33051 13.4273,-12.8355 17.7727,-22.9059 4.5415,-10.0716 6.71363,-22.3142 6.91088,-36.9273 0,-13.23 -1.97487,-24.8796 -6.12187,-34.9513 -3.94857,-10.0704 -9.67594,-17.9699 -16.9825,-23.6961 -7.50263,-5.92344 -16.3896,-8.88693 -26.6573,-8.88693zm34.3583 210.896c-16.3884,9.87437 -31.7917,18.1684 -46.7993,25.2765 -14.8092,6.91206 -30.6082,12.6394 -47.3923,17.377 -16.7841,4.73875 -36.3332,8.68732 -58.6474,11.8481l0 23.6961c21.524,-0.197251 38.3092,0.197251 50.5518,1.38312 12.2426,1.18351 21.3256,3.94857 26.8557,8.88457 5.72737,4.73993 9.28144,12.441 10.6634,23.1056 1.57919,10.8606 2.17213,25.6698 1.97369,44.8256l0 336.485c0.198432,18.7589 -0.394502,33.965 -1.97369,45.4186 -1.58037,11.2551 -5.33287,19.9436 -11.0591,25.6698 -5.72501,5.72737 -14.6119,9.67594 -26.8545,11.6496 -12.2437,1.7788 -29.0278,2.76624 -50.1573,2.56781l0 28.4349 247.623 0 0 -28.4349c-20.3381,0.198432 -36.1359,-0.789005 -47.7868,-2.56781 -11.6496,-1.97369 -20.1409,-5.72619 -25.4714,-11.4536 -5.33287,-5.72619 -8.88693,-14.2163 -10.2701,-25.4714 -1.38194,-11.2563 -1.97487,-26.0679 -1.77644,-44.6296l0 -488.139 -9.47987 -5.9258zm636.241 100.71c6.51756,-16.7864 12.441,-29.2274 17.9699,-37.323 5.53012,-8.294 12.0453,-13.6233 19.3531,-16.1911 7.30656,-2.56899 16.9813,-3.55643 29.0278,-3.35799l0 -28.4349 -157.581 0 0 28.4349c20.3405,-0.198432 34.7552,1.38194 42.8508,4.34543 8.09793,3.1572 12.0465,8.88457 11.652,16.9825 0,2.96113 -0.592935,6.51519 -1.57919,10.6622 -1.18587,4.147 -2.56781,8.88693 -4.34543,14.2174l-159.949 418.237 -2.36938 0 -151.655 -398.097c-3.55406,-9.47632 -6.31794,-17.5743 -8.09557,-24.484 -1.7788,-6.91324 -2.56781,-13.0339 -2.56781,-18.1684 -0.198432,-9.28025 4.147,-15.6006 13.23,-18.9562 9.08418,-3.35799 24.2891,-4.93837 46.0103,-4.73993l0 -28.4349 -201.417 0 0 28.4349c10.4673,-0.198432 19.3519,0.592935 26.4612,2.17331 7.10931,1.57919 13.4284,4.936 18.9574,10.2677 5.33051,5.33287 10.8606,13.4284 16.5868,24.4851 5.52894,11.0591 12.2426,26.0667 19.7464,44.8256l196.68 495.249 26.0643 0 204.971 -520.129zm496.435 127.957l-80.5671 18.9586c-45.0217,9.47751 -84.5168,20.7326 -118.481,33.3721 -33.965,12.8355 -62.7944,27.0518 -86.4905,42.4539 -29.818,18.9586 -51.342,40.4826 -64.1763,64.7716 -12.8355,24.2891 -19.1546,51.3408 -18.7601,80.9616 0.197251,25.4726 5.13326,47.7868 14.6131,66.7429 9.67476,18.9574 22.7087,34.7552 39.4928,47.1962 16.588,12.6371 35.7426,22.1169 57.2654,28.4337 21.7224,6.12305 44.6272,9.28144 68.7202,9.28144 28.6321,-0.19607 54.5004,-3.15838 77.4051,-9.28144 22.9071,-6.12069 43.6421,-14.8092 62.3999,-26.0643 18.7613,-11.0591 36.1371,-24.2891 52.1322,-39.2967l3.55406 0c5.33287,21.9197 14.6143,38.7038 27.6471,50.1573 13.23,11.4536 30.4098,17.377 51.7353,17.377 15.2061,0 28.4361,-1.38194 39.4951,-4.147 11.2551,-2.76388 21.7201,-6.51638 31.5933,-11.2551l-8.294 -27.2514c-5.33051,2.96231 -11.0567,5.33287 -16.9813,6.91324 -6.12187,1.77526 -12.6371,2.56663 -19.7464,2.56663 -13.6257,0 -23.6961,-7.30656 -30.4098,-22.1181 -6.51756,-14.6119 -9.87319,-36.5316 -9.87319,-65.5583l0 -312.788c0,-61.4136 -16.7864,-106.831 -49.9601,-136.254 -33.3709,-29.4223 -82.5419,-44.0354 -147.903,-43.8382 -33.176,0.198432 -63.1912,4.5415 -89.8485,12.6394 -26.6584,8.29164 -49.3671,18.9562 -68.3233,31.9878 -18.9586,13.0339 -33.3732,27.0541 -43.4437,41.8633 -10.0704,14.8116 -15.2061,29.029 -15.2061,42.6535 0,9.08418 2.37056,16.9837 7.50499,23.3016 4.936,6.31912 12.6371,9.67712 23.3016,9.87319 11.0567,0 19.7452,-2.56663 25.671,-7.50263 6.12069,-4.93837 10.6622,-12.0465 13.4273,-20.9334 4.5415,-10.6622 10.2689,-21.3244 16.9825,-32.5807 6.9097,-11.0591 15.6006,-21.3268 26.2628,-31.0027 10.6634,-9.47869 24.0906,-17.3782 40.4802,-23.3016 16.1935,-5.92462 36.1371,-8.88575 59.6372,-9.08182 31.0003,0 56.0808,5.13326 75.0369,15.5982 19.1546,10.2677 32.7791,25.4737 41.4688,45.4174 8.49007,20.1421 12.8355,44.8256 12.6371,74.0507l0 55.6851zm0 274.877c-12.6371,12.8343 -26.8557,24.8808 -42.8508,36.1359 -15.9951,11.2563 -33.9638,20.5366 -53.7114,27.6447 -19.7464,7.10931 -41.6661,10.6657 -65.7567,10.8618 -26.2628,0 -49.1699,-4.34307 -68.5206,-13.0339 -19.5491,-8.6885 -34.5579,-21.7201 -45.4186,-39.0983 -10.8606,-17.377 -16.1911,-39.0983 -16.3896,-65.1638 -0.198432,-20.9322 4.936,-40.2829 15.2049,-58.0568 10.2677,-17.5731 26.8557,-34.1599 49.7628,-49.562 22.9048,-15.4045 53.1184,-30.2149 90.4391,-44.2351 37.5202,-14.019 83.1349,-27.6447 137.241,-41.2692l0 235.777z"/>
   <path id="_128137424" class="fil2" d="M276.016 410.975l0 33.1748c22.1181,-0.198432 39.4939,0.394502 52.3294,1.77762 12.8355,1.57801 22.3142,5.13444 28.4361,10.8594 6.12069,5.53012 10.0704,14.6131 11.6496,26.8557 1.7788,12.2449 2.56663,29.029 2.37056,50.5518l0 626.764c0.19607,21.1295 -0.591754,37.9147 -2.37056,50.1573 -1.97369,12.2426 -5.92344,21.1295 -12.0465,26.8557 -6.12069,5.72737 -15.4021,9.47751 -28.0392,11.0579 -12.6382,1.57919 -29.6207,2.17213 -51.1448,1.97369l0 33.176 231.039 0 0 -33.176c-20.9334,0.198432 -37.5191,-0.394502 -49.764,-1.97369 -12.2426,-1.58037 -21.5228,-5.33051 -27.4463,-11.0579 -5.92462,-5.72619 -9.87319,-14.6131 -11.652,-26.8557 -1.77526,-12.2426 -2.56663,-29.0278 -2.3682,-50.1573l0 -671.786 2.3682 0 464.445 804.485 61.6109 0 0 -759.463c-0.197251,-21.1283 0.789005,-37.9124 2.56781,-50.155 1.77644,-12.2449 5.72501,-21.1295 11.6496,-26.8557 5.92344,-5.72737 14.8092,-9.47987 26.8557,-11.0591 11.8481,-1.58037 27.8431,-2.17331 47.7868,-1.97487l0 -33.1748 -231.038 0 0 33.1748c21.7213,-0.198432 39.1006,0.394502 51.9349,1.97487 13.0316,1.57919 22.7099,5.33169 29.0266,11.0591 6.32031,5.72619 10.4673,14.6108 12.441,26.8557 1.97487,12.2426 2.76506,29.0266 2.56663,50.155l0 650.46 -2.3682 0 -444.303 -773.679 -176.537 0zm1120.83 887.42c37.323,0.198432 72.0758,-4.93482 104.463,-15.2037 32.3834,-10.4661 61.0156,-27.4486 85.5031,-51.5393 24.6836,-23.8946 43.8382,-55.8835 57.856,-96.1664 13.8253,-40.2829 20.9334,-90.243 21.1295,-149.879 0,-64.1763 -10.4638,-119.27 -31.0003,-165.28 -20.5389,-45.8131 -50.9487,-80.9628 -90.8359,-105.646 -39.8896,-24.4851 -88.8611,-36.9249 -147.115,-37.1234 -58.4489,0.198432 -107.817,12.8355 -147.705,37.7163 -39.8896,24.882 -70.1021,60.2278 -90.4414,106.238 -20.5366,45.8131 -30.8043,100.512 -30.8043,164.095 0,102.091 22.3142,179.697 66.9414,232.815 44.6284,52.9212 111.964,79.5784 202.009,79.973zm-1.18351 -582.923c24.4851,-0.396865 48.1813,3.55406 71.0884,11.6496 22.9059,8.09557 43.6398,22.3142 62.0042,42.2578 18.1672,19.9448 32.7803,47.5907 43.6421,82.9364 10.6622,35.5442 16.1911,80.1714 16.3884,134.476 0.197251,27.4486 -1.57919,54.5016 -5.33169,80.9628 -3.55406,26.4612 -9.67594,51.3408 -18.1672,74.6424 -8.6885,23.3016 -20.3381,43.8382 -35.1485,61.8069 -14.6131,17.7739 -33.1748,31.7917 -55.2917,42.0617 -22.1158,10.0704 -48.3785,15.2049 -79.1839,15.4021 -30.6082,-0.197251 -57.0694,-5.33169 -79.1851,-15.4021 -22.1169,-10.2701 -40.6786,-24.2879 -55.2906,-42.0617 -14.8116,-17.9688 -26.4612,-38.5053 -34.9524,-61.8069 -8.6885,-23.3016 -14.8104,-48.1813 -18.3644,-74.6424 -3.7525,-26.4612 -5.52894,-53.5141 -5.33169,-80.9628 0.197251,-53.3169 5.53012,-97.7456 15.9951,-132.895 10.4661,-35.1497 24.6824,-62.9928 42.8508,-83.1349 17.9688,-20.3381 38.5053,-34.7528 61.6109,-43.0468 23.1032,-8.49243 47.1938,-12.441 72.6676,-12.2426zm479.848 -248.812c-14.0214,0 -25.4749,5.9258 -34.5579,17.3794 -9.08182,11.4512 -13.6257,28.2376 -14.0202,50.155 0.394502,21.9209 4.93837,38.7038 14.0202,50.1573 9.083,11.4536 20.5366,17.1809 34.5579,17.377 9.28025,0 17.5743,-2.56663 25.0769,-7.70106 7.50499,-5.33051 13.4284,-12.8355 17.7739,-22.9048 4.5415,-10.0728 6.71363,-22.3154 6.9097,-36.9285 0,-13.2288 -1.97369,-24.8796 -6.12069,-34.9513 -3.94975,-10.0704 -9.67594,-17.9688 -16.9825,-23.6961 -7.50263,-5.92344 -16.3896,-8.88693 -26.6573,-8.88693zm34.3583 210.897c-16.3896,9.87319 -31.7917,18.1672 -46.7993,25.2753 -14.8104,6.91324 -30.6082,12.6394 -47.3923,17.377 -16.7841,4.73993 -36.3332,8.6885 -58.6474,11.8481l0 23.6961c21.5228,-0.19607 38.3092,0.198432 50.5518,1.38312 12.2426,1.18351 21.3256,3.94975 26.8557,8.88575 5.72619,4.73875 9.28144,12.4398 10.6622,23.1044 1.58037,10.8618 2.17331,25.671 1.97487,44.8256l0 336.486c0.198432,18.7578 -0.394502,33.9638 -1.97487,45.4174 -1.57919,11.2551 -5.33169,19.9436 -11.0591,25.671 -5.72501,5.72619 -14.6108,9.67476 -26.8533,11.6496 -12.2449,1.77762 -29.029,2.76506 -50.1573,2.56663l0 28.4361 247.623 0 0 -28.4361c-20.3381,0.198432 -36.1371,-0.789005 -47.7868,-2.56663 -11.6496,-1.97487 -20.1421,-5.72737 -25.4726,-11.4536 -5.33169,-5.72737 -8.88575,-14.2174 -10.2701,-25.4726 -1.38194,-11.2551 -1.97369,-26.0667 -1.77644,-44.6284l0 -488.14 -9.47869 -5.92462zm636.241 100.709c6.51756,-16.7852 12.4398,-29.2262 17.9688,-37.3218 5.53012,-8.294 12.0465,-13.6245 19.3531,-16.1911 7.30656,-2.56899 16.9825,-3.55643 29.029,-3.35799l0 -28.4361 -157.581 0 0 28.4361c20.3405,-0.198432 34.7552,1.38076 42.8508,4.34425 8.09793,3.15838 12.0465,8.88457 11.652,16.9825 0,2.96113 -0.592935,6.51638 -1.58037,10.6634 -1.18469,4.14582 -2.56663,8.88575 -4.34543,14.2163l-159.949 418.239 -2.3682 0 -151.657 -398.097c-3.55406,-9.47751 -6.31676,-17.5754 -8.09557,-24.4851 -1.77762,-6.91206 -2.56663,-13.0339 -2.56663,-18.1672 -0.198432,-9.28144 4.147,-15.6006 13.23,-18.9574 9.08418,-3.35799 24.2879,-4.93719 46.0103,-4.73875l0 -28.4361 -201.417 0 0 28.4361c10.4661,-0.198432 19.3507,0.591754 26.4612,2.17213 7.10813,1.58037 13.4284,4.936 18.9562,10.2677 5.33051,5.33287 10.8606,13.4284 16.588,24.4851 5.52894,11.0591 12.2426,26.0679 19.7452,44.8256l196.68 495.249 26.0655 0 204.971 -520.129zm496.435 127.958l-80.5682 18.9586c-45.0217,9.47751 -84.5156,20.7326 -118.481,33.3709 -33.9638,12.8355 -62.7944,27.0529 -86.4905,42.4551 -29.8168,18.9586 -51.3408,40.4814 -64.1763,64.7704 -12.8355,24.2891 -19.1546,51.3408 -18.7601,80.9628 0.198432,25.4714 5.13444,47.7868 14.6131,66.7429 9.67594,18.9562 22.7087,34.7552 39.4928,47.1962 16.588,12.6371 35.7426,22.1158 57.2666,28.4337 21.7213,6.12305 44.6272,9.28025 68.719,9.28025 28.6321,-0.19607 54.5004,-3.1572 77.4063,-9.28025 22.9071,-6.12187 43.6421,-14.8104 62.3999,-26.0655 18.7601,-11.0591 36.1371,-24.2891 52.1322,-39.2967l3.55406 0c5.33169,21.9209 14.6131,38.7038 27.6471,50.1573 13.2288,11.4536 30.4098,17.377 51.7353,17.377 15.2061,0 28.4349,-1.38194 39.4939,-4.147 11.2563,-2.7627 21.7201,-6.51519 31.5944,-11.2551l-8.294 -27.2502c-5.33051,2.96113 -11.0579,5.33169 -16.9825,6.91206 -6.12069,1.77644 -12.6371,2.56663 -19.7452,2.56663 -13.6257,0 -23.6961,-7.30656 -30.4098,-22.1181 -6.51874,-14.6108 -9.87437,-36.5316 -9.87437,-65.5571l0 -312.79c0,-61.4124 -16.7852,-106.831 -49.9589,-136.253 -33.3721,-29.4235 -82.5419,-44.0366 -147.904,-43.8382 -33.1748,0.198432 -63.1901,4.5415 -89.8485,12.6382 -26.6573,8.29282 -49.3659,18.9574 -68.3233,31.9889 -18.9574,13.0328 -33.3732,27.0541 -43.4425,41.8633 -10.0704,14.8116 -15.2061,29.0278 -15.2061,42.6523 0,9.08537 2.37056,16.9849 7.50499,23.3016 4.93482,6.32031 12.6359,9.67712 23.3016,9.87437 11.0567,0 19.7452,-2.56781 25.6698,-7.50381 6.12187,-4.93719 10.6622,-12.0453 13.4284,-20.9322 4.5415,-10.6622 10.2677,-21.3256 16.9813,-32.5807 6.91088,-11.0591 15.6006,-21.3279 26.2639,-31.0027 10.6622,-9.47987 24.0906,-17.3782 40.4802,-23.3016 16.1923,-5.92462 36.1359,-8.88693 59.636,-9.083 31.0015,0 56.0808,5.13444 75.0369,15.5982 19.1546,10.2689 32.7791,25.4749 41.47,45.4186 8.49007,20.1421 12.8343,44.8244 12.6371,74.0495l0 55.6863zm0 274.876c-12.6371,12.8355 -26.8569,24.882 -42.8508,36.1371 -15.9951,11.2551 -33.965,20.5366 -53.7126,27.6447 -19.7452,7.10813 -41.6649,10.6646 -65.7555,10.8606 -26.2639,0 -49.1711,-4.34307 -68.5218,-13.0328 -19.5491,-8.6885 -34.5568,-21.7201 -45.4174,-39.0994 -10.8606,-17.3758 -16.1911,-39.0983 -16.3896,-65.1626 -0.198432,-20.9334 4.936,-40.2841 15.2037,-58.0568 10.2689,-17.5731 26.8557,-34.1611 49.7628,-49.5632 22.9059,-15.4045 53.1196,-30.2137 90.4403,-44.2339 37.5202,-14.019 83.1337,-27.6459 137.241,-41.2692l0 235.775z"/>
   <g>
    <path id="_128139944" class="fil3 str0" d="M249.559 287.515l0 33.1748c22.1193,-0.198432 39.4951,0.394502 52.3306,1.77762 12.8355,1.57801 22.3142,5.13444 28.4361,10.8594 6.12069,5.53012 10.0693,14.6131 11.6496,26.8557 1.77762,12.2449 2.56663,29.029 2.37056,50.5518l0 626.764c0.19607,21.1295 -0.592935,37.9147 -2.37056,50.1573 -1.97487,12.2426 -5.92344,21.1295 -12.0465,26.8557 -6.12069,5.72737 -15.4021,9.47751 -28.0392,11.0579 -12.6394,1.57919 -29.6207,2.17213 -51.1448,1.97369l0 33.176 231.038 0 0 -33.176c-20.9322,0.198432 -37.5179,-0.394502 -49.7628,-1.97369 -12.2426,-1.58037 -21.5228,-5.33051 -27.4463,-11.0579 -5.92462,-5.72619 -9.87437,-14.6131 -11.652,-26.8557 -1.77644,-12.2426 -2.56663,-29.0278 -2.36938,-50.1573l0 -671.786 2.36938 0 464.445 804.485 61.6109 0 0 -759.463c-0.198432,-21.1283 0.789005,-37.9124 2.56781,-50.155 1.77526,-12.2449 5.72383,-21.1295 11.6496,-26.8557 5.92226,-5.72737 14.8092,-9.47987 26.8557,-11.0591 11.8481,-1.58037 27.8431,-2.17331 47.7868,-1.97487l0 -33.1748 -231.038 0 0 33.1748c21.7213,-0.198432 39.0994,0.394502 51.9349,1.97487 13.0316,1.57919 22.7087,5.33169 29.0266,11.0591 6.31912,5.72619 10.4661,14.6108 12.441,26.8557 1.97369,12.2426 2.76506,29.0266 2.56663,50.155l0 650.46 -2.3682 0 -444.304 -773.679 -176.537 0zm1120.83 887.42c37.3218,0.198432 72.0758,-4.936 104.462,-15.2037 32.3846,-10.4661 61.0168,-27.4486 85.5043,-51.5393 24.6824,-23.8946 43.8382,-55.8847 57.856,-96.1664 13.8241,-40.2829 20.9334,-90.243 21.1295,-149.879 0,-64.1763 -10.4649,-119.27 -31.0015,-165.28 -20.5377,-45.8131 -50.9475,-80.9628 -90.8348,-105.646 -39.8896,-24.4851 -88.8622,-36.9249 -147.115,-37.1234 -58.4489,0.198432 -107.817,12.8355 -147.706,37.7163 -39.8884,24.882 -70.1009,60.2278 -90.4403,106.238 -20.5366,45.8131 -30.8054,100.512 -30.8054,164.095 0,102.091 22.3154,179.697 66.9414,232.815 44.6296,52.9212 111.965,79.5784 202.01,79.973zm-1.18351 -582.923c24.4851,-0.396865 48.1813,3.55406 71.0884,11.6496 22.9059,8.09557 43.6398,22.3142 62.0042,42.2578 18.1672,19.9436 32.7803,47.5907 43.6409,82.9364 10.6634,35.5442 16.1911,80.1714 16.3896,134.476 0.19607,27.4486 -1.57919,54.5016 -5.33169,80.9628 -3.55406,26.4612 -9.67594,51.3408 -18.1684,74.6424 -8.68732,23.3016 -20.3381,43.8382 -35.1473,61.8069 -14.6131,17.7727 -33.1748,31.7917 -55.2917,42.0617 -22.1158,10.0704 -48.3797,15.2049 -79.1839,15.4021 -30.6082,-0.197251 -57.0694,-5.33169 -79.1863,-15.4021 -22.1158,-10.2701 -40.6774,-24.2891 -55.2894,-42.0617 -14.8116,-17.9688 -26.4612,-38.5053 -34.9536,-61.8069 -8.68732,-23.3016 -14.8092,-48.1813 -18.3633,-74.6424 -3.7525,-26.4612 -5.52894,-53.5141 -5.33287,-80.9628 0.198432,-53.3169 5.5313,-97.7456 15.9951,-132.895 10.4673,-35.1497 24.6836,-62.9928 42.8508,-83.1349 17.9699,-20.3381 38.5065,-34.7528 61.6121,-43.0468 23.1032,-8.49243 47.1938,-12.441 72.6676,-12.2426zm479.847 -248.812c-14.0202,0 -25.4737,5.9258 -34.5568,17.3794 -9.083,11.4512 -13.6257,28.2376 -14.0202,50.155 0.394502,21.9197 4.93719,38.7038 14.0202,50.1573 9.083,11.4536 20.5366,17.1809 34.5568,17.377 9.28144,0 17.5754,-2.56663 25.0781,-7.70106 7.50499,-5.33051 13.4284,-12.8355 17.7727,-22.9048 4.5415,-10.0728 6.71481,-22.3154 6.91088,-36.9285 0,-13.23 -1.97487,-24.8796 -6.12187,-34.9513 -3.94857,-10.0704 -9.67476,-17.9688 -16.9813,-23.6961 -7.50381,-5.92344 -16.3896,-8.88693 -26.6584,-8.88693zm34.3595 210.897c-16.3896,9.87319 -31.7917,18.1672 -46.7993,25.2753 -14.8104,6.91206 -30.6094,12.6394 -47.3923,17.377 -16.7841,4.73993 -36.3332,8.6885 -58.6486,11.8481l0 23.6961c21.524,-0.19607 38.3104,0.198432 50.553,1.38312 12.2414,1.18351 21.3244,3.94975 26.8557,8.88457 5.72619,4.73993 9.28025,12.441 10.6622,23.1056 1.58037,10.8618 2.17213,25.671 1.97487,44.8256l0 336.486c0.197251,18.7578 -0.394502,33.9638 -1.97487,45.4174 -1.58037,11.2551 -5.33169,19.9436 -11.0591,25.671 -5.72501,5.72619 -14.6108,9.67476 -26.8533,11.6496 -12.2449,1.77762 -29.029,2.76506 -50.1585,2.56663l0 28.4361 247.625 0 0 -28.4361c-20.3381,0.198432 -36.1371,-0.789005 -47.7868,-2.56663 -11.6496,-1.97487 -20.1421,-5.72737 -25.4726,-11.4536 -5.33287,-5.72737 -8.88693,-14.2174 -10.2701,-25.4726 -1.38194,-11.2551 -1.97487,-26.0667 -1.77644,-44.6284l0 -488.14 -9.47869 -5.92462zm636.24 100.709c6.51874,-16.7852 12.441,-29.2262 17.9699,-37.3218 5.53012,-8.294 12.0465,-13.6245 19.3531,-16.1911 7.30656,-2.56899 16.9825,-3.55643 29.0278,-3.35799l0 -28.4361 -157.58 0 0 28.4361c20.3393,-0.198432 34.7552,1.38076 42.8508,4.34425 8.09675,3.15838 12.0453,8.88457 11.652,16.9825 0,2.96113 -0.592935,6.51638 -1.58037,10.6622 -1.18587,4.147 -2.56663,8.88693 -4.34543,14.2174l-159.949 418.239 -2.36938 0 -151.655 -398.097c-3.55406,-9.47751 -6.31794,-17.5754 -8.09557,-24.4851 -1.77762,-6.91206 -2.56663,-13.0339 -2.56663,-18.1672 -0.198432,-9.28144 4.14582,-15.6006 13.2288,-18.9574 9.08537,-3.35799 24.2891,-4.93719 46.0115,-4.73875l0 -28.4361 -201.417 0 0 28.4361c10.4661,-0.198432 19.3507,0.591754 26.4612,2.17213 7.10813,1.58037 13.4273,4.936 18.9562,10.2677 5.33051,5.33287 10.8606,13.4284 16.588,24.4851 5.52776,11.0591 12.2426,26.0679 19.7452,44.8256l196.68 495.249 26.0643 0 204.971 -520.129zm496.435 127.958l-80.5671 18.9586c-45.0217,9.47751 -84.5168,20.7326 -118.481,33.3709 -33.9638,12.8355 -62.7944,27.0529 -86.4905,42.4551 -29.818,18.9586 -51.3408,40.4814 -64.1763,64.7704 -12.8355,24.2891 -19.1546,51.3408 -18.7601,80.9628 0.198432,25.4714 5.13444,47.7868 14.6131,66.7429 9.67594,18.9562 22.7087,34.7552 39.4928,47.1962 16.588,12.6371 35.7426,22.1158 57.2666,28.4337 21.7213,6.12305 44.626,9.28025 68.719,9.28025 28.6321,-0.19607 54.5004,-3.1572 77.4063,-9.28025 22.9071,-6.12187 43.6409,-14.8104 62.3999,-26.0655 18.7601,-11.0591 36.1371,-24.2891 52.1322,-39.2967l3.55406 0c5.33169,21.9197 14.6131,38.7038 27.6459,50.1573 13.23,11.4536 30.4109,17.377 51.7353,17.377 15.2061,0 28.4361,-1.38194 39.4951,-4.147 11.2551,-2.7627 21.7201,-6.51519 31.5933,-11.2551l-8.29282 -27.2502c-5.33051,2.96113 -11.0579,5.33169 -16.9825,6.91206 -6.12187,1.77644 -12.6371,2.56663 -19.7452,2.56663 -13.6269,0 -23.6961,-7.30656 -30.4109,-22.1181 -6.51756,-14.6108 -9.87319,-36.5316 -9.87319,-65.5571l0 -312.79c0,-61.4124 -16.7864,-106.831 -49.9589,-136.253 -33.3721,-29.4235 -82.5419,-44.0366 -147.904,-43.8382 -33.1748,0.198432 -63.1912,4.5415 -89.8485,12.6382 -26.6573,8.29282 -49.3659,18.9574 -68.3233,31.9889 -18.9586,13.0328 -33.3732,27.0541 -43.4437,41.8633 -10.0693,14.8116 -15.2061,29.0278 -15.2061,42.6523 0,9.08537 2.37174,16.9837 7.50499,23.3016 4.936,6.31912 12.6371,9.67712 23.3016,9.87437 11.0579,0 19.7464,-2.56781 25.671,-7.50381 6.12069,-4.93719 10.6622,-12.0453 13.4273,-20.9322 4.5415,-10.6634 10.2689,-21.3256 16.9825,-32.5807 6.91088,-11.0591 15.6006,-21.3279 26.2628,-31.0027 10.6634,-9.47987 24.0906,-17.3794 40.4802,-23.3016 16.1935,-5.9258 36.1371,-8.88693 59.6372,-9.083 31.0003,0 56.0808,5.13444 75.0369,15.5982 19.1546,10.2689 32.7791,25.4749 41.4688,45.4186 8.49007,20.1421 12.8355,44.8244 12.6371,74.0495l0 55.6863zm0 274.876c-12.6371,12.8355 -26.8557,24.882 -42.8508,36.1371 -15.9951,11.2551 -33.9638,20.5366 -53.7114,27.6447 -19.7452,7.10813 -41.6649,10.6646 -65.7555,10.8606 -26.2639,0 -49.1711,-4.34307 -68.5218,-13.0339 -19.5491,-8.68732 -34.5568,-21.7189 -45.4186,-39.0983 -10.8606,-17.3758 -16.1911,-39.0983 -16.3884,-65.1626 -0.198432,-20.9334 4.93482,-40.2841 15.2037,-58.0568 10.2677,-17.5731 26.8557,-34.1611 49.7628,-49.5632 22.9048,-15.4045 53.1196,-30.2137 90.4391,-44.2351 37.5202,-14.0178 83.1349,-27.6447 137.241,-41.268l0 235.775z"/>
    <path id="_1281399441" class="fil4" d="M249.559 287.515l0 33.1748c22.1193,-0.198432 39.4951,0.394502 52.3306,1.77762 12.8355,1.57801 22.3142,5.13444 28.4361,10.8594 6.12069,5.53012 10.0693,14.6131 11.6496,26.8557 1.77762,12.2449 2.56663,29.029 2.37056,50.5518l0 626.764c0.19607,21.1295 -0.592935,37.9147 -2.37056,50.1573 -1.97487,12.2426 -5.92344,21.1295 -12.0465,26.8557 -6.12069,5.72737 -15.4021,9.47751 -28.0392,11.0579 -12.6394,1.57919 -29.6207,2.17213 -51.1448,1.97369l0 33.176 231.038 0 0 -33.176c-20.9322,0.198432 -37.5179,-0.394502 -49.7628,-1.97369 -12.2426,-1.58037 -21.5228,-5.33051 -27.4463,-11.0579 -5.92462,-5.72619 -9.87437,-14.6131 -11.652,-26.8557 -1.77644,-12.2426 -2.56663,-29.0278 -2.36938,-50.1573l0 -671.786 2.36938 0 464.445 804.485 61.6109 0 0 -759.463c-0.198432,-21.1283 0.789005,-37.9124 2.56781,-50.155 1.77526,-12.2449 5.72383,-21.1295 11.6496,-26.8557 5.92226,-5.72737 14.8092,-9.47987 26.8557,-11.0591 11.8481,-1.58037 27.8431,-2.17331 47.7868,-1.97487l0 -33.1748 -231.038 0 0 33.1748c21.7213,-0.198432 39.0994,0.394502 51.9349,1.97487 13.0316,1.57919 22.7087,5.33169 29.0266,11.0591 6.31912,5.72619 10.4661,14.6108 12.441,26.8557 1.97369,12.2426 2.76506,29.0266 2.56663,50.155l0 650.46 -2.3682 0 -444.304 -773.679 -176.537 0zm1120.83 887.42c37.3218,0.198432 72.0758,-4.936 104.462,-15.2037 32.3846,-10.4661 61.0168,-27.4486 85.5043,-51.5393 24.6824,-23.8946 43.8382,-55.8847 57.856,-96.1664 13.8241,-40.2829 20.9334,-90.243 21.1295,-149.879 0,-64.1763 -10.4649,-119.27 -31.0015,-165.28 -20.5377,-45.8131 -50.9475,-80.9628 -90.8348,-105.646 -39.8896,-24.4851 -88.8622,-36.9249 -147.115,-37.1234 -58.4489,0.198432 -107.817,12.8355 -147.706,37.7163 -39.8884,24.882 -70.1009,60.2278 -90.4403,106.238 -20.5366,45.8131 -30.8054,100.512 -30.8054,164.095 0,102.091 22.3154,179.697 66.9414,232.815 44.6296,52.9212 111.965,79.5784 202.01,79.973zm-1.18351 -582.923c24.4851,-0.396865 48.1813,3.55406 71.0884,11.6496 22.9059,8.09557 43.6398,22.3142 62.0042,42.2578 18.1672,19.9436 32.7803,47.5907 43.6409,82.9364 10.6634,35.5442 16.1911,80.1714 16.3896,134.476 0.19607,27.4486 -1.57919,54.5016 -5.33169,80.9628 -3.55406,26.4612 -9.67594,51.3408 -18.1684,74.6424 -8.68732,23.3016 -20.3381,43.8382 -35.1473,61.8069 -14.6131,17.7727 -33.1748,31.7917 -55.2917,42.0617 -22.1158,10.0704 -48.3797,15.2049 -79.1839,15.4021 -30.6082,-0.197251 -57.0694,-5.33169 -79.1863,-15.4021 -22.1158,-10.2701 -40.6774,-24.2891 -55.2894,-42.0617 -14.8116,-17.9688 -26.4612,-38.5053 -34.9536,-61.8069 -8.68732,-23.3016 -14.8092,-48.1813 -18.3633,-74.6424 -3.7525,-26.4612 -5.52894,-53.5141 -5.33287,-80.9628 0.198432,-53.3169 5.5313,-97.7456 15.9951,-132.895 10.4673,-35.1497 24.6836,-62.9928 42.8508,-83.1349 17.9699,-20.3381 38.5065,-34.7528 61.6121,-43.0468 23.1032,-8.49243 47.1938,-12.441 72.6676,-12.2426zm479.847 -248.812c-14.0202,0 -25.4737,5.9258 -34.5568,17.3794 -9.083,11.4512 -13.6257,28.2376 -14.0202,50.155 0.394502,21.9197 4.93719,38.7038 14.0202,50.1573 9.083,11.4536 20.5366,17.1809 34.5568,17.377 9.28144,0 17.5754,-2.56663 25.0781,-7.70106 7.50499,-5.33051 13.4284,-12.8355 17.7727,-22.9048 4.5415,-10.0728 6.71481,-22.3154 6.91088,-36.9285 0,-13.23 -1.97487,-24.8796 -6.12187,-34.9513 -3.94857,-10.0704 -9.67476,-17.9688 -16.9813,-23.6961 -7.50381,-5.92344 -16.3896,-8.88693 -26.6584,-8.88693zm34.3595 210.897c-16.3896,9.87319 -31.7917,18.1672 -46.7993,25.2753 -14.8104,6.91206 -30.6094,12.6394 -47.3923,17.377 -16.7841,4.73993 -36.3332,8.6885 -58.6486,11.8481l0 23.6961c21.524,-0.19607 38.3104,0.198432 50.553,1.38312 12.2414,1.18351 21.3244,3.94975 26.8557,8.88457 5.72619,4.73993 9.28025,12.441 10.6622,23.1056 1.58037,10.8618 2.17213,25.671 1.97487,44.8256l0 336.486c0.197251,18.7578 -0.394502,33.9638 -1.97487,45.4174 -1.58037,11.2551 -5.33169,19.9436 -11.0591,25.671 -5.72501,5.72619 -14.6108,9.67476 -26.8533,11.6496 -12.2449,1.77762 -29.029,2.76506 -50.1585,2.56663l0 28.4361 247.625 0 0 -28.4361c-20.3381,0.198432 -36.1371,-0.789005 -47.7868,-2.56663 -11.6496,-1.97487 -20.1421,-5.72737 -25.4726,-11.4536 -5.33287,-5.72737 -8.88693,-14.2174 -10.2701,-25.4726 -1.38194,-11.2551 -1.97487,-26.0667 -1.77644,-44.6284l0 -488.14 -9.47869 -5.92462zm636.24 100.709c6.51874,-16.7852 12.441,-29.2262 17.9699,-37.3218 5.53012,-8.294 12.0465,-13.6245 19.3531,-16.1911 7.30656,-2.56899 16.9825,-3.55643 29.0278,-3.35799l0 -28.4361 -157.58 0 0 28.4361c20.3393,-0.198432 34.7552,1.38076 42.8508,4.34425 8.09675,3.15838 12.0453,8.88457 11.652,16.9825 0,2.96113 -0.592935,6.51638 -1.58037,10.6622 -1.18587,4.147 -2.56663,8.88693 -4.34543,14.2174l-159.949 418.239 -2.36938 0 -151.655 -398.097c-3.55406,-9.47751 -6.31794,-17.5754 -8.09557,-24.4851 -1.77762,-6.91206 -2.56663,-13.0339 -2.56663,-18.1672 -0.198432,-9.28144 4.14582,-15.6006 13.2288,-18.9574 9.08537,-3.35799 24.2891,-4.93719 46.0115,-4.73875l0 -28.4361 -201.417 0 0 28.4361c10.4661,-0.198432 19.3507,0.591754 26.4612,2.17213 7.10813,1.58037 13.4273,4.936 18.9562,10.2677 5.33051,5.33287 10.8606,13.4284 16.588,24.4851 5.52776,11.0591 12.2426,26.0679 19.7452,44.8256l196.68 495.249 26.0643 0 204.971 -520.129zm496.435 127.958l-80.5671 18.9586c-45.0217,9.47751 -84.5168,20.7326 -118.481,33.3709 -33.9638,12.8355 -62.7944,27.0529 -86.4905,42.4551 -29.818,18.9586 -51.3408,40.4814 -64.1763,64.7704 -12.8355,24.2891 -19.1546,51.3408 -18.7601,80.9628 0.198432,25.4714 5.13444,47.7868 14.6131,66.7429 9.67594,18.9562 22.7087,34.7552 39.4928,47.1962 16.588,12.6371 35.7426,22.1158 57.2666,28.4337 21.7213,6.12305 44.626,9.28025 68.719,9.28025 28.6321,-0.19607 54.5004,-3.1572 77.4063,-9.28025 22.9071,-6.12187 43.6409,-14.8104 62.3999,-26.0655 18.7601,-11.0591 36.1371,-24.2891 52.1322,-39.2967l3.55406 0c5.33169,21.9197 14.6131,38.7038 27.6459,50.1573 13.23,11.4536 30.4109,17.377 51.7353,17.377 15.2061,0 28.4361,-1.38194 39.4951,-4.147 11.2551,-2.7627 21.7201,-6.51519 31.5933,-11.2551l-8.29282 -27.2502c-5.33051,2.96113 -11.0579,5.33169 -16.9825,6.91206 -6.12187,1.77644 -12.6371,2.56663 -19.7452,2.56663 -13.6269,0 -23.6961,-7.30656 -30.4109,-22.1181 -6.51756,-14.6108 -9.87319,-36.5316 -9.87319,-65.5571l0 -312.79c0,-61.4124 -16.7864,-106.831 -49.9589,-136.253 -33.3721,-29.4235 -82.5419,-44.0366 -147.904,-43.8382 -33.1748,0.198432 -63.1912,4.5415 -89.8485,12.6382 -26.6573,8.29282 -49.3659,18.9574 -68.3233,31.9889 -18.9586,13.0328 -33.3732,27.0541 -43.4437,41.8633 -10.0693,14.8116 -15.2061,29.0278 -15.2061,42.6523 0,9.08537 2.37174,16.9837 7.50499,23.3016 4.936,6.31912 12.6371,9.67712 23.3016,9.87437 11.0579,0 19.7464,-2.56781 25.671,-7.50381 6.12069,-4.93719 10.6622,-12.0453 13.4273,-20.9322 4.5415,-10.6634 10.2689,-21.3256 16.9825,-32.5807 6.91088,-11.0591 15.6006,-21.3279 26.2628,-31.0027 10.6634,-9.47987 24.0906,-17.3794 40.4802,-23.3016 16.1935,-5.9258 36.1371,-8.88693 59.6372,-9.083 31.0003,0 56.0808,5.13444 75.0369,15.5982 19.1546,10.2689 32.7791,25.4749 41.4688,45.4186 8.49007,20.1421 12.8355,44.8244 12.6371,74.0495l0 55.6863zm0 274.876c-12.6371,12.8355 -26.8557,24.882 -42.8508,36.1371 -15.9951,11.2551 -33.9638,20.5366 -53.7114,27.6447 -19.7452,7.10813 -41.6649,10.6646 -65.7555,10.8606 -26.2639,0 -49.1711,-4.34307 -68.5218,-13.0339 -19.5491,-8.68732 -34.5568,-21.7189 -45.4186,-39.0983 -10.8606,-17.3758 -16.1911,-39.0983 -16.3884,-65.1626 -0.198432,-20.9334 4.93482,-40.2841 15.2037,-58.0568 10.2677,-17.5731 26.8557,-34.1611 49.7628,-49.5632 22.9048,-15.4045 53.1196,-30.2137 90.4391,-44.2351 37.5202,-14.0178 83.1349,-27.6447 137.241,-41.268l0 235.775z"/>
   </g>
   <path class="fil5" d="M2369.35 1362.37l12.1528 16.3234c-1.46816,1.90755 -5.22302,4.06904 -11.2291,6.62032 -6.02502,2.48159 -13.9493,5.34232 -23.7221,8.49479 -8.91764,14.0332 -18.2121,26.1659 -27.9636,36.3462 -9.73972,10.2488 -19.8149,18.4459 -30.2857,24.6753 -2.45206,1.35832 -5.27617,2.94578 -8.48771,4.69741 -2.08472,0.491356 -4.48481,0.5575 -7.16719,0.335445 -2.7627,-0.274026 -5.80769,-0.835069 -9.21884,-1.73865 -3.55643,-1.22248 -6.48803,-2.52293 -8.61645,-4.01117 -2.10952,-1.4221 -3.42768,-3.10169 -3.90368,-5.12026 -0.918931,-3.90368 0.0626007,-8.18297 3.04499,-12.7221 2.96585,-4.60646 7.73059,-9.42199 14.2907,-14.4466 13.1438,-10.2689 25.9852,-20.6086 38.6943,-30.9153 2.08472,-0.490175 3.72887,-0.451197 4.87813,0.201976 1.06421,0.602384 1.78943,1.56856 2.10598,2.91507 0.839794,3.56706 -1.02169,7.13175 -5.50177,10.7425 -4.47654,3.60958 -6.62268,5.9636 -6.36991,7.03962 1.2591,1.12563 2.20992,1.54139 2.88199,1.38194 1.68313,-0.394502 4.85096,-3.8399 9.50467,-10.3338 4.65253,-6.49512 6.71953,-10.3905 6.26715,-11.7063l-2.00204 -4.28874 0.213787 -0.902395c2.65285,-3.82218 4.57694,-7.11522 5.6376,-9.85193 1.12917,-2.75207 1.49297,-4.82734 1.14453,-6.30968 -0.774831,-3.29776 -3.42178,-7.29357 -8.01761,-12.037 -4.5982,-4.74348 -11.0803,-10.2547 -19.4983,-16.4415 -6.40889,-4.88521 -12.6571,-9.10072 -18.8463,-12.7599 -6.10534,-3.60604 -11.8847,-6.72071 -17.3333,-9.34876 -2.2489,-1.10319 -4.16235,-2.28906 -5.87147,-3.51863 -1.62762,-1.17996 -3.03909,-2.34221 -4.16235,-3.49855 -2.03039,-2.2926 -3.68163,-4.17771 -4.95254,-5.65414 -1.28863,-1.54376 -2.28197,-2.44851 -3.08279,-2.82766 -0.79491,-0.664985 -1.89219,-1.4032 -3.28949,-2.20992 -1.41501,-0.874047 -3.06271,-1.83668 -4.95726,-2.95404 -3.44186,-2.24418 -6.53173,-5.70847 -9.21529,-10.4779 -2.7686,-4.81907 -4.99742,-10.9717 -6.80339,-18.6467 -1.1717,-4.98089 -1.63943,-9.98658 -1.31934,-14.9651 0.252765,-4.96199 1.29099,-9.60979 3.04499,-13.9292 0.213787,-0.905938 0.409857,-1.8733 0.562225,-3.04735 0.151187,-1.1717 0.284656,-2.4119 0.506711,-3.88479 1.5721,-6.90615 5.12026,-14.7749 10.7118,-23.6217 5.50886,-8.89638 13.2253,-18.6692 22.9886,-29.4211 1.42446,-1.18705 3.0568,-2.70955 4.97616,-4.51079 1.97251,-1.88511 4.06786,-4.15409 6.31912,-6.95694 1.24965,-1.64533 2.71309,-3.26587 4.36079,-4.71985 1.69849,-1.53667 3.68281,-3.0698 6.10179,-4.56276 3.22098,-2.31977 6.89552,-4.81907 10.9256,-7.61602 5.80651,-4.91829 10.6728,-8.69204 14.6013,-11.3213 4.01117,-2.57608 7.0538,-4.14464 9.34167,-4.68324 4.30764,-1.0146 7.85461,-0.428756 10.6953,1.67368 2.77333,2.12015 4.73639,5.63524 5.90809,10.6173 1.3158,5.58681 1.95598,10.1248 1.90637,13.8324 -0.0531515,3.70761 -0.643724,6.33094 -1.78825,7.80855 -12.6347,16.0447 -22.9036,28.2683 -30.9236,36.7596 -7.9491,8.47944 -13.8855,13.1426 -17.7243,14.0462 -1.8166,0.427574 -3.35799,0.222055 -4.67379,-0.532696 -1.32879,-0.82562 -2.17921,-2.32922 -2.67175,-4.4163 -0.838613,-3.56824 1.13744,-8.15462 6.06282,-13.7899 4.9112,-5.70139 7.04435,-9.61452 6.38763,-11.8032l-2.03393 -0.800816c-0.674434,0.158273 -1.36777,0.535059 -2.14614,1.14453 -0.780737,0.610652 -1.53076,1.35477 -2.26189,2.16504 -9.37829,12.0831 -16.1486,22.5575 -20.1964,31.324 -4.11393,8.78299 -5.53957,16.0104 -4.24149,21.5311 1.0146,4.30764 2.80049,8.57747 5.39429,12.656 2.52647,4.09503 5.84194,8.21604 9.84484,12.2473 2.86191,2.80758 6.94159,6.25534 12.1008,10.3681 5.22657,4.09857 11.717,9.03458 19.5739,14.6474 10.8783,7.88532 19.2657,13.9387 25.1111,18.2463 5.84549,4.30882 9.13497,6.51992 9.67003,6.67701 3.43359,2.81585 6.52937,5.70965 9.14088,8.64952 2.6245,3.00483 4.67851,6.00258 6.09707,9.00741 1.19178,2.3493 2.39064,5.33405 3.53162,8.97434 1.12445,3.57178 2.31977,8.05068 3.55643,13.3009 0.696875,2.96231 1.56384,4.53441 2.61742,4.78482 0.985075,0.264576 2.58198,0.100397 4.66907,-0.388597 0.806722,-0.190164 1.38194,-0.466552 1.7729,-0.915387 0.39214,-0.446473 0.767744,-0.960271 1.18114,-1.62644zm-0.204338 0.0460646l0.445292 -1.73865c0.487813,-1.24965 1.18114,-2.83593 2.09535,-4.68324 0.846881,-1.83432 1.88393,-4.0655 3.14421,-6.56598 7.24632,-10.8713 13.8938,-23.376 19.9602,-37.4494 6.05219,-14.1407 11.5551,-30.0011 16.5644,-47.6616 0.728766,-1.73392 1.49887,-3.90486 2.22173,-6.56126 0.792548,-2.67411 1.5095,-5.96951 2.28552,-9.91571 -0.190164,-0.809084 -0.532696,-1.36658 -1.01697,-1.60754 -0.499624,-0.310641 -1.22012,-0.353162 -2.16504,-0.132288 -0.738215,0.174809 -1.97015,0.677977 -3.67572,1.57565 -1.64061,0.882315 -2.93869,1.4032 -3.88124,1.62526l-24.6399 5.79706c-1.07484,0.252765 -2.77569,0.582304 -5.29743,1.0335 -2.45442,0.434661 -4.22141,0.780737 -5.23129,1.01815 -1.48942,-0.28938 -2.84302,-0.610652 -4.03125,-0.827982 -1.23902,-0.135832 -2.44261,-0.419306 -3.63084,-0.637818 -1.67604,-0.174809 -3.06153,-0.630731 -4.12574,-1.23193 -1.08311,-0.668528 -1.72447,-1.58273 -2.00913,-2.79577 -1.98078,-8.41448 -2.60797,-15.0159 -1.85204,-19.9531 0.702781,-4.85451 2.87373,-7.71169 6.57543,-8.5822 3.70407,-0.870504 7.16837,-1.54494 10.4803,-1.96779 3.30957,-0.424031 6.23172,-0.683883 8.91528,-0.748846 1.85794,-0.862236 3.58123,-1.69376 5.23483,-2.50993 3.50209,-0.824439 6.56244,-1.40202 9.11608,-1.71975 2.556,-0.315366 4.58639,-0.438205 5.96006,-0.336626 1.65596,-0.813809 3.25878,-1.5473 4.79663,-2.26425 1.53431,-0.716955 3.27413,-1.47997 5.1994,-2.36111l6.92033 0.432299c4.52024,-1.63116 7.92902,-9.18222 10.198,-22.7866 2.28552,-13.5406 6.4148,-21.048 12.3394,-22.4429 3.09578,-0.728766 5.82422,-0.305916 7.968,1.25083 2.14142,1.55675 3.69816,4.24385 4.60174,8.08257 0.711049,3.02964 0.771288,7.20735 0.111028,12.5497 -0.595297,5.32578 -0.734672,9.2649 -0.416944,11.8209 0.394502,0.476001 0.859873,0.931923 1.47407,1.43037 0.613014,0.492537 1.44572,1.00752 2.57844,1.59455 0.916568,0.279931 1.67841,1.0961 2.29851,2.22882 0.637818,1.19886 1.13862,2.71545 1.5662,4.53441 1.85204,7.87587 2.95759,14.0804 3.21389,18.4979 0.274026,4.48126 -0.362611,6.90379 -1.88038,7.40342l-12.8142 5.92935c0.0472458,1.40792 0.089767,3.10287 0.198432,5.06711 0.0389778,1.97842 0.0236229,4.33008 -0.0637818,6.9782 -0.668528,7.11876 -1.19532,16.0541 -1.58037,26.8002 -0.382691,10.7484 -0.66026,23.4587 -0.846881,38.0659 0.510255,11.5315 1.00279,20.8673 1.45753,27.9353 0.470096,7.1353 1.00988,11.8398 1.56384,14.1974 0.491356,2.08472 1.20831,3.62139 2.11779,4.473 0.927199,0.918931 1.9985,1.23548 3.34264,0.918931 0.740578,-0.174809 3.19263,-2.74026 7.2038,-7.73414 4.07849,-5.00805 9.6157,-12.2792 16.6754,-21.8264l11.9508 16.3695c-1.0146,1.73038 -2.41898,3.90841 -4.31827,6.4148 -1.89456,2.50757 -4.21669,5.32696 -6.9912,8.32589 -1.01224,1.7292 -2.25008,3.72415 -3.77376,6.00258 -1.60754,2.2241 -3.27059,4.81907 -5.0742,7.72941 -1.73746,3.17964 -3.47611,6.35928 -5.14743,9.52475 -1.66896,3.16311 -3.42414,6.27424 -5.19467,9.31923 -2.35756,4.17771 -4.8675,7.39869 -7.54752,9.59208 -2.66584,2.26071 -5.31633,3.66745 -7.94202,4.28519 -5.79115,1.36186 -10.4957,0.693332 -14.13,-2.07527 -3.63556,-2.76742 -6.26834,-7.61838 -7.91603,-14.619 -1.79062,-7.60775 -3.07216,-14.2694 -3.84817,-19.9826 -0.779556,-5.7132 -1.03114,-10.4165 -0.627188,-14.1336 0.301192,-1.13508 0.481907,-2.17449 0.4949,-3.02964 -0.301192,-1.27918 -0.526791,-3.14421 -0.647267,-5.46043 -0.115752,-2.31622 -0.263395,-5.05294 -0.437024,-8.20896 -0.46419,-5.29153 -0.792548,-10.6138 -1.07012,-16.0175 0.683883,-3.43004 1.441,-7.15892 2.1485,-11.0909 -0.157092,-0.674434 -0.837432,-1.15398 -1.95834,-1.38666l-1.68313 1.60281c-1.27446,3.64029 -3.0568,7.54043 -5.39783,11.7843 -2.33867,4.24622 -5.18641,8.75346 -8.65897,13.6174 -5.16042,7.96446 -10.4897,16.1096 -15.871,24.3399 -0.244497,0.767744 -0.765382,1.88511 -1.45989,3.46902 -0.774831,1.53313 -1.52368,3.48556 -2.40954,5.75336 -1.03705,-1.38903 -2.32213,-3.2198 -3.91786,-5.47224 -1.51187,-2.20165 -3.17137,-4.72576 -4.99152,-7.63492 -0.460646,-0.744121 -0.96972,-1.40674 -1.53313,-1.98432 -0.480726,-0.525609 -1.0772,-0.955546 -1.71266,-1.23193zm109.261 -25.7064l0.895308 -1.63234 0.0637818 -2.14732c2.42725,-5.68603 7.1979,-13.4863 14.3143,-23.4032 7.04789,-9.89917 11.7536,-17.6841 14.0462,-23.3382 0.855149,-2.40599 1.97251,-4.30055 3.43359,-5.63997 1.54258,-1.28627 3.11704,-2.15441 4.86632,-2.56427 4.57812,-1.07957 8.74992,-0.853968 12.3855,0.706325 3.70407,1.54494 6.68174,4.53796 8.76882,8.87748 1.90755,3.88597 3.75013,7.78611 5.45689,11.7193 1.78943,3.984 3.42886,7.93021 4.96671,12.0441 1.4906,2.42017 3.56942,6.12424 6.10179,11.1417 2.59616,4.99979 4.31945,7.79437 5.11436,8.45818 0.973263,1.11973 2.2052,1.82487 3.62848,2.1296 1.48824,0.290562 3.16665,0.179534 5.18877,-0.296467 2.3552,-0.553957 4.68442,-1.52958 6.96757,-2.98948 2.28552,-1.46226 4.51079,-3.47611 6.62858,-6.24944 1.62526,-2.15913 3.23161,-4.38323 5.04113,-6.65575 1.72801,-2.32567 3.4702,-4.58166 5.1616,-6.75615l12.1528 16.3234c-1.59573,2.57608 -3.85289,5.66595 -6.72189,9.1834 -2.80049,3.49855 -6.24353,7.57704 -10.3185,12.3016 -4.45055,5.23838 -8.34833,9.21057 -11.7252,12.0654 -3.32728,2.77333 -5.99903,4.39504 -8.01997,4.87104 -11.9142,2.80522 -20.057,3.22807 -24.2076,1.29335 -4.21669,-1.92054 -9.99248,-8.6637 -17.2636,-20.2377 -0.792548,-0.94964 -1.90046,-2.03866 -3.24342,-3.21389 -1.42446,-1.22839 -3.03318,-2.62568 -4.77301,-4.27693 -2.32804,-2.65049 -4.21314,-4.62182 -5.77107,-5.81832 -1.51068,-1.27918 -2.69301,-1.78235 -3.50209,-1.59218 -2.08708,0.492537 -4.58166,2.57135 -7.48373,6.23644 -2.83711,3.65328 -6.214,8.92355 -9.99957,15.7836 -1.06894,-1.52604 -2.36701,-3.42296 -3.93321,-5.54075 -1.49651,-2.13315 -3.15602,-4.65844 -4.97616,-7.56759 -0.460646,-0.744121 -0.96972,-1.40674 -1.53431,-1.9855 -0.477182,-0.526791 -1.07602,-0.954365 -1.70912,-1.22957zm45.7906 -174.964c3.30012,-0.774831 5.8821,-0.672071 7.66445,0.258671 1.86503,0.981531 3.04853,2.69183 3.6332,5.18286 0.064963,3.89423 0.188983,7.13411 0.235048,9.74917 -0.238591,5.03168 -0.46419,9.20348 -0.759476,12.4693 -0.231504,3.25405 -0.46419,5.57973 -0.7016,6.98647 -0.530334,3.17964 -1.54258,6.11715 -3.0568,8.74638 -1.49769,2.7001 -3.54462,5.16987 -6.02738,7.60067 -2.53592,2.80049 -4.6797,4.8675 -6.56126,6.23172 -1.82959,1.28272 -3.14775,2.02094 -3.98754,2.07527 -2.28433,0.252765 -4.50371,0.491356 -6.56953,0.764201 -2.05283,0.341351 -4.10212,0.681521 -6.05573,1.14217 -1.97251,-0.530334 -3.73124,-1.96661 -5.28917,-4.37024 -1.6288,-2.38591 -2.93869,-5.84312 -3.984,-10.2878 -0.934286,-3.96983 0.249222,-9.50585 3.70171,-16.5715 3.36981,-7.1164 6.853,-11.3449 10.459,-12.6205 1.5721,-3.28358 3.46902,-6.9971 5.65886,-11.2764 1.05712,-1.24375 2.63277,-2.39772 4.57812,-3.49383 1.94298,-1.0961 4.30291,-1.93708 7.06206,-2.58671zm67.0347 148.417c0.913025,-1.56384 1.67723,-3.45131 2.42725,-5.68839 0.7016,-2.15323 1.82841,-4.62064 3.25642,-7.30184l10.3149 -14.4336c0.442929,-0.531515 0.587029,-1.13272 0.496081,-1.82251 -0.0755933,-0.621282 -0.229142,-1.57919 -0.499624,-2.72372 -0.545689,-1.71857 -1.06539,-3.01782 -1.58746,-4.03125 -0.713411,-3.02964 -1.29453,-8.22195 -1.82841,-15.6254 -0.451197,-7.35499 -0.373242,-11.8481 0.153549,-13.5371l-2.03157 -3.49973c-0.376785,-9.14679 -0.217331,-19.3448 0.408676,-30.5728 0.641362,-11.1665 1.47879,-23.2957 2.50048,-36.4678 0.855149,-2.40481 1.56856,-5.41319 2.28906,-8.99324 0.653173,-3.56588 1.48116,-7.59358 2.3493,-12.063 0.604746,-7.38924 1.88747,-15.2202 3.8151,-23.6323 1.94653,-8.34243 4.2474,-16.9837 7.03844,-25.9521 3.671,-11.8752 7.35381,-20.9854 10.8972,-27.3612 3.54462,-6.37464 7.23569,-10.0137 11.0732,-10.915 7.60539,-1.79062 13.204,-1.54494 16.7297,0.750027 3.52454,2.29615 6.23763,7.48491 8.15344,15.6313 0.507892,2.15323 0.930742,5.46398 1.22012,10.0137 0.305916,4.61709 0.745302,7.99635 1.26737,10.2157 0.538602,2.28906 0.526791,5.55965 0.0779556,9.99957 -0.530334,4.38795 -0.382691,8.33061 0.425212,11.7642 0.119296,1.11028 0.0200795,2.20047 -0.198432,3.38516l0.849243 2.71309c-0.108665,1.94535 -0.394502,4.35488 -0.853968,7.23451 -0.393321,2.86428 -1.05949,6.36046 -1.8733,10.459 -0.16536,3.52099 -0.421669,7.55933 -0.875228,12.2839 -0.398046,4.6419 -1.02641,9.83421 -1.77408,15.408 -0.506711,1.47053 -1.13508,3.32256 -1.88629,5.56083 -0.836251,2.18512 -1.67604,4.65607 -2.53474,7.34554 -0.00944916,1.77644 -0.223236,3.88715 -0.627188,6.39708 -0.351981,2.42961 -1.01224,5.35649 -1.84849,8.74874 -0.442929,1.73983 -1.10909,3.74305 -1.9607,5.86084 -0.918931,2.13433 -1.91227,4.85687 -3.11704,8.1936 -0.421669,1.52131 -0.916568,3.34146 -1.38548,5.58209 -0.415763,2.15913 -0.96972,4.63481 -1.59573,7.41168 -0.889402,2.55127 -2.12724,5.75572 -3.77376,9.62515 -1.57919,3.85408 -3.35327,8.39085 -5.33759,13.5465 -2.3304,8.21959 -4.95608,16.0848 -7.70933,23.6961 2.99302,12.7245 7.74831,21.765 14.4017,27.0896 6.56835,5.27499 14.9533,6.78568 25.0509,4.40921 0.674434,-0.158273 2.51466,-1.08902 5.59272,-2.80876 3.09106,-1.65124 7.25341,-4.19306 12.5839,-7.50618 1.42919,-1.47525 3.16547,-3.44776 5.06475,-5.95415 1.91227,-2.43906 4.0655,-5.36004 6.47858,-8.69795l11.9508 16.3695c-2.72018,3.83636 -5.425,7.74004 -8.04832,11.6981 -2.68829,3.97101 -5.45925,7.89241 -8.31408,11.7595 -3.24933,4.3159 -6.80339,7.9243 -10.5677,10.6587 -3.81155,2.81585 -7.71169,4.65607 -11.8197,5.62225 -2.0859,0.488994 -5.36358,1.04649 -9.7846,1.591 -4.48481,0.5575 -7.78138,1.04886 -10.0681,1.58746 -7.33845,1.72801 -14.0946,0.190164 -20.3204,-4.52615 -6.17266,-4.79899 -11.6307,-12.8934 -16.3707,-24.2808 -0.553957,-1.15044 -1.19532,-2.06582 -1.88865,-2.89499 -0.623644,-0.848062 -1.73746,-1.65242 -3.16783,-2.59261 -1.35477,2.09299 -2.81349,4.63836 -4.54859,7.53452 -1.80125,2.91034 -3.92967,6.25062 -6.51401,10.0574l-12.1552 -16.3211zm57.6292 -176.897l-1.52131 -0.421669c-5.74036,8.81016 -9.67712,16.8396 -11.9591,24.0552 -2.22882,7.13175 -2.67057,13.7025 -1.27682,19.6247 0.222055,0.942554 0.114571,2.60088 -0.187802,4.94545 -0.367336,2.36111 -0.996886,5.42264 -1.87211,9.25073 -1.18941,4.61473 -2.29615,9.56373 -3.37689,14.9332 -0.750027,7.99044 -1.29217,14.443 -1.49415,19.32 -0.26812,4.89585 -0.098035,8.33652 0.36143,10.2878l1.52486 1.34651c1.1776,-0.419306 2.30914,-1.96188 3.53517,-4.59702 1.16225,-2.61624 2.33749,-6.37464 3.61194,-11.2232 0.454741,-2.59143 1.35241,-5.71674 2.5619,-9.34049 1.20595,-3.62257 2.54182,-7.91721 4.08676,-12.8261 1.40438,-3.38634 3.0131,-11.6496 4.78718,-24.6422 1.75872,-13.0611 2.45914,-21.2535 2.08708,-24.6469 -0.483088,-2.65758 -0.696875,-5.37893 -0.760657,-8.06249 0.00354343,-2.70128 -0.0448835,-5.31633 -0.107484,-8.00344zm53.5838 150.728c0.442929,-0.532696 0.734672,-1.09728 0.95909,-1.6477 0.210244,-0.617739 0.188983,-1.32288 -0.00118114,-2.13197 1.86148,-2.35638 3.76549,-5.4309 5.83131,-9.32868 2.06818,-3.8966 4.34307,-8.41093 6.90025,-13.5584 1.97487,-4.58402 4.07022,-9.26962 6.16439,-13.9552 2.17803,-4.63245 4.61001,-9.39719 7.19199,-14.1253 1.95952,-4.65371 3.88715,-9.43853 5.71674,-14.3474 1.81542,-4.97262 3.7962,-9.84366 6.0073,-14.6261 4.65017,-3.79384 8.34361,-6.51283 10.987,-8.26919 2.65639,-1.69258 4.48126,-2.68947 5.55729,-2.94341 1.95361,-0.459465 3.64383,-0.216149 4.95608,0.823258 1.36186,0.960271 2.32804,2.64931 2.88199,5.00569 0.190164,0.809084 0.25749,1.99968 0.186621,3.508 -0.0566949,1.57565 -0.161817,3.23752 -0.305916,5.04703 -0.240954,2.89735 -0.686245,5.84549 -1.24493,8.89048 0.0661441,4.81435 -0.137013,9.69247 -0.457103,14.6686 -0.403952,4.92655 -0.689789,9.75626 -0.973263,14.5812 0.0507892,5.95769 0.259852,11.378 0.627188,16.2644 0.369698,4.88521 1.06303,9.34167 1.99732,13.3139 1.72565,7.33727 3.34736,12.7103 4.92419,16.1037 1.56738,3.3261 2.95404,4.70686 4.13991,3.99936 1.15634,-1.12327 2.55127,-2.44733 4.2344,-4.05015 1.76463,-1.55084 3.7525,-3.36981 6.02974,-5.4687 1.77054,-3.04499 3.73242,-6.77387 5.84194,-11.1075 2.09063,-4.39976 4.64426,-9.54719 7.6302,-15.5793 1.56856,-4.20488 3.13476,-8.40975 4.78718,-12.565 0.705143,-1.23193 1.48234,-2.7627 2.36111,-4.46118 0.92838,-1.78235 1.74101,-3.46666 2.40363,-5.18286 1.06894,-6.93214 2.73553,-12.2248 5.10491,-16.0494 2.36701,-3.82809 5.43445,-6.18329 9.27317,-7.08569 3.43123,-0.807903 6.21991,-1.03941 8.44519,-0.638999 2.29496,0.385053 4.00881,1.33115 5.14625,2.84183 0.623644,0.846881 1.32524,2.31386 2.11543,4.473 0.810265,2.22646 1.62526,5.08955 2.49694,8.79362 0.348438,1.47879 1.10791,3.50328 2.36583,6.12069 1.25319,2.61742 1.99732,4.57457 2.31386,5.91872 1.14099,4.8486 2.87254,8.2751 5.12617,10.3055 2.31859,2.01149 5.23011,2.60442 8.79717,1.76463 1.01106,-0.238591 2.24063,-0.740578 3.55997,-1.47643 1.38548,-0.752389 2.68947,-1.55557 4.04424,-2.44261l12.1516 16.3222c-6.75142,6.63095 -12.3749,11.7229 -16.9199,15.349 -4.48008,3.61194 -7.96446,5.71084 -10.4531,6.2955 -6.59787,1.55321 -12.3808,1.13744 -17.3628,-1.31343 -5.03286,-2.36938 -9.33222,-6.75733 -12.8532,-12.9631 -0.648448,-1.55084 -1.55202,-2.97176 -2.80758,-4.38205 -1.23784,-1.34296 -2.68238,-2.6375 -4.33953,-3.95093 -0.894127,1.62998 -1.87684,3.49619 -2.93042,5.66241 -1.10555,2.2489 -2.2926,4.44583 -3.54698,6.65929 -2.54182,5.21594 -5.11081,10.296 -7.64201,15.2261 -2.58907,5.01514 -5.25728,9.97477 -7.99281,14.9533 -3.31193,6.46086 -7.03726,11.4606 -11.1122,14.9769 -4.14109,3.5328 -8.2314,5.77344 -12.2709,6.72544 -6.05927,1.42446 -11.3331,0.747665 -15.8899,-2.0174 -4.54386,-2.69773 -8.16644,-7.52862 -10.8405,-14.3592 -2.82648,-6.58134 -4.8864,-11.7099 -6.19274,-15.4529 -1.22367,-3.6899 -1.83077,-5.96124 -1.81896,-6.81875 -1.10319,-3.78911 -2.18748,-6.58961 -3.11822,-8.42983 -0.865779,-1.85794 -1.84259,-2.69301 -2.71663,-2.48749l-1.0713 0.890583 -8.51724 14.2269c-0.180715,1.03586 -0.584667,2.33985 -1.14453,3.89187 -0.60829,1.6347 -1.4906,3.61785 -2.5808,5.93643 -0.999248,-1.82605 -2.45796,-4.11156 -4.48717,-6.68882 -1.9607,-2.59616 -4.55095,-5.74981 -7.66563,-9.6346zm164.121 -38.6175l0.896489 -1.63234c0.0271663,-1.99377 0.711049,-4.21787 2.03866,-6.73253 1.2591,-2.49812 3.30839,-5.25373 6.11715,-8.11683 3.66037,-3.77376 6.5022,-6.78804 8.53023,-9.0393 2.07763,-2.33867 3.27531,-3.89896 3.55643,-4.81553 0.878772,-1.70085 1.41737,-3.03554 1.56502,-3.9214 1.24375,-1.35832 2.64458,-3.25169 4.37142,-5.575 1.65833,-2.30914 3.47729,-5.15215 5.48406,-8.39558 0.798454,-0.827982 1.48942,-2.12724 2.23354,-3.79266 0.728766,-1.73628 1.35832,-3.5895 1.99141,-5.72737 1.41265,-1.54139 3.00247,-3.54816 4.72812,-5.87265 1.72683,-2.32449 3.73124,-5.28326 5.94234,-8.85859 2.46032,-4.34425 5.24428,-9.1208 8.42038,-14.3415 3.09342,-5.27617 6.69237,-10.8122 10.7307,-16.5939 1.49415,-1.20477 2.96704,-2.18984 4.40567,-3.02609 1.36895,-0.817352 2.80404,-1.36895 4.28283,-1.71738 5.92462,-1.39375 10.6988,-1.02641 14.3273,1.10437 3.55997,2.14732 5.99077,5.83722 7.22742,11.0874 0.316547,1.34651 0.621282,3.54816 0.862236,6.68882 0.240954,3.14066 0.656716,7.02072 1.21304,11.7937 1.30398,13.6883 1.85794,22.0839 1.7977,25.1537 -0.126382,3.08397 -0.748846,12.8201 -1.88156,29.1436 -0.491356,2.74498 -0.839794,6.09353 -1.11146,10.0681 -0.2067,3.95447 -0.507892,8.71449 -0.888221,14.3462 0.396865,0.47482 1.1965,0.855149 2.40009,1.14099 0.874047,-0.205519 2.33749,-1.54494 4.28047,-3.85171 1.92763,-2.37056 4.47536,-5.74154 7.54043,-10.2275 3.64501,-5.33405 6.5211,-9.42081 8.62354,-12.2591 2.08708,-2.90562 3.4017,-4.56749 3.98046,-5.12853 2.38827,3.20445 4.62891,6.08644 6.60496,8.74638 2.0422,2.64695 3.78557,5.22184 5.34586,7.62547 -1.43037,1.47053 -2.70836,2.98121 -3.80683,4.65962 -1.04413,1.59573 -1.97487,3.37807 -2.82175,5.21003 -2.31622,2.53592 -4.99034,5.36594 -8.07076,8.57984 -3.07924,3.20799 -6.44905,6.70182 -10.1106,10.4756 -1.54258,2.49576 -3.6143,5.4687 -6.30023,9.15505 -2.69892,3.62021 -5.72383,7.67154 -9.05938,12.2213l-3.59659 1.62644c-1.21422,2.98712 -2.52174,5.28326 -3.88597,7.02663 -1.3158,1.65951 -2.5749,2.94814 -3.79384,3.80447 -1.91345,1.23193 -3.81037,2.53237 -5.738,3.69698 -1.98078,1.24493 -4.02888,2.50875 -6.1951,3.87297 -1.50832,-0.0720498 -2.79341,-0.695694 -3.76431,-1.81542 -0.99098,-1.18941 -1.65596,-2.8064 -2.01385,-4.92655 -2.79223,-3.10877 -5.30452,-6.85182 -7.59358,-11.1441 -2.22291,-4.30882 -4.03007,-9.28144 -5.36122,-14.9356 -0.255127,-1.0772 -0.454741,-2.23709 -0.591754,-3.41233 -0.148824,-1.24375 -0.253946,-2.28788 -0.338989,-3.26114 -1.75164,-3.21035 -2.69773,-5.11908 -2.85483,-5.79115 -0.920112,-3.90605 -0.213787,-7.55342 2.2111,-10.824 2.42961,-3.27059 5.56201,-5.35767 9.39719,-6.25889 1.95361,-0.460646 3.60485,0.217331 4.95372,2.02803 1.30044,1.89928 2.47922,2.68592 3.35445,2.4804 0.943735,-0.222055 1.45871,-2.26189 1.61226,-6.13368 0.10276,-3.78911 -0.138194,-9.34522 -0.910663,-16.5526 -0.466552,-6.214 -1.0961,-11.6071 -1.88983,-16.1817 -0.774831,-4.50607 -1.51659,-7.95501 -2.07055,-10.3102 -0.41222,-1.75164 -1.05004,-2.9505 -1.97842,-3.58359 -0.879953,-0.716955 -2.18866,-0.836251 -3.93676,-0.424031 -1.68313,0.396865 -6.28487,5.59863 -13.7899,15.6785 -7.50263,10.0775 -17.7243,24.9151 -30.744,44.4595 -0.316547,1.0713 -0.803178,2.32213 -1.49651,3.90605 -0.641362,1.50005 -1.38903,3.45367 -2.27725,5.72265 -0.999248,-1.82369 -2.45914,-4.11156 -4.48599,-6.68764 -1.9607,-2.59498 -4.55213,-5.75099 -7.66799,-9.6346z"/>
   <path class="fil6" d="M282.162 1389.06l0 -84.779 16.8963 0 20.0547 60.0258c1.85558,5.58681 3.21744,9.77043 4.04778,12.5556 0.964995,-3.08043 2.46623,-7.61956 4.52024,-13.6009l20.2909 -58.9805 15.0998 0 0 84.779 -10.8169 0 0 -70.962 -24.634 70.962 -10.1271 0 -24.5135 -72.1656 0 72.1656 -10.8181 0zm137.757 -7.58059c-3.86707,3.27768 -7.57822,5.58681 -11.1311,6.94867 -3.57296,1.34296 -7.40342,2.01385 -11.4878,2.01385 -6.75142,0 -11.9225,-1.63825 -15.5545,-4.93482 -3.61194,-3.29776 -5.42972,-7.52035 -5.42972,-12.6323 0,-3.02019 0.673253,-5.76399 2.05519,-8.25148 1.3595,-2.48749 3.1572,-4.48126 5.36712,-5.98132 2.23,-1.50005 4.71749,-2.64458 7.50027,-3.41469 2.03511,-0.531515 5.11318,-1.06657 9.23891,-1.56029 8.40857,-1.00634 14.6072,-2.18984 18.5747,-3.59068 0.0389778,-1.42328 0.0590572,-2.3304 0.0590572,-2.70482 0,-4.24503 -0.987437,-7.24514 -2.96113,-8.96253 -2.64576,-2.36701 -6.61205,-3.5328 -11.8433,-3.5328 -4.89466,0 -8.5066,0.849243 -10.8559,2.56663 -2.3304,1.7162 -4.0466,4.75765 -5.17105,9.11962l-10.1661 -1.4032c0.927199,-4.34071 2.44733,-7.87587 4.55922,-10.5394 2.11189,-2.68356 5.18995,-4.75765 9.19757,-6.19747 4.00644,-1.44218 8.64716,-2.17213 13.9375,-2.17213 5.25019,0 9.49404,0.630731 12.7705,1.85558 3.2765,1.24375 5.68367,2.78278 7.24396,4.65725 1.54021,1.87566 2.60442,4.22495 3.23634,7.08805 0.335445,1.77526 0.514979,4.9738 0.514979,9.59326l0 13.8749c0,9.69247 0.214968,15.812 0.669709,18.3585 0.43348,2.56663 1.32406,5.03286 2.62568,7.38215l-10.876 0c-1.06539,-2.15086 -1.77644,-4.67733 -2.07409,-7.58059zm-0.86696 -23.2508c-3.79029,1.55793 -9.45506,2.86191 -16.9955,3.9462 -4.28283,0.611833 -7.32428,1.30398 -9.08064,2.07291 -1.77644,0.770106 -3.1572,1.89574 -4.10566,3.39579 -0.966176,1.47997 -1.45989,3.11822 -1.45989,4.93364 0,2.78514 1.06539,5.0931 3.15838,6.94867 2.09299,1.83668 5.17105,2.76388 9.21884,2.76388 4.00644,0 7.57822,-0.869323 10.6976,-2.62568 3.11822,-1.75636 5.42736,-4.16472 6.88844,-7.20498 1.12563,-2.34812 1.67841,-5.82304 1.67841,-10.4023l0 -3.82809zm26.7069 -41.9649l0 -11.9827 10.4212 0 0 11.9827 -10.4212 0zm0 72.7963l0 -61.4089 10.4212 0 0 61.4089 -10.4212 0zm22.1063 -18.3373l10.2842 -1.61817c0.572855,4.12574 2.1922,7.28294 4.83679,9.49286 2.6245,2.1922 6.31558,3.29776 11.0721,3.29776 4.77891,0 8.33061,-0.987437 10.6398,-2.92333 2.31032,-1.95243 3.47493,-4.24149 3.47493,-6.8471 0,-2.36938 -1.02641,-4.20606 -3.07806,-5.56792 -1.42328,-0.927199 -4.97498,-2.09063 -10.6398,-3.51391 -7.61956,-1.93353 -12.93,-3.59068 -15.871,-5.01278 -2.94223,-1.40084 -5.19231,-3.35681 -6.71126,-5.84312 -1.52013,-2.48631 -2.28906,-5.23011 -2.28906,-8.23022 0,-2.7438 0.630731,-5.27027 1.89456,-7.60067 1.24375,-2.3493 2.96113,-4.28283 5.11199,-5.82186 1.61935,-1.18469 3.82809,-2.2111 6.61323,-3.04027 2.80168,-0.827982 5.80296,-1.24375 9.0015,-1.24375 4.81553,0 9.0393,0.711049 12.6914,2.09181 3.65092,1.38194 6.33684,3.2576 8.07194,5.62579 1.73746,2.38827 2.92215,5.54666 3.57414,9.51412l-10.1661 1.40202c-0.473639,-3.15838 -1.8166,-5.62579 -4.02652,-7.40223 -2.2111,-1.77644 -5.3494,-2.66466 -9.39483,-2.66466 -4.77891,0 -8.1936,0.789005 -10.2252,2.36938 -2.05401,1.57801 -3.08043,3.43359 -3.08043,5.54547 0,1.36304 0.434661,2.56545 1.2839,3.6521 0.848062,1.12445 2.17094,2.03275 3.98636,2.78278 1.04768,0.374423 4.10566,1.26264 9.19876,2.64458 7.36326,1.97487 12.4953,3.57414 15.3962,4.83679 2.92097,1.24375 5.21003,3.08043 6.86954,5.4687 1.65833,2.38827 2.48749,5.3494 2.48749,8.90111 0,3.47493 -1.0276,6.73253 -3.04145,9.81059 -2.03157,3.06035 -4.95254,5.42854 -8.76409,7.10577 -3.80801,1.67723 -8.13218,2.50757 -12.9477,2.50757 -7.99399,0 -14.0745,-1.65833 -18.2581,-4.97498 -4.1848,-3.31547 -6.85064,-8.23022 -7.99517,-14.7442zm135.43 41.8657l0 -30.0613c-1.61935,2.26898 -3.88833,4.16354 -6.7904,5.66359 -2.91979,1.50124 -6.02029,2.25126 -9.29561,2.25126 -7.2853,0 -13.5619,-2.90207 -18.8133,-8.7263 -5.27027,-5.82186 -7.89595,-13.797 -7.89595,-23.9418 0,-6.15849 1.06775,-11.7051 3.21862,-16.5998 2.13197,-4.89703 5.23129,-8.607 9.29679,-11.1335 4.06668,-2.52765 8.52668,-3.79029 13.3836,-3.79029 7.59949,0 13.5808,3.19854 17.9416,9.61334l0 -8.2125 9.35703 0 0 84.9373 -10.4023 0zm-32.0952 -54.4012c0,7.89595 1.65833,13.8182 4.97262,17.7656 3.31784,3.96747 7.2853,5.94234 11.9048,5.94234 4.43992,0 8.24912,-1.87566 11.4477,-5.64587 3.21862,-3.75013 4.81553,-9.47514 4.81553,-17.1526 0,-8.17352 -1.69612,-14.3119 -5.07184,-18.4377 -3.37571,-4.12574 -7.32428,-6.19747 -11.8835,-6.19747 -4.50016,0 -8.33061,1.93353 -11.4689,5.76399 -3.1383,3.83045 -4.71631,9.80941 -4.71631,17.9617zm99.0697 30.8728l0 -9.0204c-4.79663,6.94631 -11.2906,10.4023 -19.5031,10.4023 -3.61194,0 -7.00655,-0.689789 -10.1449,-2.07409 -3.13948,-1.38194 -5.4687,-3.1383 -6.98883,-5.22893 -1.53903,-2.11307 -2.60561,-4.6797 -3.21626,-7.71878 -0.415763,-2.05165 -0.630731,-5.28917 -0.630731,-9.73145l0 -38.0376 10.4023 0 0 34.05c0,5.44862 0.214968,9.09954 0.630731,10.9941 0.67089,2.7438 2.05283,4.87577 4.16472,6.45614 2.13197,1.55793 4.75765,2.32804 7.87587,2.32804 3.1194,0 6.04037,-0.789005 8.78417,-2.38827 2.7438,-1.59809 4.67733,-3.78911 5.80178,-6.53291 1.14689,-2.76388 1.71857,-6.77032 1.71857,-12.0016l0 -32.9055 10.4023 0 0 61.4089 -9.29679 0zm67.6453 -19.7783l10.7579 1.32288c-1.69849,6.29668 -4.83679,11.1713 -9.41609,14.6462 -4.59938,3.45367 -10.4626,5.19113 -17.5884,5.19113 -8.97906,0 -16.1049,-2.76388 -21.3563,-8.29046 -5.27027,-5.52658 -7.89477,-13.2843 -7.89477,-23.2721 0,-10.3445 2.66348,-18.3585 7.97273,-24.0623 5.33051,-5.70493 12.2189,-8.56684 20.7078,-8.56684 8.21014,0 14.9214,2.80404 20.1125,8.38849 5.21121,5.58681 7.818,13.4627 7.818,23.5898 0,0.630731 -0.0200795,1.55793 -0.0602384,2.78278l-45.793 0c0.374423,6.75024 2.28906,11.9213 5.72265,15.4954 3.43595,3.59068 7.6987,5.38838 12.8308,5.38838 3.80919,0 7.06561,-1.00634 9.77161,-3.02019 2.70246,-1.99377 4.83443,-5.19231 6.4148,-9.59326zm-34.1693 -16.8372l34.2875 0c-0.454741,-5.15333 -1.77644,-9.04166 -3.92731,-11.6071 -3.31784,-4.00644 -7.61956,-6.02029 -12.8898,-6.02029 -4.77655,0 -8.80543,1.59927 -12.0619,4.79663 -3.25642,3.19854 -5.05294,7.48137 -5.40846,12.8308zm90.9174 36.6155l0 -61.4089 9.35703 0 0 8.72512c4.52024,-6.75142 11.0343,-10.126 19.542,-10.126 3.71116,0 7.10577,0.672071 10.2051,1.99377 3.1194,1.34178 5.42736,3.07924 6.96757,5.25019 1.56029,2.15086 2.6245,4.71867 3.25642,7.6798 0.374423,1.93353 0.572855,5.30925 0.572855,10.1248l0 37.7612 -10.4212 0 0 -37.3655c0,-4.22377 -0.394502,-7.40342 -1.20477,-9.51412 -0.809084,-2.09299 -2.25008,-3.7714 -4.30291,-5.01514 -2.07291,-1.26382 -4.48126,-1.89456 -7.26404,-1.89456 -4.44229,0 -8.2503,1.4221 -11.4878,4.22377 -3.21862,2.82412 -4.81553,8.15226 -4.81553,16.0281l0 33.5374 -10.4047 0zm61.9806 -30.7133c0,-11.3697 3.15956,-19.7983 9.49522,-25.2659 5.27027,-4.54032 11.7063,-6.83056 19.3034,-6.83056 8.44991,0 15.3584,2.7627 20.7078,8.31053 5.36948,5.52658 8.03297,13.1662 8.03297,22.9166 0,7.91603 -1.18233,14.1336 -3.5517,18.6538 -2.36938,4.53914 -5.82422,8.05305 -10.3445,10.5594 -4.53914,2.50757 -9.47514,3.75132 -14.8446,3.75132 -8.58456,0 -15.5344,-2.7438 -20.8425,-8.27156 -5.30925,-5.5065 -7.95619,-13.4414 -7.95619,-23.8237zm10.7 0c0,7.87587 1.71738,13.758 5.15097,17.6664 3.43359,3.92731 7.75776,5.8821 12.9477,5.8821 5.17341,0 9.47632,-1.97487 12.9111,-5.90218 3.41469,-3.92849 5.13207,-9.92988 5.13207,-17.9829 0,-7.59949 -1.71738,-13.3635 -5.17223,-17.2719 -3.45367,-3.90723 -7.73768,-5.86202 -12.8709,-5.86202 -5.18995,0 -9.51412,1.95479 -12.9477,5.84312 -3.43359,3.88833 -5.15097,9.77043 -5.15097,17.6274zm59.0986 -42.083l0 -11.9827 10.4212 0 0 11.9827 -10.4212 0zm0 72.7963l0 -61.4089 10.4212 0 0 61.4089 -10.4212 0zm43.3268 0l-23.3713 -61.4089 10.9941 0 13.1851 36.7738c1.42092,3.96865 2.7249,8.09439 3.92731,12.3772 0.929561,-3.23752 2.2111,-7.12585 3.86943,-11.6851l13.6611 -37.4659 10.6976 0 -23.2532 61.4089 -9.71019 0zm82.2313 -7.58059c-3.86707,3.27768 -7.57941,5.58681 -11.1311,6.94867 -3.57414,1.34296 -7.4046,2.01385 -11.489,2.01385 -6.75142,0 -11.9225,-1.63825 -15.5533,-4.93482 -3.61312,-3.29776 -5.42972,-7.52035 -5.42972,-12.6323 0,-3.02019 0.672071,-5.76399 2.05401,-8.25148 1.3595,-2.48749 3.1572,-4.48126 5.36712,-5.98132 2.23118,-1.50005 4.71867,-2.64458 7.50145,-3.41469 2.03393,-0.531515 5.11199,-1.06657 9.23773,-1.56029 8.40857,-1.00634 14.6072,-2.18984 18.5759,-3.59068 0.0389778,-1.42328 0.0578761,-2.3304 0.0578761,-2.70482 0,-4.24503 -0.987437,-7.24514 -2.96113,-8.96253 -2.64458,-2.36701 -6.61087,-3.5328 -11.8422,-3.5328 -4.89585,0 -8.50779,0.849243 -10.8571,2.56663 -2.3304,1.7162 -4.0466,4.75765 -5.17105,9.11962l-10.1649 -1.4032c0.926018,-4.34071 2.44615,-7.87587 4.55804,-10.5394 2.11307,-2.68356 5.19113,-4.75765 9.19757,-6.19747 4.00762,-1.44218 8.64716,-2.17213 13.9375,-2.17213 5.25019,0 9.49404,0.630731 12.7705,1.85558 3.2765,1.24375 5.68485,2.78278 7.24514,4.65725 1.53903,1.87566 2.60324,4.22495 3.23516,7.08805 0.336626,1.77526 0.514979,4.9738 0.514979,9.59326l0 13.8749c0,9.69247 0.216149,15.812 0.67089,18.3585 0.43348,2.56663 1.32288,5.03286 2.6245,7.38215l-10.876 0c-1.06539,-2.15086 -1.77644,-4.67733 -2.07291,-7.58059zm-0.86696 -23.2508c-3.79147,1.55793 -9.45625,2.86191 -16.9955,3.9462 -4.28401,0.611833 -7.32428,1.30398 -9.08182,2.07291 -1.77526,0.770106 -3.1572,1.89574 -4.10566,3.39579 -0.966176,1.47997 -1.45989,3.11822 -1.45989,4.93364 0,2.78514 1.06539,5.0931 3.15838,6.94867 2.09299,1.83668 5.17105,2.76388 9.21884,2.76388 4.00644,0 7.57822,-0.869323 10.6976,-2.62568 3.1194,-1.75636 5.42736,-4.16472 6.88844,-7.20498 1.12563,-2.34812 1.67959,-5.82304 1.67959,-10.4023l0 -3.82809zm29.6078 30.8314l0 -11.8634 11.8634 0 0 11.8634 -11.8634 0zm32.9043 0l0 -11.8634 11.8634 0 0 11.8634 -11.8634 0zm32.9055 0l0 -11.8634 11.8634 0 0 11.8634 -11.8634 0zm119.815 -84.779l11.2327 0 0 48.9915c0,8.50779 -0.968539,15.2781 -2.90207,20.2921 -1.93472,5.01278 -5.40728,9.08064 -10.4425,12.2189 -5.03286,3.1572 -11.6248,4.71867 -19.7983,4.71867 -7.93375,0 -14.4478,-1.36304 -19.4806,-4.10684 -5.05412,-2.72372 -8.66724,-6.69237 -10.8181,-11.8823 -2.17094,-5.19231 -3.23752,-12.2591 -3.23752,-21.2405l0 -48.9915 11.2126 0 0 48.9336c0,7.36089 0.689789,12.7906 2.05165,16.2644 1.36304,3.49501 3.73124,6.17857 7.04789,8.07312 3.33555,1.89456 7.42231,2.84302 12.2378,2.84302 8.2503,0 14.1324,-1.87566 17.6463,-5.62579 3.49383,-3.73124 5.25019,-10.9161 5.25019,-21.5547l0 -48.9336zm28.5813 84.779l0 -61.4089 9.29915 0 0 8.607c1.93353,-3.00129 4.50016,-5.42854 7.69752,-7.24514 3.19854,-1.83432 6.84946,-2.7627 10.9362,-2.7627 4.53914,0 8.27038,0.947278 11.1713,2.84302 2.92097,1.89456 4.97498,4.51906 6.15849,7.91485 4.87577,-7.16482 11.1913,-10.7579 18.968,-10.7579 6.10061,0 10.7791,1.69731 14.0556,5.07302 3.2765,3.37571 4.91474,8.56566 4.91474,15.5734l0 42.1633 -10.3433 0 0 -38.6884c0,-4.16472 -0.334264,-7.16482 -1.00752,-9.0015 -0.689789,-1.81542 -1.91345,-3.29539 -3.671,-4.42102 -1.77526,-1.10555 -3.86825,-1.67841 -6.25652,-1.67841 -4.32181,0 -7.89595,1.44218 -10.7579,4.32299 -2.84302,2.86309 -4.28283,7.46011 -4.28283,13.7781l0 35.6883 -10.4023 0 0 -39.8932c0,-4.63836 -0.849243,-8.11092 -2.54773,-10.4224 -1.69612,-2.30796 -4.46,-3.47375 -8.32943,-3.47375 -2.91979,0 -5.62579,0.771288 -8.1121,2.32922 -2.48749,1.53903 -4.30291,3.79029 -5.40846,6.75142 -1.12563,2.98121 -1.67723,7.26404 -1.67723,12.8509l0 31.8578 -10.4047 0zm138.725 -7.58059c-3.86707,3.27768 -7.57822,5.58681 -11.1299,6.94867 -3.57414,1.34296 -7.4046,2.01385 -11.489,2.01385 -6.75142,0 -11.9225,-1.63825 -15.5545,-4.93482 -3.61194,-3.29776 -5.42854,-7.52035 -5.42854,-12.6323 0,-3.02019 0.672071,-5.76399 2.05401,-8.25148 1.3595,-2.48749 3.1572,-4.48126 5.36712,-5.98132 2.23118,-1.50005 4.71749,-2.64458 7.50027,-3.41469 2.03511,-0.531515 5.11318,-1.06657 9.23891,-1.56029 8.40857,-1.00634 14.6072,-2.18984 18.5759,-3.59068 0.0389778,-1.42328 0.0578761,-2.3304 0.0578761,-2.70482 0,-4.24503 -0.987437,-7.24514 -2.96113,-8.96253 -2.64458,-2.36701 -6.61087,-3.5328 -11.8422,-3.5328 -4.89585,0 -8.50779,0.849243 -10.8571,2.56663 -2.3304,1.7162 -4.0466,4.75765 -5.17105,9.11962l-10.1649 -1.4032c0.926018,-4.34071 2.44615,-7.87587 4.55804,-10.5394 2.11307,-2.68356 5.19113,-4.75765 9.19757,-6.19747 4.00762,-1.44218 8.64716,-2.17213 13.9375,-2.17213 5.25019,0 9.49404,0.630731 12.7705,1.85558 3.2765,1.24375 5.68485,2.78278 7.24514,4.65725 1.53903,1.87566 2.60324,4.22495 3.23516,7.08805 0.336626,1.77526 0.514979,4.9738 0.514979,9.59326l0 13.8749c0,9.69247 0.216149,15.812 0.67089,18.3585 0.432299,2.56663 1.32288,5.03286 2.6245,7.38215l-10.876 0c-1.06539,-2.15086 -1.77644,-4.67733 -2.07409,-7.58059zm-0.865779 -23.2508c-3.79147,1.55793 -9.45625,2.86191 -16.9967,3.9462 -4.28283,0.611833 -7.3231,1.30398 -9.08064,2.07291 -1.77526,0.770106 -3.1572,1.89574 -4.10566,3.39579 -0.966176,1.47997 -1.45989,3.11822 -1.45989,4.93364 0,2.78514 1.06539,5.0931 3.15838,6.94867 2.09299,1.83668 5.17105,2.76388 9.21884,2.76388 4.00644,0 7.57822,-0.869323 10.6976,-2.62568 3.11822,-1.75636 5.42736,-4.16472 6.88844,-7.20498 1.12563,-2.34812 1.67959,-5.82304 1.67959,-10.4023l0 -3.82809zm59.3348 30.8314l0 -84.779 10.4023 0 0 84.779 -10.4023 0zm26.5876 -72.7963l0 -11.9827 10.4224 0 0 11.9827 -10.4224 0zm0 72.7963l0 -61.4089 10.4224 0 0 61.4089 -10.4224 0zm26.271 0l0 -61.4089 9.35703 0 0 8.72512c4.52024,-6.75142 11.0343,-10.126 19.542,-10.126 3.71116,0 7.10577,0.672071 10.2051,1.99377 3.1194,1.34178 5.42854,3.07924 6.96757,5.25019 1.56029,2.15086 2.6245,4.71867 3.25642,7.6798 0.374423,1.93353 0.572855,5.30925 0.572855,10.1248l0 37.7612 -10.4212 0 0 -37.3655c0,-4.22377 -0.394502,-7.40342 -1.20477,-9.51412 -0.809084,-2.09299 -2.25008,-3.7714 -4.30291,-5.01514 -2.07291,-1.26382 -4.48126,-1.89456 -7.26404,-1.89456 -4.44229,0 -8.2503,1.4221 -11.4878,4.22377 -3.21862,2.82412 -4.81553,8.15226 -4.81553,16.0281l0 33.5374 -10.4047 0zm105.704 0l0 -7.75776c-3.88833,6.09943 -9.61334,9.1397 -17.175,9.1397 -4.89466,0 -9.39483,-1.34296 -13.4993,-4.0466 -4.10684,-2.68474 -7.2853,-6.45496 -9.55546,-11.3118 -2.25008,-4.83443 -3.37571,-10.3823 -3.37571,-16.6789 0,-6.11951 1.02878,-11.6851 3.06153,-16.6789 2.05165,-4.99388 5.11199,-8.82433 9.19757,-11.4689 4.08676,-2.66466 8.66488,-4.00644 13.719,-4.00644 3.6899,0 6.98765,0.790186 9.86965,2.3493 2.90089,1.56029 5.25137,3.59304 7.06561,6.09943l0 -30.418 10.3445 0 0 84.779 -9.65232 0zm-32.9055 -30.6554c0,7.87587 1.65715,13.7592 4.97498,17.6475 3.31547,3.88833 7.2227,5.84312 11.7429,5.84312 4.5415,0 8.40857,-1.87566 11.5882,-5.58681 3.17728,-3.70998 4.77655,-9.39601 4.77655,-17.0345 0,-8.40857 -1.61935,-14.5671 -4.85687,-18.4967 -3.23752,-3.9462 -7.2227,-5.901 -11.9804,-5.901 -4.61828,0 -8.48771,1.89456 -11.587,5.66477 -3.09932,3.7714 -4.65844,9.73145 -4.65844,17.8636zm99.0095 23.0748c-3.86707,3.27768 -7.57941,5.58681 -11.1311,6.94867 -3.57414,1.34296 -7.40342,2.01385 -11.489,2.01385 -6.75024,0 -11.9213,-1.63825 -15.5533,-4.93482 -3.61312,-3.29776 -5.42972,-7.52035 -5.42972,-12.6323 0,-3.02019 0.672071,-5.76399 2.05401,-8.25148 1.36068,-2.48749 3.15838,-4.48126 5.36712,-5.98132 2.23118,-1.50005 4.71867,-2.64458 7.50145,-3.41469 2.03393,-0.531515 5.11199,-1.06657 9.23773,-1.56029 8.40857,-1.00634 14.6072,-2.18984 18.5759,-3.59068 0.0389778,-1.42328 0.0578761,-2.3304 0.0578761,-2.70482 0,-4.24503 -0.986256,-7.24514 -2.96113,-8.96253 -2.64458,-2.36701 -6.61087,-3.5328 -11.8422,-3.5328 -4.89466,0 -8.50779,0.849243 -10.8571,2.56663 -2.3304,1.7162 -4.04542,4.75765 -5.17105,9.11962l-10.1649 -1.4032c0.927199,-4.34071 2.44615,-7.87587 4.55922,-10.5394 2.11189,-2.68356 5.18995,-4.75765 9.19757,-6.19747 4.00644,-1.44218 8.64716,-2.17213 13.9363,-2.17213 5.25137,0 9.49522,0.630731 12.7717,1.85558 3.27531,1.24375 5.68367,2.78278 7.24396,4.65725 1.53903,1.87566 2.60442,4.22495 3.23516,7.08805 0.336626,1.77526 0.514979,4.9738 0.514979,9.59326l0 13.8749c0,9.69247 0.216149,15.812 0.67089,18.3585 0.43348,2.56663 1.32288,5.03286 2.62568,7.38215l-10.8772 0c-1.06421,-2.15086 -1.77526,-4.67733 -2.07291,-7.58059zm-0.86696 -23.2508c-3.79147,1.55793 -9.45625,2.86191 -16.9955,3.9462 -4.28283,0.611833 -7.32428,1.30398 -9.08064,2.07291 -1.77644,0.770106 -3.15838,1.89574 -4.10684,3.39579 -0.964995,1.47997 -1.45871,3.11822 -1.45871,4.93364 0,2.78514 1.06421,5.0931 3.1572,6.94867 2.09299,1.83668 5.17105,2.76388 9.21884,2.76388 4.00762,0 7.57941,-0.869323 10.6976,-2.62568 3.1194,-1.75636 5.42736,-4.16472 6.88962,-7.20498 1.12445,-2.34812 1.67841,-5.82304 1.67841,-10.4023l0 -3.82809zm59.571 30.8314l0 -61.4089 9.29797 0 0 8.607c1.93353,-3.00129 4.50134,-5.42854 7.69752,-7.24514 3.19854,-1.83432 6.84946,-2.7627 10.9362,-2.7627 4.54032,0 8.27038,0.947278 11.1724,2.84302 2.92097,1.89456 4.97498,4.51906 6.15849,7.91485 4.87458,-7.16482 11.1902,-10.7579 18.968,-10.7579 6.09943,0 10.7791,1.69731 14.0556,5.07302 3.2765,3.37571 4.91356,8.56566 4.91356,15.5734l0 42.1633 -10.3433 0 0 -38.6884c0,-4.16472 -0.334264,-7.16482 -1.00634,-9.0015 -0.689789,-1.81542 -1.91464,-3.29539 -3.671,-4.42102 -1.77644,-1.10555 -3.86943,-1.67841 -6.25771,-1.67841 -4.32181,0 -7.89477,1.44218 -10.7579,4.32299 -2.84302,2.86309 -4.28283,7.46011 -4.28283,13.7781l0 35.6883 -10.4023 0 0 -39.8932c0,-4.63836 -0.849243,-8.11092 -2.54773,-10.4224 -1.69612,-2.30796 -4.46,-3.47375 -8.32825,-3.47375 -2.92097,0 -5.62579,0.771288 -8.11328,2.32922 -2.48749,1.53903 -4.30291,3.79029 -5.40846,6.75142 -1.12445,2.98121 -1.67723,7.26404 -1.67723,12.8509l0 31.8578 -10.4035 0zm138.904 0l0 -9.0204c-4.79545,6.94631 -11.2906,10.4023 -19.5019,10.4023 -3.61312,0 -7.00773,-0.689789 -10.146,-2.07409 -3.1383,-1.38194 -5.4687,-3.1383 -6.98883,-5.22893 -1.53903,-2.11307 -2.60561,-4.6797 -3.21508,-7.71878 -0.415763,-2.05165 -0.631912,-5.28917 -0.631912,-9.73145l0 -38.0376 10.4023 0 0 34.05c0,5.44862 0.214968,9.09954 0.631912,10.9941 0.669709,2.7438 2.05165,4.87577 4.16354,6.45614 2.13197,1.55793 4.75765,2.32804 7.87587,2.32804 3.1194,0 6.04037,-0.789005 8.78417,-2.38827 2.7438,-1.59809 4.67733,-3.78911 5.80296,-6.53291 1.14571,-2.76388 1.71738,-6.77032 1.71738,-12.0016l0 -32.9055 10.4023 0 0 61.4089 -9.29679 0zm25.3852 0l0 -84.779 10.4023 0 0 84.779 -10.4023 0zm26.5462 0l0 -84.779 10.4047 0 0 30.418c4.85451,-5.62579 10.9929,-8.44873 18.3951,-8.44873 4.5415,0 8.48771,0.909481 11.8433,2.70482 3.35681,1.77526 5.76399,4.26275 7.20616,7.42113 1.43982,3.1572 2.17094,7.75776 2.17094,13.758l0 38.9258 -10.4224 0 0 -38.9258c0,-5.18995 -1.12445,-8.98142 -3.37453,-11.3508 -2.25126,-2.36701 -5.4498,-3.57178 -9.57554,-3.57178 -3.07806,0 -5.97895,0.809084 -8.70386,2.40835 -2.72372,1.59927 -4.65725,3.77021 -5.80415,6.51401 -1.16343,2.72372 -1.7351,6.51283 -1.7351,11.3307l0 33.5953 -10.4047 0zm107.894 -19.7783l10.7579 1.32288c-1.69849,6.29668 -4.83679,11.1713 -9.41491,14.6462 -4.59938,3.45367 -10.4626,5.19113 -17.5884,5.19113 -8.98024,0 -16.1061,-2.76388 -21.3563,-8.29046 -5.27027,-5.52658 -7.89595,-13.2843 -7.89595,-23.2721 0,-10.3445 2.66466,-18.3585 7.97391,-24.0623 5.32933,-5.70493 12.2189,-8.56684 20.7066,-8.56684 8.21014,0 14.9226,2.80404 20.1125,8.38849 5.21239,5.58681 7.818,13.4627 7.818,23.5898 0,0.630731 -0.0188983,1.55793 -0.0602384,2.78278l-45.793 0c0.375604,6.75024 2.28906,11.9213 5.72265,15.4954 3.43595,3.59068 7.69988,5.38838 12.832,5.38838 3.80919,0 7.06561,-1.00634 9.77043,-3.02019 2.70364,-1.99377 4.83561,-5.19231 6.4148,-9.59326zm-34.1682 -16.8372l34.2863 0c-0.454741,-5.15333 -1.77526,-9.04166 -3.92731,-11.6071 -3.31665,-4.00644 -7.61956,-6.02029 -12.8887,-6.02029 -4.77655,0 -8.80543,1.59927 -12.0619,4.79663 -3.2576,3.19854 -5.05294,7.48137 -5.40846,12.8308zm57.8938 36.6155l0 -61.4089 9.35703 0 0 9.29797c2.38827,-4.34307 4.59938,-7.22506 6.63213,-8.607 2.01267,-1.38076 4.24385,-2.09181 6.67111,-2.09181 3.51509,0 7.06797,1.12445 10.7,3.35563l-3.59422 9.67121c-2.52529,-1.51895 -5.07184,-2.26898 -7.61838,-2.26898 -2.29024,0 -4.32181,0.69097 -6.13959,2.05401 -1.81424,1.38076 -3.09696,3.27531 -3.86825,5.70257 -1.16461,3.69226 -1.73628,7.73886 -1.73628,12.1398l0 32.1555 -10.4035 0z"/>
   <path class="fil0" d="M1301.79 910.145l0 -59.8899 8.12746 0 31.4586 47.0178 0 -47.0178 7.59949 0 0 59.8899 -8.12746 0 -31.4574 -47.0604 0 47.0604 -7.60067 0zm88.0012 0l0 -6.37346c-3.38989,4.90884 -7.97627,7.34908 -13.7757,7.34908 -2.55127,0 -4.95254,-0.487813 -7.16837,-1.46344 -2.21819,-0.976807 -3.86352,-2.21583 -4.93482,-3.69698 -1.08902,-1.48942 -1.84377,-3.30366 -2.27607,-5.4498 -0.28938,-1.45045 -0.44411,-3.7395 -0.44411,-6.87426l0 -26.8722 7.34908 0 0 24.0528c0,3.85053 0.151187,6.42897 0.445292,7.76839 0.47482,1.93826 1.45045,3.4454 2.94105,4.55922 1.50596,1.10201 3.36272,1.64533 5.56555,1.64533 2.20165,0 4.26629,-0.556319 6.20455,-1.68786 1.93944,-1.12799 3.30366,-2.67766 4.09857,-4.61591 0.811446,-1.95243 1.21304,-4.78127 1.21304,-8.47708l0 -23.2449 7.35026 0 0 43.3811 -6.56835 0zm46.4072 -5.35531c-2.73317,2.31504 -5.35413,3.94739 -7.86406,4.91002 -2.52529,0.946097 -5.22893,1.42092 -8.11683,1.42092 -4.76828,0 -8.42156,-1.15752 -10.9858,-3.48556 -2.55245,-2.3304 -3.83518,-5.31515 -3.83518,-8.92473 0,-2.13315 0.47482,-4.07259 1.45045,-5.83013 0.960271,-1.75636 2.22882,-3.16429 3.79147,-4.22259 1.57683,-1.06185 3.33437,-1.86975 5.29862,-2.41426 1.43745,-0.375604 3.61076,-0.751208 6.52582,-1.10083 5.94116,-0.71223 10.3197,-1.54612 13.1225,-2.53946 0.0259852,-1.00161 0.0425212,-1.64533 0.0425212,-1.90873 0,-2.99656 -0.699238,-5.11672 -2.09299,-6.32975 -1.86975,-1.67604 -4.67261,-2.49694 -8.36487,-2.49694 -3.45957,0 -6.01085,0.600022 -7.66917,1.81424 -1.64533,1.21304 -2.85955,3.35918 -3.65328,6.44196l-7.18136 -0.992162c0.651992,-3.06625 1.72683,-5.56201 3.22098,-7.44476 1.4906,-1.89574 3.66627,-3.36036 6.49512,-4.3785 2.83239,-1.01933 6.11006,-1.53313 9.84602,-1.53313 3.70879,0 6.70536,0.445292 9.0204,1.30871 2.31504,0.879953 4.01589,1.96779 5.11672,3.29067 1.08902,1.32524 1.84377,2.98357 2.28906,5.00805 0.23741,1.25319 0.362611,3.51154 0.362611,6.77623l0 9.80232c0,6.84828 0.15473,11.1701 0.47482,12.9678 0.305916,1.81306 0.933104,3.55761 1.85322,5.21594l-7.68335 0c-0.751208,-1.52013 -1.25556,-3.30366 -1.46344,-5.35531zm-0.613014 -16.4262c-2.67766,1.10083 -6.68055,2.02094 -12.0052,2.78986 -3.02727,0.431118 -5.17341,0.920112 -6.41598,1.46344 -1.25319,0.544508 -2.23236,1.33824 -2.90207,2.39772 -0.682702,1.04768 -1.02878,2.2052 -1.02878,3.48792 0,1.96542 0.752389,3.59659 2.22882,4.90648 1.47761,1.29926 3.65328,1.95125 6.51283,1.95125 2.8312,0 5.35413,-0.613014 7.55696,-1.85322 2.2052,-1.23902 3.834,-2.94105 4.86632,-5.09073 0.79491,-1.65833 1.18705,-4.11156 1.18705,-7.34554l0 -2.70718z"/>
  </g>
 </g>
</svg>
