<?xml version="1.0" encoding="UTF-8"?>
<!DOCTYPE svg PUBLIC "-//W3C//DTD SVG 1.1//EN" "http://www.w3.org/Graphics/SVG/1.1/DTD/svg11.dtd">
<!-- Creator: CorelDRAW -->
<svg xmlns="http://www.w3.org/2000/svg" xml:space="preserve" width="175px" height="145px" style="shape-rendering:geometricPrecision; text-rendering:geometricPrecision; image-rendering:optimizeQuality; fill-rule:evenodd; clip-rule:evenodd"
viewBox="0 0 175 145"
 xmlns:xlink="http://www.w3.org/1999/xlink">
 <defs>
  <style type="text/css">
   <![CDATA[
    .fil0 {fill:#6D2B70}
   ]]>
  </style>
 </defs>
 <g id="Camada_x0020_1">
  <metadata id="CorelCorpID_0Corel-Layer"/>
  <g id="_143169504">
   <path id="_143169744" class="fil0" d="M142.169 128.131l1.31339 0.340159c-0.379136,6.29176 -1.4504,6.9331 -6.69334,4.10789 -0.7252,-5.56538 0.377954,-5.30672 5.37995,-4.44805zm-29.849 2.75316c1.56969,-1.59804 4.62167,-1.38426 6.60121,-0.564569 3.45002,1.43032 4.74923,-0.124016 6.50672,0.967327 -0.0885831,0.14882 0.409844,1.00158 -2.71891,1.22008 -5.56065,0.389766 -3.96852,-1.65709 -6.75594,-1.46812 -1.70906,0.114567 -1.83544,0.921264 -3.63309,-0.154725zm33.6639 -2.53466c6.85397,-2.34214 6.93428,3.27403 6.63664,4.04529 -0.457089,1.17993 -7.26145,7.30043 -6.63664,-4.04529zm-38.5065 2.73781l-0.317718 -2.39765c1.4067,-1.28741 1.59922,-1.79056 3.61183,-1.72914 -0.099213,1.10788 -0.562207,1.95001 -1.00512,2.9882 -0.605908,1.42323 -0.754728,1.39843 -2.28899,1.13859zm-18.9674 -3.63072c-1.3878,0.811421 -1.10552,0.604727 -2.80986,0.382679 0.187796,-0.592916 -0.249214,-0.968508 1.23308,-1.48938 1.86497,-0.654334 1.37599,0.144095 1.57678,1.1067zm67.9137 -3.2386c1.17875,-0.837405 1.2626,-0.535042 2.13426,-0.393309 0.54331,3.09568 -1.2319,5.45317 -4.32049,3.45238 -0.435829,-1.85906 0.517325,-2.56064 2.18623,-3.05907zm-28.1954 -2.23584c0.689767,-0.192521 0.568113,-0.33071 0.413388,0.3626 0.792523,-0.115749 0.598822,-0.231497 0.316537,0.548034 0.796067,-0.217324 0.641341,-0.357876 0.439372,0.445278 0.814964,-0.251576 0.689767,-0.444096 0.549215,0.372049l1.92757 1.01103c0.92717,-0.214962 0.750003,-0.453545 0.750003,0.420474l-0.0519687 -0.0318899 1.11142 0.344883 0.142914 0.775988c0.933075,0.536223 0.551577,2.57363 0.263387,3.57994 -1.97599,0.389766 -3.95789,-2.11773 -4.86498,-3.70868 -0.733468,-0.188977 -0.654334,0.711027 -0.637798,-0.675594l-0.484254 -0.758271c-0.807878,0.166536 -0.611814,0.278741 -0.359057,-0.530317 -1.74686,-0.419293 -1.73505,-0.963784 -1.64646,-2.73781 1.68426,-0.196064 0.987406,-0.491341 2.13072,0.582286zm-87.6866 -0.033071c0.973233,-1.61457 2.7319,-1.20945 6.51971,-1.49528 3.71576,-0.278741 3.14175,-2.22875 5.73428,-1.39725 -0.231497,2.16379 0.186615,1.5378 -2.22639,1.96773 -2.76261,0.492522 -7.58153,2.0445 -10.0276,0.924807zm45.0782 1.88623c-7.19176,2.31025 -8.38941,-1.64174 -11.8973,-3.55986 -1.28386,-0.701578 -2.0634,-0.0129922 -3.4134,-0.451183 -1.24134,-0.403939 -0.122835,0.225592 -1.07126,-0.811421 3.81616,-1.4882 5.37168,-0.748822 8.44728,1.43977 4.23781,3.01537 2.74253,2.29962 5.50042,2.38229 2.39411,0.0708665 1.77284,0.263387 2.43426,1.0004zm25.3643 -1.07481c-1.53662,1.0252 -1.26615,0.627168 -3.23033,0.774807 -0.664964,1.48938 0.152363,0.740555 -1.17402,1.44922 0.331891,0.936618 0.498427,0.812602 -0.428742,0.444096 0.329529,0.853941 0.333072,0.555121 -0.575199,0.308269 0.236222,0.816145 0.453545,0.74646 -0.340159,0.497246 -0.204332,1.54843 0.180709,1.52835 -1.11733,2.78269l0.310631 0.349608c0.333072,2.53229 0.211418,0.937799 -0.527955,1.14095 -0.420474,0.43701 0.153544,0.988587 -2.82993,0.519687 -0.364962,-5.00081 1.96891,-5.44609 4.03703,-8.31854 -1.79883,-0.112205 -2.08111,-0.00708665 -3.42876,-0.989768l-9.05437 -1.9878c0.115749,-2.41891 9.06028,-12.0249 10.3146,-12.4028 1.28859,0.911815 3.69805,9.16776 6.90476,13.6666 3.14883,-0.249214 2.65277,-2.66458 6.05081,-2.99175 -0.1063,2.08111 -0.875201,1.97836 -2.17796,3.04962 -1.39725,1.14804 -0.653153,1.41142 -2.73308,1.70788zm59.0365 -6.51499c-0.676775,9.24689 -6.9898,13.2544 -7.0205,9.13941l3.0508 -16.5768c1.61457,-1.75276 4.50238,0.165355 3.9697,7.43744zm-103.415 0.643704c0.126379,1.45985 0.393309,0.44764 -0.47953,1.25434l-0.448821 2.10946c-1.07835,0.173623 -2.46143,0.779531 -2.35631,-0.89528l-0.970871 -0.416931c0.491341,-1.90395 -0.0472443,-0.969689 0.963784,-1.4752l0.220867 -1.66654 1.61221 -0.197245 -0.00354332 0.233859c0.865752,-1.65828 0.346065,-1.61576 2.57481,-0.877563 0.119292,0.692129 1.04174,-0.26693 -0.101575,1.54489 -0.612995,0.972052 -0.217324,0.188977 -1.01103,0.386222zm-6.34373 -1.27087c0.211418,1.59213 0.272836,0.781893 -0.434648,0.892917 0.343702,1.02284 0.579924,0.812602 -0.44764,0.812602l0.185434 -0.205513c0.107481,1.14804 0.464175,1.09725 -0.52205,0.762996 0.334253,0.940162 0.421655,0.729925 -0.50079,0.370868 -0.591735,0.761814 1.15985,0.44764 -1.1315,0.637798 -1.24607,0.103937 -0.533861,0.043701 -1.29449,-0.487797 -0.00826775,-1.60276 -0.258663,-0.999217 0.785437,-1.79292 -0.302364,-0.878744 -0.562207,-0.824413 0.312994,-0.561026l1.05827 -3.66025c-3.14293,-0.249214 -5.04924,-1.07245 -7.7646,-1.43505 -3.23505,-0.433467 -5.34687,-1.03701 -5.25829,-4.68664 2.63269,-0.683861 7.73862,1.92757 11.3327,2.01497 2.71773,0.066142 1.14804,-0.193702 1.66182,-0.591735 3.27757,-2.53702 -1.86615,0.395671 0.918902,-0.904728 1.29568,0.973233 2.04804,8.52878 1.09843,8.8335zm48.7266 -7.12562c-0.669688,-1.50473 -1.38898,-2.19922 -1.71851,-3.90238 -0.993312,-5.1201 1.75513,-3.98506 1.89332,-3.99923 0.75709,1.28268 0.493703,2.22521 0.99213,3.87285 0.517325,1.71024 3.63899,7.67956 3.66025,10.5626 -3.04844,-0.251576 -3.68624,-3.97325 -4.82719,-6.53389zm-10.513 -2.34568c-0.206694,1.53072 -1.23308,2.41418 -2.57718,2.95749 -0.283466,1.69135 -4.1386,5.78625 -5.59845,6.49845 0.292915,0.881106 0.465356,0.76772 -0.407482,0.44764 0.33071,0.925988 0.478349,0.775988 -0.448821,0.445278 0.311812,0.848035 0.433467,0.694491 -0.420474,0.403939 0.304726,0.922445 0.497246,0.823232 -0.409844,0.464175 0.360238,0.918902 0.465356,0.729925 -0.466538,0.416931 -0.400396,0.552758 1.05,0.563388 -1.08426,0.62953 -1.92284,0.0590554 -0.998036,-0.26693 -1.40079,-0.623625l-7.83429 -1.43268 -3.23387 -0.620082c-1.55198,-2.82757 -3.22679,-4.42797 -2.56773,-8.06815 2.0941,-0.466538 3.7075,-0.340159 6.02483,-0.90591 1.8945,-0.462994 3.86695,-1.05473 5.69294,-1.46575l1.77875 -0.621263c0.844492,-0.869295 3.5138,-2.5819 4.89333,-2.66694 -0.219686,-0.862209 -0.356695,-0.698035 0.487797,-0.40512 -0.323624,-0.897642 -0.414569,-0.701578 0.473624,-0.368506 -0.327167,-0.950792 -0.382679,-0.69331 0.548034,-0.331891 0.379136,-0.724019 -0.395671,-0.0956697 0.742917,-1.00158 0.535042,-0.427561 0.191339,-0.147638 0.929532,-0.369687 -0.00826775,-1.04174 -0.421655,-1.43268 1.20237,-1.29686 0.264568,-0.90591 0.0248033,-1.13859 1.28859,-1.41142 0.238584,-1.97599 0.969689,-1.48583 1.95473,-3.10986 1.08071,-1.78347 0.357876,-2.0634 2.713,-1.92757l0.403939 8.64453c2.0256,1.87206 -0.946067,5.13428 -2.68466,5.71892zm42.9297 -8.19216c-1.48229,-4.43506 6.59294,-5.67404 7.16342,-1.00748 -1.56851,1.46339 -5.2016,2.33033 -7.16342,1.00748zm-35.1439 -1.32166c-0.696854,-1.75867 -0.0342521,-3.6638 1.97954,-3.29057 0.726381,1.90276 -0.0909453,3.65198 -1.97954,3.29057zm-53.1865 -5.71538c1.80828,-0.702759 2.21103,-0.612995 4.18112,0.0921264 1.07126,2.76852 -0.954335,5.89018 -3.95435,4.85081 -0.536223,-1.48111 -0.596459,-3.43584 -0.226773,-4.94294zm21.1466 2.87718c0.480711,0.285828 0.564569,-0.768901 0.395671,0.898823 0.935437,1.09843 0.406301,2.25828 -0.0732287,3.80435 -1.33819,0.577562 -4.32404,2.55828 -5.0953,0.967327 -0.961422,0.335435 -0.584648,0.363781 -0.505514,-0.798429l0.246852 -0.344883c-1.1067,-1.07245 -2.263,-4.87797 -2.34922,-6.60239 1.58032,-0.702759 3.54687,-1.45985 5.33388,-1.30158 1.27323,0.877563 1.99371,1.70788 2.04686,3.37679zm2.46025 -5.54766c1.48938,-0.604727 3.17836,-1.64883 4.61104,-0.681499 0.566932,0.381498 1.82599,2.87836 1.62639,3.74057 -0.673231,2.89962 -6.07207,0.805515 -6.23743,-3.05907zm89.7902 1.89922c0.931894,0.79961 0.946067,1.11733 0.87402,2.56418 0.431104,0.301182 0.439372,-0.433467 1.06182,1.23308 0.453545,1.21182 0.239765,1.01103 0.165355,2.03623 0.00826775,2.60789 2.45907,8.23941 -1.82009,7.57799 -0.435829,-0.601184 -2.18032,-8.1898 -2.07166,-9.08862 -1.09961,-0.701578 -0.921264,-0.42638 -0.624806,-1.92166 -0.65079,-0.571656 -0.974414,-0.598822 -0.577562,-1.99489 -1.29922,-1.07599 -2.34686,-3.66616 -1.7752,-5.40947 3.05671,-1.26024 4.85671,2.36222 4.76813,5.00317zm-127.1 -6.62483c0.832681,-0.212599 0.666145,-0.354332 0.444096,0.480711 0.853941,-0.29882 0.76772,-0.588192 0.705121,0.184253 1.50946,0.375592 1.05,0.343702 2.13662,1.00867 0.181891,0.111024 1.00512,0.568113 1.03701,0.590554 0.887012,0.627168 0.184253,0.00708665 0.539766,0.605908 1.55434,0.146457 1.75985,0.240946 3.09686,1.2319 0.512601,0.380317 0.975595,0.592916 1.13386,1.20237 0.503152,1.93111 -0.342521,1.43386 -0.70394,1.75158l0.0897642 1.56379c-2.52993,0.171261 -2.4697,-0.669688 -4.40199,-1.92875 -1.2319,-0.304726 -3.61183,-2.53111 -4.539,-3.62482 -1.44922,-1.70788 -2.22875,-2.85238 -2.16261,-5.17798 1.78938,0.0531498 2.31615,0.323624 2.62442,2.11182zm76.9492 -3.42757c-0.152363,-1.54725 0.191339,-3.26812 1.21418,-4.36537 2.35867,0.969689 0.748822,4.03584 -1.21418,4.36537zm-33.0627 3.45356c0.797248,-1.30394 0.934256,-0.813783 1.62402,-1.69961 0.523231,-0.670869 0.577562,-1.20709 1.36064,-2.113 1.75985,-2.03151 1.06536,-3.10159 2.67285,-4.01222 0.621263,1.62757 -0.178347,4.34293 -0.544491,6.21381 -0.407482,2.08584 -0.544491,3.97797 -2.7886,4.77049l-2.32442 -3.15946zm15.0934 -5.46735c0.216143,2.03269 -1.03465,5.12483 -2.30316,6.65082 -0.486616,2.62206 -1.58268,4.32049 -4.60396,3.51852 0.0307088,-1.69253 0.676775,-3.00356 0.822051,-4.68782 0.164174,-1.91576 0.398033,-3.23151 0.494884,-5.22522l1.58859 -0.768901c-0.166536,-3.4512 0.701578,-3.30592 1.07717,-6.23152 1.84253,0.166536 3.24923,-0.270474 3.18427,2.51103 0.607089,0.908272 0.549215,0.987406 0.465356,2.19686 -0.120473,1.73977 0.1063,1.01575 -0.7252,2.03623zm23.093 -4.46695c-1.88977,-1.92875 -2.95159,-5.03506 1.35709,-5.739 1.24016,0.956697 2.90552,2.55001 3.31537,4.09608 -1.40434,1.37363 -2.72009,1.86379 -4.67246,1.64292zm20.4946 -3.50789c-1.7008,0.374411 -2.42009,0.562207 -3.68387,-0.709846 0.369687,-2.00788 3.4134,-1.61103 3.68387,0.709846zm10.2981 -1.7941c0.794885,-0.278741 0.654334,-0.400396 0.387403,0.399214 0.877563,-0.244489 0.70394,-0.367324 0.386222,0.488979 0.883469,-0.303545 0.722838,-0.432285 0.416931,0.450002 0.88465,-0.328348 0.761814,-0.510239 0.504333,0.39449 1.58505,0.269293 1.62166,0.487797 2.11773,2.0941 0.995674,0.739373 1.84843,1.38071 2.08938,2.69293 0.866933,-0.197245 0.572837,-0.24567 0.242127,0.62953 1.4941,1.1126 1.57914,2.51458 1.27678,4.23663 -1.91103,0.206694 -1.05709,0.432285 -2.33033,-1.05591 -1.02638,-1.20001 -1.02638,-0.644885 -1.28623,-2.11773 -0.903547,0.257481 -0.663783,0.34134 -0.357876,-0.562207l-0.51142 -0.921264 0.161812 -0.0625987c-1.76457,-0.89528 -1.94765,-1.28623 -2.70592,-3.20435l-1.59095 -1.85434c-0.930713,0.311812 -0.838586,0.519687 -0.496065,-0.401577 -1.07953,-0.861027 -1.39253,-1.53898 -1.74331,-2.89608 1.3689,0.258663 2.49568,0.92717 3.43939,1.69017zm-21.332 -4.21892l1.21536 1.00985c1.13859,0 1.02048,-0.308269 0.642523,0.709846 1.03819,-0.409844 0.793704,-0.475986 0.367324,0.527955 0.291734,0.3626 0.753547,0.399214 0.762996,1.76694 0.0165355,2.08466 0.0307088,1.09607 -0.655515,1.45867 -0.225592,0.478349 1.21064,0.856303 -0.972052,0.369687 -1.4941,0.777169 -1.45631,0.596459 -3.16301,0.39449 -0.861027,-1.52953 -1.963,-4.57207 -1.77166,-6.31302 0.878744,-0.33071 0.814964,-0.424018 1.79292,-0.411025 1.63702,0.022441 0.801972,0.00118111 1.78111,0.486616zm-22.2544 21.7194c-2.00906,-0.429923 -2.04095,-1.78702 -1.73859,-3.83742 0.833862,-5.64569 1.69607,-5.65042 2.41655,-8.69531 1.62757,-6.87405 0.803153,-2.86537 3.19135,-7.62169 1.12323,-2.23584 3.22088,-4.11734 4.95711,-5.82404 1.0878,-1.07008 1.40316,-2.08702 2.71891,-1.67599 0.164174,0.33071 0.962603,-0.0236222 -0.349608,1.39134 -0.527955,0.568113 -0.6189,0.35197 -1.40552,1.27087 -5.25593,6.14058 -2.12954,2.97167 -4.20474,6.06026 -2.13662,3.17836 -3.18781,6.3331 -4.22364,10.2414 -0.715751,2.70119 -0.150001,6.50908 -1.36182,8.69059zm-100.033 -35.1639c1.68308,0.473624 1.47638,2.99293 2.00788,4.85908 1.42442,5.00553 3.8634,10.213 3.98388,10.6512 0.206694,0.744098 0.454726,2.39647 0.800791,3.0886 0.843311,1.68544 0.851579,0.349608 1.39489,1.95473l-1.26969 0.497246c-0.804334,-0.988587 -1.69371,-3.39568 -2.563,-4.72797 -2.8323,-4.33348 -4.91931,-10.8591 -4.35474,-16.3229zm49.3797 3.52206c-1.09134,-0.722838 -0.737011,-0.0909453 -0.8315,-2.30198l0.968508 -0.226773c0.285828,-0.510239 -0.747641,-0.429923 0.75709,-0.518506 0.35197,-0.525593 -0.839768,-0.602365 0.785437,-0.478349 -0.178347,-0.864571 -0.287009,-0.656696 0.555121,-0.336616 1.97009,-1.35591 4.56262,-0.768901 6.44176,0.764177 -0.0614176,2.39411 -0.535042,2.67639 -2.85592,3.28584 -1.71733,0.451183 -3.37679,0.705121 -5.2701,0.726381l-0.550396 -0.914177zm-39.8376 -3.68978l-0.0909453 -2.24292c0.153544,-0.197245 0.557483,-2.3067 2.07403,-0.336616 0.833862,-0.380317 0.562207,-0.34134 0.186615,0.408663 1.11733,1.16812 0.709846,2.113 1.43268,5.12837 0.421655,1.75749 0.429923,3.38742 0.88465,5.19569 1.3689,5.45672 1.8756,5.03861 2.40119,6.72759 0.592916,1.90985 -0.144095,2.13544 -0.312994,2.36458 -1.35001,-1.36654 -4.74215,-8.30555 -4.57325,-10.5532 -0.643704,-0.473624 -0.283466,1.07008 -0.89528,-1.33583 -0.334253,-1.31339 -0.150001,-0.861027 0.00472443,-2.0693 -0.996855,-0.587011 -0.222048,0.577562 -0.614176,-0.759452 -0.318899,-1.08426 -0.157087,-0.421655 0.150001,-1.36536 -0.780712,-0.0838586 -0.561026,1.26969 -0.647247,-1.16221zm74.6992 -6.94019l1.19174 1.42205c2.50277,4.71853 2.1508,4.26616 3.67679,9.70398 0.753547,2.6882 3.59647,10.8567 -1.90867,10.2556 -0.453545,-1.4752 -0.668507,-3.78545 -1.10434,-4.90632 -0.775988,-1.99962 -0.610633,-0.246852 -1.04292,-1.8945 -0.390947,-1.48465 0.486616,-3.87403 -1.43859,-7.79413 -1.72796,-3.51734 -1.65473,-2.04686 -1.47048,-4.24136 0.153544,-2.0882 -0.616538,-1.61812 -0.752366,-3.79962 1.93229,0.30945 1.27087,0.660239 2.84883,1.25434zm-66.9653 -13.5154c-0.770082,1.24016 -1.41615,1.47402 -1.95591,2.48033 -0.628349,1.17284 -0.322442,1.38308 -1.32402,2.55001 -5.34215,-1.59095 -0.524412,-12.3024 1.26142,-13.3241 1.35709,0.349608 4.35711,4.14805 4.6512,5.53585 -0.53268,1.26379 -1.39016,2.07403 -2.63269,2.75789zm40.3537 -4.99963c2.44844,-0.0838586 3.70277,1.4504 4.5827,3.61891 -2.40237,-0.464175 -4.68427,-1.02402 -4.5827,-3.61891zm8.3646 -3.30356c2.90198,0.536223 10.5981,8.91854 10.6252,11.8654 -2.42836,0.272836 -1.91339,-0.803153 -3.176,-2.6197 -2.16025,-3.10986 -7.12562,-7.56145 -7.44925,-9.24571zm-16.3548 -0.376773c1.10434,-0.565751 1.21418,-0.68268 2.3504,0.0838586 -0.396852,1.70316 -1.86615,1.50237 -2.3504,-0.0838586zm-21.1371 1.22599c-1.0004,1.20119 -2.57836,1.57796 -4.27443,1.1693 -1.3819,-0.982682 -1.98544,-3.04726 -2.50631,-3.89411 -0.471262,-0.766539 -0.0460632,0.11693 -0.696854,-0.938981 -1.81536,-2.94686 -0.103937,-3.24687 2.83584,-2.71537 0.797248,0.959059 1.73032,2.57127 2.30198,3.19253 1.11615,1.21182 1.90749,1.26024 2.33977,3.18663zm7.6335 -8.82642l0.833862 -0.393309 0.637798 1.08308 3.37324 1.45512c1.82009,1.00748 2.08347,1.93111 1.36064,4.05947 -0.947248,0.395671 -7.74216,1.70316 -8.76972,1.53662 -0.0625987,-0.0377954 -3.96144,-6.1453 -3.72994,-8.38468 1.38426,-0.400396 1.69135,-0.389766 3.18309,-0.165355l2.17324 0.360238c0.0956697,0.0248033 0.248033,0.0897642 0.324805,0.113386 0.0755909,0.0236222 0.253938,0.250395 0.307088,0.154725 0.0555121,-0.099213 0.209056,0.112205 0.305907,0.180709zm-13.8036 -9.9839c-0.45827,0.403939 -0.510239,1.17284 -2.10591,0.501971 0.255119,0.885831 0.390947,0.724019 -0.477168,0.409844 -0.323624,1.68426 -0.220867,0.885831 -1.75985,1.75631 -0.817327,0.461813 -1.27087,0.772444 -2.16851,1.2626 -1.61457,0.882287 -2.51576,1.89922 -4.14451,2.57245 -1.1315,1.86733 -1.92875,1.07245 -2.32678,3.06734 0.188977,1.14922 0.51142,1.10197 -0.525593,0.65079 0.290552,0.760633 0.433467,0.638979 -0.35197,0.432285 -0.307088,1.92875 -1.08662,0.357876 -2.0693,3.5634 -1.13977,3.72167 -0.911815,0.32008 -3.22088,7.57681l-1.1941 3.73702c-0.517325,1.35001 -0.938981,7.44334 -0.953154,9.14886 -0.0507876,6.08743 1.00394,7.28743 -1.62402,7.64059 -1.67245,-2.31025 -0.711027,-5.97759 -1.06182,-8.80398 -0.435829,-3.50789 -0.400396,-5.35869 0.931894,-8.39295 1.13623,-2.58308 0.559845,-5.17443 2.33151,-7.51657 2.91379,-3.85277 0.870476,-5.10475 3.65553,-5.80042 -0.103937,-0.649609 -0.275198,-0.539766 0.333072,-0.486616 0.0472443,-1.36418 -0.223229,-0.777169 0.475986,-0.836224 -0.200788,-0.7252 -0.347246,-0.577562 0.392128,-0.483073l0.310631 -0.52205c0.722838,-1.87442 0.51142,-0.0236222 1.09843,-2.66812 -1.513,0.519687 -3.19253,1.3441 -3.93427,2.76143 -0.711027,1.35709 -1.50473,2.53584 -3.05553,3.00001 0.480711,1.86851 0.115749,0.551577 -0.505514,0.797248 0.349608,0.918902 0.474805,0.76772 -0.431104,0.39449 -0.41575,1.28268 -0.582286,1.4752 -1.71733,2.21103 0.0921264,1.92757 -1.97009,4.80475 -2.87482,6.8079l-2.68348 6.98271c0.145276,0.552758 -0.244489,15.9792 -0.492522,16.7564 1.10788,1.06182 0.70394,1.84725 0.481892,2.79214l0.0188977 3.36143c1.55198,1.72442 0.0283466,0.915358 1.30276,3.69214 4.01695,8.75319 4.25081,11.1083 10.4079,20.5442 1.11615,1.71024 2.94332,3.34135 4.16222,4.87443 0.883469,1.11142 1.25788,1.50473 2.24056,2.49096 1.00748,1.01339 0.818508,1.34174 1.90513,2.39647 2.76143,2.67875 6.95554,5.3268 9.43469,7.96421 1.77875,0.731106 1.94647,1.11024 3.54214,1.91339l2.52875 1.50119c2.37757,1.51064 3.38033,4.28742 4.09254,7.50594 -1.86143,0.829138 -3.77128,2.52875 -4.4138,4.67246 -0.538585,1.79528 -0.949611,6.68743 -0.0377954,8.27248 1.69017,2.44844 5.56538,1.66418 8.24177,3.77836l1.95001 0.262206c7.36657,0.438191 18.0639,-3.35435 19.7776,-1.43859 17.3339,30.586 4.89333,5.80633 4.92049,5.74018 1.84135,-0.866933 4.55671,-0.0744098 5.9953,0.993312l5.9764 0.750003c0.793704,-1.09725 0.552758,-2.15316 2.20867,-2.51222 0.556302,-0.120473 0.824413,-0.323624 1.31812,0.13819 0.66142,0.6189 0.231497,-0.161812 -0.0425199,0.771263l1.67599 1.12914c0.0720476,1.47993 -0.00472443,0.393309 -0.731106,2.00316l4.93821 2.0882c2.01733,0.519687 0.813783,-0.501971 1.99135,0.796067l17.9044 3.38387c0.0696854,0.0307088 0.198426,0.126379 0.252757,0.153544 0.0507876,0.0271655 0.166536,0.0968508 0.231497,0.166536 1.22127,-0.227954 0.596459,-0.307088 1.9571,-0.183072 2.08347,0.191339 1.14213,0.282285 1.43741,0.630711 1.00276,-0.140552 0.883469,-0.261025 2.00198,-0.172442 2.5571,0.200788 1.00867,0.0354332 1.4752,0.617719 1.09725,-0.0259844 0.317718,-0.284647 1.60749,0.112205 1.74213,0.536223 0.578743,0.140552 1.28623,0.742917l5.11302 0.509057 0.737011 -2.31497c1.74568,-0.134646 6.77838,1.72914 8.07878,2.47324 2.09292,-0.335435 4.38782,0.279923 6.57405,0.0460632 2.19686,-0.23504 3.72639,-0.421655 6.05436,-0.483073 9.02721,-0.236222 7.69846,-2.15552 10.7717,-2.32442 0.887012,-1.58032 4.86734,-3.63309 6.69334,-6.40278 0.892917,-1.35473 1.86497,-2.413 2.56537,-3.90947 0.758271,-1.6193 1.34174,-3.4382 2.56064,-4.50356 0.524412,-9.8528 4.69254,-6.03074 0.00944886,-31.2025 -1.20945,-6.50436 -7.19176,-18.1442 -11.4721,-23.3576 -8.14374,-9.91658 -21.3686,-20.0292 -34.8568,-15.1312 -2.77324,1.00748 -4.33821,0.724019 -6.88822,1.6382 -1.7008,0.610633 -4.65829,2.40946 -5.75199,2.54647 -1.26497,1.88741 -2.75907,3.26931 -4.41616,4.92994 -2.11773,2.12127 -1.44449,4.71616 -4.23191,4.61104l-0.634255 -9.83154c-1.34174,-3.38505 -1.73505,-7.88389 -3.35671,-11.1225 -1.69961,-3.39568 -1.39134,-4.34293 -2.02914,-5.68585 -1.04882,-2.20749 -0.496065,0.570475 -2.58544,-4.86853 -0.883469,-2.3008 -4.34057,-6.83861 -5.85239,-9.13941 -1.1067,-1.68426 -6.42759,-6.81617 -6.63192,-8.0646 -1.0441,0 -0.825594,0.212599 -0.419293,-0.790161 -0.931894,0.452364 -0.688586,0.484254 -0.369687,-0.473624 -1.57087,-0.140552 -0.818508,0.0531498 -2.22993,-1.20709 -6.68035,-5.96223 -7.1209,-5.50632 -13.2048,-9.57524 -3.55159,-2.37521 -5.08113,-2.55119 -8.72012,-4.15868 -2.0067,-0.885831 -8.3646,-2.70592 -10.2626,-2.35749 -1.26733,0.206694 -7.84728,0.255119 -9.62012,0.251576 -3.20198,-0.00590554 -4.87207,1.82481 -7.51539,1.44449z"/>
   <path id="_143170152" class="fil0" d="M160.17 140.121c1.86379,-0.257481 6.10515,-4.11498 6.23979,-4.28388 1.6193,-2.05513 5.72129,-7.9087 5.57955,-10.5319 -1.2189,1.06536 -1.80237,2.88426 -2.56064,4.50356 -0.700397,1.49646 -1.67245,2.55474 -2.56537,3.90947 -1.82599,2.7697 -5.80633,4.82246 -6.69334,6.40278z"/>
  </g>
 </g>
</svg>
