<?xml version="1.0" encoding="UTF-8"?>
<!DOCTYPE svg PUBLIC "-//W3C//DTD SVG 1.1//EN" "http://www.w3.org/Graphics/SVG/1.1/DTD/svg11.dtd">
<!-- Creator: CorelDRAW -->
<svg xmlns="http://www.w3.org/2000/svg" xml:space="preserve" width="520px" height="130px" style="shape-rendering:geometricPrecision; text-rendering:geometricPrecision; image-rendering:optimizeQuality; fill-rule:evenodd; clip-rule:evenodd"
viewBox="0 0 520 129.999"
 xmlns:xlink="http://www.w3.org/1999/xlink">
 <defs>
  <style type="text/css">
   <![CDATA[
    .fil3 {fill:#838281}
    .fil1 {fill:#AAA9A9}
    .fil2 {fill:#3B342B}
    .fil0 {fill:#1F1A17;fill-rule:nonzero}
   ]]>
  </style>
 </defs>
 <g id="Camada_x0020_1">
  <metadata id="CorelCorpID_0Corel-Layer"/>
  <g id="_143163792">
   <path id="_143156784" class="fil0" d="M493.13 83.2005c0.0637796,0 0.13937,0.0177166 0.227953,0.0496064 0.0933072,0.0295276 0.185433,0.068504 0.278741,0.114567 0.0933072,0.0460631 0.18189,0.0968505 0.261024,0.157087 0.0814962,0.0578741 0.135827,0.121654 0.164173,0.18189 0.0897639,0.197244 0.157087,0.372048 0.20315,0.529135 0.0472442,0.157087 0.0897639,0.34252 0.12874,0.561024 0.12874,0.660237 0.232678,1.30748 0.32126,1.93937 0.0862206,0.631891 0.158268,1.22835 0.207874,1.78937 0.0531497,0.561024 0.0885828,1.07599 0.111024,1.5437 0.0212599,0.467717 0.0318898,0.868112 0.0318898,1.19292 0,0.18189 0,0.34252 0,0.478347 0,0.135827 0,0.264567 0.00354331,0.389764 0.00354331,0.12874 0.00708662,0.250394 0.0106299,0.367323 0.00354331,0.11811 0.00708662,0.243307 0.00708662,0.375591 0,0.314174 -0.00354331,0.585828 -0.0106299,0.813781 -0.00708662,0.225591 -0.0177166,0.418111 -0.0318898,0.578741 0.242126,0.103937 0.542127,0.179528 0.900001,0.222048 0.356693,0.0389764 0.725198,0.0708662 1.10315,0.0921261 0.382678,0.022441 0.753544,0.0366142 1.11496,0.0472442 0.36378,0.0106299 0.682678,0.0318898 0.953151,0.0673229 0.0968505,-0.13937 0.172441,-0.261024 0.225591,-0.360237 0.0496064,-0.100394 0.0897639,-0.200788 0.114567,-0.303544 0.0248032,-0.100394 0.0389764,-0.207874 0.0425197,-0.317717 0.00354331,-0.111024 0.00354331,-0.246851 0.00354331,-0.407481 0,-0.174803 0,-0.368504 0,-0.582284 0,-0.214961 -0.00354331,-0.425197 -0.0141732,-0.640158 -0.0106299,-0.210237 -0.0248032,-0.41693 -0.0425197,-0.621261 -0.0177166,-0.20315 -0.0472442,-0.381497 -0.0897639,-0.542127 -0.0673229,-0.275197 -0.10748,-0.514961 -0.114567,-0.725198 -0.00708662,-0.207874 -0.0106299,-0.411024 -0.0106299,-0.611812 0,-0.199607 -0.0106299,-0.399213 -0.0354331,-0.600001 -0.0248032,-0.20315 -0.0862206,-0.428741 -0.185433,-0.681497 -0.068504,-0.183071 -0.135827,-0.343701 -0.197244,-0.490158 -0.0637796,-0.146457 -0.113386,-0.289371 -0.157087,-0.420473 -0.0425197,-0.132284 -0.0744096,-0.257481 -0.0992127,-0.382678 -0.0259843,-0.121654 -0.0366142,-0.250394 -0.0366142,-0.389764 0,-0.114567 0.0401575,-0.206693 0.11811,-0.285827 0.0826773,-0.0744096 0.18189,-0.135827 0.303544,-0.174803 0.125197,-0.0425197 0.261024,-0.0708662 0.411024,-0.0885828 0.15,-0.0188977 0.292914,-0.0295276 0.432284,-0.0295276 0.153544,0 0.282284,0.0578741 0.389764,0.167717 0.102756,0.114567 0.188977,0.243307 0.259843,0.393308 0.068504,0.15 0.125197,0.303544 0.168898,0.457087 0.0389764,0.153544 0.0708662,0.275197 0.0921261,0.364961 0.0354331,0.16063 0.0649607,0.370867 0.0862206,0.631891 0.0177166,0.264567 0.0389764,0.536221 0.056693,0.822048 0.0177166,0.285827 0.0283465,0.563387 0.0389764,0.831497 0.0106299,0.268111 0.0295276,0.490158 0.0507875,0.664962 0.0531497,0.48189 0.0921261,0.986222 0.11811,1.50709 0.0248032,0.525591 0.0389764,1.05354 0.0389764,1.58977 0,0.275197 0.0141732,0.506694 0.0496064,0.696851 0.0354331,0.19252 0.0897639,0.4063 0.157087,0.642521 0.0141732,0.0496064 0.10748,0.103937 0.278741,0.157087 0.17126,0.0578741 0.386221,0.11811 0.643702,0.178347 0.2563,0.0649607 0.538583,0.12874 0.845671,0.193701 0.307087,0.0673229 0.600001,0.132284 0.878741,0.196063 0.425197,0.0968505 0.814962,0.167717 1.16457,0.21378 0.347245,0.0437009 0.596458,0.0755907 0.742915,0.0897639 0.0401575,-0.0425197 0.0862206,-0.0968505 0.135827,-0.157087 0.0460631,-0.0637796 0.0720474,-0.132284 0.0720474,-0.210237 0,-0.183071 0,-0.400394 -0.00354331,-0.654332 -0.00354331,-0.253937 -0.0106299,-0.517324 -0.0177166,-0.788978 -0.00826773,-0.271654 -0.0153544,-0.539765 -0.0259843,-0.797245 -0.0106299,-0.2563 -0.0212599,-0.48189 -0.0354331,-0.667324 -0.0425197,-0.460631 -0.0850395,-0.943702 -0.132284,-1.44685 -0.0460631,-0.500788 -0.0956694,-0.989765 -0.15,-1.46457 -0.056693,-0.474804 -0.11811,-0.921261 -0.185433,-1.34292 -0.0649607,-0.421654 -0.13937,-0.790159 -0.225591,-1.0937 0,0.00354331 -0.0141732,-0.0425197 -0.0389764,-0.142914 -0.0283465,-0.0992127 -0.0637796,-0.231496 -0.111024,-0.392127 -0.0460631,-0.16063 -0.0921261,-0.336615 -0.146457,-0.522048 -0.0531497,-0.188977 -0.0992127,-0.36378 -0.142914,-0.52441 -0.0389764,-0.161811 -0.0779529,-0.292914 -0.106299,-0.403938 -0.0330709,-0.10748 -0.0507875,-0.157087 -0.0507875,-0.15 0,-0.103937 0.0295276,-0.207874 0.0862206,-0.303544 0.0531497,-0.0968505 0.12874,-0.186614 0.22441,-0.261024 0.0933072,-0.079134 0.204331,-0.13937 0.329528,-0.185433 0.125197,-0.0437009 0.259843,-0.068504 0.4063,-0.068504 0.0578741,0 0.135827,0.0283465 0.236221,0.0862206 0.103937,0.0531497 0.20315,0.132284 0.31063,0.227953 0.103937,0.100394 0.200788,0.211418 0.292914,0.340158 0.0897639,0.132284 0.15,0.270473 0.174803,0.425197 0.0649607,0.349607 0.121654,0.677954 0.175985,0.988584 0.0496064,0.31063 0.0992127,0.629529 0.13937,0.954332 0.0425197,0.32126 0.0814962,0.667324 0.120473,1.02874 0.0401575,0.36378 0.079134,0.767718 0.121654,1.21418 0.0543308,0.536221 0.114567,1.0748 0.17126,1.61811 0.0614174,0.539765 0.121654,1.04646 0.183071,1.51418 0.0637796,0.472442 0.120473,0.889371 0.174803,1.25788 0.0496064,0.367323 0.0956694,0.635434 0.12874,0.810237 0.0354331,0.161811 0.0779529,0.340158 0.132284,0.532678 0.0531497,0.196063 0.102756,0.389764 0.15,0.582284 0.0496064,0.19252 0.0921261,0.372048 0.131103,0.539765 0.0401575,0.167717 0.0578741,0.303544 0.0578741,0.407481 0,0.188977 -0.0248032,0.356693 -0.079134,0.50315 -0.0496064,0.146457 -0.142914,0.268111 -0.275197,0.36378 -0.134646,0.100394 -0.31063,0.172441 -0.53504,0.222048 -0.222048,0.0496064 -0.504331,0.0708662 -0.846852,0.0708662 -0.3,0 -0.631891,-0.0389764 -1.0004,-0.124016 -0.36378,-0.0826773 -0.813781,-0.186614 -1.34292,-0.303544 -0.432284,-0.0755907 -0.864568,-0.165355 -1.29331,-0.261024 -0.428741,-0.0968505 -0.857482,-0.190158 -1.28977,-0.278741 -0.42756,-0.0862206 -0.856301,-0.16063 -1.28504,-0.218504 -0.428741,-0.0602363 -0.864568,-0.0921261 -1.30394,-0.0992127 -0.314174,-0.00708662 -0.628347,-0.0295276 -0.950789,-0.068504 -0.32126,-0.0389764 -0.646064,-0.0744096 -0.974411,-0.114567 -0.329528,-0.0389764 -0.654332,-0.0744096 -0.982679,-0.106299 -0.328347,-0.0283465 -0.649607,-0.0472442 -0.964962,-0.0472442 -0.0531497,0 -0.131103,0.00708662 -0.227953,0.022441 -0.0968505,0.0141732 -0.17126,0.0212599 -0.222048,0.0212599 -0.3,0 -0.628347,-0.10748 -0.992127,-0.325985 -0.0897639,-0.0531497 -0.186614,-0.146457 -0.282284,-0.274016 -0.0968505,-0.132284 -0.186614,-0.275197 -0.268111,-0.432284 -0.079134,-0.157087 -0.142914,-0.31063 -0.19252,-0.465355 -0.0507875,-0.153544 -0.0720474,-0.284646 -0.0720474,-0.39567 0,-0.0720474 0.0106299,-0.190158 0.0389764,-0.361418 0.0295276,-0.17126 0.0614174,-0.349607 0.100394,-0.538583 0.0389764,-0.190158 0.0720474,-0.368504 0.100394,-0.539765 0.0283465,-0.17126 0.0425197,-0.292914 0.0425197,-0.360237 0,-0.11811 0,-0.278741 0.00354331,-0.475985 0.00354331,-0.199607 0.00708662,-0.418111 0.0106299,-0.649607 0.00354331,-0.236221 0.00354331,-0.478347 0.00354331,-0.739371 0,-0.257481 -0.00354331,-0.500788 -0.0177166,-0.732285 -0.0283465,-0.529135 -0.0602363,-1.03229 -0.0968505,-1.51063 -0.0318898,-0.479528 -0.0956694,-0.979135 -0.185433,-1.50118 -0.0496064,-0.314174 -0.11811,-0.603544 -0.199607,-0.871655 -0.0862206,-0.263386 -0.164173,-0.517324 -0.236221,-0.764174 -0.0744096,-0.242126 -0.13937,-0.485434 -0.19252,-0.725198 -0.0578741,-0.242126 -0.0862206,-0.485434 -0.0862206,-0.739371 0,-0.0885828 0.0248032,-0.178347 0.068504,-0.271654 0.0460631,-0.0885828 0.106299,-0.17126 0.178347,-0.24567 0.0744096,-0.0720474 0.16063,-0.132284 0.257481,-0.179528 0.0956694,-0.0425197 0.196063,-0.0673229 0.292914,-0.0673229z"/>
   <path id="_1431567841" class="fil0" d="M500.444 70.9584c0.111024,0 0.236221,0.0318898 0.372048,0.0933072 0.135827,0.0637796 0.275197,0.146457 0.421654,0.249213 0.15,0.10748 0.296457,0.225591 0.446457,0.357875 0.15,0.132284 0.296457,0.264567 0.446457,0.396851 0.11811,0.106299 0.236221,0.217323 0.360237,0.335434 0.121654,0.11811 0.257481,0.253937 0.407481,0.403938 0.15,0.15 0.324804,0.324804 0.522048,0.527954 0.199607,0.200788 0.432284,0.439371 0.69567,0.711025 0.239764,0.243307 0.486615,0.514961 0.751182,0.811419 0.259843,0.296457 0.517324,0.596458 0.767718,0.900001 0.250394,0.303544 0.49252,0.600001 0.721655,0.885828 0.231496,0.285827 0.432284,0.531497 0.607088,0.742915 0.411024,0.499607 0.799608,0.977954 1.16811,1.43268 0.36378,0.453544 0.696851,0.900001 0.989765,1.33937 0.585828,0.871655 0.878741,1.56024 0.878741,2.07166 0,0.174803 -0.0472442,0.377953 -0.135827,0.607088 -0.0933072,0.236221 -0.218504,0.356693 -0.379134,0.356693 -0.453544,0 -0.806694,-0.17126 -1.06772,-0.51378 -0.243307,-0.335434 -0.507875,-0.857482 -0.793702,-1.56851 -0.282284,-0.700395 -0.552757,-1.22126 -0.817324,-1.57205 -0.264567,-0.349607 -0.628347,-0.520867 -1.09016,-0.520867 -0.227953,0 -0.69567,0.239764 -1.39961,0.721655 -0.357875,0.23504 -0.682678,0.446457 -0.979135,0.631891 -0.296457,0.185433 -0.564568,0.34252 -0.799608,0.474804 -0.490158,0.268111 -1.00394,0.400394 -1.54016,0.400394 -0.467717,0 -0.956694,-0.0885828 -1.4752,-0.264567 -0.292914,-0.0814962 -0.589371,-0.217323 -0.885828,-0.399213 -0.296457,-0.186614 -0.561024,-0.386221 -0.792521,-0.604725 -0.236221,-0.21378 -0.421654,-0.434646 -0.561024,-0.656694 -0.13937,-0.225591 -0.206693,-0.421654 -0.199607,-0.585828 0,-0.614174 0.36378,-0.921261 1.08898,-0.921261 0.278741,0 0.550395,0.0992127 0.818505,0.303544 0.124016,0.0956694 0.252756,0.21378 0.388583,0.35315 0.13937,0.13937 0.282284,0.3 0.435827,0.48189 0.146457,0.175985 0.275197,0.322441 0.386221,0.447638 0.114567,0.120473 0.206693,0.220866 0.285827,0.296457 0.360237,0 0.785434,-0.111024 1.27441,-0.336615 0.236221,-0.11811 0.497245,-0.252756 0.775985,-0.407481 0.278741,-0.153544 0.578741,-0.33189 0.900001,-0.531497 0.32126,-0.204331 0.607088,-0.375591 0.861025,-0.514961 0.2563,-0.13937 0.442914,-0.242126 0.561024,-0.314174 0.0283465,-0.00708662 0.0425197,-0.0425197 0.0425197,-0.114567 0,-0.0956694 -0.0720474,-0.26693 -0.214961,-0.506694 -0.142914,-0.239764 -0.335434,-0.529135 -0.575198,-0.857482 -0.242126,-0.33189 -0.520867,-0.693308 -0.838584,-1.08543 -0.317717,-0.389764 -0.654332,-0.779529 -1.00748,-1.17166 -0.364961,-0.403938 -0.682678,-0.739371 -0.954332,-1.00394 -0.270473,-0.264567 -0.52441,-0.514961 -0.764174,-0.753544 -0.23504,-0.236221 -0.421654,-0.414568 -0.550395,-0.529135 -0.127559,-0.114567 -0.19252,-0.178347 -0.19252,-0.19252 0,-0.0578741 0.0212599,-0.10748 0.0649607,-0.157087 0.0389764,-0.0507875 0.0956694,-0.0933072 0.16063,-0.132284 0.0673229,-0.0354331 0.135827,-0.068504 0.210237,-0.0862206 0.0720474,-0.0212599 0.13937,-0.0318898 0.20315,-0.0318898z"/>
   <path id="_14315678412" class="fil0" d="M498.791 61.9241c0.257481,0 0.453544,0.0720474 0.589371,0.211418 0.13937,0.13937 0.257481,0.3 0.364961,0.48189 0.102756,0.229134 0.196063,0.485434 0.282284,0.767718 0.0814962,0.282284 0.157087,0.571654 0.22441,0.868112 0.0649607,0.296457 0.121654,0.596458 0.167717,0.896458 0.0437009,0.3 0.079134,0.585828 0.10748,0.857482 0.0283465,0.292914 0.056693,0.603544 0.0862206,0.933072 0.0283465,0.324804 0.056693,0.642521 0.0885828,0.949608 0.0283465,0.307087 0.068504,0.592914 0.10748,0.853938 0.0425197,0.261024 0.0968505,0.471261 0.157087,0.631891 0.635434,0.146457 1.23898,0.303544 1.81772,0.467717 0.575198,0.165355 1.14685,0.3 1.72205,0.411024 0.132284,0.0283465 0.328347,0.0649607 0.596458,0.111024 0.264567,0.0460631 0.539765,0.0897639 0.829135,0.132284 0.292914,0.0389764 0.564568,0.0779529 0.817324,0.111024 0.253937,0.0283465 0.439371,0.0460631 0.550395,0.0460631 0.285827,0 0.500788,-0.0460631 0.643702,-0.135827 0.142914,-0.0933072 0.2563,-0.19252 0.346064,-0.3 0.0850395,-0.10748 0.167717,-0.206693 0.243307,-0.296457 0.0779529,-0.0933072 0.19252,-0.135827 0.346064,-0.135827 0.100394,0 0.19252,0.0460631 0.282284,0.13937 0.0921261,0.0933072 0.17126,0.206693 0.242126,0.338977 0.068504,0.132284 0.121654,0.275197 0.161811,0.425197 0.0389764,0.15 0.056693,0.282284 0.056693,0.393308 0,0.199607 -0.0531497,0.381497 -0.167717,0.543308 -0.111024,0.16063 -0.253937,0.296457 -0.432284,0.4063 -0.178347,0.114567 -0.382678,0.200788 -0.614174,0.264567 -0.229134,0.0614174 -0.467717,0.0933072 -0.711025,0.0933072 -0.32126,0 -0.664962,-0.0283465 -1.02874,-0.0826773 -0.368504,-0.056693 -0.742915,-0.12874 -1.12559,-0.210237 -0.38504,-0.0826773 -0.778348,-0.17126 -1.17874,-0.268111 -0.400394,-0.0933072 -0.799608,-0.18189 -1.19646,-0.264567 -0.167717,-0.0354331 -0.34252,-0.0708662 -0.518505,-0.111024 -0.178347,-0.0389764 -0.346064,-0.0744096 -0.50315,-0.102756 -0.157087,-0.0330709 -0.289371,-0.0614174 -0.393308,-0.079134 -0.102756,-0.0212599 -0.167717,-0.0318898 -0.188977,-0.0318898 -0.111024,0 -0.196063,0.0389764 -0.253937,0.11811 -0.0602363,0.0814962 -0.0885828,0.178347 -0.0885828,0.289371 0,0.0814962 0.00708662,0.210237 0.0177166,0.37441 0.0141732,0.167717 0.0318898,0.347245 0.0531497,0.529135 0.0212599,0.185433 0.0389764,0.36378 0.0543308,0.527954 0.0141732,0.168898 0.0212599,0.289371 0.0212599,0.368504 0,0.250394 -0.0177166,0.464174 -0.0507875,0.638977 -0.0283465,0.17126 -0.0850395,0.314174 -0.17126,0.421654 -0.0814962,0.111024 -0.199607,0.188977 -0.349607,0.243307 -0.15,0.0496064 -0.34252,0.0779529 -0.582284,0.0779529 -0.0968505,0 -0.17126,-0.0460631 -0.229134,-0.135827 -0.056693,-0.0921261 -0.0956694,-0.20315 -0.121654,-0.33189 -0.0248032,-0.12874 -0.0389764,-0.264567 -0.0389764,-0.411024 -0.00354331,-0.146457 -0.00708662,-0.278741 -0.00708662,-0.388583 0,-0.0897639 -0.00708662,-0.239764 -0.0248032,-0.442914 -0.0177166,-0.207874 -0.0389764,-0.425197 -0.056693,-0.650788 -0.022441,-0.22441 -0.0437009,-0.442914 -0.0614174,-0.649607 -0.0141732,-0.204331 -0.0248032,-0.354331 -0.0248032,-0.442914 0,-0.0425197 -0.00354331,-0.0933072 -0.0106299,-0.146457 -0.00708662,-0.0578741 -0.0248032,-0.114567 -0.056693,-0.17126 -0.0330709,-0.0614174 -0.0826773,-0.114567 -0.157087,-0.164173 -0.0720474,-0.0507875 -0.175985,-0.0897639 -0.308268,-0.125197 -0.217323,-0.0507875 -0.471261,-0.10748 -0.760631,-0.179528 -0.289371,-0.0673229 -0.585828,-0.138189 -0.889371,-0.21378 -0.303544,-0.0708662 -0.596458,-0.142914 -0.878741,-0.21378 -0.282284,-0.0720474 -0.52441,-0.12874 -0.725198,-0.179528 -0.196063,-0.0602363 -0.407481,-0.116929 -0.628347,-0.16063 -0.225591,-0.0460631 -0.446457,-0.0885828 -0.672048,-0.125197 -0.220866,-0.0389764 -0.439371,-0.0814962 -0.646064,-0.132284 -0.210237,-0.0496064 -0.403938,-0.109843 -0.575198,-0.188977 -0.36378,-0.153544 -0.546851,-0.400394 -0.546851,-0.742915 0,-0.51378 0.285827,-0.774804 0.857482,-0.774804 0.357875,0 0.764174,0.0779529 1.22599,0.231496 1.06063,0.336615 1.93583,0.582284 2.62087,0.744096 0.689765,0.16063 1.1504,0.238583 1.38662,0.238583 0.261024,0 0.388583,-0.12874 0.388583,-0.38504 0,-0.315355 -0.00708662,-0.608269 -0.0177166,-0.887009 -0.0106299,-0.274016 -0.0248032,-0.552757 -0.0496064,-0.835041 -0.0248032,-0.282284 -0.0531497,-0.582284 -0.0897639,-0.892915 -0.0354331,-0.314174 -0.0744096,-0.668505 -0.113386,-1.05827 -0.0366142,-0.281103 -0.079134,-0.54567 -0.12874,-0.803151 -0.0472442,-0.253937 -0.0933072,-0.488977 -0.13937,-0.703938 -0.0472442,-0.217323 -0.0897639,-0.411024 -0.132284,-0.575198 -0.0425197,-0.167717 -0.068504,-0.307087 -0.0826773,-0.421654 -0.00708662,-0.0744096 -0.0177166,-0.15 -0.0318898,-0.22441 -0.0141732,-0.0720474 -0.0141732,-0.135827 -0.00354331,-0.185433 0.00708662,-0.0543308 0.0354331,-0.0968505 0.0826773,-0.125197 0.0460631,-0.0318898 0.120473,-0.0507875 0.22441,-0.0507875z"/>
   <path id="_143156784123" class="fil0" d="M499.544 46.3973c0.264567,0 0.568111,0.068504 0.903545,0.199607 0.340158,0.132284 0.654332,0.315355 0.947246,0.543308 0.379134,0.292914 0.750001,0.621261 1.12205,0.989765 0.367323,0.36378 0.725198,0.746458 1.06063,1.14685 0.338977,0.39567 0.653151,0.799608 0.942521,1.21063 0.289371,0.414568 0.539765,0.814962 0.753544,1.2 0.211418,0.386221 0.379134,0.750001 0.504331,1.0937 0.121654,0.34252 0.18189,0.642521 0.18189,0.900001 0,0.328347 -0.056693,0.614174 -0.167717,0.857482 -0.111024,0.24567 -0.264567,0.457087 -0.457087,0.635434 -0.190158,0.174803 -0.414568,0.324804 -0.675592,0.442914 -0.257481,0.11811 -0.527954,0.220866 -0.813781,0.307087 -0.285827,0.0897639 -0.582284,0.16063 -0.885828,0.218504 -0.303544,0.0531497 -0.596458,0.106299 -0.882285,0.153544 0.263386,0.174803 0.563387,0.370867 0.892915,0.592914 0.33189,0.220866 0.667324,0.450001 1.01103,0.688584 0.34252,0.243307 0.670867,0.486615 0.988584,0.732285 0.317717,0.250394 0.592914,0.483072 0.832678,0.696851 0.257481,0.246851 0.50315,0.511418 0.742915,0.799608 0.236221,0.289371 0.442914,0.597639 0.621261,0.922442 0.178347,0.324804 0.32126,0.663781 0.428741,1.02166 0.111024,0.35315 0.164173,0.721655 0.164173,1.09606 0,0.553938 -0.227953,0.986222 -0.681497,1.3004 -0.453544,0.307087 -0.975592,0.460631 -1.56851,0.460631 -0.278741,0 -0.571654,-0.0248032 -0.875198,-0.0673229 -0.303544,-0.0472442 -0.603544,-0.100394 -0.903545,-0.157087 -0.3,-0.0614174 -0.596458,-0.11811 -0.885828,-0.175985 -0.289371,-0.0531497 -0.564568,-0.0921261 -0.822048,-0.113386 -0.102756,-0.00708662 -0.23504,-0.0106299 -0.392127,-0.0141732 -0.158268,-0.00354331 -0.340158,-0.00708662 -0.546851,-0.00708662 -0.188977,0 -0.364961,0 -0.518505,0 -0.157087,0 -0.307087,-0.00354331 -0.450001,-0.011811 -0.142914,-0.00708662 -0.285827,-0.0177166 -0.425197,-0.0318898 -0.13937,-0.0106299 -0.285827,-0.0318898 -0.439371,-0.0602363 -0.238583,-0.0425197 -0.442914,-0.135827 -0.617717,-0.282284 -0.174803,-0.146457 -0.261024,-0.379134 -0.261024,-0.693308 0,-0.638977 0.442914,-0.960238 1.32874,-0.960238 0.153544,0 0.322441,0.0141732 0.507875,0.0460631 0.185433,0.0318898 0.37441,0.0673229 0.575198,0.111024 0.199607,0.0425197 0.399213,0.0850395 0.607088,0.12874 0.206693,0.0460631 0.407481,0.0850395 0.600001,0.120473 0.275197,0.0720474 0.546851,0.13937 0.818505,0.211418 0.270473,0.0673229 0.53504,0.132284 0.796064,0.19252 0.257481,0.0614174 0.506694,0.10748 0.746458,0.142914 0.239764,0.0318898 0.460631,0.0496064 0.664962,0.0496064 0.102756,0 0.220866,-0.0141732 0.349607,-0.0425197 0.12874,-0.0248032 0.253937,-0.0673229 0.367323,-0.125197 0.114567,-0.0531497 0.211418,-0.12874 0.285827,-0.22441 0.079134,-0.0933072 0.11811,-0.204331 0.11811,-0.328347 0,-0.368504 -0.102756,-0.744096 -0.31063,-1.11851 -0.20315,-0.379134 -0.460631,-0.739371 -0.764174,-1.08543 -0.303544,-0.343701 -0.624804,-0.668505 -0.972049,-0.972049 -0.346064,-0.303544 -0.660237,-0.571654 -0.946064,-0.800789 -0.285827,-0.22441 -0.624804,-0.446457 -1.01457,-0.663781 -0.393308,-0.222048 -0.800789,-0.428741 -1.22126,-0.628347 -0.421654,-0.200788 -0.843308,-0.389764 -1.26142,-0.571654 -0.418111,-0.18189 -0.792521,-0.343701 -1.12914,-0.490158 -0.767718,-0.328347 -1.15394,-0.621261 -1.15394,-0.882285 0,-0.185433 0.0330709,-0.31063 0.0897639,-0.37441 0.0614174,-0.0649607 0.18189,-0.0933072 0.361418,-0.0933072 0.142914,0 0.328347,0.0141732 0.56693,0.0472442 0.236221,0.0318898 0.483072,0.0673229 0.742915,0.109843 0.257481,0.0401575 0.504331,0.079134 0.744096,0.10748 0.23504,0.0318898 0.420473,0.0496064 0.552757,0.0496064 0.11811,0 0.264567,-0.00354331 0.435827,-0.00708662 0.167717,-0.00354331 0.347245,-0.00708662 0.525591,-0.0141732 0.18189,-0.00708662 0.36378,-0.0212599 0.539765,-0.0389764 0.178347,-0.0141732 0.33189,-0.0389764 0.457087,-0.0673229 0.146457,-0.0259843 0.324804,-0.0755907 0.538583,-0.146457 0.211418,-0.068504 0.418111,-0.158268 0.622442,-0.264567 0.20315,-0.111024 0.37441,-0.239764 0.517324,-0.393308 0.142914,-0.153544 0.214961,-0.33189 0.214961,-0.536221 0,-0.37441 -0.111024,-0.803151 -0.336615,-1.2815 -0.220866,-0.475985 -0.510237,-0.968505 -0.861025,-1.46811 -0.35315,-0.504331 -0.746458,-1.0004 -1.18229,-1.49764 -0.435827,-0.496064 -0.868112,-0.956694 -1.29213,-1.38189 -0.168898,-0.167717 -0.336615,-0.335434 -0.504331,-0.506694 -0.167717,-0.172441 -0.307087,-0.329528 -0.418111,-0.472442 -0.109843,-0.142914 -0.185433,-0.2563 -0.220866,-0.34252 -0.0318898,-0.0897639 -0.00708662,-0.132284 0.0850395,-0.132284zm-6.74056 8.57364c0.079134,0 0.186614,0.056693 0.325985,0.178347 0.056693,0.0460631 0.15,0.17126 0.278741,0.370867 0.127559,0.197244 0.274016,0.425197 0.431103,0.679135 0.161811,0.253937 0.329528,0.520867 0.500788,0.796064 0.167717,0.275197 0.32126,0.511418 0.453544,0.703938 0.22441,0.314174 0.442914,0.624804 0.660237,0.928348 0.214961,0.304725 0.421654,0.611812 0.615355,0.925986 0.00708662,0.00708662 0.0283465,0.0354331 0.0602363,0.0885828 0.0283465,0.0543308 0.0649607,0.111024 0.103937,0.172441 0.0389764,0.0637796 0.0708662,0.120473 0.102756,0.178347 0.0330709,0.056693 0.0472442,0.0885828 0.0472442,0.0921261 0,0.0933072 -0.0212599,0.179528 -0.068504,0.257481 -0.0425197,0.0826773 -0.0992127,0.15 -0.167717,0.211418 -0.0637796,0.056693 -0.13937,0.106299 -0.22441,0.13937 -0.0826773,0.0354331 -0.16063,0.0531497 -0.239764,0.0531497 -0.3,0 -0.764174,-0.442914 -1.39252,-1.32874 -0.618899,-0.878741 -1.12205,-1.66063 -1.50473,-2.34331 -0.135827,-0.239764 -0.242126,-0.421654 -0.33189,-0.557481 -0.0862206,-0.132284 -0.167717,-0.250394 -0.246851,-0.35315 -0.0744096,-0.100394 -0.135827,-0.200788 -0.174803,-0.303544 -0.0425197,-0.103937 -0.0637796,-0.207874 -0.0637796,-0.303544 0,-0.0295276 0.0248032,-0.0755907 0.0744096,-0.142914 0.0472442,-0.0649607 0.111024,-0.132284 0.193701,-0.197244 0.0779529,-0.0673229 0.167717,-0.125197 0.263386,-0.174803 0.100394,-0.0460631 0.200788,-0.0708662 0.303544,-0.0708662z"/>
   <path id="_1431567841234" class="fil0" d="M500.792 31.9548c0.17126,0 0.34252,0.0437009 0.510237,0.125197 0.307087,0.153544 0.779529,0.507875 1.41496,1.05709 0.31063,0.264567 0.621261,0.546851 0.924805,0.846852 0.303544,0.3 0.610631,0.617717 0.925986,0.954332 0.314174,0.335434 0.596458,0.660237 0.845671,0.970868 0.253937,0.314174 0.479528,0.621261 0.682678,0.922442 0.403938,0.592914 0.607088,1.06772 0.607088,1.42441 0,0.13937 -0.0496064,0.317717 -0.146457,0.532678 -0.20315,0.439371 -0.571654,0.788978 -1.11024,1.04646 -0.536221,0.250394 -1.09725,0.428741 -1.68307,0.532678 -0.589371,0.106299 -1.24252,0.19252 -1.96772,0.263386 1.6252,0.871655 3.06851,2.00079 4.33229,3.39095 1.26851,1.39607 1.90394,2.83937 1.90394,4.33229 0,0.411024 -0.220866,0.725198 -0.660237,0.938978 -0.432284,0.218504 -0.882285,0.325985 -1.35118,0.325985 -0.624804,0 -1.09252,-0.0507875 -1.39961,-0.157087 -0.892915,-0.292914 -1.73268,-0.629529 -2.51103,-1.00748 -0.783072,-0.382678 -1.55079,-0.843308 -2.30433,-1.39016 -0.488977,-0.35315 -0.975592,-0.757088 -1.46457,-1.21063 -0.488977,-0.460631 -0.836222,-0.892915 -1.04646,-1.3004 -0.271654,-0.499607 -0.407481,-1.22126 -0.407481,-2.16496 0,-0.328347 0.18189,-0.607088 0.543308,-0.838584 0.36378,-0.229134 0.785434,-0.403938 1.26851,-0.522048 0.506694,-0.11811 0.903545,-0.178347 1.19292,-0.178347 -0.343701,-0.103937 -0.689765,-0.196063 -1.04291,-0.282284 -0.354331,-0.0826773 -0.718111,-0.157087 -1.0937,-0.218504 -0.377953,-0.0637796 -0.771261,-0.120473 -1.18937,-0.174803 -0.414568,-0.0496064 -0.857482,-0.0992127 -1.33229,-0.13937 -0.125197,-0.0141732 -0.285827,-0.0283465 -0.48189,-0.0425197 -0.197244,-0.0141732 -0.425197,-0.0318898 -0.689765,-0.0531497 -0.546851,-0.0401575 -1.00394,-0.0826773 -1.37835,-0.125197 -0.372048,-0.0425197 -0.615355,-0.0968505 -0.725198,-0.167717 -0.285827,-0.167717 -0.428741,-0.460631 -0.428741,-0.878741 0,-0.207874 0.0425197,-0.414568 0.135827,-0.617717 0.0814962,-0.214961 0.199607,-0.322441 0.35315,-0.322441 0.0862206,0 0.222048,0.0141732 0.411024,0.0472442 0.185433,0.0283465 0.432284,0.0744096 0.732285,0.12874 0.3,0.056693 0.670867,0.131103 1.11378,0.22441 0.442914,0.0968505 0.972049,0.196063 1.58622,0.31063 0.068504,0.00708662 0.207874,0.0283465 0.418111,0.0614174 0.207874,0.0354331 0.428741,0.0744096 0.664962,0.116929 0.231496,0.0401575 0.450001,0.079134 0.646064,0.114567 0.199607,0.0354331 0.324804,0.0543308 0.372048,0.0614174 0.56693,0.0921261 1.09606,0.164173 1.59213,0.220866 0.493702,0.0531497 0.996852,0.0826773 1.50827,0.0826773 0.402757,0 0.882285,-0.0106299 1.4315,-0.0295276 0.557481,-0.0212599 1.10079,-0.0744096 1.62166,-0.157087 0.525591,-0.0850395 0.786615,-0.206693 0.786615,-0.367323 0,-0.571654 -0.261024,-1.26142 -0.786615,-2.07166 -0.527954,-0.804332 -1.13504,-1.57559 -1.82126,-2.32205 -0.682678,-0.746458 -1.33583,-1.41142 -1.95355,-1.99016 -0.0437009,-0.0425197 -0.0649607,-0.0814962 -0.0649607,-0.113386 0,-0.079134 0.0578741,-0.12874 0.17126,-0.153544 0.11811,-0.0259843 0.229134,-0.0366142 0.343701,-0.0366142zm0.656694 9.75238c-0.0425197,0.18189 -0.132284,0.32126 -0.271654,0.414568 -0.138189,0.0956694 -0.296457,0.142914 -0.471261,0.142914 -0.13937,0 -0.346064,-0.022441 -0.617717,-0.0649607 -0.271654,-0.0425197 -0.48189,-0.0602363 -0.628347,-0.0602363 -0.125197,0 -0.264567,0.0318898 -0.421654,0.0956694 -0.157087,0.068504 -0.303544,0.153544 -0.439371,0.257481 -0.135827,0.103937 -0.253937,0.222048 -0.346064,0.349607 -0.0933072,0.12874 -0.13937,0.257481 -0.13937,0.382678 0,0.372048 0.38504,0.871655 1.15984,1.50709 0.396851,0.322441 0.775985,0.615355 1.13977,0.885828 0.364961,0.268111 0.721655,0.514961 1.07953,0.735828 0.381497,0.246851 0.735828,0.453544 1.05709,0.625985 0.32126,0.167717 0.607088,0.314174 0.857482,0.432284 0.885828,0.409843 1.5815,0.617717 2.09292,0.617717 0.649607,0 0.972049,-0.222048 0.972049,-0.661418 0,-0.388583 -0.225591,-0.924805 -0.679135,-1.61103 -0.48189,-0.702757 -0.914175,-1.24606 -1.29685,-1.63229 -0.421654,-0.39567 -0.771261,-0.728741 -1.05709,-0.993309 -0.285827,-0.263386 -0.518505,-0.474804 -0.693308,-0.628347 -0.17126,-0.153544 -0.367323,-0.292914 -0.585828,-0.425197 -0.21378,-0.12874 -0.453544,-0.249213 -0.711025,-0.370867z"/>
   <path id="_14315678412345" class="fil0" d="M492.691 28.826c0.453544,0 0.838584,0.11811 1.16103,0.357875 0.32126,0.227953 0.48189,0.568111 0.48189,1.01457 0,0.277559 -0.0425197,0.589371 -0.125197,0.931891 -0.0862206,0.33189 -0.222048,0.499607 -0.411024,0.499607 -0.338977,0 -0.667324,-0.102756 -0.974411,-0.317717 -0.311811,-0.21378 -0.564568,-0.467717 -0.761812,-0.767718 -0.13937,-0.239764 -0.206693,-0.396851 -0.206693,-0.471261 0,-0.400394 0.0531497,-0.703938 0.16063,-0.922442 0.10748,-0.217323 0.33189,-0.324804 0.675592,-0.324804zm8.50867 -6.85395c0.146457,-0.00826773 0.34252,0.056693 0.596458,0.19252 0.249213,0.13937 0.53504,0.32126 0.852757,0.557481 0.315355,0.231496 0.657875,0.50315 1.01811,0.813781 0.364961,0.31063 0.725198,0.636615 1.09016,0.979135 0.418111,0.393308 0.820867,0.803151 1.20709,1.23898 0.389764,0.435827 0.764174,0.903545 1.12559,1.39725 0.725198,0.977954 1.08898,1.84961 1.08898,2.61851 0,0.842127 -0.282284,1.5 -0.846852,1.96772 -0.575198,0.464174 -1.26378,0.781891 -2.0752,0.950789 -0.799608,0.167717 -1.62874,0.252756 -2.47914,0.252756 -0.35315,0 -0.910631,-0.0425197 -1.66418,-0.12874 -0.375591,-0.0389764 -0.700395,-0.0814962 -0.972049,-0.124016 -0.270473,-0.0401575 -0.49252,-0.0862206 -0.660237,-0.135827 -0.324804,-0.0968505 -0.614174,-0.303544 -0.857482,-0.618899 -0.257481,-0.32126 -0.386221,-0.653151 -0.386221,-1.00276 0,-0.190158 0.175985,-0.282284 0.532678,-0.282284 0.236221,0 0.507875,0.0212599 0.807875,0.0673229 0.3,0.0460631 0.596458,0.0933072 0.889371,0.142914 0.549213,0.0897639 1.04291,0.153544 1.47874,0.196063 0.435827,0.0437009 0.813781,0.0649607 1.13504,0.0649607 0.703938,0 1.41851,-0.100394 2.13662,-0.292914 0.732285,-0.196063 1.09606,-0.550395 1.09606,-1.05709 0,-0.518505 -0.185433,-1.11851 -0.563387,-1.80118 -0.197244,-0.34252 -0.411024,-0.681497 -0.647245,-1.0252 -0.238583,-0.34252 -0.50315,-0.68504 -0.796064,-1.0252 -0.292914,-0.349607 -0.589371,-0.68504 -0.885828,-1.0063 -0.296457,-0.318898 -0.600001,-0.633072 -0.914175,-0.940159 -0.315355,-0.307087 -0.608269,-0.582284 -0.878741,-0.827954 -0.271654,-0.243307 -0.525591,-0.458268 -0.754726,-0.636615 -0.0141732,-0.00708662 -0.0354331,-0.0212599 -0.0673229,-0.0389764 -0.0318898,-0.0141732 -0.0649607,-0.0354331 -0.0933072,-0.056693 -0.0318898,-0.022441 -0.0602363,-0.0401575 -0.0779529,-0.0614174 -0.0212599,-0.0212599 -0.0283465,-0.0425197 -0.0212599,-0.0637796 0,-0.0968505 0.0744096,-0.172441 0.227953,-0.218504 0.146457,-0.0637796 0.264567,-0.0956694 0.357875,-0.0956694z"/>
   <path id="_143156784123456" class="fil0" d="M499.241 8.74371c0.11811,0 0.239764,0.0259843 0.361418,0.079134 0.121654,0.0531497 0.238583,0.121654 0.356693,0.20315 0.114567,0.0862206 0.222048,0.175985 0.32126,0.278741 0.103937,0.100394 0.186614,0.204331 0.246851,0.307087 0.16063,0.246851 0.303544,0.592914 0.425197,1.04291 0.121654,0.451182 0.18189,1.00394 0.18189,1.6689 0,0.527954 -0.0673229,1.06417 -0.20315,1.6004 -0.135827,0.538583 -0.361418,1.05354 -0.675592,1.54961 0.243307,-0.16063 0.478347,-0.264567 0.700395,-0.31063 0.22441,-0.0425197 0.488977,-0.0673229 0.796064,-0.0673229 0.550395,0 1.13622,0.13937 1.75748,0.421654 0.629529,0.270473 1.21181,0.621261 1.74685,1.05354 0.539765,0.435827 0.986222,0.889371 1.33937,1.37126 0.204331,0.271654 0.379134,0.571654 0.529135,0.896458 0.15,0.324804 0.275197,0.664962 0.367323,1.01811 0.0933072,0.357875 0.165355,0.725198 0.211418,1.11142 0.0425197,0.381497 0.0673229,0.771261 0.0673229,1.16103 0,0.270473 -0.0885828,0.53504 -0.263386,0.796064 -0.172441,0.257481 -0.386221,0.485434 -0.636615,0.689765 -0.252756,0.20315 -0.520867,0.36378 -0.806694,0.485434 -0.285827,0.125197 -0.543308,0.185433 -0.775985,0.185433 -0.563387,0 -1.10669,-0.0744096 -1.6252,-0.22441 -0.520867,-0.15 -1.02166,-0.354331 -1.50709,-0.607088 -0.485434,-0.257481 -0.960238,-0.550395 -1.42559,-0.885828 -0.460631,-0.336615 -0.924805,-0.689765 -1.38544,-1.0689 -0.257481,-0.206693 -0.511418,-0.446457 -0.757088,-0.714568 -0.250394,-0.270473 -0.471261,-0.549213 -0.664962,-0.842127 -0.196063,-0.292914 -0.35315,-0.589371 -0.478347,-0.889371 -0.121654,-0.3 -0.18189,-0.585828 -0.18189,-0.857482 0,-0.225591 0.0318898,-0.418111 0.0956694,-0.578741 0.0614174,-0.16063 0.15,-0.31063 0.264567,-0.453544 0.11811,-0.142914 0.261024,-0.289371 0.435827,-0.439371 0.174803,-0.15 0.368504,-0.32126 0.585828,-0.518505 0.0649607,-0.0637796 0.153544,-0.23504 0.278741,-0.517324 0.121654,-0.282284 0.239764,-0.617717 0.354331,-1.00394 0.113386,-0.389764 0.217323,-0.797245 0.303544,-1.22126 0.0885828,-0.425197 0.131103,-0.811419 0.131103,-1.16103 0,-0.350788 -0.0141732,-0.668505 -0.0389764,-0.961419 -0.0212599,-0.292914 -0.0637796,-0.578741 -0.11811,-0.853938 -0.056693,-0.275197 -0.131103,-0.549213 -0.231496,-0.820867 -0.0968505,-0.271654 -0.214961,-0.564568 -0.354331,-0.878741 0.103937,-0.0283465 0.193701,-0.0437009 0.271654,-0.0437009zm2.51103 7.82009c-0.196063,-0.00708662 -0.41693,0.00354331 -0.663781,0.0389764 -0.246851,0.0354331 -0.48189,0.0968505 -0.700395,0.18189 -0.220866,0.0897639 -0.400394,0.204331 -0.539765,0.347245 -0.13937,0.142914 -0.196063,0.32126 -0.167717,0.527954 -0.125197,0.32126 -0.2563,0.585828 -0.39567,0.797245 -0.13937,0.206693 -0.211418,0.367323 -0.211418,0.48189 0,0.0814962 0.0248032,0.17126 0.079134,0.271654 0.0531497,0.0956694 0.125197,0.196063 0.21378,0.303544 0.0897639,0.103937 0.196063,0.210237 0.317717,0.317717 0.125197,0.10748 0.250394,0.21378 0.382678,0.317717 0.275197,0.211418 0.520867,0.403938 0.742915,0.582284 0.22441,0.178347 0.446457,0.346064 0.663781,0.504331 0.222048,0.157087 0.451182,0.307087 0.693308,0.453544 0.239764,0.146457 0.511418,0.292914 0.811419,0.439371 0.125197,0.0637796 0.275197,0.116929 0.450001,0.167717 0.174803,0.0496064 0.35315,0.0885828 0.538583,0.125197 0.183071,0.0354331 0.368504,0.0602363 0.553938,0.0779529 0.185433,0.0177166 0.350788,0.0248032 0.497245,0.0248032 0.0885828,0 0.199607,-0.0283465 0.328347,-0.0921261 0.132284,-0.0649607 0.257481,-0.142914 0.377953,-0.246851 0.121654,-0.100394 0.225591,-0.21378 0.308268,-0.34252 0.0850395,-0.132284 0.124016,-0.257481 0.124016,-0.382678 0,-0.356693 -0.0141732,-0.660237 -0.0460631,-0.910631 -0.0318898,-0.253937 -0.0862206,-0.485434 -0.167717,-0.696851 -0.079134,-0.21378 -0.188977,-0.428741 -0.328347,-0.642521 -0.13937,-0.218504 -0.322441,-0.467717 -0.543308,-0.753544 -0.10748,-0.13937 -0.229134,-0.278741 -0.368504,-0.414568 -0.138189,-0.135827 -0.284646,-0.271654 -0.442914,-0.403938 -0.157087,-0.132284 -0.317717,-0.257481 -0.48189,-0.375591 -0.164173,-0.116929 -0.324804,-0.231496 -0.485434,-0.335434 -0.10748,-0.0673229 -0.236221,-0.12874 -0.389764,-0.178347 -0.153544,-0.0460631 -0.307087,-0.0862206 -0.460631,-0.114567 -0.153544,-0.0283465 -0.292914,-0.0460631 -0.418111,-0.056693 -0.125197,-0.0106299 -0.21378,-0.0141732 -0.271654,-0.0141732z"/>
   <path id="_143162928" class="fil0" d="M74.8501 14.3658c7.37127,0 13.2673,1.86851 17.6906,5.62206 4.81654,4.07953 7.21655,9.03427 7.21655,14.8618 0,5.62206 -1.86851,10.3536 -5.62324,14.1591 -3.94253,3.95906 -10.3701,5.93032 -19.2839,5.93032l-7.62757 0 0 29.0209c0,2.07402 0.805513,3.1193 2.41654,3.1193l3.61772 0 0 3.20552 -20.0906 0 0 -3.20552 2.81103 0c2.1437,0 3.20552,-1.04528 3.20552,-3.1193l0 -63.1666c0,-2.14252 -1.2,-3.22205 -3.61654,-3.22205l-2.4 0 0 -3.20552 21.6839 0zm-7.62757 37.3512l4.21654 0c13.5248,0 20.2961,-5.62206 20.2961,-16.8673 0,-4.95355 -1.64646,-9.17009 -4.92048,-12.6508 -3.42756,-3.08504 -7.67836,-4.62757 -12.7701,-4.62757 -4.54253,0 -6.82206,1.07953 -6.82206,3.22205l0 30.9237z"/>
   <path id="_1431629281" class="fil0" d="M122.263 38.4662l0 12.7536c1.86851,-3.54804 4.01103,-6.32481 6.42875,-8.33033 3.47953,-2.94922 7.49056,-4.42324 12.0496,-4.42324 6.70277,0 10.0453,1.61103 10.0453,4.81654 0,1.4752 -0.394489,2.52048 -1.2,3.12048 -1.07953,0.600001 -2.27953,0.908269 -3.61654,0.908269 -0.737009,0 -2.10827,-0.445276 -4.1315,-1.32047 -2.19449,-0.993309 -4.18229,-1.50827 -5.91379,-1.50827 -3.15355,0 -6.23977,1.92048 -9.2386,5.72599 -1.88622,2.27953 -3.36024,5.19331 -4.42324,8.74135l0 24.6154c0,2.34804 1.33701,3.51378 4.01103,3.51378l5.22875 0 0 3.20552 -25.3181 0 0 -3.20552 4.02875 0c3.20552,0 4.81654,-1.16575 4.81654,-3.51378l0 -33.0485c0,-3.20552 -1.61103,-4.81654 -4.81654,-4.81654l-4.02875 0 0 -3.22323c5.89725,0 11.2618,-1.33701 16.0784,-4.01103z"/>
   <path id="_14316292812" class="fil0" d="M179.309 38.4662c7.09725,0 12.8563,2.67402 17.2796,8.03978 4.01103,5.09056 6.01654,11.2441 6.01654,18.4784 0,8.6386 -2.4,15.3236 -7.21655,20.0894 -4.23426,4.01103 -9.5823,6.01654 -16.0796,6.01654 -6.89056,0 -12.3921,-2.00551 -16.4717,-6.01654 -4.56024,-4.62757 -6.82324,-11.3126 -6.82324,-20.0894 0,-8.17678 2.17677,-14.6386 6.51379,-19.3866 4.35473,-4.74804 9.95907,-7.13151 16.7811,-7.13151zm0 49.1103c4.56024,0 8.29726,-1.57677 11.2453,-4.71379 3.22205,-3.36024 4.83426,-9.30828 4.83426,-17.8784 0,-7.50828 -1.25197,-13.1303 -3.72048,-16.8839 -3.42756,-4.01103 -7.54135,-6.01773 -12.3591,-6.01773 -5.75906,0 -10.0099,2.50276 -12.7524,7.526 -2.21103,4.02757 -3.30827,9.15356 -3.30827,15.3756 0,6.22206 1.09725,11.3126 3.30827,15.2551 2.74252,4.90276 6.99332,7.33702 12.7524,7.33702z"/>
   <path id="_143162928123" class="fil0" d="M242.39 38.4662l0 47.002c0,9.03308 -2.24528,15.0673 -6.73584,18.0839 -2.34922,1.61103 -4.92048,2.4 -7.73151,2.4 -2.34804,0 -4.42205,-0.668505 -6.22206,-2.00551 -1.47402,-1.26851 -2.21103,-2.60552 -2.21103,-4.01103 0,-1.2 0.462993,-2.24528 1.40551,-3.12048 0.805513,-0.874017 1.8,-1.30158 3.01654,-1.30158 1.1315,0 2.10827,0.496064 2.89725,1.50827 0.737009,0.874017 1.11378,1.83425 1.11378,2.91378l0 0.908269c0,1.52599 0.668505,2.29725 2.00551,2.29725 1.88622,0 3.30827,-1.47402 4.32048,-4.40552 0.600001,-2.09174 0.908269,-4.3193 0.908269,-6.73702l0 -41.0871c0,-3.47953 -1.30276,-5.21103 -3.92599,-5.21103l-3.70158 0 0 -3.22323c5.87954,0 10.8331,-1.33701 14.8607,-4.01103zm-3.22205 -24.9059c1.47402,0 2.74252,0.531497 3.82205,1.61103 0.943702,0.925986 1.40551,2.14252 1.40551,3.60001 0,1.47402 -0.497245,2.72481 -1.50827,3.7193 -1.07953,1.07953 -2.31378,1.61103 -3.7193,1.61103 -1.54252,0 -2.81103,-0.531497 -3.80552,-1.61103 -0.942521,-0.925986 -1.40551,-2.17677 -1.40551,-3.7193 0,-1.45748 0.497245,-2.70827 1.49173,-3.70276 0.942521,-1.01103 2.17677,-1.50827 3.7193,-1.50827z"/>
   <path id="_1431629281234" class="fil0" d="M283.358 38.4662c11.7933,0 18.7536,7.80001 20.8961,23.3977l-36.254 0c-0.205512,1.26851 -0.308268,2.58898 -0.308268,3.92599 0,8.50159 3.08504,14.6906 9.2386,18.5811 2.21103,0.99449 4.76576,1.50827 7.64529,1.50827 3.34252,0 6.54804,-1.01103 9.63309,-3.01654 3.08504,-1.88622 5.5193,-4.3193 7.33702,-7.33702l1.90276 1.50827c-2.28071,4.21772 -5.4508,7.80001 -9.53151,10.748 -3.15355,2.21103 -6.80434,3.30827 -10.9524,3.30827 -4.49174,0 -8.40001,-1.06299 -11.7591,-3.20552 -3.20552,-2.14252 -5.72599,-4.9193 -7.526,-8.34804 -2.14252,-3.94253 -3.22205,-8.53584 -3.22205,-13.7469 0,-4.49056 0.839765,-8.60552 2.5193,-12.3591 2.1437,-4.95355 4.52599,-8.46734 7.13151,-10.5414 3.87402,-2.94922 8.29608,-4.42324 13.2496,-4.42324zm-14.9634 20.0894l28.2308 0c-0.874017,-10.9866 -5.29607,-16.4729 -13.2673,-16.4729 -3.06733,0 -5.94804,1.26851 -8.6386,3.82323 -2.60552,2.46851 -4.40552,5.48505 -5.41654,9.03308 -0.205512,0.805513 -0.497245,2.00551 -0.908269,3.61654z"/>
   <path id="_14316292812345" class="fil0" d="M331.165 21.5989l3.61654 0 0 19.3701 17.6906 0 0 3.12048 -17.6906 0 0 35.4473c0,4.76576 1.78347,7.13151 5.3315,7.13151 4.01103,0 8.00552,-2.14252 11.948,-6.42875l2.00551 1.21772c-2.4,3.73701 -5.09174,6.29056 -8.02324,7.62757 -2.14252,1.33701 -4.83308,2.00551 -8.03859,2.00551 -3.15473,0 -5.69056,-0.891734 -7.62757,-2.70827 -1.88622,-1.86851 -2.82874,-4.81654 -2.82874,-8.84529l0 -35.4473 -13.1481 0 0 -3.12048c6.75473,0 11.2795,-1.47402 13.5591,-4.40552 2.14252,-2.87953 3.20552,-7.86733 3.20552,-14.9646z"/>
   <path id="_143162928123456" class="fil0" d="M385.006 38.4662c7.09725,0 12.8563,2.67402 17.2796,8.03978 4.01103,5.09056 6.01654,11.2441 6.01654,18.4784 0,8.6386 -2.4,15.3236 -7.21655,20.0894 -4.23426,4.01103 -9.5823,6.01654 -16.0796,6.01654 -6.89056,0 -12.3921,-2.00551 -16.4717,-6.01654 -4.56024,-4.62757 -6.82324,-11.3126 -6.82324,-20.0894 0,-8.17678 2.17677,-14.6386 6.51379,-19.3866 4.35473,-4.74804 9.95907,-7.13151 16.7811,-7.13151zm0 49.1103c4.56024,0 8.29726,-1.57677 11.2453,-4.71379 3.22205,-3.36024 4.83426,-9.30828 4.83426,-17.8784 0,-7.50828 -1.25197,-13.1303 -3.72048,-16.8839 -3.42756,-4.01103 -7.54135,-6.01773 -12.3591,-6.01773 -5.75906,0 -10.0099,2.50276 -12.7524,7.526 -2.21103,4.02757 -3.30827,9.15356 -3.30827,15.3756 0,6.22206 1.09725,11.3126 3.30827,15.2551 2.74252,4.90276 6.99332,7.33702 12.7524,7.33702z"/>
   <path id="_1431629281234567" class="fil0" d="M430.807 38.4662l0 12.7536c1.86851,-3.54804 4.01103,-6.32481 6.42875,-8.33033 3.47953,-2.94922 7.49056,-4.42324 12.0496,-4.42324 6.70277,0 10.0453,1.61103 10.0453,4.81654 0,1.4752 -0.394489,2.52048 -1.2,3.12048 -1.07953,0.600001 -2.27953,0.908269 -3.61654,0.908269 -0.737009,0 -2.10827,-0.445276 -4.1315,-1.32047 -2.19449,-0.993309 -4.18229,-1.50827 -5.91379,-1.50827 -3.15355,0 -6.23977,1.92048 -9.2386,5.72599 -1.88622,2.27953 -3.36024,5.19331 -4.42324,8.74135l0 24.6154c0,2.34804 1.33701,3.51378 4.01103,3.51378l5.22875 0 0 3.20552 -25.3181 0 0 -3.20552 4.02875 0c3.20552,0 4.81654,-1.16575 4.81654,-3.51378l0 -33.0485c0,-3.20552 -1.61103,-4.81654 -4.81654,-4.81654l-4.02875 0 0 -3.22323c5.89725,0 11.2618,-1.33701 16.0784,-4.01103z"/>
   <path id="_143163960" class="fil0" d="M14.3729 108.921c1.33701,0 2.40709,0.338977 3.21024,1.02047 0.874017,0.739371 1.30984,1.63937 1.30984,2.69646 0,1.02047 -0.338977,1.87914 -1.02047,2.5689 -0.715749,0.719292 -1.88268,1.07717 -3.49961,1.07717l-1.38425 0 0 5.26536c0,0.376772 0.146457,0.56693 0.43819,0.56693l0.656694 0 0 0.581103 -3.64607 0 0 -0.581103 0.510237 0c0.388583,0 0.582284,-0.190158 0.582284,-0.56693l0 -11.4626c0,-0.388583 -0.218504,-0.584647 -0.656694,-0.584647l-0.435827 0 0 -0.581103 3.93544 0zm-1.38425 6.77836l0.765355 0c2.45433,0 3.68268,-1.02047 3.68268,-3.06142 0,-0.89882 -0.298819,-1.66418 -0.892915,-2.29607 -0.621261,-0.559843 -1.3937,-0.839765 -2.31733,-0.839765 -0.824411,0 -1.2378,0.196063 -1.2378,0.584647l0 5.61261z"/>
   <path id="_1431639601" class="fil0" d="M22.9772 113.295l0 2.31378c0.338977,-0.643702 0.72756,-1.14803 1.16575,-1.51181 0.631891,-0.53504 1.35945,-0.80197 2.1874,-0.80197 1.21654,0 1.82244,0.291733 1.82244,0.874017 0,0.26693 -0.0708662,0.457087 -0.217323,0.565749 -0.196063,0.108662 -0.414568,0.165355 -0.656694,0.165355 -0.133465,0 -0.382678,-0.0814962 -0.750001,-0.239764 -0.398032,-0.180709 -0.758269,-0.274016 -1.07244,-0.274016 -0.572836,0 -1.13268,0.348426 -1.67717,1.03937 -0.34252,0.413386 -0.60945,0.942521 -0.80197,1.58622l0 4.46694c0,0.426379 0.242126,0.637796 0.72756,0.637796l0.948427 0 0 0.581103 -4.5945 0 0 -0.581103 0.731103 0c0.582284,0 0.874017,-0.211418 0.874017,-0.637796l0 -5.99765c0,-0.581103 -0.291733,-0.874017 -0.874017,-0.874017l-0.731103 0 0 -0.584647c1.07008,0 2.04449,-0.242126 2.91851,-0.72756z"/>
   <path id="_14316396012" class="fil0" d="M33.3284 113.295c1.28858,0 2.33386,0.485434 3.13583,1.45866 0.728741,0.923623 1.09252,2.04095 1.09252,3.35315 0,1.56733 -0.435827,2.78032 -1.30984,3.64607 -0.768899,0.72756 -1.73859,1.09134 -2.91851,1.09134 -1.24961,0 -2.24882,-0.36378 -2.98819,-1.09134 -0.827954,-0.839765 -1.23898,-2.05394 -1.23898,-3.64607 0,-1.48347 0.39567,-2.6563 1.18229,-3.51851 0.790159,-0.861025 1.80709,-1.29331 3.04489,-1.29331zm0 8.91143c0.827954,0 1.50591,-0.285827 2.04095,-0.855119 0.584647,-0.60945 0.87756,-1.68898 0.87756,-3.24449 0,-1.36299 -0.226772,-2.38229 -0.675592,-3.06378 -0.621261,-0.72756 -1.36772,-1.09252 -2.24292,-1.09252 -1.0441,0 -1.81654,0.454725 -2.31378,1.36654 -0.401575,0.729922 -0.600001,1.66063 -0.600001,2.78977 0,1.12914 0.198425,2.05276 0.600001,2.76851 0.497245,0.889371 1.26969,1.3311 2.31378,1.3311z"/>
   <path id="_143163960123" class="fil0" d="M44.7757 113.295l0 8.52875c0,1.63937 -0.407481,2.73426 -1.22244,3.28229 -0.425197,0.291733 -0.892915,0.434646 -1.40197,0.434646 -0.426379,0 -0.803151,-0.120473 -1.12914,-0.36378 -0.268111,-0.230315 -0.401575,-0.472442 -0.401575,-0.72756 0,-0.217323 0.0838584,-0.407481 0.255118,-0.565749 0.146457,-0.159449 0.325985,-0.236221 0.546851,-0.236221 0.205512,0 0.382678,0.0897639 0.525591,0.272835 0.134646,0.159449 0.20315,0.333071 0.20315,0.529135l0 0.165355c0,0.276378 0.120473,0.41693 0.36378,0.41693 0.341339,0 0.600001,-0.268111 0.783072,-0.799608 0.109843,-0.380316 0.165355,-0.784253 0.165355,-1.22244l0 -7.45631c0,-0.631891 -0.236221,-0.946064 -0.712206,-0.946064l-0.672048 0 0 -0.584647c1.06654,0 1.96536,-0.242126 2.69646,-0.72756zm-0.584647 -4.52009c0.268111,0 0.498426,0.0968505 0.694489,0.292914 0.170079,0.167717 0.255118,0.388583 0.255118,0.653151 0,0.26693 -0.090945,0.493702 -0.274016,0.67441 -0.196063,0.196063 -0.420473,0.292914 -0.675592,0.292914 -0.279922,0 -0.510237,-0.0968505 -0.689765,-0.292914 -0.17126,-0.167717 -0.255118,-0.394489 -0.255118,-0.67441 0,-0.264567 0.0897639,-0.491339 0.270473,-0.672048 0.17126,-0.184252 0.394489,-0.274016 0.67441,-0.274016z"/>
   <path id="_1431639601234" class="fil0" d="M52.2107 113.295c2.14016,0 3.40276,1.41496 3.79134,4.24607l-6.57875 0c-0.0377953,0.230315 -0.0555119,0.468898 -0.0555119,0.712206 0,1.54252 0.559843,2.66575 1.67599,3.37205 0.401575,0.179528 0.864568,0.272835 1.3878,0.272835 0.605906,0 1.18819,-0.183071 1.74803,-0.546851 0.559843,-0.34252 1.00158,-0.784253 1.3311,-1.3311l0.346064 0.272835c-0.414568,0.765355 -0.989765,1.41614 -1.73032,1.95118 -0.571654,0.401575 -1.23425,0.600001 -1.9878,0.600001 -0.814962,0 -1.52362,-0.19252 -2.13307,-0.581103 -0.582284,-0.389764 -1.03937,-0.892915 -1.36654,-1.51536 -0.388583,-0.715749 -0.584647,-1.54961 -0.584647,-2.49449 0,-0.814962 0.152362,-1.56142 0.457087,-2.24292 0.389764,-0.89882 0.822048,-1.53662 1.29449,-1.91339 0.702757,-0.53504 1.50591,-0.80197 2.40473,-0.80197zm-2.71536 3.64489l5.12245 0c-0.158268,-1.9937 -0.960238,-2.98937 -2.40709,-2.98937 -0.557481,0 -1.07953,0.230315 -1.56851,0.694489 -0.472442,0.447638 -0.798426,0.99449 -0.982679,1.63937 -0.0366142,0.145276 -0.0897639,0.36378 -0.164173,0.655513z"/>
   <path id="_14316396012345" class="fil0" d="M60.8859 110.234l0.656694 0 0 3.51497 3.21024 0 0 0.56693 -3.21024 0 0 6.43229c0,0.864568 0.323623,1.29449 0.967324,1.29449 0.72756,0 1.45276,-0.389764 2.16851,-1.16693l0.36378 0.220866c-0.435827,0.677954 -0.923623,1.14095 -1.4563,1.38425 -0.388583,0.242126 -0.87756,0.36378 -1.45866,0.36378 -0.572836,0 -1.03229,-0.161811 -1.38425,-0.491339 -0.34252,-0.338977 -0.51378,-0.874017 -0.51378,-1.60512l0 -6.43229 -2.38583 0 0 -0.56693c1.22599,0 2.04685,-0.26693 2.46142,-0.799608 0.388583,-0.522048 0.581103,-1.42677 0.581103,-2.71536z"/>
   <path id="_143163960123456" class="fil0" d="M70.5107 113.295c1.07008,0 1.84725,0.242126 2.33268,0.72756 0.485434,0.388583 0.731103,1.02047 0.731103,1.89803l0 5.24765c0,0.43819 0.0968505,0.655513 0.289371,0.655513 0.242126,0 0.487796,-0.314174 0.731103,-0.948427l0.434646 0.146457c-0.388583,1.16575 -0.969687,1.7504 -1.74803,1.7504 -0.643702,0 -0.986222,-0.444095 -1.02047,-1.3311 -1.19055,0.98386 -2.35748,1.47756 -3.49843,1.47756 -0.669686,-0.108662 -1.21063,-0.348426 -1.62402,-0.712206 -0.426379,-0.426379 -0.637796,-0.963781 -0.637796,-1.62047 0,-1.60512 0.89882,-2.61969 2.69646,-3.04489 0.814962,-0.292914 1.83544,-0.479528 3.06378,-0.563387l0 -1.35c0,-1.20355 -0.63071,-1.80473 -1.89685,-1.80473 -0.510237,0 -0.938978,0.127559 -1.29449,0.382678 -0.350788,0.268111 -0.527954,0.498426 -0.527954,0.694489 0,0.0590552 0.068504,0.127559 0.201969,0.198425 0.108662,0.121654 0.164173,0.274016 0.164173,0.454725 0,0.257481 -0.105118,0.468898 -0.31063,0.640158 -0.196063,0.155906 -0.432284,0.236221 -0.712206,0.236221 -0.268111,0 -0.516143,-0.0992127 -0.746458,-0.291733 -0.133465,-0.17126 -0.199607,-0.388583 -0.199607,-0.656694 0,-0.497245 0.289371,-0.961419 0.874017,-1.38425 0.753544,-0.53504 1.65236,-0.80197 2.69764,-0.80197zm-0.949608 8.82167c0.401575,0 0.865749,-0.133465 1.3878,-0.401575 0.413386,-0.217323 0.849214,-0.540946 1.31221,-0.967324l0 -3.13229c-1.9689,0.242126 -3.22205,0.637796 -3.75355,1.18229 -0.464174,0.475985 -0.694489,0.998033 -0.694489,1.56733 0,0.53504 0.159449,0.967324 0.473623,1.29449 0.316536,0.304725 0.742915,0.457087 1.27441,0.457087z"/>
   <path id="_1431639601234567" class="fil0" d="M78.019 113.295l0 1.22244c0.681497,-0.814962 1.58032,-1.22244 2.69764,-1.22244 0.790159,0 1.40551,0.230315 1.84134,0.693308 0.426379,0.447638 0.637796,1.06654 0.637796,1.8567l0 5.54056c0,0.487796 0.34252,0.731103 1.02047,0.731103l0 0.581103 -3.27875 0 0 -0.581103c0.63071,0 0.944883,-0.243307 0.944883,-0.731103l0 -5.54056c0,-0.53504 -0.133465,-0.969687 -0.400394,-1.31221 -0.277559,-0.338977 -0.677954,-0.510237 -1.20118,-0.510237 -0.887009,0 -1.64292,0.516143 -2.26181,1.54961l0 5.81339c0,0.487796 0.34252,0.731103 1.02047,0.731103l0 0.581103 -3.27875 0 0 -0.581103c0.631891,0 0.946064,-0.243307 0.946064,-0.731103l0 -6.17836c0,-0.434646 -0.217323,-0.655513 -0.656694,-0.655513l-0.289371 0 0 -0.601182c0.8126,0 1.56851,-0.217323 2.25827,-0.655513z"/>
   <path id="_14316396012345678" class="fil0" d="M88.5923 113.295c0.995671,0 1.77284,0.344882 2.33268,1.03819l0 -3.64489c0,-0.498426 -0.220866,-0.746458 -0.655513,-0.746458l-0.731103 0 0 -0.585828c0.851576,0 1.75158,-0.19252 2.7,-0.581103l0 12.1748c0,0.778348 0.217323,1.16693 0.653151,1.16693l0.731103 0 0 0.581103 -2.69764 0 0 -0.783072c-0.0992127,0.120473 -0.21378,0.238583 -0.347245,0.348426 -0.53504,0.388583 -1.19528,0.581103 -1.98544,0.581103 -0.97323,0 -1.75158,-0.36378 -2.33268,-1.09134 -0.777167,-0.827954 -1.16693,-2.04449 -1.16693,-3.64607 0,-1.51772 0.357875,-2.69646 1.07362,-3.53623 0.718111,-0.849214 1.52717,-1.27559 2.42599,-1.27559zm2.33268 7.58033l0 -5.52166c-0.500788,-0.885828 -1.20355,-1.3311 -2.11418,-1.3311 -1.60512,0 -2.40473,1.36299 -2.40473,4.08426 0,1.03229 0.154725,1.9004 0.472442,2.6067 0.435827,0.933072 1.10433,1.40315 2.00315,1.40315 0.584647,0 1.10079,-0.196063 1.54961,-0.584647 0.17126,-0.146457 0.335434,-0.36378 0.493702,-0.656694z"/>
   <path id="_143163960123456789" class="fil0" d="M98.6517 113.295c1.28858,0 2.33386,0.485434 3.13583,1.45866 0.728741,0.923623 1.09252,2.04095 1.09252,3.35315 0,1.56733 -0.435827,2.78032 -1.30984,3.64607 -0.768899,0.72756 -1.73859,1.09134 -2.91851,1.09134 -1.24961,0 -2.24882,-0.36378 -2.98819,-1.09134 -0.827954,-0.839765 -1.23898,-2.05394 -1.23898,-3.64607 0,-1.48347 0.39567,-2.6563 1.18229,-3.51851 0.790159,-0.861025 1.80709,-1.29331 3.04489,-1.29331zm0 8.91143c0.827954,0 1.50591,-0.285827 2.04095,-0.855119 0.584647,-0.60945 0.87756,-1.68898 0.87756,-3.24449 0,-1.36299 -0.226772,-2.38229 -0.675592,-3.06378 -0.621261,-0.72756 -1.36772,-1.09252 -2.24292,-1.09252 -1.0441,0 -1.81654,0.454725 -2.31378,1.36654 -0.401575,0.729922 -0.600001,1.66063 -0.600001,2.78977 0,1.12914 0.198425,2.05276 0.600001,2.76851 0.497245,0.889371 1.26969,1.3311 2.31378,1.3311z"/>
   <path id="_14316396012345678910" class="fil0" d="M115.347 113.295l0 1.22244c0.681497,-0.814962 1.58032,-1.22244 2.69764,-1.22244 0.790159,0 1.40551,0.230315 1.84134,0.693308 0.426379,0.447638 0.637796,1.06654 0.637796,1.8567l0 5.54056c0,0.487796 0.34252,0.731103 1.02047,0.731103l0 0.581103 -3.27875 0 0 -0.581103c0.63071,0 0.944883,-0.243307 0.944883,-0.731103l0 -5.54056c0,-0.53504 -0.133465,-0.969687 -0.400394,-1.31221 -0.277559,-0.338977 -0.677954,-0.510237 -1.20118,-0.510237 -0.887009,0 -1.64292,0.516143 -2.26181,1.54961l0 5.81339c0,0.487796 0.34252,0.731103 1.02047,0.731103l0 0.581103 -3.27875 0 0 -0.581103c0.631891,0 0.946064,-0.243307 0.946064,-0.731103l0 -6.17836c0,-0.434646 -0.217323,-0.655513 -0.656694,-0.655513l-0.289371 0 0 -0.601182c0.8126,0 1.56851,-0.217323 2.25827,-0.655513z"/>
   <path id="_1431639601234567891011" class="fil0" d="M126.647 113.295c1.28858,0 2.33386,0.485434 3.13583,1.45866 0.728741,0.923623 1.09252,2.04095 1.09252,3.35315 0,1.56733 -0.435827,2.78032 -1.30984,3.64607 -0.768899,0.72756 -1.73859,1.09134 -2.91851,1.09134 -1.24961,0 -2.24882,-0.36378 -2.98819,-1.09134 -0.827954,-0.839765 -1.23898,-2.05394 -1.23898,-3.64607 0,-1.48347 0.39567,-2.6563 1.18229,-3.51851 0.790159,-0.861025 1.80709,-1.29331 3.04489,-1.29331zm0 8.91143c0.827954,0 1.50591,-0.285827 2.04095,-0.855119 0.584647,-0.60945 0.87756,-1.68898 0.87756,-3.24449 0,-1.36299 -0.226772,-2.38229 -0.675592,-3.06378 -0.621261,-0.72756 -1.36772,-1.09252 -2.24292,-1.09252 -1.0441,0 -1.81654,0.454725 -2.31378,1.36654 -0.401575,0.729922 -0.600001,1.66063 -0.600001,2.78977 0,1.12914 0.198425,2.05276 0.600001,2.76851 0.497245,0.889371 1.26969,1.3311 2.31378,1.3311z"/>
   <path id="_143163960123456789101112" class="fil0" d="M142.761 113.295l0 0.72756c0.497245,-0.485434 1.00748,-0.72756 1.53071,-0.72756 0.36378,0 0.696851,0.133465 1.00158,0.400394 0.108662,0.134646 0.207874,0.298819 0.291733,0.49252 0.607088,-0.594095 1.19764,-0.892915 1.76693,-0.892915 0.488977,0 0.881104,0.145276 1.18583,0.43819 0.375591,0.327166 0.565749,0.740552 0.565749,1.2378l0 6.70631c0,0.292914 0.217323,0.439371 0.656694,0.439371l0 0.581103 -2.62559 0 0 -0.581103c0.43819,0 0.656694,-0.146457 0.656694,-0.439371l0 -6.26694c0,-0.523229 -0.090945,-0.917718 -0.274016,-1.18583 -0.196063,-0.183071 -0.370867,-0.274016 -0.529135,-0.274016 -0.460631,0 -0.874017,0.287008 -1.2378,0.856301 0.0460631,0.291733 0.0708662,0.615355 0.0708662,0.967324l0 5.90316c0,0.292914 0.17126,0.439371 0.510237,0.439371l0 0.581103 -2.33268 0 0 -0.581103c0.34252,0 0.510237,-0.146457 0.510237,-0.439371l0 -6.12403c0,-1.06772 -0.26693,-1.60276 -0.80197,-1.60276 -0.255118,0 -0.523229,0.165355 -0.799608,0.49252l-0.146457 0.164173 0 7.07009c0,0.292914 0.167717,0.439371 0.510237,0.439371l0 0.581103 -2.33268 0 0 -0.581103c0.338977,0 0.509056,-0.146457 0.509056,-0.439371l0 -6.55985c0,-0.426379 -0.217323,-0.637796 -0.655513,-0.637796l0 -0.603544c0.618899,0 1.27559,-0.19252 1.9689,-0.581103z"/>
   <path id="_14316396012345678910111213" class="fil0" d="M152.529 113.295l0 7.1445c0,1.11732 0.487796,1.67717 1.45866,1.67717 0.668505,0 1.25079,-0.230315 1.75158,-0.694489 0.325985,-0.301182 0.618899,-0.721655 0.874017,-1.25669l0 -5.04804c0,-0.376772 -0.17126,-0.565749 -0.510237,-0.565749l-0.36378 0 0 -0.601182c0.655513,0 1.38425,-0.217323 2.18622,-0.655513l0 8.31143c0,0.447638 0.199607,0.67441 0.600001,0.67441l0.420473 0 0 0.491339 -2.33268 0 0 -1.58622c-0.351969,0.510237 -0.712206,0.881104 -1.07717,1.11142 -0.594095,0.366142 -1.23189,0.546851 -1.91221,0.546851 -0.765355,0 -1.36299,-0.19252 -1.78583,-0.581103 -0.413386,-0.401575 -0.622442,-1.00866 -0.622442,-1.82362l0 -5.46851c0,-0.388583 -0.0956694,-0.584647 -0.289371,-0.584647l-0.584647 0 0 -0.563387c0.740552,0 1.47166,-0.177166 2.1874,-0.527954z"/>
   <path id="_1431639601234567891011121314" class="fil0" d="M162.006 113.295l0 1.22244c0.681497,-0.814962 1.58032,-1.22244 2.69764,-1.22244 0.790159,0 1.40551,0.230315 1.84134,0.693308 0.426379,0.447638 0.637796,1.06654 0.637796,1.8567l0 5.54056c0,0.487796 0.34252,0.731103 1.02047,0.731103l0 0.581103 -3.27875 0 0 -0.581103c0.63071,0 0.944883,-0.243307 0.944883,-0.731103l0 -5.54056c0,-0.53504 -0.133465,-0.969687 -0.400394,-1.31221 -0.277559,-0.338977 -0.677954,-0.510237 -1.20118,-0.510237 -0.887009,0 -1.64292,0.516143 -2.26181,1.54961l0 5.81339c0,0.487796 0.34252,0.731103 1.02047,0.731103l0 0.581103 -3.27875 0 0 -0.581103c0.631891,0 0.946064,-0.243307 0.946064,-0.731103l0 -6.17836c0,-0.434646 -0.217323,-0.655513 -0.656694,-0.655513l-0.289371 0 0 -0.601182c0.8126,0 1.56851,-0.217323 2.25827,-0.655513z"/>
   <path id="_143163960123456789101112131415" class="fil0" d="M172.579 113.295c0.995671,0 1.77284,0.344882 2.33268,1.03819l0 -3.64489c0,-0.498426 -0.220866,-0.746458 -0.655513,-0.746458l-0.731103 0 0 -0.585828c0.851576,0 1.75158,-0.19252 2.7,-0.581103l0 12.1748c0,0.778348 0.217323,1.16693 0.653151,1.16693l0.731103 0 0 0.581103 -2.69764 0 0 -0.783072c-0.0992127,0.120473 -0.21378,0.238583 -0.347245,0.348426 -0.53504,0.388583 -1.19528,0.581103 -1.98544,0.581103 -0.97323,0 -1.75158,-0.36378 -2.33268,-1.09134 -0.777167,-0.827954 -1.16693,-2.04449 -1.16693,-3.64607 0,-1.51772 0.357875,-2.69646 1.07362,-3.53623 0.718111,-0.849214 1.52717,-1.27559 2.42599,-1.27559zm2.33268 7.58033l0 -5.52166c-0.500788,-0.885828 -1.20355,-1.3311 -2.11418,-1.3311 -1.60512,0 -2.40473,1.36299 -2.40473,4.08426 0,1.03229 0.154725,1.9004 0.472442,2.6067 0.435827,0.933072 1.10433,1.40315 2.00315,1.40315 0.584647,0 1.10079,-0.196063 1.54961,-0.584647 0.17126,-0.146457 0.335434,-0.36378 0.493702,-0.656694z"/>
   <path id="_14316396012345678910111213141516" class="fil0" d="M182.639 113.295c1.28858,0 2.33386,0.485434 3.13583,1.45866 0.728741,0.923623 1.09252,2.04095 1.09252,3.35315 0,1.56733 -0.435827,2.78032 -1.30984,3.64607 -0.768899,0.72756 -1.73859,1.09134 -2.91851,1.09134 -1.24961,0 -2.24882,-0.36378 -2.98819,-1.09134 -0.827954,-0.839765 -1.23898,-2.05394 -1.23898,-3.64607 0,-1.48347 0.39567,-2.6563 1.18229,-3.51851 0.790159,-0.861025 1.80709,-1.29331 3.04489,-1.29331zm0 8.91143c0.827954,0 1.50591,-0.285827 2.04095,-0.855119 0.584647,-0.60945 0.87756,-1.68898 0.87756,-3.24449 0,-1.36299 -0.226772,-2.38229 -0.675592,-3.06378 -0.621261,-0.72756 -1.36772,-1.09252 -2.24292,-1.09252 -1.0441,0 -1.81654,0.454725 -2.31378,1.36654 -0.401575,0.729922 -0.600001,1.66063 -0.600001,2.78977 0,1.12914 0.198425,2.05276 0.600001,2.76851 0.497245,0.889371 1.26969,1.3311 2.31378,1.3311z"/>
   <path id="_1431639601234567891011121314151617" class="fil0" d="M200.831 114.173c1.15748,0 2.09764,0.435827 2.81811,1.31103 0.654332,0.830316 0.981498,1.83425 0.981498,3.01418 0,1.40906 -0.390945,2.49922 -1.17638,3.27638 -0.690946,0.654332 -1.56378,0.981498 -2.62323,0.981498 -1.12441,0 -2.02205,-0.327166 -2.68701,-0.981498 -0.744096,-0.754726 -1.1126,-1.84488 -1.1126,-3.27638 0,-1.33347 0.354331,-2.38819 1.06181,-3.163 0.711025,-0.773623 1.6252,-1.16221 2.7378,-1.16221zm0 8.01025c0.744096,0 1.35355,-0.257481 1.83425,-0.768899 0.525591,-0.548032 0.788978,-1.5189 0.788978,-2.91615 0,-1.22481 -0.204331,-2.14252 -0.607088,-2.75433 -0.559843,-0.654332 -1.23071,-0.981498 -2.01614,-0.981498 -0.938978,0 -1.63347,0.408662 -2.07992,1.22717 -0.361418,0.657875 -0.539765,1.49292 -0.539765,2.50867 0,1.01457 0.178347,1.84488 0.539765,2.48859 0.446457,0.799608 1.14095,1.19646 2.07992,1.19646z"/>
   <path id="_143163960123456789101112131415161718" class="fil0" d="M217.017 114.173c0.635434,0 1.18583,0.172441 1.65591,0.522048 0.161811,0.120473 0.327166,0.268111 0.49252,0.445276l0.539765 -0.967324 0.589371 0 0 9.89529c0,0.304725 0.218504,0.458268 0.654332,0.458268l0.525591 0 0 0.539765 -3.53977 0 0 -0.539765 0.394489 0c0.522048,0 0.785434,-0.153544 0.785434,-0.458268l0 -2.36103c-0.699214,0.699214 -1.50709,1.04882 -2.42363,1.04882 -0.797245,0 -1.47992,-0.354331 -2.0504,-1.06536 -0.5563,-0.718111 -0.832678,-1.82835 -0.832678,-3.32363 0,-1.1811 0.304725,-2.18386 0.916537,-3.01418 0.578741,-0.786615 1.34292,-1.17992 2.29252,-1.17992zm2.09764 6.8634l0 -5.04686c-0.533859,-0.773623 -1.16929,-1.16339 -1.90158,-1.16339 -0.796064,0 -1.39252,0.41693 -1.78347,1.24725 -0.296457,0.621261 -0.441733,1.38662 -0.441733,2.2937 0,1.20118 0.223229,2.16615 0.670867,2.89843 0.337796,0.557481 0.836222,0.836222 1.49055,0.836222 0.721655,0 1.37481,-0.354331 1.96536,-1.06536z"/>
   <path id="_14316396012345678910111213141516171819" class="fil0" d="M224.094 114.173l0 6.42166c0,1.00394 0.439371,1.50709 1.31103,1.50709 0.601182,0 1.12441,-0.206693 1.57441,-0.623623 0.294095,-0.270473 0.5563,-0.648426 0.786615,-1.12914l0 -4.5378c0,-0.338977 -0.154725,-0.509056 -0.45945,-0.509056l-0.327166 0 0 -0.539765c0.590552,0 1.24488,-0.196063 1.96654,-0.589371l0 7.47048c0,0.402757 0.178347,0.607088 0.538583,0.607088l0.377953 0 0 0.441733 -2.09646 0 0 -1.42677c-0.316536,0.45945 -0.64134,0.79134 -0.968505,0.999214 -0.533859,0.329528 -1.10669,0.491339 -1.71851,0.491339 -0.688584,0 -1.22481,-0.173622 -1.60512,-0.522048 -0.372048,-0.361418 -0.559843,-0.905907 -0.559843,-1.63937l0 -4.91576c0,-0.348426 -0.0862206,-0.525591 -0.259843,-0.525591l-0.525591 0 0 -0.505513c0.664962,0 1.32284,-0.159449 1.96536,-0.474804z"/>
   <path id="_1431639601234567891011121314151617181920" class="fil0" d="M234.58 114.173c1.92284,0 3.05906,1.27205 3.40749,3.81615l-5.91261 0c-0.034252,0.206693 -0.0507875,0.421654 -0.0507875,0.640158 0,1.38662 0.50315,2.39646 1.50709,3.03071 0.360237,0.162992 0.777167,0.246851 1.24725,0.246851 0.544489,0 1.06772,-0.165355 1.57087,-0.49252 0.50315,-0.308268 0.901182,-0.705119 1.19646,-1.19646l0.31063 0.24567c-0.372048,0.687403 -0.889371,1.27205 -1.55433,1.75276 -0.514961,0.361418 -1.11024,0.539765 -1.78701,0.539765 -0.732285,0 -1.37008,-0.173622 -1.91811,-0.522048 -0.522048,-0.349607 -0.933072,-0.803151 -1.22717,-1.36181 -0.349607,-0.643702 -0.525591,-1.39252 -0.525591,-2.24292 0,-0.732285 0.137008,-1.40315 0.411024,-2.01614 0.349607,-0.807875 0.73819,-1.38071 1.16339,-1.71969 0.631891,-0.480709 1.35355,-0.720474 2.16142,-0.720474zm-2.44134 3.27638l4.60513 0c-0.142914,-1.79173 -0.863387,-2.68701 -2.16378,-2.68701 -0.500788,0 -0.970868,0.206693 -1.40906,0.623623 -0.425197,0.402757 -0.719292,0.894096 -0.883466,1.47402 -0.034252,0.131103 -0.0814962,0.325985 -0.148819,0.589371z"/>
   <path id="_143163960123456789101112131415161718192021" class="fil0" d="M249.195 110.11l0 5.45434c0.785434,-0.928348 1.66063,-1.39134 2.61969,-1.39134 0.687403,0 1.25788,0.178347 1.70551,0.538583 0.435827,0.361418 0.654332,0.881104 0.654332,1.55788l0 5.37402c0,0.304725 0.263386,0.458268 0.785434,0.458268l0 0.523229 -2.94685 0 0 -0.523229c0.654332,0 0.981498,-0.153544 0.981498,-0.458268l0 -5.37402c0,-0.50315 -0.137008,-0.881104 -0.408662,-1.12914 -0.217323,-0.210237 -0.561024,-0.314174 -1.0311,-0.314174 -0.458268,0 -0.90945,0.159449 -1.34528,0.475985 -0.382678,0.274016 -0.721655,0.670867 -1.01457,1.19646l0 5.14489c0,0.304725 0.31063,0.458268 0.933072,0.458268l0 0.523229 -2.96575 0 0 -0.523229c0.578741,0 0.869293,-0.153544 0.869293,-0.458268l0 -10.1587c0,-0.251575 -0.137008,-0.376772 -0.411024,-0.376772l-0.458268 0 0 -0.539765c0.754726,0 1.4315,-0.153544 2.03268,-0.458268z"/>
   <path id="_14316396012345678910111213141516171819202122" class="fil0" d="M260.661 112.484c0,0.198425 -0.114567,0.349607 -0.343701,0.458268l-1.6689 0.787796c-0.109843,0.0425197 -0.17126,0.0425197 -0.18189,0 -0.0307087,-0.0330709 0,-0.0838584 0.0980316,-0.147638l1.19646 -1.44331c0.108662,-0.108662 0.240945,-0.161811 0.394489,-0.161811 0.337796,0 0.505513,0.167717 0.505513,0.506694zm2.72126 8.96104c-0.338977,1.05945 -0.858663,1.59095 -1.55788,1.59095 -0.578741,0 -0.883466,-0.405119 -0.916537,-1.21299 -1.0689,0.896458 -2.12244,1.3441 -3.163,1.3441 -0.59882,-0.0980316 -1.07953,-0.318898 -1.43977,-0.656694 -0.382678,-0.380316 -0.572836,-0.861025 -0.572836,-1.43977 0,-1.44331 0.807875,-2.35985 2.42363,-2.75433 0.721655,-0.259843 1.63819,-0.431103 2.75197,-0.506694l0 -1.19646c0,-1.09252 -0.574017,-1.63819 -1.71969,-1.63819 -0.470079,0 -0.858663,0.120473 -1.16339,0.360237 -0.304725,0.229134 -0.458268,0.437009 -0.458268,0.623623 0,0.0531497 0.0555119,0.114567 0.164173,0.179528 0.109843,0.0980316 0.162992,0.229134 0.162992,0.394489 0,0.239764 -0.0933072,0.429922 -0.277559,0.572836 -0.175985,0.151181 -0.388583,0.229134 -0.640158,0.229134 -0.251575,0 -0.474804,-0.0921261 -0.670867,-0.279922 -0.120473,-0.142914 -0.18189,-0.337796 -0.18189,-0.589371 0,-0.447638 0.263386,-0.856301 0.788978,-1.22835 0.675592,-0.480709 1.48465,-0.720474 2.42363,-0.720474 0.950789,0 1.65,0.212599 2.09764,0.636615 0.435827,0.349607 0.654332,0.925986 0.654332,1.72323l0 4.71615c0,0.394489 0.0862206,0.590552 0.262205,0.590552 0.206693,0 0.425197,-0.288189 0.654332,-0.86693l0.377953 0.12874zm-2.47441 -0.243307l0 -2.81811c-1.77874,0.229134 -2.90552,0.589371 -3.3756,1.08189 -0.413386,0.425197 -0.62008,0.894096 -0.62008,1.4067 0,0.480709 0.13937,0.863387 0.424016,1.14921 0.274016,0.282284 0.649607,0.424016 1.13032,0.424016 0.360237,0 0.783072,-0.125197 1.26142,-0.376772 0.360237,-0.184252 0.754726,-0.475985 1.17992,-0.86693z"/>
   <path id="_1431639601234567891011121314151617181920212223" class="fil0" d="M275.671 114.173c0.895277,0 1.59331,0.309449 2.09764,0.933072l0 -3.27638c0,-0.447638 -0.199607,-0.670867 -0.590552,-0.670867l-0.656694 0 0 -0.526772c0.765355,0 1.57441,-0.172441 2.42717,-0.522048l0 10.9441c0,0.698033 0.194882,1.04764 0.587009,1.04764l0.656694 0 0 0.523229 -2.42363 0 0 -0.705119c-0.0897639,0.109843 -0.193701,0.216142 -0.314174,0.314174 -0.480709,0.348426 -1.07362,0.522048 -1.78347,0.522048 -0.875198,0 -1.57441,-0.327166 -2.09646,-0.981498 -0.699214,-0.742915 -1.04882,-1.83662 -1.04882,-3.27638 0,-1.36418 0.32126,-2.42481 0.964962,-3.17953 0.644883,-0.762993 1.37244,-1.14567 2.18032,-1.14567zm2.09764 6.81379l0 -4.963c-0.451182,-0.797245 -1.08307,-1.19764 -1.90158,-1.19764 -1.44331,0 -2.16142,1.22481 -2.16142,3.67205 0,0.928348 0.13937,1.70788 0.425197,2.34331 0.390945,0.838584 0.992127,1.26024 1.8,1.26024 0.525591,0 0.989765,-0.175985 1.39252,-0.525591 0.153544,-0.131103 0.302363,-0.327166 0.445276,-0.589371z"/>
   <path id="_143163960123456789101112131415161718192021222324" class="fil0" d="M284.909 114.173c1.92284,0 3.05906,1.27205 3.40749,3.81615l-5.91261 0c-0.034252,0.206693 -0.0507875,0.421654 -0.0507875,0.640158 0,1.38662 0.50315,2.39646 1.50709,3.03071 0.360237,0.162992 0.777167,0.246851 1.24725,0.246851 0.544489,0 1.06772,-0.165355 1.57087,-0.49252 0.50315,-0.308268 0.901182,-0.705119 1.19646,-1.19646l0.31063 0.24567c-0.372048,0.687403 -0.889371,1.27205 -1.55433,1.75276 -0.514961,0.361418 -1.11024,0.539765 -1.78701,0.539765 -0.732285,0 -1.37008,-0.173622 -1.91811,-0.522048 -0.522048,-0.349607 -0.933072,-0.803151 -1.22717,-1.36181 -0.349607,-0.643702 -0.525591,-1.39252 -0.525591,-2.24292 0,-0.732285 0.137008,-1.40315 0.411024,-2.01614 0.349607,-0.807875 0.73819,-1.38071 1.16339,-1.71969 0.631891,-0.480709 1.35355,-0.720474 2.16142,-0.720474zm-2.44134 3.27638l4.60513 0c-0.142914,-1.79173 -0.863387,-2.68701 -2.16378,-2.68701 -0.500788,0 -0.970868,0.206693 -1.40906,0.623623 -0.425197,0.402757 -0.719292,0.894096 -0.883466,1.47402 -0.034252,0.131103 -0.0814962,0.325985 -0.148819,0.589371z"/>
   <path id="_14316396012345678910111213141516171819202122232425" class="fil0" d="M299.197 114.173l0 0.653151c0.447638,-0.435827 0.905907,-0.653151 1.37599,-0.653151 0.325985,0 0.625985,0.119292 0.900001,0.360237 0.0980316,0.120473 0.186614,0.268111 0.262205,0.441733 0.54567,-0.533859 1.07717,-0.80197 1.58859,-0.80197 0.439371,0 0.79134,0.131103 1.06536,0.393308 0.337796,0.294095 0.509056,0.666143 0.509056,1.1126l0 6.02836c0,0.263386 0.194882,0.394489 0.589371,0.394489l0 0.523229 -2.35985 0 0 -0.523229c0.394489,0 0.590552,-0.131103 0.590552,-0.394489l0 -5.63387c0,-0.468898 -0.0814962,-0.824411 -0.246851,-1.06536 -0.175985,-0.164173 -0.33189,-0.24567 -0.474804,-0.24567 -0.413386,0 -0.785434,0.257481 -1.1126,0.768899 0.0413386,0.263386 0.0637796,0.553938 0.0637796,0.869293l0 5.3067c0,0.263386 0.153544,0.394489 0.458268,0.394489l0 0.523229 -2.09646 0 0 -0.523229c0.307087,0 0.458268,-0.131103 0.458268,-0.394489l0 -5.50513c0,-0.959057 -0.239764,-1.43977 -0.721655,-1.43977 -0.229134,0 -0.468898,0.147638 -0.718111,0.441733l-0.131103 0.148819 0 6.35434c0,0.263386 0.151181,0.394489 0.458268,0.394489l0 0.523229 -2.09646 0 0 -0.523229c0.304725,0 0.458268,-0.131103 0.458268,-0.394489l0 -5.89607c0,-0.383859 -0.196063,-0.574017 -0.590552,-0.574017l0 -0.542127c0.5563,0 1.14685,-0.173622 1.77048,-0.522048z"/>
   <path id="_1431639601234567891011121314151617181920212223242526" class="fil0" d="M309.747 114.173c0.961419,0 1.66063,0.217323 2.09646,0.653151 0.437009,0.349607 0.657875,0.917718 0.657875,1.7067l0 4.71615c0,0.394489 0.0862206,0.590552 0.259843,0.590552 0.217323,0 0.43819,-0.282284 0.656694,-0.852757l0.390945 0.131103c-0.348426,1.04882 -0.871655,1.57441 -1.57087,1.57441 -0.578741,0 -0.885828,-0.400394 -0.916537,-1.19646 -1.07126,0.883466 -2.12008,1.32756 -3.14646,1.32756 -0.601182,-0.0980316 -1.0878,-0.312993 -1.45866,-0.640158 -0.383859,-0.382678 -0.574017,-0.86693 -0.574017,-1.4563 0,-1.44331 0.807875,-2.35512 2.42481,-2.7378 0.732285,-0.263386 1.64882,-0.431103 2.75433,-0.506694l0 -1.21299c0,-1.08189 -0.568111,-1.62166 -1.7067,-1.62166 -0.458268,0 -0.843308,0.114567 -1.16221,0.343701 -0.316536,0.240945 -0.475985,0.447638 -0.475985,0.623623 0,0.0531497 0.0614174,0.114567 0.18189,0.179528 0.0980316,0.108662 0.148819,0.24567 0.148819,0.407481 0,0.232678 -0.0956694,0.422835 -0.279922,0.576379 -0.175985,0.13937 -0.388583,0.212599 -0.640158,0.212599 -0.240945,0 -0.464174,-0.0897639 -0.670867,-0.263386 -0.120473,-0.153544 -0.179528,-0.349607 -0.179528,-0.589371 0,-0.447638 0.259843,-0.864568 0.785434,-1.24488 0.676773,-0.480709 1.48465,-0.720474 2.42481,-0.720474zm-0.852757 7.92875c0.360237,0 0.777167,-0.120473 1.24725,-0.360237 0.370867,-0.196063 0.762993,-0.486615 1.17992,-0.869293l0 -2.81575c-1.77048,0.217323 -2.89725,0.572836 -3.3756,1.06181 -0.41693,0.428741 -0.623623,0.897639 -0.623623,1.40906 0,0.48189 0.142914,0.870474 0.425197,1.16339 0.285827,0.274016 0.668505,0.411024 1.14685,0.411024z"/>
   <path id="_143163960123456789101112131415161718192021222324252627" class="fil0" d="M318.724 114.173l0 6.94489c0,0.439371 0.148819,0.721655 0.441733,0.852757 0.198425,0.0862206 0.553938,0.131103 1.06536,0.131103l0 0.523229 -4.12678 0 0 -0.523229c0.458268,0 0.79134,-0.0496064 0.998033,-0.147638 0.294095,-0.153544 0.441733,-0.431103 0.441733,-0.836222l0 -5.15906c0,-0.337796 -0.147638,-0.558662 -0.441733,-0.656694 -0.142914,-0.0425197 -0.429922,-0.0649607 -0.869293,-0.0649607l0 -0.542127c0.744096,0 1.57441,-0.173622 2.49095,-0.522048zm-0.589371 -4.063c0.56693,0 0.852757,0.282284 0.852757,0.849214 0,0.240945 -0.0814962,0.445276 -0.246851,0.607088 -0.175985,0.175985 -0.376772,0.263386 -0.605906,0.263386 -0.240945,0 -0.441733,-0.0874017 -0.607088,-0.263386 -0.161811,-0.161811 -0.24567,-0.366142 -0.24567,-0.607088 0,-0.237402 0.0838584,-0.441733 0.24567,-0.603544 0.153544,-0.165355 0.355512,-0.24567 0.607088,-0.24567z"/>
   <path id="_14316396012345678910111213141516171819202122232425262728" class="fil0" d="M326.458 114.173c0.512599,0 1.01575,0.0968505 1.50709,0.292914 0.162992,0.0779529 0.294095,0.114567 0.392127,0.114567 0.220866,0 0.50315,-0.133465 0.852757,-0.407481l0.916537 2.44016 -0.522048 0.0649607c-0.252756,-0.59882 -0.688584,-1.09606 -1.31221,-1.49055 -0.491339,-0.327166 -1.10433,-0.49252 -1.83425,-0.49252 -0.382678,0 -0.732285,0.153544 -1.04764,0.458268 -0.308268,0.318898 -0.45945,0.668505 -0.45945,1.04882 0,0.480709 0.304725,0.830316 0.917718,1.04882l2.68701 0.98386c0.480709,0.175985 0.861025,0.425197 1.14567,0.754726 0.282284,0.392127 0.425197,0.839765 0.425197,1.34292 0,0.742915 -0.257481,1.32166 -0.768899,1.73622 -0.56693,0.458268 -1.24961,0.687403 -2.04922,0.687403 -0.654332,0 -1.18819,-0.0980316 -1.60512,-0.292914 -0.161811,-0.0980316 -0.327166,-0.148819 -0.49252,-0.148819 -0.327166,0 -0.631891,0.148819 -0.916537,0.441733l-1.04882 -2.94685 0.525591 -0.131103c0.872836,1.61575 2.01024,2.42363 3.40867,2.42363 0.5563,0 1.00984,-0.159449 1.35945,-0.474804 0.270473,-0.316536 0.407481,-0.682678 0.407481,-1.09961 0,-0.259843 -0.0862206,-0.527954 -0.259843,-0.80197 -0.153544,-0.184252 -0.372048,-0.333071 -0.656694,-0.441733l-2.55591 -0.916537c-0.643702,-0.230315 -1.07599,-0.464174 -1.29449,-0.705119 -0.271654,-0.394489 -0.408662,-0.836222 -0.408662,-1.32874 0,-0.480709 0.240945,-0.980316 0.721655,-1.50709 0.523229,-0.435827 1.17756,-0.653151 1.96536,-0.653151z"/>
   <path id="_1431639601234567891011121314151617181920212223242526272829" class="fil0" d="M344.216 114.173c0.842127,0 1.56378,0.393308 2.16496,1.17992 0.56693,0.740552 0.849214,1.76929 0.849214,3.07796 0,1.19055 -0.24567,2.17559 -0.734647,2.94922 -0.578741,0.917718 -1.42677,1.37599 -2.53937,1.37599 -0.897639,0 -1.63819,-0.292914 -2.22874,-0.883466l-0.525591 0.752363 -0.589371 0 0 -10.8603c0,-0.405119 -0.151181,-0.605906 -0.45945,-0.605906l-0.589371 0 0 -0.45945c0.785434,0 1.52953,-0.198425 2.22874,-0.589371l0 5.37402c0.687403,-0.875198 1.49528,-1.31103 2.42363,-1.31103zm-2.42363 2.22756l0 4.50473c0.50315,0.852757 1.15748,1.27795 1.96536,1.27795 1.52953,0 2.29607,-1.24961 2.29607,-3.75237 0,-2.44607 -0.721655,-3.66851 -2.16496,-3.66851 -0.491339,0 -0.955513,0.218504 -1.39252,0.654332 -0.239764,0.229134 -0.474804,0.5563 -0.703938,0.98386z"/>
   <path id="_143163960123456789101112131415161718192021222324252627282930" class="fil0" d="M352.014 114.173c1.92284,0 3.05906,1.27205 3.40749,3.81615l-5.91261 0c-0.034252,0.206693 -0.0507875,0.421654 -0.0507875,0.640158 0,1.38662 0.50315,2.39646 1.50709,3.03071 0.360237,0.162992 0.777167,0.246851 1.24725,0.246851 0.544489,0 1.06772,-0.165355 1.57087,-0.49252 0.50315,-0.308268 0.901182,-0.705119 1.19646,-1.19646l0.31063 0.24567c-0.372048,0.687403 -0.889371,1.27205 -1.55433,1.75276 -0.514961,0.361418 -1.11024,0.539765 -1.78701,0.539765 -0.732285,0 -1.37008,-0.173622 -1.91811,-0.522048 -0.522048,-0.349607 -0.933072,-0.803151 -1.22717,-1.36181 -0.349607,-0.643702 -0.525591,-1.39252 -0.525591,-2.24292 0,-0.732285 0.137008,-1.40315 0.411024,-2.01614 0.349607,-0.807875 0.73819,-1.38071 1.16339,-1.71969 0.631891,-0.480709 1.35355,-0.720474 2.16142,-0.720474zm-2.44134 3.27638l4.60513 0c-0.142914,-1.79173 -0.863387,-2.68701 -2.16378,-2.68701 -0.500788,0 -0.970868,0.206693 -1.40906,0.623623 -0.425197,0.402757 -0.719292,0.894096 -0.883466,1.47402 -0.034252,0.131103 -0.0814962,0.325985 -0.148819,0.589371z"/>
   <path id="_14316396012345678910111213141516171819202122232425262728293031" class="fil0" d="M360.732 110.11l0 11.0079c0,0.439371 0.145276,0.721655 0.441733,0.852757 0.196063,0.0862206 0.550395,0.131103 1.06536,0.131103l0 0.523229 -4.06536 0 0 -0.523229c0.601182,0 0.98386,-0.0921261 1.14921,-0.278741 0.151181,-0.173622 0.229134,-0.408662 0.229134,-0.705119l0 -8.97875c0,-0.380316 -0.125197,-0.625985 -0.377953,-0.734647 -0.175985,-0.0779529 -0.485434,-0.114567 -0.933072,-0.114567l0 -0.525591c0.742915,0 1.57087,-0.218504 2.49095,-0.654332z"/>
   <path id="_1431639601234567891011121314151617181920212223242526272829303132" class="fil0" d="M368.594 114.173c1.15748,0 2.09764,0.435827 2.81811,1.31103 0.654332,0.830316 0.981498,1.83425 0.981498,3.01418 0,1.40906 -0.390945,2.49922 -1.17638,3.27638 -0.690946,0.654332 -1.56378,0.981498 -2.62323,0.981498 -1.12441,0 -2.02205,-0.327166 -2.68701,-0.981498 -0.744096,-0.754726 -1.1126,-1.84488 -1.1126,-3.27638 0,-1.33347 0.354331,-2.38819 1.06181,-3.163 0.711025,-0.773623 1.6252,-1.16221 2.7378,-1.16221zm0 8.01025c0.744096,0 1.35355,-0.257481 1.83425,-0.768899 0.525591,-0.548032 0.788978,-1.5189 0.788978,-2.91615 0,-1.22481 -0.204331,-2.14252 -0.607088,-2.75433 -0.559843,-0.654332 -1.23071,-0.981498 -2.01614,-0.981498 -0.938978,0 -1.63347,0.408662 -2.07992,1.22717 -0.361418,0.657875 -0.539765,1.49292 -0.539765,2.50867 0,1.01457 0.178347,1.84488 0.539765,2.48859 0.446457,0.799608 1.14095,1.19646 2.07992,1.19646z"/>
   <path id="_143163960123456789101112131415161718192021222324252627282930313233" class="fil0" d="M383.6 114.173l0 1.09843c0.612993,-0.732285 1.42087,-1.09843 2.42481,-1.09843 0.709844,0 1.26378,0.206693 1.65473,0.622442 0.383859,0.402757 0.574017,0.959057 0.574017,1.67008l0 4.97954c0,0.439371 0.307087,0.656694 0.916537,0.656694l0 0.523229 -2.94685 0 0 -0.523229c0.568111,0 0.850395,-0.217323 0.850395,-0.656694l0 -4.97954c0,-0.480709 -0.120473,-0.872836 -0.361418,-1.17992 -0.248032,-0.304725 -0.60945,-0.45945 -1.07835,-0.45945 -0.797245,0 -1.47638,0.464174 -2.03386,1.39252l0 5.22639c0,0.439371 0.308268,0.656694 0.917718,0.656694l0 0.523229 -2.94685 0 0 -0.523229c0.56693,0 0.849214,-0.217323 0.849214,-0.656694l0 -5.55355c0,-0.390945 -0.194882,-0.589371 -0.589371,-0.589371l-0.259843 0 0 -0.539765c0.729922,0 1.40906,-0.196063 2.02914,-0.589371z"/>
   <path id="_14316396012345678910111213141516171819202122232425262728293031323334" class="fil0" d="M393.628 114.173c0.961419,0 1.66063,0.217323 2.09646,0.653151 0.437009,0.349607 0.657875,0.917718 0.657875,1.7067l0 4.71615c0,0.394489 0.0862206,0.590552 0.259843,0.590552 0.217323,0 0.43819,-0.282284 0.656694,-0.852757l0.390945 0.131103c-0.348426,1.04882 -0.871655,1.57441 -1.57087,1.57441 -0.578741,0 -0.885828,-0.400394 -0.916537,-1.19646 -1.07126,0.883466 -2.12008,1.32756 -3.14646,1.32756 -0.601182,-0.0980316 -1.0878,-0.312993 -1.45866,-0.640158 -0.383859,-0.382678 -0.574017,-0.86693 -0.574017,-1.4563 0,-1.44331 0.807875,-2.35512 2.42481,-2.7378 0.732285,-0.263386 1.64882,-0.431103 2.75433,-0.506694l0 -1.21299c0,-1.08189 -0.568111,-1.62166 -1.7067,-1.62166 -0.458268,0 -0.843308,0.114567 -1.16221,0.343701 -0.316536,0.240945 -0.475985,0.447638 -0.475985,0.623623 0,0.0531497 0.0614174,0.114567 0.18189,0.179528 0.0980316,0.108662 0.148819,0.24567 0.148819,0.407481 0,0.232678 -0.0956694,0.422835 -0.279922,0.576379 -0.175985,0.13937 -0.388583,0.212599 -0.640158,0.212599 -0.240945,0 -0.464174,-0.0897639 -0.670867,-0.263386 -0.120473,-0.153544 -0.179528,-0.349607 -0.179528,-0.589371 0,-0.447638 0.259843,-0.864568 0.785434,-1.24488 0.676773,-0.480709 1.48465,-0.720474 2.42481,-0.720474zm-0.852757 7.92875c0.360237,0 0.777167,-0.120473 1.24725,-0.360237 0.370867,-0.196063 0.762993,-0.486615 1.17992,-0.869293l0 -2.81575c-1.77048,0.217323 -2.89725,0.572836 -3.3756,1.06181 -0.41693,0.428741 -0.623623,0.897639 -0.623623,1.40906 0,0.48189 0.142914,0.870474 0.425197,1.16339 0.285827,0.274016 0.668505,0.411024 1.14685,0.411024z"/>
   <path id="_1431639601234567891011121314151617181920212223242526272829303132333435" class="fil0" d="M401.951 114.173c0.512599,0 1.01575,0.0968505 1.50709,0.292914 0.162992,0.0779529 0.294095,0.114567 0.392127,0.114567 0.220866,0 0.50315,-0.133465 0.852757,-0.407481l0.916537 2.44016 -0.522048 0.0649607c-0.252756,-0.59882 -0.688584,-1.09606 -1.31221,-1.49055 -0.491339,-0.327166 -1.10433,-0.49252 -1.83425,-0.49252 -0.382678,0 -0.732285,0.153544 -1.04764,0.458268 -0.308268,0.318898 -0.45945,0.668505 -0.45945,1.04882 0,0.480709 0.304725,0.830316 0.917718,1.04882l2.68701 0.98386c0.480709,0.175985 0.861025,0.425197 1.14567,0.754726 0.282284,0.392127 0.425197,0.839765 0.425197,1.34292 0,0.742915 -0.257481,1.32166 -0.768899,1.73622 -0.56693,0.458268 -1.24961,0.687403 -2.04922,0.687403 -0.654332,0 -1.18819,-0.0980316 -1.60512,-0.292914 -0.161811,-0.0980316 -0.327166,-0.148819 -0.49252,-0.148819 -0.327166,0 -0.631891,0.148819 -0.916537,0.441733l-1.04882 -2.94685 0.525591 -0.131103c0.872836,1.61575 2.01024,2.42363 3.40867,2.42363 0.5563,0 1.00984,-0.159449 1.35945,-0.474804 0.270473,-0.316536 0.407481,-0.682678 0.407481,-1.09961 0,-0.259843 -0.0862206,-0.527954 -0.259843,-0.80197 -0.153544,-0.184252 -0.372048,-0.333071 -0.656694,-0.441733l-2.55591 -0.916537c-0.643702,-0.230315 -1.07599,-0.464174 -1.29449,-0.705119 -0.271654,-0.394489 -0.408662,-0.836222 -0.408662,-1.32874 0,-0.480709 0.240945,-0.980316 0.721655,-1.50709 0.523229,-0.435827 1.17756,-0.653151 1.96536,-0.653151z"/>
   <path id="_143163960123456789101112131415161718192021222324252627282930313233343536" class="fil0" d="M417.416 114.173l0 1.17992c0.699214,-0.786615 1.46221,-1.17992 2.29252,-1.17992 0.797245,0 1.50118,0.399213 2.11418,1.19646 0.601182,0.773623 0.900001,1.83898 0.900001,3.19252 0,1.4315 -0.349607,2.5252 -1.04882,3.27756 -0.578741,0.611812 -1.34173,0.916537 -2.29252,0.916537 -0.732285,0 -1.38662,-0.31063 -1.96536,-0.933072l0 1.98189c0,0.480709 0.413386,0.721655 1.2437,0.721655l0 0.539765 -3.47245 0 0 -0.539765c0.699214,0 1.04882,-0.240945 1.04882,-0.721655l0 -7.99371c0,-0.338977 -0.263386,-0.509056 -0.785434,-0.509056l-0.327166 0 0 -0.539765c0.871655,0 1.63819,-0.196063 2.29252,-0.589371zm0 6.73229c0.165355,0.274016 0.343701,0.49252 0.539765,0.656694 0.349607,0.357875 0.824411,0.539765 1.42559,0.539765 0.623623,0 1.13032,-0.262205 1.52362,-0.785434 0.425197,-0.570473 0.64134,-1.48701 0.64134,-2.75433 0,-0.950789 -0.132284,-1.74213 -0.394489,-2.37402 -0.372048,-0.908269 -0.9626,-1.36181 -1.77048,-1.36181 -0.578741,0 -1.09252,0.269292 -1.54016,0.803151 -0.140551,0.131103 -0.282284,0.349607 -0.425197,0.656694l0 4.6193z"/>
   <path id="_14316396012345678910111213141516171819202122232425262728293031323334353637" class="fil0" d="M427.508 114.173c1.92284,0 3.05906,1.27205 3.40749,3.81615l-5.91261 0c-0.034252,0.206693 -0.0507875,0.421654 -0.0507875,0.640158 0,1.38662 0.50315,2.39646 1.50709,3.03071 0.360237,0.162992 0.777167,0.246851 1.24725,0.246851 0.544489,0 1.06772,-0.165355 1.57087,-0.49252 0.50315,-0.308268 0.901182,-0.705119 1.19646,-1.19646l0.31063 0.24567c-0.372048,0.687403 -0.889371,1.27205 -1.55433,1.75276 -0.514961,0.361418 -1.11024,0.539765 -1.78701,0.539765 -0.732285,0 -1.37008,-0.173622 -1.91811,-0.522048 -0.522048,-0.349607 -0.933072,-0.803151 -1.22717,-1.36181 -0.349607,-0.643702 -0.525591,-1.39252 -0.525591,-2.24292 0,-0.732285 0.137008,-1.40315 0.411024,-2.01614 0.349607,-0.807875 0.73819,-1.38071 1.16339,-1.71969 0.631891,-0.480709 1.35355,-0.720474 2.16142,-0.720474zm-2.44134 3.27638l4.60513 0c-0.142914,-1.79173 -0.863387,-2.68701 -2.16378,-2.68701 -0.500788,0 -0.970868,0.206693 -1.40906,0.623623 -0.425197,0.402757 -0.719292,0.894096 -0.883466,1.47402 -0.034252,0.131103 -0.0814962,0.325985 -0.148819,0.589371z"/>
   <path id="_1431639601234567891011121314151617181920212223242526272829303132333435363738" class="fil0" d="M435.504 114.173c0.512599,0 1.01575,0.0968505 1.50709,0.292914 0.162992,0.0779529 0.294095,0.114567 0.392127,0.114567 0.220866,0 0.50315,-0.133465 0.852757,-0.407481l0.916537 2.44016 -0.522048 0.0649607c-0.252756,-0.59882 -0.688584,-1.09606 -1.31221,-1.49055 -0.491339,-0.327166 -1.10433,-0.49252 -1.83425,-0.49252 -0.382678,0 -0.732285,0.153544 -1.04764,0.458268 -0.308268,0.318898 -0.45945,0.668505 -0.45945,1.04882 0,0.480709 0.304725,0.830316 0.917718,1.04882l2.68701 0.98386c0.480709,0.175985 0.861025,0.425197 1.14567,0.754726 0.282284,0.392127 0.425197,0.839765 0.425197,1.34292 0,0.742915 -0.257481,1.32166 -0.768899,1.73622 -0.56693,0.458268 -1.24961,0.687403 -2.04922,0.687403 -0.654332,0 -1.18819,-0.0980316 -1.60512,-0.292914 -0.161811,-0.0980316 -0.327166,-0.148819 -0.49252,-0.148819 -0.327166,0 -0.631891,0.148819 -0.916537,0.441733l-1.04882 -2.94685 0.525591 -0.131103c0.872836,1.61575 2.01024,2.42363 3.40867,2.42363 0.5563,0 1.00984,-0.159449 1.35945,-0.474804 0.270473,-0.316536 0.407481,-0.682678 0.407481,-1.09961 0,-0.259843 -0.0862206,-0.527954 -0.259843,-0.80197 -0.153544,-0.184252 -0.372048,-0.333071 -0.656694,-0.441733l-2.55591 -0.916537c-0.643702,-0.230315 -1.07599,-0.464174 -1.29449,-0.705119 -0.271654,-0.394489 -0.408662,-0.836222 -0.408662,-1.32874 0,-0.480709 0.240945,-0.980316 0.721655,-1.50709 0.523229,-0.435827 1.17756,-0.653151 1.96536,-0.653151z"/>
   <path id="_143163960123456789101112131415161718192021222324252627282930313233343536373839" class="fil0" d="M443.892 114.173c0.512599,0 1.01575,0.0968505 1.50709,0.292914 0.162992,0.0779529 0.294095,0.114567 0.392127,0.114567 0.220866,0 0.50315,-0.133465 0.852757,-0.407481l0.916537 2.44016 -0.522048 0.0649607c-0.252756,-0.59882 -0.688584,-1.09606 -1.31221,-1.49055 -0.491339,-0.327166 -1.10433,-0.49252 -1.83425,-0.49252 -0.382678,0 -0.732285,0.153544 -1.04764,0.458268 -0.308268,0.318898 -0.45945,0.668505 -0.45945,1.04882 0,0.480709 0.304725,0.830316 0.917718,1.04882l2.68701 0.98386c0.480709,0.175985 0.861025,0.425197 1.14567,0.754726 0.282284,0.392127 0.425197,0.839765 0.425197,1.34292 0,0.742915 -0.257481,1.32166 -0.768899,1.73622 -0.56693,0.458268 -1.24961,0.687403 -2.04922,0.687403 -0.654332,0 -1.18819,-0.0980316 -1.60512,-0.292914 -0.161811,-0.0980316 -0.327166,-0.148819 -0.49252,-0.148819 -0.327166,0 -0.631891,0.148819 -0.916537,0.441733l-1.04882 -2.94685 0.525591 -0.131103c0.872836,1.61575 2.01024,2.42363 3.40867,2.42363 0.5563,0 1.00984,-0.159449 1.35945,-0.474804 0.270473,-0.316536 0.407481,-0.682678 0.407481,-1.09961 0,-0.259843 -0.0862206,-0.527954 -0.259843,-0.80197 -0.153544,-0.184252 -0.372048,-0.333071 -0.656694,-0.441733l-2.55591 -0.916537c-0.643702,-0.230315 -1.07599,-0.464174 -1.29449,-0.705119 -0.271654,-0.394489 -0.408662,-0.836222 -0.408662,-1.32874 0,-0.480709 0.240945,-0.980316 0.721655,-1.50709 0.523229,-0.435827 1.17756,-0.653151 1.96536,-0.653151z"/>
   <path id="_14316396012345678910111213141516171819202122232425262728293031323334353637383940" class="fil0" d="M452.476 114.173c1.15748,0 2.09764,0.435827 2.81811,1.31103 0.654332,0.830316 0.981498,1.83425 0.981498,3.01418 0,1.40906 -0.390945,2.49922 -1.17638,3.27638 -0.690946,0.654332 -1.56378,0.981498 -2.62323,0.981498 -1.12441,0 -2.02205,-0.327166 -2.68701,-0.981498 -0.744096,-0.754726 -1.1126,-1.84488 -1.1126,-3.27638 0,-1.33347 0.354331,-2.38819 1.06181,-3.163 0.711025,-0.773623 1.6252,-1.16221 2.7378,-1.16221zm0 8.01025c0.744096,0 1.35355,-0.257481 1.83425,-0.768899 0.525591,-0.548032 0.788978,-1.5189 0.788978,-2.91615 0,-1.22481 -0.204331,-2.14252 -0.607088,-2.75433 -0.559843,-0.654332 -1.23071,-0.981498 -2.01614,-0.981498 -0.938978,0 -1.63347,0.408662 -2.07992,1.22717 -0.361418,0.657875 -0.539765,1.49292 -0.539765,2.50867 0,1.01457 0.178347,1.84488 0.539765,2.48859 0.446457,0.799608 1.14095,1.19646 2.07992,1.19646z"/>
   <path id="_1431639601234567891011121314151617181920212223242526272829303132333435363738394041" class="fil0" d="M460.733 114.173c0.961419,0 1.66063,0.217323 2.09646,0.653151 0.437009,0.349607 0.657875,0.917718 0.657875,1.7067l0 4.71615c0,0.394489 0.0862206,0.590552 0.259843,0.590552 0.217323,0 0.43819,-0.282284 0.656694,-0.852757l0.390945 0.131103c-0.348426,1.04882 -0.871655,1.57441 -1.57087,1.57441 -0.578741,0 -0.885828,-0.400394 -0.916537,-1.19646 -1.07126,0.883466 -2.12008,1.32756 -3.14646,1.32756 -0.601182,-0.0980316 -1.0878,-0.312993 -1.45866,-0.640158 -0.383859,-0.382678 -0.574017,-0.86693 -0.574017,-1.4563 0,-1.44331 0.807875,-2.35512 2.42481,-2.7378 0.732285,-0.263386 1.64882,-0.431103 2.75433,-0.506694l0 -1.21299c0,-1.08189 -0.568111,-1.62166 -1.7067,-1.62166 -0.458268,0 -0.843308,0.114567 -1.16221,0.343701 -0.316536,0.240945 -0.475985,0.447638 -0.475985,0.623623 0,0.0531497 0.0614174,0.114567 0.18189,0.179528 0.0980316,0.108662 0.148819,0.24567 0.148819,0.407481 0,0.232678 -0.0956694,0.422835 -0.279922,0.576379 -0.175985,0.13937 -0.388583,0.212599 -0.640158,0.212599 -0.240945,0 -0.464174,-0.0897639 -0.670867,-0.263386 -0.120473,-0.153544 -0.179528,-0.349607 -0.179528,-0.589371 0,-0.447638 0.259843,-0.864568 0.785434,-1.24488 0.676773,-0.480709 1.48465,-0.720474 2.42481,-0.720474zm-0.852757 7.92875c0.360237,0 0.777167,-0.120473 1.24725,-0.360237 0.370867,-0.196063 0.762993,-0.486615 1.17992,-0.869293l0 -2.81575c-1.77048,0.217323 -2.89725,0.572836 -3.3756,1.06181 -0.41693,0.428741 -0.623623,0.897639 -0.623623,1.40906 0,0.48189 0.142914,0.870474 0.425197,1.16339 0.285827,0.274016 0.668505,0.411024 1.14685,0.411024z"/>
   <path id="_143163960123456789101112131415161718192021222324252627282930313233343536373839404142" class="fil0" d="M469.057 114.173c0.512599,0 1.01575,0.0968505 1.50709,0.292914 0.162992,0.0779529 0.294095,0.114567 0.392127,0.114567 0.220866,0 0.50315,-0.133465 0.852757,-0.407481l0.916537 2.44016 -0.522048 0.0649607c-0.252756,-0.59882 -0.688584,-1.09606 -1.31221,-1.49055 -0.491339,-0.327166 -1.10433,-0.49252 -1.83425,-0.49252 -0.382678,0 -0.732285,0.153544 -1.04764,0.458268 -0.308268,0.318898 -0.45945,0.668505 -0.45945,1.04882 0,0.480709 0.304725,0.830316 0.917718,1.04882l2.68701 0.98386c0.480709,0.175985 0.861025,0.425197 1.14567,0.754726 0.282284,0.392127 0.425197,0.839765 0.425197,1.34292 0,0.742915 -0.257481,1.32166 -0.768899,1.73622 -0.56693,0.458268 -1.24961,0.687403 -2.04922,0.687403 -0.654332,0 -1.18819,-0.0980316 -1.60512,-0.292914 -0.161811,-0.0980316 -0.327166,-0.148819 -0.49252,-0.148819 -0.327166,0 -0.631891,0.148819 -0.916537,0.441733l-1.04882 -2.94685 0.525591 -0.131103c0.872836,1.61575 2.01024,2.42363 3.40867,2.42363 0.5563,0 1.00984,-0.159449 1.35945,-0.474804 0.270473,-0.316536 0.407481,-0.682678 0.407481,-1.09961 0,-0.259843 -0.0862206,-0.527954 -0.259843,-0.80197 -0.153544,-0.184252 -0.372048,-0.333071 -0.656694,-0.441733l-2.55591 -0.916537c-0.643702,-0.230315 -1.07599,-0.464174 -1.29449,-0.705119 -0.271654,-0.394489 -0.408662,-0.836222 -0.408662,-1.32874 0,-0.480709 0.240945,-0.980316 0.721655,-1.50709 0.523229,-0.435827 1.17756,-0.653151 1.96536,-0.653151z"/>
   <path id="_143161680" class="fil1" d="M482.134 5.59725l-0.101575 16.8036 0.0803151 5.65631 -0.0507875 44.7213 -0.0519686 3.07323 0.0212599 17.0091 -0.0484253 0.557481c1.39725,-0.537402 0.786615,-2.65867 0.786615,-3.6378 0,-3.3815 0.351969,-7.77521 -0.0236221,-10.9264l0.0673229 9.16301c1.29803,0.044882 -1.53425,-0.183071 1.18701,-0.375591 0.272835,0.457087 -0.373229,1.90866 0.772442,2.06339 1.80118,-0.225591 0.206693,-3.40867 1.60158,-3.98859l0 -17.1969c-1.54843,0.243307 -0.825592,0.982679 -0.884647,2.18859 -0.0259843,0.531497 0.68504,1.77166 -1.31457,1.95l-0.0826773 -4.00867c-1.49055,0.198425 -1.08189,0.174803 -1.05827,0.921261 0.011811,0.38504 0.0637796,0.721655 -0.191339,1.10433l-0.74882 -62.2288c1.10079,0.337796 0.778348,0.382678 0.721655,1.02874l0.289371 3.02717 3.2693 0.00708662 0 -8.05159c-59.8017,2.15552 -62.8052,-0.679135 -4.24016,1.13977z"/>
   <path id="_143163240" class="fil2" d="M39.1926 104.447l66.7844 0.152362c-3.32953,-2.78741 -58.4198,1.58268 -66.2434,-0.73819 -1.16693,-6.43466 -1.88032,-34.8438 -0.559843,-41.4367l0.0188977 42.0225z"/>
   <path id="_143160960" class="fil2" d="M314.993 12.8847l66.7855 0.0956694c-3.32953,-1.74803 -58.421,0.992127 -66.2434,-0.462993 -6.55631,-0.819686 -0.561024,-1.97481 -0.542127,0.367323z"/>
   <path id="_143163912" class="fil3" d="M35.0717 82.6147l1.45394 3.31182 1.10669 -0.126378 0.296457 -9.22797 0.792521 15.9 -0.0413386 -38.5843 0.0200788 -18.9355 -0.702757 -15.8835 -0.340158 12.3697c-0.147638,-2.53701 -0.106299,-5.27481 -0.111024,-7.83544 -0.0165355,-7.34883 -1.28977,-1.94174 -1.57441,-5.18859l-0.900001 -5.92206 0 70.1222z"/>
  </g>
 </g>
</svg>
