<?xml version="1.0" encoding="UTF-8"?>
<!DOCTYPE svg PUBLIC "-//W3C//DTD SVG 1.1//EN" "http://www.w3.org/Graphics/SVG/1.1/DTD/svg11.dtd">
<!-- Creator: CorelDRAW -->
<svg xmlns="http://www.w3.org/2000/svg" xml:space="preserve" width="300px" height="150px" style="shape-rendering:geometricPrecision; text-rendering:geometricPrecision; image-rendering:optimizeQuality; fill-rule:evenodd; clip-rule:evenodd"
viewBox="0 0 300 150"
 xmlns:xlink="http://www.w3.org/1999/xlink">
 <defs>
  <style type="text/css">
   <![CDATA[
    .str0 {stroke:#6D2B70;stroke-width:0.948425;stroke-linecap:round;stroke-linejoin:round}
    .fil4 {fill:none;fill-rule:nonzero}
    .fil1 {fill:#FFFDD7}
    .fil3 {fill:#6FD2E4}
    .fil2 {fill:#6D2B70}
    .fil0 {fill:#B59BB9}
    .fil5 {fill:#6D2B70;fill-rule:nonzero}
   ]]>
  </style>
 </defs>
 <g id="Camada_x0020_1">
  <metadata id="CorelCorpID_0Corel-Layer"/>
  <g id="_142038352">
   <g>
    <path id="_124107192" class="fil0" d="M170.629 63.1028l0.597638 0.154724c-0.173622,2.85827 -0.659055,3.15 -3.04134,1.86614 -0.330709,-2.52874 0.17126,-2.41063 2.4437,-2.02087zm-13.5626 1.25079c0.713386,-0.726378 2.1,-0.629528 3,-0.256299 1.56732,0.649606 2.15787,-0.0566929 2.9563,0.43937 -0.0401575,0.0673228 0.186614,0.454724 -1.23543,0.553937 -2.52638,0.177165 -1.80354,-0.752362 -3.06969,-0.667323 -0.775984,0.0531496 -0.833858,0.419291 -1.65118,-0.069685zm15.2965 -1.15157c3.11457,-1.06417 3.15118,1.48701 3.01535,1.8378 -0.207874,0.53622 -3.3,3.31772 -3.01535,-1.8378zm-17.4969 1.2437l-0.144094 -1.08898c0.638976,-0.585827 0.726378,-0.81378 1.64173,-0.786614 -0.046063,0.504331 -0.256299,0.887008 -0.457087,1.35827 -0.275197,0.647244 -0.343701,0.635433 -1.04055,0.517323zm-8.6185 -1.65c-0.629528,0.369685 -0.501969,0.275197 -1.27559,0.174803 0.0850394,-0.270472 -0.113386,-0.440551 0.559843,-0.676772 0.84685,-0.297638 0.624803,0.0649606 0.715748,0.501969zm30.8587 -1.47047c0.535039,-0.381496 0.574016,-0.243307 0.969685,-0.179528 0.24685,1.40669 -0.559843,2.47795 -1.96299,1.5685 -0.198425,-0.844488 0.235039,-1.16339 0.993307,-1.38898zm-12.8114 -1.01693c0.314173,-0.0874016 0.258661,-0.15 0.187795,0.165354 0.360236,-0.0531496 0.272835,-0.105118 0.144094,0.249213 0.361417,-0.0992126 0.291732,-0.162992 0.199606,0.201969 0.370866,-0.114567 0.312992,-0.201969 0.250394,0.168898l0.875197 0.459449c0.421654,-0.0980315 0.340157,-0.205512 0.340157,0.191339l-0.0224409 -0.0141732 0.504331 0.155906 0.0649606 0.35315c0.424016,0.243307 0.250394,1.16929 0.119291,1.62638 -0.897638,0.177165 -1.79764,-0.962598 -2.20984,-1.68543 -0.333071,-0.0862205 -0.297638,0.323622 -0.290551,-0.307087l-0.219685 -0.343701c-0.367323,0.0755906 -0.277559,0.126378 -0.162992,-0.240945 -0.793701,-0.191339 -0.787795,-0.438189 -0.748819,-1.24488 0.766535,-0.0885827 0.448819,-0.223228 0.968504,0.264567zm-39.8421 -0.0141732c0.441732,-0.734646 1.24134,-0.550394 2.9622,-0.679134 1.68898,-0.127559 1.42795,-1.01339 2.60551,-0.635433 -0.105118,0.982677 0.0850394,0.698031 -1.01102,0.894094 -1.25551,0.223228 -3.44528,0.928346 -4.55669,0.420472zm20.4827 0.856299c-3.26811,1.05 -3.8126,-0.745276 -5.40591,-1.61693 -0.583465,-0.318898 -0.937795,-0.00590551 -1.55079,-0.205512 -0.564567,-0.183071 -0.0555118,0.102756 -0.487795,-0.368504 1.73504,-0.675591 2.44134,-0.340157 3.83858,0.654331 1.9252,1.37008 1.24606,1.04409 2.49921,1.08189 1.0878,0.0330709 0.805512,0.120472 1.10669,0.454724zm11.524 -0.487795c-0.698031,0.465354 -0.575197,0.284646 -1.46693,0.351969 -0.302362,0.676772 0.0685039,0.336614 -0.533858,0.657874 0.151181,0.426378 0.226772,0.369685 -0.194882,0.201969 0.15,0.388583 0.151181,0.252756 -0.261024,0.140551 0.10748,0.370866 0.205512,0.338976 -0.154724,0.225591 -0.0933071,0.703937 0.0826772,0.694488 -0.507874,1.26496l0.141732 0.158268c0.151181,1.15039 0.0956693,0.426378 -0.239764,0.518504 -0.191339,0.198425 0.0685039,0.448819 -1.28622,0.23622 -0.166535,-2.27244 0.894094,-2.47441 1.83425,-3.77953 -0.817323,-0.0507874 -0.946063,-0.00354331 -1.55787,-0.45l-4.11378 -0.903543c0.0519685,-1.09843 4.11614,-5.46378 4.68661,-5.63504 0.584646,0.414567 1.67953,4.16575 3.13701,6.20906 1.43031,-0.113386 1.20472,-1.21063 2.74843,-1.35945 -0.0472441,0.946063 -0.39685,0.9 -0.988583,1.38661 -0.635433,0.520866 -0.297638,0.641339 -1.24252,0.775984zm26.8252 -2.96102c-0.308268,4.20236 -3.17598,6.02244 -3.19016,4.15276l1.38543 -7.53189c0.734646,-0.796063 2.04685,0.0755906 1.80472,3.37913zm-46.989 0.292913c0.0566929,0.66378 0.178346,0.20315 -0.218504,0.569291l-0.20315 0.959055c-0.490157,0.0791339 -1.1185,0.354331 -1.07126,-0.406299l-0.441732 -0.190157c0.223228,-0.864567 -0.0212598,-0.440551 0.43937,-0.669685l0.0992126 -0.757087 0.733465 -0.0897638 -0.0023622 0.106299c0.393307,-0.753543 0.157087,-0.734646 1.17047,-0.399213 0.0531496,0.314173 0.472441,-0.121654 -0.046063,0.702756 -0.27874,0.441732 -0.0992126,0.0850394 -0.459449,0.174803zm-2.88307 -0.577559c0.0968504,0.724016 0.124016,0.355512 -0.197244,0.406299 0.155906,0.464173 0.263386,0.368504 -0.20315,0.368504l0.0838583 -0.0933071c0.0484252,0.522047 0.211417,0.498425 -0.237402,0.347244 0.152362,0.426378 0.19252,0.330709 -0.226772,0.167717 -0.269291,0.346063 0.526772,0.204331 -0.514961,0.290551 -0.565748,0.0472441 -0.242126,0.0200787 -0.588189,-0.222047 -0.00354331,-0.727559 -0.116929,-0.453543 0.356693,-0.814961 -0.137008,-0.399213 -0.255118,-0.374409 0.142913,-0.253937l0.480709 -1.66299c-1.42795,-0.113386 -2.2937,-0.487795 -3.52795,-0.65315 -1.47047,-0.197244 -2.42953,-0.470079 -2.38937,-2.12953 1.19646,-0.31063 3.51614,0.876378 5.14961,0.915354 1.23425,0.0307087 0.522047,-0.0874016 0.754724,-0.26811 1.48937,-1.15276 -0.848031,0.179528 0.41811,-0.411024 0.588189,0.441732 0.929528,3.8752 0.498425,4.01339zm22.1409 -3.2374c-0.304724,-0.683858 -0.63189,-0.999213 -0.78189,-1.77402 -0.451181,-2.32559 0.797244,-1.80945 0.861024,-1.81654 0.343701,0.582283 0.224409,1.01102 0.45,1.75984 0.23622,0.777165 1.65354,3.48898 1.66417,4.79882 -1.38543,-0.113386 -1.67598,-1.80472 -2.19331,-2.96811zm-4.77756 -1.06654c-0.0944882,0.695669 -0.559843,1.09724 -1.17047,1.34409 -0.129921,0.768898 -1.8815,2.62913 -2.54409,2.95276 0.133465,0.400394 0.211417,0.349606 -0.185433,0.20315 0.15,0.421654 0.217323,0.35315 -0.20315,0.20315 0.140551,0.385039 0.196063,0.315354 -0.191339,0.183071 0.138189,0.419291 0.225591,0.374409 -0.186614,0.211417 0.162992,0.416929 0.211417,0.33189 -0.212598,0.188976 -0.18189,0.251575 0.478346,0.256299 -0.49252,0.285827 -0.872835,0.0271654 -0.452362,-0.120472 -0.635433,-0.282283l-3.55984 -0.651969 -1.47047 -0.281102c-0.703937,-1.28504 -1.46575,-2.0126 -1.16575,-3.66614 0.950787,-0.212598 1.68425,-0.154724 2.7378,-0.412205 0.861024,-0.210236 1.7563,-0.478346 2.58543,-0.666142l0.809055 -0.282283c0.383858,-0.394488 1.59685,-1.17283 2.22283,-1.21063 -0.0992126,-0.392126 -0.161811,-0.317717 0.222047,-0.184252 -0.147638,-0.408661 -0.187795,-0.318898 0.214961,-0.167717 -0.148819,-0.432283 -0.173622,-0.315354 0.249213,-0.151181 0.172441,-0.329528 -0.179528,-0.0425197 0.337795,-0.454724 0.243307,-0.193701 0.0874016,-0.0673228 0.421654,-0.168898 -0.00354331,-0.472441 -0.191339,-0.649606 0.54685,-0.588189 0.120472,-0.412205 0.011811,-0.517323 0.585827,-0.641339 0.108661,-0.897638 0.440551,-0.675591 0.888189,-1.41378 0.491339,-0.810236 0.162992,-0.936614 1.23307,-0.875197l0.183071 3.92717c0.920079,0.851575 -0.429921,2.33268 -1.22008,2.59843zm19.5059 -3.72165c-0.673228,-2.01496 2.99646,-2.57835 3.25512,-0.458268 -0.713386,0.664961 -2.36339,1.05945 -3.25512,0.458268zm-15.9685 -0.6c-0.316535,-0.799606 -0.0153543,-1.66535 0.9,-1.49528 0.329528,0.864567 -0.0413386,1.65827 -0.9,1.49528zm-24.1665 -2.59724c0.822047,-0.320079 1.00512,-0.27874 1.90039,0.0413386 0.486614,1.25787 -0.433465,2.67638 -1.79764,2.20394 -0.243307,-0.672047 -0.270472,-1.56024 -0.102756,-2.24528zm9.60827 1.30748c0.218504,0.129921 0.25748,-0.349606 0.180709,0.40748 0.425197,0.499606 0.184252,1.02638 -0.0330709,1.72913 -0.608268,0.262205 -1.96535,1.1622 -2.31614,0.43937 -0.435827,0.152362 -0.265748,0.165354 -0.229134,-0.362598l0.112205 -0.157087c-0.50315,-0.486614 -1.02874,-2.21575 -1.06772,-3 0.71811,-0.318898 1.61102,-0.662598 2.42362,-0.590551 0.57874,0.398031 0.905906,0.775984 0.929528,1.53425zm1.1185 -2.52165c0.676772,-0.274016 1.44331,-0.748819 2.09528,-0.309449 0.25748,0.173622 0.829134,1.30748 0.738189,1.69961 -0.305906,1.31811 -2.75787,0.366142 -2.83346,-1.39016zm40.7976 0.863386c0.424016,0.36378 0.429921,0.507874 0.398031,1.16575 0.194882,0.135827 0.198425,-0.197244 0.48189,0.559843 0.206693,0.550394 0.108661,0.459449 0.0755906,0.925984 0.00354331,1.18465 1.11732,3.74291 -0.826772,3.44291 -0.198425,-0.274016 -0.990945,-3.72165 -0.94252,-4.13031 -0.499606,-0.318898 -0.41811,-0.193701 -0.283465,-0.872835 -0.295276,-0.259843 -0.441732,-0.272835 -0.262205,-0.905906 -0.590551,-0.488976 -1.06654,-1.66654 -0.806693,-2.45906 1.38898,-0.572835 2.2063,1.07362 2.16614,2.27362zm-57.75 -3.01063c0.377953,-0.0956693 0.302362,-0.16063 0.200787,0.218504 0.388583,-0.135827 0.349606,-0.266929 0.32126,0.0838583 0.68622,0.17126 0.477165,0.155906 0.970866,0.458268 0.0826772,0.0507874 0.455906,0.258661 0.47126,0.269291 0.402756,0.284646 0.0838583,0.0023622 0.245669,0.275197 0.705118,0.0661417 0.798425,0.108661 1.40669,0.559843 0.232677,0.172441 0.442913,0.269291 0.514961,0.545669 0.227953,0.877559 -0.155906,0.651969 -0.320079,0.796063l0.0413386 0.711024c-1.15039,0.0779528 -1.12323,-0.304724 -2.00079,-0.876378 -0.559843,-0.13937 -1.64055,-1.15039 -2.0622,-1.64764 -0.659055,-0.775984 -1.0122,-1.29567 -0.982677,-2.35276 0.812598,0.0248031 1.05236,0.147638 1.19291,0.959055zm34.963 -1.55669c-0.069685,-0.702756 0.0874016,-1.48465 0.551575,-1.98307 1.07244,0.440551 0.340157,1.83307 -0.551575,1.98307zm-15.0224 1.5685c0.362598,-0.591732 0.424016,-0.368504 0.738189,-0.77126 0.237402,-0.304724 0.262205,-0.549213 0.617717,-0.960236 0.799606,-0.923622 0.484252,-1.40906 1.21417,-1.82362 0.282283,0.740551 -0.080315,1.97362 -0.24685,2.82402 -0.185433,0.947244 -0.248031,1.80709 -1.26732,2.16732l-1.05591 -1.43622zm6.85866 -2.48386c0.0980315,0.923622 -0.47126,2.32913 -1.04764,3.02244 -0.220866,1.19173 -0.71811,1.96299 -2.09173,1.59803 0.0141732,-0.768898 0.307087,-1.36417 0.373228,-2.12953 0.0744094,-0.870472 0.18189,-1.46811 0.225591,-2.37402l0.721654 -0.349606c-0.0755906,-1.5685 0.318898,-1.50236 0.488976,-2.8311 0.837402,0.0755906 1.47756,-0.122835 1.44685,1.14094 0.276378,0.412205 0.250394,0.447638 0.211417,0.998031 -0.0543307,0.790157 0.0484252,0.461811 -0.328346,0.924803zm10.4917 -2.02913c-0.858661,-0.876378 -1.34055,-2.2878 0.616535,-2.60787 0.564567,0.434646 1.32047,1.15866 1.50709,1.86142 -0.637795,0.623622 -1.23661,0.84685 -2.12362,0.746457zm9.31299 -1.59449c-0.773622,0.170079 -1.09961,0.256299 -1.6748,-0.322441 0.167717,-0.911811 1.55197,-0.732283 1.6748,0.322441zm4.67835 -0.814961c0.361417,-0.126378 0.297638,-0.18189 0.175984,0.18189 0.399213,-0.111024 0.320079,-0.167717 0.175984,0.222047 0.401575,-0.138189 0.328346,-0.197244 0.188976,0.204331 0.402756,-0.148819 0.346063,-0.232677 0.229134,0.179528 0.720472,0.121654 0.737008,0.220866 0.962598,0.950787 0.452362,0.336614 0.839764,0.628346 0.949606,1.22362 0.393307,-0.0885827 0.259843,-0.111024 0.109843,0.285827 0.679134,0.506693 0.716929,1.14331 0.579921,1.9252 -0.86811,0.0944882 -0.480709,0.197244 -1.05827,-0.479528 -0.466535,-0.544488 -0.466535,-0.292913 -0.584646,-0.962598 -0.411024,0.11811 -0.301181,0.155906 -0.162992,-0.255118l-0.232677 -0.41811 0.0744094 -0.0283465c-0.801969,-0.40748 -0.885827,-0.584646 -1.22953,-1.4563l-0.722835 -0.842126c-0.422835,0.140551 -0.381496,0.23622 -0.225591,-0.183071 -0.490157,-0.390945 -0.633071,-0.699213 -0.79252,-1.31575 0.622441,0.116929 1.13386,0.420472 1.5626,0.767717zm-9.69213 -1.91693l0.551575 0.458268c0.517323,0 0.464173,-0.13937 0.292913,0.323622 0.47126,-0.186614 0.360236,-0.216142 0.166535,0.239764 0.132283,0.164173 0.34252,0.180709 0.347244,0.801969 0.00708661,0.948425 0.0129921,0.498425 -0.298819,0.66378 -0.101575,0.217323 0.550394,0.388583 -0.441732,0.167717 -0.679134,0.35315 -0.661417,0.270472 -1.43622,0.179528 -0.392126,-0.695669 -0.892913,-2.07756 -0.805512,-2.8689 0.399213,-0.15 0.369685,-0.19252 0.814961,-0.186614 0.742913,0.00944882 0.36378,0 0.809055,0.220866zm-10.1114 9.86929c-0.912992,-0.196063 -0.928346,-0.812598 -0.790157,-1.74449 0.379134,-2.56535 0.770079,-2.56654 1.09724,-3.95079 0.73937,-3.12283 0.364961,-1.30157 1.45039,-3.46299 0.510236,-1.01575 1.46339,-1.87087 2.25236,-2.64685 0.493701,-0.485433 0.637795,-0.947244 1.23543,-0.76063 0.0744094,0.15 0.437008,-0.0106299 -0.159449,0.63189 -0.239764,0.258661 -0.281102,0.159449 -0.637795,0.577559 -2.38819,2.78976 -0.967323,1.35 -1.91102,2.75315 -0.970866,1.44449 -1.44803,2.87835 -1.91929,4.65354 -0.324803,1.22717 -0.0673228,2.95866 -0.617717,3.94961zm-45.4524 -15.978c0.764173,0.214961 0.670866,1.35945 0.911811,2.20748 0.647244,2.2748 1.75512,4.64055 1.81063,4.84016 0.0933071,0.337795 0.206693,1.08898 0.36378,1.40315 0.382677,0.765354 0.38622,0.159449 0.633071,0.888189l-0.576378 0.226772c-0.364961,-0.45 -0.768898,-1.5437 -1.16457,-2.14961 -1.2874,-1.9689 -2.23465,-4.93346 -1.97835,-7.41614zm22.4362 1.60039c-0.496063,-0.328346 -0.334252,-0.0413386 -0.376772,-1.04646l0.43937 -0.102756c0.129921,-0.231496 -0.340157,-0.194882 0.343701,-0.235039 0.16063,-0.238583 -0.381496,-0.274016 0.356693,-0.217323 -0.080315,-0.393307 -0.129921,-0.298819 0.252756,-0.153543 0.895276,-0.615354 2.07283,-0.349606 2.92677,0.347244 -0.0283465,1.0878 -0.243307,1.21654 -1.29803,1.49291 -0.779528,0.205512 -1.53425,0.320079 -2.39409,0.329528l-0.250394 -0.414567zm-18.1004 -1.67598l-0.0413386 -1.02047c0.069685,-0.0885827 0.252756,-1.04764 0.94252,-0.152362 0.377953,-0.172441 0.255118,-0.154724 0.0838583,0.185433 0.507874,0.530315 0.322441,0.960236 0.651969,2.33031 0.191339,0.798425 0.194882,1.53898 0.401575,2.36102 0.62126,2.47913 0.852756,2.29016 1.09016,3.05669 0.269291,0.86811 -0.0649606,0.970866 -0.141732,1.0748 -0.612992,-0.62126 -2.15433,-3.7748 -2.07756,-4.79528 -0.292913,-0.214961 -0.12874,0.486614 -0.40748,-0.607087 -0.151181,-0.596457 -0.0673228,-0.390945 0.0023622,-0.940157 -0.452362,-0.266929 -0.100394,0.262205 -0.27874,-0.344882 -0.145276,-0.49252 -0.0708661,-0.19252 0.0673228,-0.62126 -0.354331,-0.0377953 -0.253937,0.577559 -0.292913,-0.526772zm33.9402 -3.15354l0.542126 0.646063c1.1374,2.1437 0.977953,1.93819 1.67008,4.40906 0.34252,1.22126 1.63465,4.93228 -0.866929,4.65945 -0.205512,-0.670866 -0.303543,-1.71969 -0.500787,-2.22874 -0.35315,-0.908268 -0.27874,-0.112205 -0.474803,-0.861024 -0.177165,-0.674409 0.222047,-1.76102 -0.65315,-3.54213 -0.785433,-1.59803 -0.752362,-0.929528 -0.668504,-1.92638 0.069685,-0.949606 -0.279921,-0.735827 -0.341339,-1.72677 0.877559,0.140551 0.577559,0.3 1.29331,0.570472zm-30.4264 -6.14173c-0.349606,0.563386 -0.643701,0.669685 -0.888189,1.12677 -0.285827,0.533858 -0.147638,0.628346 -0.602362,1.15984 -2.42717,-0.722835 -0.238583,-5.59016 0.572835,-6.05551 0.617717,0.159449 1.97953,1.88504 2.11417,2.51575 -0.243307,0.575197 -0.63189,0.94252 -1.19646,1.25315zm18.3354 -2.27126c1.1126,-0.0377953 1.68189,0.659055 2.08228,1.64409 -1.09134,-0.211417 -2.12835,-0.465354 -2.08228,-1.64409zm3.80079 -1.50118c1.31811,0.243307 4.81535,4.05236 4.82717,5.39173 -1.10315,0.124016 -0.869291,-0.366142 -1.44213,-1.19055 -0.981496,-1.4126 -3.23858,-3.43583 -3.38504,-4.20118zm-7.4315 -0.17126c0.501969,-0.25748 0.551575,-0.31063 1.06772,0.0377953 -0.179528,0.774803 -0.84685,0.682677 -1.06772,-0.0377953zm-9.60354 0.55748c-0.454724,0.545669 -1.17165,0.716929 -1.94291,0.530315 -0.627165,-0.446457 -0.902362,-1.38425 -1.13858,-1.76929 -0.21378,-0.347244 -0.0212598,0.0531496 -0.316535,-0.426378 -0.825591,-1.33937 -0.0472441,-1.4752 1.28858,-1.23307 0.362598,0.435827 0.785433,1.16811 1.04528,1.45039 0.507874,0.550394 0.866929,0.572835 1.06417,1.44803zm3.46772 -4.01102l0.379134 -0.178346 0.28937 0.491339 1.53307 0.661417c0.827953,0.458268 0.947244,0.877559 0.618898,1.84488 -0.431102,0.179528 -3.5185,0.773622 -3.98504,0.698031 -0.0283465,-0.0177165 -1.8,-2.79213 -1.69488,-3.81024 0.628346,-0.18189 0.768898,-0.175984 1.44567,-0.0744094l0.987402 0.162992c0.0437008,0.011811 0.113386,0.0413386 0.147638,0.0519685 0.0354331,0.0106299 0.115748,0.113386 0.140551,0.0708661 0.0248031,-0.0448819 0.0944882,0.0507874 0.138189,0.0814961zm-6.27165 -4.53661c-0.207874,0.184252 -0.231496,0.532677 -0.956693,0.227953 0.115748,0.402756 0.177165,0.329528 -0.217323,0.186614 -0.146457,0.765354 -0.0992126,0.402756 -0.799606,0.798425 -0.370866,0.209055 -0.577559,0.350787 -0.985039,0.572835 -0.733465,0.401575 -1.14331,0.863386 -1.88268,1.16929 -0.514961,0.848031 -0.876378,0.487795 -1.05827,1.3937 0.0862205,0.522047 0.232677,0.500787 -0.238583,0.296457 0.132283,0.344882 0.197244,0.28937 -0.159449,0.196063 -0.13937,0.876378 -0.493701,0.162992 -0.940157,1.61811 -0.518504,1.69134 -0.414567,0.146457 -1.46339,3.44291l-0.543307 1.69843c-0.235039,0.614173 -0.426378,3.38268 -0.432283,4.15748 -0.023622,2.76496 0.455906,3.31063 -0.738189,3.47126 -0.76063,-1.05 -0.322441,-2.71654 -0.48189,-4.00039 -0.198425,-1.59449 -0.183071,-2.43543 0.422835,-3.81378 0.516142,-1.17283 0.253937,-2.35039 1.05945,-3.41457 1.32402,-1.75039 0.395669,-2.31969 1.66063,-2.63622 -0.0472441,-0.295276 -0.125197,-0.244488 0.151181,-0.220866 0.0212598,-0.620079 -0.101575,-0.35315 0.216142,-0.380315 -0.0909449,-0.329528 -0.157087,-0.262205 0.178346,-0.219685l0.141732 -0.237402c0.328346,-0.850394 0.232677,-0.0106299 0.499606,-1.21181 -0.688583,0.23622 -1.45157,0.61063 -1.78819,1.25551 -0.323622,0.616535 -0.683858,1.15157 -1.38898,1.36181 0.218504,0.850394 0.0531496,0.251575 -0.229134,0.362598 0.158268,0.41811 0.216142,0.349606 -0.196063,0.179528 -0.188976,0.582283 -0.264567,0.670866 -0.779528,1.00512 0.0413386,0.875197 -0.896457,2.18268 -1.30748,3.09331l-1.2189 3.17244c0.0661417,0.251575 -0.111024,7.26024 -0.223228,7.61339 0.50315,0.483071 0.320079,0.839764 0.218504,1.2685l0.00826772 1.52835c0.705118,0.783071 0.0129921,0.414567 0.591732,1.67717 1.82598,3.97677 1.93228,5.04685 4.72913,9.33425 0.507874,0.777165 1.33819,1.5189 1.89094,2.21457 0.402756,0.505512 0.572835,0.683858 1.01811,1.13268 0.458268,0.459449 0.372047,0.609449 0.866929,1.0878 1.25433,1.21772 3.16063,2.42126 4.28622,3.6189 0.809055,0.333071 0.884646,0.504331 1.60984,0.869291l1.14921 0.682677c1.07953,0.68622 1.53543,1.94764 1.85906,3.41102 -0.845669,0.376772 -1.71378,1.14803 -2.00551,2.12244 -0.244488,0.816142 -0.431102,3.03898 -0.0177165,3.75827 0.767717,1.1126 2.52874,0.755906 3.74528,1.71732l0.885827 0.119291c3.34724,0.198425 8.20748,-1.52362 8.98701,-0.654331 7.87559,13.898 2.22283,2.63858 2.23465,2.60906 0.837402,-0.394488 2.07165,-0.034252 2.7248,0.451181l2.71535 0.340157c0.360236,-0.498425 0.251575,-0.977953 1.00394,-1.14094 0.252756,-0.0555118 0.374409,-0.147638 0.598819,0.0625984 0.301181,0.281102 0.105118,-0.0732283 -0.0188976,0.350787l0.76063 0.512598c0.0330709,0.673228 -0.0023622,0.178346 -0.33189,0.91063l2.24409 0.948425c0.916535,0.23622 0.369685,-0.227953 0.904724,0.361417l8.13543 1.5378c0.0307087,0.0141732 0.0897638,0.057874 0.114567,0.069685 0.023622,0.011811 0.0755906,0.0448819 0.105118,0.0755906 0.555118,-0.103937 0.270472,-0.13937 0.88937,-0.0826772 0.947244,0.0862205 0.518504,0.127559 0.65315,0.287008 0.455906,-0.0649606 0.401575,-0.119291 0.909449,-0.0791339 1.1622,0.0909449 0.458268,0.0165354 0.670866,0.281102 0.498425,-0.011811 0.144094,-0.129921 0.729921,0.0507874 0.791339,0.243307 0.263386,0.0637795 0.584646,0.337795l2.32323 0.231496 0.334252 -1.05236c0.793701,-0.0614173 3.08031,0.785433 3.67087,1.12323 0.950787,-0.152362 1.9937,0.127559 2.98701,0.0212598 0.999213,-0.106299 1.6937,-0.191339 2.75079,-0.219685 4.10197,-0.106299 3.49843,-0.979134 4.89449,-1.05591 0.403937,-0.71811 2.2122,-1.65 3.04134,-2.90906 0.406299,-0.615354 0.848031,-1.09606 1.16575,-1.77638 0.344882,-0.735827 0.609449,-1.56142 1.16339,-2.04685 0.238583,-4.47638 2.13189,-2.74016 0.00472441,-14.1768 -0.549213,-2.95512 -3.26811,-8.24409 -5.21339,-10.6134 -3.69921,-4.50591 -9.70866,-9.10039 -15.8374,-6.8752 -1.26024,0.458268 -1.97126,0.329528 -3.12992,0.745276 -0.772441,0.276378 -2.11654,1.0937 -2.61378,1.1563 -0.574016,0.85748 -1.25315,1.48583 -2.00669,2.24055 -0.961417,0.96378 -0.655512,2.14252 -1.92283,2.09409l-0.288189 -4.46693c-0.609449,-1.5378 -0.787795,-3.58228 -1.5248,-5.05276 -0.772441,-1.5437 -0.63189,-1.97362 -0.92126,-2.58425 -0.477165,-1.00276 -0.226772,0.258661 -1.1752,-2.2122 -0.401575,-1.04528 -1.97244,-3.10748 -2.65984,-4.15276 -0.501969,-0.765354 -2.91969,-3.09685 -3.01299,-3.66378 -0.474803,0 -0.375591,0.0968504 -0.190157,-0.359055 -0.424016,0.205512 -0.312992,0.219685 -0.167717,-0.214961 -0.714567,-0.0637795 -0.372047,0.023622 -1.01339,-0.549213 -3.03543,-2.70827 -3.23622,-2.50157 -6,-4.35 -1.61339,-1.07953 -2.30906,-1.15984 -3.9626,-1.88976 -0.911811,-0.402756 -3.80079,-1.22953 -4.66299,-1.07126 -0.576378,0.0933071 -3.56575,0.115748 -4.37126,0.114567 -1.45512,-0.00354331 -2.21339,0.829134 -3.41457,0.655512z"/>
    <path id="_124107120" class="fil0" d="M178.808 68.55c0.84685,-0.116929 2.77441,-1.86969 2.83583,-1.94646 0.735827,-0.934252 2.59961,-3.59291 2.53465,-4.78583 -0.553937,0.485433 -0.818504,1.31102 -1.16339,2.04685 -0.317717,0.680315 -0.759449,1.16102 -1.16575,1.77638 -0.829134,1.25906 -2.6374,2.19094 -3.04134,2.90906z"/>
   </g>
   <path id="_124107288" class="fil0" d="M193.022 85.1244l5.41654 -3.87638 -0.206693 -2.95039 -15.0945 -0.788976 26.0079 -2.11299 -63.1134 0.109843 -30.9744 -0.0543307 -25.9819 1.87323 20.2335 0.908268c-4.14921,0.392126 -8.62677,0.282283 -12.8161,0.296457 -12.0201,0.0425197 -3.1748,3.43819 -8.4874,4.19528l-9.68622 2.4 114.703 0z"/>
   <path id="_124107336" class="fil1" d="M9.8126 136.987l0 -58.7469c16.3878,0 32.8547,-0.0389764 49.3594,-0.0944882 0.0200787,0.543307 -0.491339,1.0122 -3.10157,1.24016l-15.7866 2.40118 186.934 0 8.82756 -3.87756 -0.0129921 -0.10748c16.4126,0.0814961 32.7059,0.220866 48.8339,0.438189 10.8602,9.46417 -11.6953,49.0878 0,58.7469 23.3232,-6.21614 -30.8067,8.90197 -116.015,-1.28858 -18.6531,-2.2311 -42.1429,0.612992 -65.5264,0.0980315 -5.15197,-0.113386 -4.56732,0.829134 -9.88228,0.780709 -6.78307,-0.0625984 -13.6547,-0.664961 -21.0425,-1.04409 -6.12638,-0.314173 -0.961417,-1.67598 -7.8,-1.63346 -7.29331,0.0437008 -2.53346,2.61969 -10.6583,2.68346 -13.448,0.106299 -28.0925,0.239764 -44.1295,0.403937z"/>
   <path id="_124107384" class="fil2" d="M285.64 78.6874l-0.0637795 10.3783 0.0507874 3.49252 -0.0318898 27.6201 -0.0318898 1.89803 0.0129921 10.5047 -0.0295276 0.344882c0.862205,-0.33189 0.485433,-1.64291 0.485433,-2.24764 0,-2.08819 0.217323,-4.80118 -0.0153543,-6.74764l0.0425197 5.65984c0.801969,0.0271654 -0.947244,-0.114567 0.732283,-0.232677 0.168898,0.282283 -0.230315,1.17874 0.478346,1.27441 1.11142,-0.13937 0.127559,-2.10472 0.988583,-2.4626l0 -10.6217c-0.956693,0.15 -0.510236,0.607087 -0.54685,1.35236 -0.0165354,0.328346 0.422835,1.0937 -0.811417,1.20354l-0.0507874 -2.47559c-0.92126,0.122835 -0.668504,0.10748 -0.654331,0.569291 0.00826772,0.237402 0.0401575,0.445276 -0.11811,0.681496l-0.461811 -38.4319c0.679134,0.209055 0.480709,0.23622 0.445276,0.635433l0.178346 1.86969 2.01969 0.00354331 0 -4.97244c-36.9331,1.3311 -38.7886,-0.419291 -2.6185,0.703937z"/>
   <path id="_124107552" class="fil2" d="M12.0803 139.737l41.2465 0.0933071c-2.0563,-1.72087 -36.0803,0.977953 -40.9122,-0.454724 -0.720472,-3.97441 -1.1622,-21.5197 -0.346063,-25.5909l0.011811 25.9524z"/>
   <path id="_142042360" class="fil2" d="M182.414 83.1886l41.2465 0.0590551c-2.0563,-1.07953 -36.0803,0.611811 -40.9122,-0.285827 -4.04882,-0.506693 -0.346063,-1.22008 -0.334252,0.226772z"/>
   <path id="_124106088" class="fil2" d="M9.53504 126.254l0.898819 2.04449 0.682677 -0.0779528 0.183071 -5.69882 0.490157 9.81969 -0.0259843 -23.8299 0.0129921 -11.6941 -0.434646 -9.81024 -0.210236 7.63937c-0.0909449,-1.56614 -0.0649606,-3.2563 -0.0685039,-4.83898 -0.00944882,-4.5378 -0.796063,-1.19882 -0.972047,-3.20433l-0.556299 -3.65669 0 43.3075z"/>
   <path id="_142041472" class="fil3" d="M231.591 87.098l5.41654 -3.87756 -0.206693 -2.94921 -15.0957 -0.788976 26.0091 -2.11417 -63.1146 0.111024 -30.9732 -0.0555118 -25.9819 1.87323 20.2335 0.908268c-4.14921,0.393307 -8.62677,0.283465 -12.8161,0.297638 -12.0213,0.0413386 -3.1748,3.43819 -8.4874,4.19409l-9.68622 2.40118 114.703 0z"/>
   <g>
    <path id="_124104096" class="fil4 str0" d="M34.1055 84.1051c4.55079,0 8.19331,1.15394 10.924,3.47126 2.97402,2.51929 4.4563,5.57953 4.4563,9.17835 0,3.47244 -1.15394,6.39331 -3.47126,8.7437 -2.43543,2.44606 -6.40512,3.6626 -11.9091,3.6626l-4.71142 0 0 17.922c0,1.2815 0.497244,1.92638 1.49291,1.92638l2.23346 0 0 1.97953 -12.4063 0 0 -1.97953 1.73622 0c1.32283,0 1.97953,-0.644882 1.97953,-1.92638l0 -39.0083c0,-1.32402 -0.741732,-1.99016 -2.23346,-1.99016l-1.48228 0 0 -1.97953 13.3913 0zm-4.71142 23.0657l2.60433 0c8.35157,0 12.5339,-3.47126 12.5339,-10.4161 0,-3.05906 -1.01693,-5.66339 -3.03898,-7.81181 -2.11654,-1.9063 -4.74213,-2.85827 -7.88622,-2.85827 -2.80512,0 -4.21299,0.666142 -4.21299,1.99016l0 19.0961z"/>
   </g>
   <g>
    <path id="_1241040961" class="fil4 str0" d="M63.385 98.9882l0 7.87559c1.15394,-2.19094 2.47795,-3.90591 3.96969,-5.14488 2.14961,-1.82008 4.62638,-2.73071 7.44213,-2.73071 4.13858,0 6.20315,0.995669 6.20315,2.9752 0,0.909449 -0.243307,1.55551 -0.740551,1.92638 -0.667323,0.370866 -1.40787,0.561024 -2.23346,0.561024 -0.455906,0 -1.30276,-0.275197 -2.55118,-0.814961 -1.35591,-0.614173 -2.58307,-0.93189 -3.65315,-0.93189 -1.94764,0 -3.85276,1.18583 -5.70472,3.53622 -1.16457,1.40787 -2.0752,3.20669 -2.73189,5.39882l0 15.2008c0,1.45039 0.825591,2.16969 2.47795,2.16969l3.22795 0 0 1.97953 -15.6354 0 0 -1.97953 2.4874 0c1.98071,0 2.9752,-0.719291 2.9752,-2.16969l0 -20.4094c0,-1.97953 -0.994488,-2.9752 -2.9752,-2.9752l-2.4874 0 0 -1.99016c3.64134,0 6.95551,-0.825591 9.92953,-2.47677z"/>
   </g>
   <g>
    <path id="_12410409612" class="fil4 str0" d="M98.615 98.9882c4.38307,0 7.93937,1.65118 10.6701,4.96535 2.47795,3.14409 3.71575,6.9437 3.71575,11.4106 0,5.33622 -1.48228,9.46417 -4.4563,12.4075 -2.61496,2.47677 -5.91732,3.71575 -9.92953,3.71575 -4.25551,0 -7.65354,-1.23898 -10.1728,-3.71575 -2.81575,-2.85827 -4.21299,-6.9874 -4.21299,-12.4075 0,-5.04921 1.34409,-9.04016 4.02283,-11.9717 2.68819,-2.93268 6.15,-4.40433 10.363,-4.40433zm0 30.3283c2.81575,0 5.12362,-0.973228 6.94488,-2.91142 1.98898,-2.07402 2.98465,-5.74724 2.98465,-11.0409 0,-4.63583 -0.772441,-8.10827 -2.29724,-10.4268 -2.11654,-2.47677 -4.65709,-3.71575 -7.63228,-3.71575 -3.5563,0 -6.18189,1.54606 -7.87559,4.64764 -1.36535,2.4874 -2.04331,5.65276 -2.04331,9.49488 0,3.84331 0.677953,6.9874 2.04331,9.42165 1.6937,3.02717 4.31929,4.53071 7.87559,4.53071z"/>
   </g>
   <g>
    <path id="_124104096123" class="fil4 str0" d="M137.571 98.9882l0 29.0268c0,5.57835 -1.38661,9.30472 -4.16102,11.1673 -1.45039,0.995669 -3.0378,1.48228 -4.77402,1.48228 -1.45039,0 -2.73071,-0.412205 -3.84213,-1.2378 -0.91063,-0.784252 -1.36654,-1.60984 -1.36654,-2.47795 0,-0.740551 0.285827,-1.38661 0.86811,-1.92638 0.498425,-0.539764 1.1126,-0.804331 1.86378,-0.804331 0.698031,0 1.30157,0.307087 1.78937,0.93189 0.454724,0.539764 0.687402,1.13268 0.687402,1.79882l0 0.561024c0,0.94252 0.413386,1.4185 1.23898,1.4185 1.16457,0 2.04331,-0.91063 2.66693,-2.72008 0.370866,-1.29213 0.561024,-2.66811 0.561024,-4.15984l0 -25.3748c0,-2.14843 -0.804331,-3.2185 -2.42362,-3.2185l-2.28661 0 0 -1.99016c3.63071,0 6.68976,-0.825591 9.17835,-2.47677zm-1.99016 -15.3815c0.909449,0 1.6937,0.328346 2.35984,0.995669 0.582283,0.571654 0.86811,1.32283 0.86811,2.22283 0,0.91063 -0.307087,1.68307 -0.930709,2.29724 -0.667323,0.667323 -1.42913,0.994488 -2.29724,0.994488 -0.95315,0 -1.73622,-0.327165 -2.35039,-0.994488 -0.582283,-0.571654 -0.86811,-1.34409 -0.86811,-2.29724 0,-0.9 0.307087,-1.67244 0.92126,-2.28661 0.582283,-0.624803 1.34409,-0.93189 2.29724,-0.93189z"/>
   </g>
   <g>
    <path id="_1241040961234" class="fil4 str0" d="M162.87 98.9882c7.28386,0 11.5819,4.81654 12.9047,14.4496l-22.389 0c-0.127559,0.783071 -0.190157,1.59921 -0.190157,2.4248 0,5.25 1.90512,9.07205 5.70472,11.4744 1.36654,0.614173 2.94331,0.93189 4.72205,0.93189 2.06339,0 4.04291,-0.624803 5.94921,-1.86378 1.90512,-1.16339 3.40866,-2.66693 4.53071,-4.53071l1.1752 0.93189c-1.40787,2.60433 -3.36614,4.81654 -5.88661,6.6378 -1.94764,1.36535 -4.20236,2.04331 -6.76417,2.04331 -2.77323,0 -5.18622,-0.656693 -7.26142,-1.98071 -1.97953,-1.32283 -3.53622,-3.0378 -4.64764,-5.15433 -1.32283,-2.43543 -1.99016,-5.27244 -1.99016,-8.48976 0,-2.77441 0.518504,-5.31496 1.55669,-7.63228 1.32283,-3.06024 2.79449,-5.22992 4.40315,-6.51142 2.39291,-1.82008 5.12362,-2.73071 8.18268,-2.73071zm-9.24094 12.4063l17.4343 0c-0.539764,-6.78543 -3.27047,-10.1728 -8.19331,-10.1728 -1.89449,0 -3.67323,0.783071 -5.33504,2.36102 -1.60866,1.5248 -2.72008,3.3874 -3.34488,5.57835 -0.127559,0.497244 -0.307087,1.23898 -0.561024,2.23346z"/>
   </g>
   <g>
    <path id="_12410409612345" class="fil4 str0" d="M192.394 88.572l2.23346 0 0 11.9622 10.9252 0 0 1.92638 -10.9252 0 0 21.8917c0,2.94213 1.10197,4.40315 3.29291,4.40315 2.47677,0 4.94291,-1.32283 7.37835,-3.96969l1.2378 0.751181c-1.4811,2.30787 -3.14409,3.88583 -4.95354,4.71142 -1.32283,0.825591 -2.98583,1.23898 -4.96535,1.23898 -1.94764,0 -3.51378,-0.551575 -4.71024,-1.67362 -1.16457,-1.15394 -1.74685,-2.97402 -1.74685,-5.46142l0 -21.8917 -8.1189 0 0 -1.92638c4.17047,0 6.96496,-0.91063 8.37283,-2.72126 1.32402,-1.77756 1.97953,-4.85906 1.97953,-9.24094z"/>
   </g>
   <g>
    <path id="_124104096123456" class="fil4 str0" d="M225.645 98.9882c4.38307,0 7.93937,1.65118 10.6701,4.96535 2.47795,3.14409 3.71575,6.9437 3.71575,11.4106 0,5.33622 -1.48228,9.46417 -4.4563,12.4075 -2.61496,2.47677 -5.91732,3.71575 -9.92953,3.71575 -4.25551,0 -7.65354,-1.23898 -10.1728,-3.71575 -2.81575,-2.85827 -4.21299,-6.9874 -4.21299,-12.4075 0,-5.04921 1.34409,-9.04016 4.02283,-11.9717 2.68819,-2.93268 6.15,-4.40433 10.363,-4.40433zm0 30.3283c2.81575,0 5.12362,-0.973228 6.94488,-2.91142 1.98898,-2.07402 2.98465,-5.74724 2.98465,-11.0409 0,-4.63583 -0.772441,-8.10827 -2.29724,-10.4268 -2.11654,-2.47677 -4.65709,-3.71575 -7.63228,-3.71575 -3.5563,0 -6.18189,1.54606 -7.87559,4.64764 -1.36535,2.4874 -2.04331,5.65276 -2.04331,9.49488 0,3.84331 0.677953,6.9874 2.04331,9.42165 1.6937,3.02717 4.31929,4.53071 7.87559,4.53071z"/>
   </g>
   <g>
    <path id="_1241040961234567" class="fil4 str0" d="M253.93 98.9882l0 7.87559c1.15394,-2.19094 2.47795,-3.90591 3.96969,-5.14488 2.14961,-1.82008 4.62638,-2.73071 7.44213,-2.73071 4.13858,0 6.20315,0.995669 6.20315,2.9752 0,0.909449 -0.243307,1.55551 -0.740551,1.92638 -0.667323,0.370866 -1.40787,0.561024 -2.23346,0.561024 -0.455906,0 -1.30276,-0.275197 -2.55118,-0.814961 -1.35591,-0.614173 -2.58307,-0.93189 -3.65315,-0.93189 -1.94764,0 -3.85276,1.18583 -5.70472,3.53622 -1.16457,1.40787 -2.0752,3.20669 -2.73189,5.39882l0 15.2008c0,1.45039 0.825591,2.16969 2.47795,2.16969l3.22795 0 0 1.97953 -15.6354 0 0 -1.97953 2.4874 0c1.98071,0 2.9752,-0.719291 2.9752,-2.16969l0 -20.4094c0,-1.97953 -0.994488,-2.9752 -2.9752,-2.9752l-2.4874 0 0 -1.99016c3.64134,0 6.95551,-0.825591 9.92953,-2.47677z"/>
   </g>
   <path id="_12410409612345678" class="fil5" d="M34.1055 84.1051c4.55079,0 8.19331,1.15394 10.924,3.47126 2.97402,2.51929 4.4563,5.57953 4.4563,9.17835 0,3.47244 -1.15394,6.39331 -3.47126,8.7437 -2.43543,2.44606 -6.40512,3.6626 -11.9091,3.6626l-4.71142 0 0 17.922c0,1.2815 0.497244,1.92638 1.49291,1.92638l2.23346 0 0 1.97953 -12.4063 0 0 -1.97953 1.73622 0c1.32283,0 1.97953,-0.644882 1.97953,-1.92638l0 -39.0083c0,-1.32402 -0.741732,-1.99016 -2.23346,-1.99016l-1.48228 0 0 -1.97953 13.3913 0zm-4.71142 23.0657l2.60433 0c8.35157,0 12.5339,-3.47126 12.5339,-10.4161 0,-3.05906 -1.01693,-5.66339 -3.03898,-7.81181 -2.11654,-1.9063 -4.74213,-2.85827 -7.88622,-2.85827 -2.80512,0 -4.21299,0.666142 -4.21299,1.99016l0 19.0961z"/>
   <path id="_124104096123456789" class="fil5" d="M63.385 98.9882l0 7.87559c1.15394,-2.19094 2.47795,-3.90591 3.96969,-5.14488 2.14961,-1.82008 4.62638,-2.73071 7.44213,-2.73071 4.13858,0 6.20315,0.995669 6.20315,2.9752 0,0.909449 -0.243307,1.55551 -0.740551,1.92638 -0.667323,0.370866 -1.40787,0.561024 -2.23346,0.561024 -0.455906,0 -1.30276,-0.275197 -2.55118,-0.814961 -1.35591,-0.614173 -2.58307,-0.93189 -3.65315,-0.93189 -1.94764,0 -3.85276,1.18583 -5.70472,3.53622 -1.16457,1.40787 -2.0752,3.20669 -2.73189,5.39882l0 15.2008c0,1.45039 0.825591,2.16969 2.47795,2.16969l3.22795 0 0 1.97953 -15.6354 0 0 -1.97953 2.4874 0c1.98071,0 2.9752,-0.719291 2.9752,-2.16969l0 -20.4094c0,-1.97953 -0.994488,-2.9752 -2.9752,-2.9752l-2.4874 0 0 -1.99016c3.64134,0 6.95551,-0.825591 9.92953,-2.47677z"/>
   <path id="_12410409612345678910" class="fil5" d="M98.615 98.9882c4.38307,0 7.93937,1.65118 10.6701,4.96535 2.47795,3.14409 3.71575,6.9437 3.71575,11.4106 0,5.33622 -1.48228,9.46417 -4.4563,12.4075 -2.61496,2.47677 -5.91732,3.71575 -9.92953,3.71575 -4.25551,0 -7.65354,-1.23898 -10.1728,-3.71575 -2.81575,-2.85827 -4.21299,-6.9874 -4.21299,-12.4075 0,-5.04921 1.34409,-9.04016 4.02283,-11.9717 2.68819,-2.93268 6.15,-4.40433 10.363,-4.40433zm0 30.3283c2.81575,0 5.12362,-0.973228 6.94488,-2.91142 1.98898,-2.07402 2.98465,-5.74724 2.98465,-11.0409 0,-4.63583 -0.772441,-8.10827 -2.29724,-10.4268 -2.11654,-2.47677 -4.65709,-3.71575 -7.63228,-3.71575 -3.5563,0 -6.18189,1.54606 -7.87559,4.64764 -1.36535,2.4874 -2.04331,5.65276 -2.04331,9.49488 0,3.84331 0.677953,6.9874 2.04331,9.42165 1.6937,3.02717 4.31929,4.53071 7.87559,4.53071z"/>
   <path id="_1241040961234567891011" class="fil5" d="M137.571 98.9882l0 29.0268c0,5.57835 -1.38661,9.30472 -4.16102,11.1673 -1.45039,0.995669 -3.0378,1.48228 -4.77402,1.48228 -1.45039,0 -2.73071,-0.412205 -3.84213,-1.2378 -0.91063,-0.784252 -1.36654,-1.60984 -1.36654,-2.47795 0,-0.740551 0.285827,-1.38661 0.86811,-1.92638 0.498425,-0.539764 1.1126,-0.804331 1.86378,-0.804331 0.698031,0 1.30157,0.307087 1.78937,0.93189 0.454724,0.539764 0.687402,1.13268 0.687402,1.79882l0 0.561024c0,0.94252 0.413386,1.4185 1.23898,1.4185 1.16457,0 2.04331,-0.91063 2.66693,-2.72008 0.370866,-1.29213 0.561024,-2.66811 0.561024,-4.15984l0 -25.3748c0,-2.14843 -0.804331,-3.2185 -2.42362,-3.2185l-2.28661 0 0 -1.99016c3.63071,0 6.68976,-0.825591 9.17835,-2.47677zm-1.99016 -15.3815c0.909449,0 1.6937,0.328346 2.35984,0.995669 0.582283,0.571654 0.86811,1.32283 0.86811,2.22283 0,0.91063 -0.307087,1.68307 -0.930709,2.29724 -0.667323,0.667323 -1.42913,0.994488 -2.29724,0.994488 -0.95315,0 -1.73622,-0.327165 -2.35039,-0.994488 -0.582283,-0.571654 -0.86811,-1.34409 -0.86811,-2.29724 0,-0.9 0.307087,-1.67244 0.92126,-2.28661 0.582283,-0.624803 1.34409,-0.93189 2.29724,-0.93189z"/>
   <path id="_124104096123456789101112" class="fil5" d="M162.87 98.9882c7.28386,0 11.5819,4.81654 12.9047,14.4496l-22.389 0c-0.127559,0.783071 -0.190157,1.59921 -0.190157,2.4248 0,5.25 1.90512,9.07205 5.70472,11.4744 1.36654,0.614173 2.94331,0.93189 4.72205,0.93189 2.06339,0 4.04291,-0.624803 5.94921,-1.86378 1.90512,-1.16339 3.40866,-2.66693 4.53071,-4.53071l1.1752 0.93189c-1.40787,2.60433 -3.36614,4.81654 -5.88661,6.6378 -1.94764,1.36535 -4.20236,2.04331 -6.76417,2.04331 -2.77323,0 -5.18622,-0.656693 -7.26142,-1.98071 -1.97953,-1.32283 -3.53622,-3.0378 -4.64764,-5.15433 -1.32283,-2.43543 -1.99016,-5.27244 -1.99016,-8.48976 0,-2.77441 0.518504,-5.31496 1.55669,-7.63228 1.32283,-3.06024 2.79449,-5.22992 4.40315,-6.51142 2.39291,-1.82008 5.12362,-2.73071 8.18268,-2.73071zm-9.24094 12.4063l17.4343 0c-0.539764,-6.78543 -3.27047,-10.1728 -8.19331,-10.1728 -1.89449,0 -3.67323,0.783071 -5.33504,2.36102 -1.60866,1.5248 -2.72008,3.3874 -3.34488,5.57835 -0.127559,0.497244 -0.307087,1.23898 -0.561024,2.23346z"/>
   <path id="_12410409612345678910111213" class="fil5" d="M192.394 88.572l2.23346 0 0 11.9622 10.9252 0 0 1.92638 -10.9252 0 0 21.8917c0,2.94213 1.10197,4.40315 3.29291,4.40315 2.47677,0 4.94291,-1.32283 7.37835,-3.96969l1.2378 0.751181c-1.4811,2.30787 -3.14409,3.88583 -4.95354,4.71142 -1.32283,0.825591 -2.98583,1.23898 -4.96535,1.23898 -1.94764,0 -3.51378,-0.551575 -4.71024,-1.67362 -1.16457,-1.15394 -1.74685,-2.97402 -1.74685,-5.46142l0 -21.8917 -8.1189 0 0 -1.92638c4.17047,0 6.96496,-0.91063 8.37283,-2.72126 1.32402,-1.77756 1.97953,-4.85906 1.97953,-9.24094z"/>
   <path id="_1241040961234567891011121314" class="fil5" d="M225.645 98.9882c4.38307,0 7.93937,1.65118 10.6701,4.96535 2.47795,3.14409 3.71575,6.9437 3.71575,11.4106 0,5.33622 -1.48228,9.46417 -4.4563,12.4075 -2.61496,2.47677 -5.91732,3.71575 -9.92953,3.71575 -4.25551,0 -7.65354,-1.23898 -10.1728,-3.71575 -2.81575,-2.85827 -4.21299,-6.9874 -4.21299,-12.4075 0,-5.04921 1.34409,-9.04016 4.02283,-11.9717 2.68819,-2.93268 6.15,-4.40433 10.363,-4.40433zm0 30.3283c2.81575,0 5.12362,-0.973228 6.94488,-2.91142 1.98898,-2.07402 2.98465,-5.74724 2.98465,-11.0409 0,-4.63583 -0.772441,-8.10827 -2.29724,-10.4268 -2.11654,-2.47677 -4.65709,-3.71575 -7.63228,-3.71575 -3.5563,0 -6.18189,1.54606 -7.87559,4.64764 -1.36535,2.4874 -2.04331,5.65276 -2.04331,9.49488 0,3.84331 0.677953,6.9874 2.04331,9.42165 1.6937,3.02717 4.31929,4.53071 7.87559,4.53071z"/>
   <path id="_124104096123456789101112131415" class="fil5" d="M253.93 98.9882l0 7.87559c1.15394,-2.19094 2.47795,-3.90591 3.96969,-5.14488 2.14961,-1.82008 4.62638,-2.73071 7.44213,-2.73071 4.13858,0 6.20315,0.995669 6.20315,2.9752 0,0.909449 -0.243307,1.55551 -0.740551,1.92638 -0.667323,0.370866 -1.40787,0.561024 -2.23346,0.561024 -0.455906,0 -1.30276,-0.275197 -2.55118,-0.814961 -1.35591,-0.614173 -2.58307,-0.93189 -3.65315,-0.93189 -1.94764,0 -3.85276,1.18583 -5.70472,3.53622 -1.16457,1.40787 -2.0752,3.20669 -2.73189,5.39882l0 15.2008c0,1.45039 0.825591,2.16969 2.47795,2.16969l3.22795 0 0 1.97953 -15.6354 0 0 -1.97953 2.4874 0c1.98071,0 2.9752,-0.719291 2.9752,-2.16969l0 -20.4094c0,-1.97953 -0.994488,-2.9752 -2.9752,-2.9752l-2.4874 0 0 -1.99016c3.64134,0 6.95551,-0.825591 9.92953,-2.47677z"/>
  </g>
 </g>
</svg>
