<?xml version="1.0" encoding="UTF-8"?>
<!DOCTYPE svg PUBLIC "-//W3C//DTD SVG 1.1//EN" "http://www.w3.org/Graphics/SVG/1.1/DTD/svg11.dtd">
<!-- Creator: CorelDRAW -->
<svg xmlns="http://www.w3.org/2000/svg" xml:space="preserve" width="3508px" height="1772px" style="shape-rendering:geometricPrecision; text-rendering:geometricPrecision; image-rendering:optimizeQuality; fill-rule:evenodd; clip-rule:evenodd"
viewBox="0 0 3508 1771.72"
 xmlns:xlink="http://www.w3.org/1999/xlink">
 <defs>
  <style type="text/css">
   <![CDATA[
    .str0 {stroke:#383431;stroke-width:2.36229}
    .str2 {stroke:#AAA9A9;stroke-width:2.36229;stroke-opacity:0.501961}
    .str5 {stroke:white;stroke-width:2.36229}
    .str1 {stroke:#383431;stroke-width:15.1009;stroke-opacity:0.380392}
    .str3 {stroke:#AAA9A9;stroke-width:15.1104;stroke-opacity:0.501961}
    .str6 {stroke:#DA251D;stroke-width:15.1104}
    .str4 {stroke:white;stroke-width:15.1104}
    .fil6 {fill:none;fill-rule:nonzero}
    .fil1 {fill:none;fill-rule:nonzero}
    .fil4 {fill:none;fill-rule:nonzero}
    .fil0 {fill:#383431;fill-rule:nonzero}
    .fil7 {fill:#DA251D;fill-rule:nonzero}
    .fil5 {fill:white;fill-rule:nonzero}
    .fil2 {fill:#383431;fill-rule:nonzero;fill-opacity:0.380392}
    .fil3 {fill:#838281;fill-rule:nonzero;fill-opacity:0.501961}
   ]]>
  </style>
 </defs>
 <g id="Layer_x0020_1">
  <metadata id="CorelCorpID_0Corel-Layer"/>
  <g id="_149565808">
   <line id="_149566384" class="fil0 str0" x1="3134.16" y1="1543.96" x2="3134.16" y2= "1543.96" />
   <line id="_149563936" class="fil0 str0" x1="3113.96" y1="741.26" x2="3113.96" y2= "741.26" />
   <line id="_149568904" class="fil0 str0" x1="2127.06" y1="766.055" x2="2127.06" y2= "766.055" />
   <line id="_149546872" class="fil0 str0" x1="2719.12" y1="1543.96" x2="2719.12" y2= "1543.96" />
   <line id="_149547568" class="fil0 str0" x1="2475.09" y1="741.26" x2="2475.09" y2= "741.26" />
   <line id="_149565064" class="fil0 str0" x1="1468.99" y1="766.055" x2="1468.99" y2= "766.055" />
   <line id="_149548048" class="fil0 str0" x1="1854.14" y1="741.26" x2="1854.14" y2= "741.26" />
   <path id="_149565880" class="fil0 str0" d="M1702.21 1419.29l147.702 0c73.1436,0 131.096,-22.8587 174.011,-68.5761 43.0728,-45.7174 64.6878,-109.02 64.6878,-190.082 0,-82.1155 -21.6149,-144.186 -64.6878,-186.561 -42.9145,-42.5531 -100.241,-63.8291 -172.133,-63.8291l-149.58 0 0 509.047z"/>
   <line id="_149564776" class="fil0 str0" x1="155.324" y1="766.055" x2="155.324" y2= "766.055" />
   <line id="_149552536" class="fil0 str0" x1="608.605" y1="1543.96" x2="608.605" y2= "1543.96" />
   <line id="_149566432" class="fil0 str0" x1="608.605" y1="741.26" x2="608.605" y2= "741.26" />
   <g>
    <path id="_149564728" class="fil1 str1" d="M238.337 785.571l214.267 0 387.812 583.778 0 0 0 -583.778 49.1049 0 89.0394 0 63.359 0 0 458.407c0,61.8943 16.1344,110.776 48.2427,146.825 32.4201,36.0462 78.9394,54.1567 139.868,54.1567 62.6503,0 109.641,-17.0534 140.808,-50.9912 31.4846,-34.2875 47.3037,-85.1062 47.3037,-152.452l0 -455.946 92.7943 0 59.6029 0 263.992 0c116.22,0 207.219,33.4087 273.003,100.403 25.3651,25.573 45.852,55.4465 61.4833,89.617l0 -190.02 534.257 0 0 124.67 -381.862 0 0 177.241 367.607 0 0 124.667 -367.607 0 0 207.137 377.611 0c-20.4007,-35.6257 -30.6176,-77.704 -30.6176,-126.29l0 0 152.398 0 0 0c4.22968,46.947 21.772,82.4663 52.3141,106.557 30.8562,24.0894 76.4342,36.0462 136.735,36.0462 52.6283,0 94.1349,-10.5512 124.362,-31.4728 30.2326,-21.2771 45.4233,-49.0612 45.4233,-83.3463 0,-21.9823 -7.6739,-40.9716 -22.867,-56.6205 -15.3478,-16.1793 -43.5429,-27.4333 -84.5782,-33.5859l-164.146 -25.1454c-67.3524,-10.0232 -120.447,-32.3516 -159.292,-66.9934 -38.8455,-34.9914 -58.2659,-82.6447 -58.2659,-142.779 0,-73.6763 26.4718,-132.933 79.4095,-177.595 52.9401,-44.6638 128.435,-66.9957 226.643,-66.9957 96.0129,0 171.036,21.1 224.759,63.3011 53.8826,42.2011 82.5443,103.567 85.8314,183.926l0 0 -152.398 0 0 0c-1.87684,-44.6614 -16.9164,-78.0713 -45.4209,-100.403 -28.3487,-22.6839 -69.6982,-33.9343 -123.891,-33.9343 -39.3179,0 -72.2069,9.49404 -98.5205,28.3097 -26.3147,18.6373 -39.4715,43.7803 -39.4715,75.7834 0,24.2654 8.92945,44.841 26.6277,61.1927 17.6995,16.177 48.3986,27.4285 91.7832,33.5835l173.861 27.2549c64.8425,10.3752 113.867,32.3527 146.916,66.4689 33.3603,33.9343 49.9636,81.5864 49.9636,142.603 0,77.0142 -28.9747,137.679 -86.7716,182.343 -57.7981,44.6603 -144.57,66.9934 -260.158,66.9934 -101.339,0 -180.283,-22.3331 -236.824,-66.9934 -12.3985,-9.92634 -23.4386,-20.722 -33.1087,-32.3775l0 94.84 -550.7 0 0 -189.763c-15.4376,32.1141 -35.6115,61.201 -60.5431,87.2476 -65.4709,68.4025 -154.905,102.515 -268.46,102.515l-329.078 0 0 -88.0614c-9.44798,11.9178 -20.0133,22.6957 -31.7126,32.3185 -60.927,50.116 -150.204,75.2614 -267.989,75.2614 -98.9138,0 -176.469,-25.3167 -232.674,-76.0929l0 56.5745 -204.712 0 -397.525 -595.558 0.158273 0 0 595.558 -138.144 0 0 -758.386zm991.693 -44.3095l0 0m72.0487 802.695l0 0m-488.68 -777.904l0 0"/>
    <path id="_1495647281" class="fil2" d="M238.337 785.571l214.267 0 387.812 583.778 0 0 0 -583.778 49.1049 0 89.0394 0 63.359 0 0 458.407c0,61.8943 16.1344,110.776 48.2427,146.825 32.4201,36.0462 78.9394,54.1567 139.868,54.1567 62.6503,0 109.641,-17.0534 140.808,-50.9912 31.4846,-34.2875 47.3037,-85.1062 47.3037,-152.452l0 -455.946 92.7943 0 59.6029 0 263.992 0c116.22,0 207.219,33.4087 273.003,100.403 25.3651,25.573 45.852,55.4465 61.4833,89.617l0 -190.02 534.257 0 0 124.67 -381.862 0 0 177.241 367.607 0 0 124.667 -367.607 0 0 207.137 377.611 0c-20.4007,-35.6257 -30.6176,-77.704 -30.6176,-126.29l0 0 152.398 0 0 0c4.22968,46.947 21.772,82.4663 52.3141,106.557 30.8562,24.0894 76.4342,36.0462 136.735,36.0462 52.6283,0 94.1349,-10.5512 124.362,-31.4728 30.2326,-21.2771 45.4233,-49.0612 45.4233,-83.3463 0,-21.9823 -7.6739,-40.9716 -22.867,-56.6205 -15.3478,-16.1793 -43.5429,-27.4333 -84.5782,-33.5859l-164.146 -25.1454c-67.3524,-10.0232 -120.447,-32.3516 -159.292,-66.9934 -38.8455,-34.9914 -58.2659,-82.6447 -58.2659,-142.779 0,-73.6763 26.4718,-132.933 79.4095,-177.595 52.9401,-44.6638 128.435,-66.9957 226.643,-66.9957 96.0129,0 171.036,21.1 224.759,63.3011 53.8826,42.2011 82.5443,103.567 85.8314,183.926l0 0 -152.398 0 0 0c-1.87684,-44.6614 -16.9164,-78.0713 -45.4209,-100.403 -28.3487,-22.6839 -69.6982,-33.9343 -123.891,-33.9343 -39.3179,0 -72.2069,9.49404 -98.5205,28.3097 -26.3147,18.6373 -39.4715,43.7803 -39.4715,75.7834 0,24.2654 8.92945,44.841 26.6277,61.1927 17.6995,16.177 48.3986,27.4285 91.7832,33.5835l173.861 27.2549c64.8425,10.3752 113.867,32.3527 146.916,66.4689 33.3603,33.9343 49.9636,81.5864 49.9636,142.603 0,77.0142 -28.9747,137.679 -86.7716,182.343 -57.7981,44.6603 -144.57,66.9934 -260.158,66.9934 -101.339,0 -180.283,-22.3331 -236.824,-66.9934 -12.3985,-9.92634 -23.4386,-20.722 -33.1087,-32.3775l0 94.84 -550.7 0 0 -189.763c-15.4376,32.1141 -35.6115,61.201 -60.5431,87.2476 -65.4709,68.4025 -154.905,102.515 -268.46,102.515l-329.078 0 0 -88.0614c-9.44798,11.9178 -20.0133,22.6957 -31.7126,32.3185 -60.927,50.116 -150.204,75.2614 -267.989,75.2614 -98.9138,0 -176.469,-25.3167 -232.674,-76.0929l0 56.5745 -204.712 0 -397.525 -595.558 0.158273 0 0 595.558 -138.144 0 0 -758.386zm991.693 -44.3095l0 0m72.0487 802.695l0 0m-488.68 -777.904l0 0"/>
   </g>
   <g id="_128107960">
    <line id="_149547424" class="fil3 str2" x1="3093.48" y1="1509.7" x2="3093.48" y2= "1509.7" />
    <line id="_149557624" class="fil3 str2" x1="3073.27" y1="706.999" x2="3073.27" y2= "706.999" />
    <g>
     <path id="_149563960" class="fil4 str3" d="M2627.72 1258.74l152.401 0 0 0c4.22968,46.947 21.7709,82.4675 52.3129,106.557 30.8562,24.0906 76.4342,36.045 136.736,36.045 52.6259,0 94.1325,-10.5476 124.363,-31.4728 30.229,-21.276 45.4209,-49.06 45.4209,-83.3475 0,-21.9799 -7.6739,-40.9692 -22.867,-56.6182 -15.349,-16.1781 -43.5417,-27.4333 -84.5782,-33.587l-164.147 -25.143c-67.3501,-10.0244 -120.446,-32.3539 -159.289,-66.9945 -38.8443,-34.9914 -58.2659,-82.6447 -58.2659,-142.779 0,-73.6763 26.4706,-132.934 79.4084,-177.596 52.9401,-44.6638 128.435,-66.9934 226.643,-66.9934 96.0129,0 171.037,21.0988 224.76,63.2999 53.8803,42.2011 82.5419,103.567 85.8314,183.926l0 0 -152.398 0 0 0c-1.88038,-44.6626 -16.9164,-78.0713 -45.4221,-100.403 -28.3487,-22.6827 -69.6982,-33.9355 -123.893,-33.9355 -39.3144,0 -72.2057,9.49404 -98.5181,28.3109 -26.3147,18.6373 -39.4715,43.7815 -39.4715,75.7834 0,24.2654 8.92945,44.8398 26.6277,61.1927 17.6983,16.1758 48.3986,27.4297 91.7832,33.5847l173.859 27.2549c64.8448,10.374 113.868,32.3527 146.916,66.4666 33.3614,33.9355 49.9648,81.5864 49.9648,142.604 0,77.0142 -28.9758,137.679 -86.7728,182.343 -57.797,44.6614 -144.567,66.9934 -260.157,66.9934 -101.339,0 -180.28,-22.3319 -236.824,-66.9934 -56.2272,-45.0158 -84.4223,-107.789 -84.4223,-188.498l0 0z"/>
     <path id="_1495639601" class="fil3" d="M2627.72 1258.74l152.401 0 0 0c4.22968,46.947 21.7709,82.4675 52.3129,106.557 30.8562,24.0906 76.4342,36.045 136.736,36.045 52.6259,0 94.1325,-10.5476 124.363,-31.4728 30.229,-21.276 45.4209,-49.06 45.4209,-83.3475 0,-21.9799 -7.6739,-40.9692 -22.867,-56.6182 -15.349,-16.1781 -43.5417,-27.4333 -84.5782,-33.587l-164.147 -25.143c-67.3501,-10.0244 -120.446,-32.3539 -159.289,-66.9945 -38.8443,-34.9914 -58.2659,-82.6447 -58.2659,-142.779 0,-73.6763 26.4706,-132.934 79.4084,-177.596 52.9401,-44.6638 128.435,-66.9934 226.643,-66.9934 96.0129,0 171.037,21.0988 224.76,63.2999 53.8803,42.2011 82.5419,103.567 85.8314,183.926l0 0 -152.398 0 0 0c-1.88038,-44.6626 -16.9164,-78.0713 -45.4221,-100.403 -28.3487,-22.6827 -69.6982,-33.9355 -123.893,-33.9355 -39.3144,0 -72.2057,9.49404 -98.5181,28.3109 -26.3147,18.6373 -39.4715,43.7815 -39.4715,75.7834 0,24.2654 8.92945,44.8398 26.6277,61.1927 17.6983,16.1758 48.3986,27.4297 91.7832,33.5847l173.859 27.2549c64.8448,10.374 113.868,32.3527 146.916,66.4666 33.3614,33.9355 49.9648,81.5864 49.9648,142.604 0,77.0142 -28.9758,137.679 -86.7728,182.343 -57.797,44.6614 -144.567,66.9934 -260.157,66.9934 -101.339,0 -180.28,-22.3319 -236.824,-66.9934 -56.2272,-45.0158 -84.4223,-107.789 -84.4223,-188.498l0 0z"/>
    </g>
    <line class="fil3 str2" x1="2086.38" y1="731.794" x2="2086.38" y2= "731.794" />
    <line class="fil3 str2" x1="2678.43" y1="1509.7" x2="2678.43" y2= "1509.7" />
    <line class="fil3 str2" x1="2434.41" y1="706.999" x2="2434.41" y2= "706.999" />
    <g>
     <polygon class="fil4 str3" points="2128.33,1509.7 2128.33,751.31 2662.59,751.31 2662.59,875.979 2280.73,875.979 2280.73,1053.22 2648.33,1053.22 2648.33,1177.89 2280.73,1177.89 2280.73,1385.03 2679.03,1385.03 2679.03,1509.7 "/>
     <polygon id="1" class="fil3" points="2128.33,1509.7 2128.33,751.31 2662.59,751.31 2662.59,875.979 2280.73,875.979 2280.73,1053.22 2648.33,1053.22 2648.33,1177.89 2280.73,1177.89 2280.73,1385.03 2679.03,1385.03 2679.03,1509.7 "/>
    </g>
    <line class="fil3 str2" x1="1428.3" y1="731.794" x2="1428.3" y2= "731.794" />
    <line class="fil3 str2" x1="1813.45" y1="706.999" x2="1813.45" y2= "706.999" />
    <path class="fil3 str2" d="M1661.52 1385.03l147.703 0c73.1436,0 131.096,-22.8587 174.01,-68.5761 43.0728,-45.7174 64.6878,-109.02 64.6878,-190.082 0,-82.1155 -21.6149,-144.186 -64.6878,-186.561 -42.9134,-42.5531 -100.241,-63.8291 -172.132,-63.8291l-149.581 0 0 509.047z"/>
    <g>
     <path class="fil4 str3" d="M1470.25 1509.7l0 -758.386 323.594 0c116.219,0 207.219,33.4087 273.003,100.404 66.098,66.6402 99.1453,162.474 99.1453,287.493 0,110.25 -32.7342,199.573 -98.2063,267.975 -65.4709,68.4025 -154.905,102.514 -268.46,102.514l-329.075 0z"/>
     <path id="1" class="fil3" d="M1470.25 1509.7l0 -758.386 323.594 0c116.219,0 207.219,33.4087 273.003,100.404 66.098,66.6402 99.1453,162.474 99.1453,287.493 0,110.25 -32.7342,199.573 -98.2063,267.975 -65.4709,68.4025 -154.905,102.514 -268.46,102.514l-329.075 0z"/>
    </g>
    <line class="fil3 str2" x1="114.64" y1="731.794" x2="114.64" y2= "731.794" />
    <line class="fil3 str2" x1="567.92" y1="1509.7" x2="567.92" y2= "1509.7" />
    <line class="fil3 str2" x1="567.92" y1="706.999" x2="567.92" y2= "706.999" />
    <g>
     <polygon class="fil4 str3" points="197.652,751.31 411.92,751.31 799.73,1335.09 799.73,1335.09 799.73,751.31 937.875,751.31 937.875,1509.7 733.163,1509.7 335.639,914.136 335.798,914.136 335.798,1509.7 197.652,1509.7 "/>
     <polygon id="1" class="fil3" points="197.652,751.31 411.92,751.31 799.73,1335.09 799.73,1335.09 799.73,751.31 937.875,751.31 937.875,1509.7 733.163,1509.7 335.639,914.136 335.798,914.136 335.798,1509.7 197.652,1509.7 "/>
    </g>
    <g>
     <path class="fil4 str3" d="M848.837 751.31l152.398 0 0 458.407c0,61.8943 16.1321,110.777 48.2415,146.825 32.4224,36.0474 78.9406,54.1579 139.868,54.1579 62.6515,0 109.641,-17.0557 140.809,-50.9936 31.4846,-34.2863 47.3025,-85.105 47.3025,-152.449l0 -455.947 152.398 0 0 458.936c0,112.36 -30.3873,193.596 -91.3143,243.708 -60.9282,50.1136 -150.206,75.2602 -267.99,75.2602 -101.651,0 -180.747,-26.7281 -237.292,-80.358 -56.2284,-53.6299 -84.4211,-122.91 -84.4211,-208.191l0 -489.355zm340.508 -44.3106l0 0m72.0498 802.697l0 0m-488.68 -777.902l0 0"/>
     <path id="1" class="fil3" d="M848.837 751.31l152.398 0 0 458.407c0,61.8943 16.1321,110.777 48.2415,146.825 32.4224,36.0474 78.9406,54.1579 139.868,54.1579 62.6515,0 109.641,-17.0557 140.809,-50.9936 31.4846,-34.2863 47.3025,-85.105 47.3025,-152.449l0 -455.947 152.398 0 0 458.936c0,112.36 -30.3873,193.596 -91.3143,243.708 -60.9282,50.1136 -150.206,75.2602 -267.99,75.2602 -101.651,0 -180.747,-26.7281 -237.292,-80.358 -56.2284,-53.6299 -84.4211,-122.91 -84.4211,-208.191l0 -489.355zm340.508 -44.3106l0 0m72.0498 802.697l0 0m-488.68 -777.902l0 0"/>
    </g>
   </g>
   <g>
    <path class="fil5" d="M178.727 1622.05l0 -61.1443 12.017 0 25.0273 40.8298 0 -40.8298 11.4713 0 0 61.1443 -12.3997 0 -24.6422 -39.8731 0 39.8731 -11.4736 0zm70.2403 -30.7759l-10.6327 -1.9229c1.19178,-4.28519 3.2446,-7.44594 6.16085,-9.5094 2.93514,-2.04929 7.26286,-3.08869 13.015,-3.08869 5.23601,0 9.12316,0.627188 11.6839,1.86503 2.55009,1.23902 4.35724,2.80168 5.39783,4.70922 1.03941,1.90755 1.5662,5.39665 1.5662,10.4921l-0.129926 13.6836c0,3.8836 0.187802,6.76087 0.570493,8.61173 0.369698,1.83432 1.08075,3.82927 2.10598,5.93525l-11.6012 0c-0.297648,-0.783099 -0.683883,-1.93826 -1.12327,-3.45839 -0.187802,-0.700419 -0.328358,-1.15516 -0.413401,-1.38076 -2.01031,1.95007 -4.14346,3.4017 -6.4207,4.38441 -2.27843,0.967358 -4.71277,1.45281 -7.3042,1.45281 -4.55686,0 -8.15699,-1.23902 -10.7756,-3.70407 -2.63277,-2.47686 -3.94384,-5.60689 -3.94384,-9.39483 0,-2.49222 0.596478,-4.72458 1.79298,-6.68882 1.19532,-1.96424 2.87727,-3.45957 5.02577,-4.49898 2.1485,-1.03941 5.26672,-1.95361 9.32632,-2.73317 5.46516,-1.0276 9.2649,-1.99495 11.3744,-2.87727l0 -1.16579c0,-2.26307 -0.5575,-3.85762 -1.6666,-4.82852 -1.11146,-0.950822 -3.20208,-1.43627 -6.29078,-1.43627 -2.09535,0 -3.71942,0.41222 -4.88521,1.23784 -1.16579,0.810265 -2.10598,2.25126 -2.83239,4.3159zm15.675 9.5094c-1.49769,0.497262 -3.87534,1.09256 -7.13175,1.79298 -3.24933,0.695694 -5.37067,1.37958 -6.37936,2.03275 -1.52486,1.09728 -2.29378,2.46505 -2.29378,4.13164 0,1.65124 0.611833,3.05798 1.83904,4.25448 1.22248,1.1965 2.77451,1.79652 4.6667,1.79652 2.12134,0 4.13164,-0.699238 6.051,-2.07881 1.42564,-1.05594 2.35048,-2.35166 2.78986,-3.88833 0.313003,-0.996886 0.458284,-2.90444 0.458284,-5.70965l0 -2.33158zm-15.7624 -28.9841l-5.33641 0c-0.0307098,-0.642543 -0.0413401,-1.13862 -0.0413401,-1.5095 0,-2.91979 0.711049,-5.16751 2.12134,-6.73489 1.4221,-1.56738 3.2446,-2.35048 5.46516,-2.35048 0.967358,0 1.87684,0.10276 2.71781,0.313003 0.82562,0.203157 2.35048,0.799635 4.55568,1.79652 2.22173,0.982712 3.94502,1.47879 5.19467,1.47879 0.898851,0 1.63943,-0.282294 2.23591,-0.839794 0.600022,-0.555138 0.982712,-1.49533 1.1398,-2.79105l5.42382 0c-0.0271663,3.74659 -0.726404,6.43724 -2.10716,8.04596 -1.36777,1.60872 -3.14539,2.42017 -5.30806,2.42017 -0.955546,0 -1.88038,-0.100397 -2.8064,-0.29883 -0.626007,-0.157092 -2.23591,-0.726404 -4.78127,-1.70794 -2.56427,-0.970901 -4.42929,-1.45281 -5.59508,-1.45281 -0.883496,0 -1.58273,0.271663 -2.08,0.810265 -0.511436,0.542145 -0.767744,1.47879 -0.798454,2.82057zm36.1194 27.4746c0,-3.88715 0.967358,-7.65972 2.87491,-11.3024 1.9229,-3.63084 4.63954,-6.42188 8.1558,-8.32943 3.51745,-1.92172 7.44594,-2.88908 11.7878,-2.88908 6.69355,0 12.1859,2.17449 16.4746,6.53173 4.28401,4.35724 6.41716,9.85429 6.41716,16.5006 0,6.68882 -2.16386,12.2426 -6.47504,16.6577 -4.33008,4.41039 -9.76571,6.60496 -16.3281,6.60496 -4.07495,0 -7.93139,-0.914206 -11.6201,-2.74852 -3.68399,-1.83786 -6.48921,-4.52969 -8.41211,-8.07194 -1.90755,-3.54343 -2.87491,-7.85934 -2.87491,-12.9536zm12.0134 0.626007c0,4.39976 1.03941,7.76012 3.13476,10.0905 2.07881,2.3363 4.65489,3.50564 7.71288,3.50564 3.06153,0 5.62579,-1.16933 7.69043,-3.50564 2.07527,-2.3304 3.11468,-5.72147 3.11468,-10.1779 0,-4.32653 -1.03941,-7.67154 -3.11468,-10.0067 -2.06464,-2.33512 -4.62891,-3.50091 -7.69043,-3.50091 -3.05798,0 -5.63406,1.16579 -7.71288,3.50091 -2.09535,2.33512 -3.13476,5.71084 -3.13476,10.0941zm92.2498 8.05777l11.6874 1.94889c-1.5095,4.28519 -3.87179,7.54515 -7.1164,9.78106 -3.23397,2.24772 -7.28884,3.36036 -12.1587,3.36036 -7.70225,0 -13.3965,-2.50757 -17.0971,-7.54515 -2.91979,-4.02888 -4.38323,-9.12789 -4.38323,-15.2628 0,-7.34554 1.91818,-13.0942 5.76399,-17.253 3.82927,-4.15881 8.68378,-6.23408 14.5505,-6.23408 6.58961,0 11.7843,2.17449 15.6029,6.53173 3.79856,4.35724 5.62225,11.0201 5.46516,20.0015l-29.3703 0c0.0850424,3.47493 1.02523,6.18093 2.83239,8.10029 1.80833,1.93708 4.07495,2.90444 6.76205,2.90444 1.83786,0 3.37453,-0.497262 4.62891,-1.49415 1.25319,-1.00988 2.2052,-2.6186 2.83239,-4.83915zm0.668528 -11.8457c-0.0838613,-3.4017 -0.952003,-5.97777 -2.6186,-7.74359 -1.6666,-1.76581 -3.70407,-2.64813 -6.09234,-2.64813 -2.56427,0 -4.67025,0.940191 -6.33684,2.80522 -1.66305,1.84967 -2.48867,4.38441 -2.46151,7.58649l17.5093 0zm-14.9604 -23.7741l5.74863 -12.4717 13.1402 0 -11.4736 12.4717 -7.41523 0zm83.1254 49.712l0 -61.1443 11.7158 0 0 22.0236c3.61548,-4.11275 7.88887,-6.17621 12.8426,-6.17621 5.39311,0 9.84957,1.96424 13.393,5.8632 3.53162,3.9025 5.29743,9.5094 5.29743,16.8254 0,7.56051 -1.80833,13.3965 -5.40846,17.4833 -3.60485,4.08558 -7.97391,6.12305 -13.1143,6.12305 -2.53474,0 -5.02223,-0.627188 -7.48728,-1.89574 -2.46151,-1.26501 -4.58284,-3.13121 -6.36401,-5.60808l0 6.50575 -10.8748 0zm11.6307 -23.1056c0,4.58284 0.726404,7.97391 2.16386,10.1791 2.03747,3.11822 4.72458,4.67025 8.09911,4.67025 2.57608,0 4.786,-1.11146 6.60496,-3.31784 1.82251,-2.2052 2.73317,-5.6943 2.73317,-10.4496 0,-5.05294 -0.924836,-8.71094 -2.76034,-10.9468 -1.82251,-2.23591 -4.16944,-3.35918 -7.04789,-3.35918 -2.80168,0 -5.1368,1.0961 -7.00183,3.27531 -1.86621,2.18984 -2.79105,5.49232 -2.79105,9.94878zm66.6792 9.01332l11.6886 1.94889c-1.51068,4.28519 -3.87297,7.54515 -7.11758,9.78106 -3.23397,2.24772 -7.28884,3.36036 -12.1587,3.36036 -7.70106,0 -13.3965,-2.50757 -17.0959,-7.54515 -2.92097,-4.02888 -4.38441,-9.12789 -4.38441,-15.2628 0,-7.34554 1.91818,-13.0942 5.76399,-17.253 3.82927,-4.15881 8.68378,-6.23408 14.5505,-6.23408 6.58961,0 11.7843,2.17449 15.6029,6.53173 3.79856,4.35724 5.62225,11.0201 5.46516,20.0015l-29.3692 0c0.0838613,3.47493 1.02405,6.18093 2.83239,8.10029 1.80715,1.93708 4.07377,2.90444 6.76087,2.90444 1.83904,0 3.37453,-0.497262 4.62891,-1.49415 1.25319,-1.00988 2.2052,-2.6186 2.83239,-4.83915zm0.668528 -11.8457c-0.0838613,-3.4017 -0.952003,-5.97777 -2.6186,-7.74359 -1.6666,-1.76581 -3.70289,-2.64813 -6.09234,-2.64813 -2.56427,0 -4.67025,0.940191 -6.33684,2.80522 -1.66305,1.84967 -2.48867,4.38441 -2.46151,7.58649l17.5093 0zm21.198 25.9379l0 -61.1443 11.7193 0 0 61.1443 -11.7193 0zm49.3719 -14.0922l11.6886 1.94889c-1.51068,4.28519 -3.87297,7.54515 -7.11758,9.78106 -3.23397,2.24772 -7.28884,3.36036 -12.1587,3.36036 -7.70106,0 -13.3965,-2.50757 -17.0959,-7.54515 -2.92097,-4.02888 -4.38441,-9.12789 -4.38441,-15.2628 0,-7.34554 1.91818,-13.0942 5.76399,-17.253 3.82927,-4.15881 8.68378,-6.23408 14.5505,-6.23408 6.58961,0 11.7843,2.17449 15.6029,6.53173 3.79856,4.35724 5.62225,11.0201 5.46516,20.0015l-29.3692 0c0.0838613,3.47493 1.02405,6.18093 2.83239,8.10029 1.80715,1.93708 4.07377,2.90444 6.76087,2.90444 1.83904,0 3.37453,-0.497262 4.62891,-1.49415 1.25319,-1.00988 2.2052,-2.6186 2.83239,-4.83915zm0.668528 -11.8457c-0.0838613,-3.4017 -0.952003,-5.97777 -2.6186,-7.74359 -1.66541,-1.76581 -3.70289,-2.64813 -6.09234,-2.64813 -2.56427,0 -4.67025,0.940191 -6.33684,2.80522 -1.66305,1.84967 -2.48867,4.38441 -2.46151,7.58649l17.5093 0zm16.4852 25.9379l0 -9.13852 16.5998 -19.0507c2.72136,-3.11468 4.73993,-5.31988 6.03565,-6.63095 -1.35005,0.0838613 -3.14539,0.126382 -5.36712,0.157092l-15.6443 0.0838613 0 -9.70901 36.6131 0 0 8.29872 -16.9246 19.5196 -5.96596 6.46322c3.24815,-0.198432 5.27027,-0.301192 6.04982,-0.301192l18.1365 0 0 10.3079 -39.5329 0zm56.1788 -30.7759l-10.6327 -1.9229c1.19178,-4.28519 3.2446,-7.44594 6.16085,-9.5094 2.93514,-2.04929 7.26168,-3.08869 13.015,-3.08869 5.23601,0 9.12316,0.627188 11.6839,1.86503 2.55009,1.23902 4.35724,2.80168 5.39665,4.70922 1.04059,1.90755 1.56738,5.39665 1.56738,10.4921l-0.129926 13.6836c0,3.8836 0.187802,6.76087 0.569312,8.61173 0.370879,1.83432 1.08193,3.82927 2.10598,5.93525l-11.6 0c-0.297648,-0.783099 -0.683883,-1.93826 -1.12327,-3.45839 -0.187802,-0.700419 -0.329539,-1.15516 -0.413401,-1.38076 -2.01031,1.95007 -4.14346,3.4017 -6.4207,4.38441 -2.27843,0.967358 -4.71277,1.45281 -7.3042,1.45281 -4.55686,0 -8.15699,-1.23902 -10.7756,-3.70407 -2.63277,-2.47686 -3.94384,-5.60689 -3.94384,-9.39483 0,-2.49222 0.596478,-4.72458 1.7918,-6.68882 1.1965,-1.96424 2.87845,-3.45957 5.02695,-4.49898 2.14732,-1.03941 5.26672,-1.95361 9.32632,-2.73317 5.46516,-1.0276 9.2649,-1.99495 11.3744,-2.87727l0 -1.16579c0,-2.26307 -0.5575,-3.85762 -1.6666,-4.82852 -1.11264,-0.950822 -3.20326,-1.43627 -6.29078,-1.43627 -2.09535,0 -3.71942,0.41222 -4.88521,1.23784 -1.16579,0.810265 -2.10598,2.25126 -2.83239,4.3159zm15.675 9.5094c-1.49769,0.497262 -3.87534,1.09256 -7.13175,1.79298 -3.24933,0.695694 -5.37067,1.37958 -6.37936,2.03275 -1.52486,1.09728 -2.29378,2.46505 -2.29378,4.13164 0,1.65124 0.611833,3.05798 1.83904,4.25448 1.22248,1.1965 2.77451,1.79652 4.6667,1.79652 2.12134,0 4.13164,-0.699238 6.04982,-2.07881 1.42564,-1.05594 2.35166,-2.35166 2.79105,-3.88833 0.313003,-0.996886 0.458284,-2.90444 0.458284,-5.70965l0 -2.33158zm72.4467 7.17427l11.6874 1.94889c-1.5095,4.28519 -3.87179,7.54515 -7.1164,9.78106 -3.23397,2.24772 -7.28884,3.36036 -12.1587,3.36036 -7.70106,0 -13.3965,-2.50757 -17.0971,-7.54515 -2.91979,-4.02888 -4.38323,-9.12789 -4.38323,-15.2628 0,-7.34554 1.91818,-13.0942 5.76399,-17.253 3.82927,-4.15881 8.68378,-6.23408 14.5505,-6.23408 6.58961,0 11.7843,2.17449 15.6029,6.53173 3.79856,4.35724 5.62225,11.0201 5.46516,20.0015l-29.3692 0c0.0838613,3.47493 1.02405,6.18093 2.8312,8.10029 1.80833,1.93708 4.07495,2.90444 6.76205,2.90444 1.83786,0 3.37453,-0.497262 4.62891,-1.49415 1.25319,-1.00988 2.2052,-2.6186 2.83239,-4.83915zm0.668528 -11.8457c-0.0838613,-3.4017 -0.952003,-5.97777 -2.6186,-7.74359 -1.6666,-1.76581 -3.70289,-2.64813 -6.09234,-2.64813 -2.56427,0 -4.67025,0.940191 -6.33684,2.80522 -1.66305,1.84967 -2.48867,4.38441 -2.46151,7.58649l17.5093 0zm-14.9604 -23.7741l5.74863 -12.4717 13.1414 0 -11.4748 12.4717 -7.41523 0zm68.647 18.9361l-10.6327 -1.9229c1.19178,-4.28519 3.2446,-7.44594 6.16085,-9.5094 2.93514,-2.04929 7.26168,-3.08869 13.015,-3.08869 5.23601,0 9.12316,0.627188 11.6839,1.86503 2.55009,1.23902 4.35724,2.80168 5.39665,4.70922 1.04059,1.90755 1.56738,5.39665 1.56738,10.4921l-0.129926 13.6836c0,3.8836 0.187802,6.76087 0.569312,8.61173 0.370879,1.83432 1.08193,3.82927 2.10598,5.93525l-11.6 0c-0.297648,-0.783099 -0.683883,-1.93826 -1.12327,-3.45839 -0.187802,-0.700419 -0.329539,-1.15516 -0.413401,-1.38076 -2.01031,1.95007 -4.14346,3.4017 -6.4207,4.38441 -2.27843,0.967358 -4.71277,1.45281 -7.3042,1.45281 -4.55686,0 -8.15699,-1.23902 -10.7756,-3.70407 -2.63277,-2.47686 -3.94384,-5.60689 -3.94384,-9.39483 0,-2.49222 0.596478,-4.72458 1.7918,-6.68882 1.1965,-1.96424 2.87845,-3.45957 5.02695,-4.49898 2.14732,-1.03941 5.26672,-1.95361 9.32632,-2.73317 5.46516,-1.0276 9.2649,-1.99495 11.3744,-2.87727l0 -1.16579c0,-2.26307 -0.5575,-3.85762 -1.6666,-4.82852 -1.11146,-0.950822 -3.20326,-1.43627 -6.29078,-1.43627 -2.09535,0 -3.71942,0.41222 -4.88521,1.23784 -1.16579,0.810265 -2.10598,2.25126 -2.83239,4.3159zm15.675 9.5094c-1.49769,0.497262 -3.87534,1.09256 -7.13175,1.79298 -3.24933,0.695694 -5.37067,1.37958 -6.37936,2.03275 -1.52486,1.09728 -2.29378,2.46505 -2.29378,4.13164 0,1.65124 0.611833,3.05798 1.83904,4.25448 1.22248,1.1965 2.77451,1.79652 4.6667,1.79652 2.12134,0 4.13164,-0.699238 6.04982,-2.07881 1.42682,-1.05594 2.35166,-2.35166 2.79105,-3.88833 0.313003,-0.996886 0.458284,-2.90444 0.458284,-5.70965l0 -2.33158zm23.0748 21.2665l0 -61.1443 11.7193 0 0 61.1443 -11.7193 0zm44.0319 -44.2882l0 9.33813 -7.99989 0 0 17.853c0,3.61667 0.0720498,5.72265 0.229142,6.32267 0.157092,0.596478 0.497262,1.08193 1.03941,1.47879 0.539783,0.382691 1.20831,0.584667 1.97606,0.584667 1.09728,0 2.66466,-0.386234 4.72812,-1.12681l0.998067 9.08537c-2.73317,1.16579 -5.81005,1.75046 -9.26844,1.75046 -2.10598,0 -4.01353,-0.355525 -5.71084,-1.05476 -1.69376,-0.711049 -2.9316,-1.63589 -3.72651,-2.76034 -0.799635,-1.12681 -1.33824,-2.64813 -1.65124,-4.57103 -0.244497,-1.35359 -0.370879,-4.11275 -0.370879,-8.2562l0 -19.3058 -5.3813 0 0 -9.33813 5.3813 0 0 -8.81016 11.7571 -6.8341 0 15.6443 7.99989 0zm5.42736 21.5122c0,-3.88715 0.967358,-7.65972 2.87491,-11.3024 1.92172,-3.63084 4.63954,-6.42188 8.1558,-8.32943 3.51627,-1.92172 7.44594,-2.88908 11.7878,-2.88908 6.69237,0 12.1859,2.17449 16.4734,6.53173 4.28519,4.35724 6.41834,9.85429 6.41834,16.5006 0,6.68882 -2.16386,12.2426 -6.47504,16.6577 -4.33126,4.41039 -9.76571,6.60496 -16.3281,6.60496 -4.07495,0 -7.93139,-0.914206 -11.6201,-2.74852 -3.68399,-1.83786 -6.49039,-4.52969 -8.41211,-8.07194 -1.90755,-3.54343 -2.87491,-7.85934 -2.87491,-12.9536zm12.0134 0.626007c0,4.39976 1.03941,7.76012 3.13358,10.0905 2.08,2.3363 4.65607,3.50564 7.71406,3.50564 3.06153,0 5.62579,-1.16933 7.69043,-3.50564 2.07527,-2.3304 3.11468,-5.72147 3.11468,-10.1779 0,-4.32653 -1.03941,-7.67154 -3.11468,-10.0067 -2.06464,-2.33512 -4.62891,-3.50091 -7.69043,-3.50091 -3.05798,0 -5.63406,1.16579 -7.71406,3.50091 -2.09417,2.33512 -3.13358,5.71084 -3.13358,10.0941zm75.3665 -8.6259l-10.6338 -1.9229c1.19296,-4.28519 3.24579,-7.44594 6.16203,-9.5094 2.93514,-2.04929 7.26168,-3.08869 13.0139,-3.08869 5.2372,0 9.12434,0.627188 11.6851,1.86503 2.54891,1.23902 4.35724,2.80168 5.39665,4.70922 1.03941,1.90755 1.56738,5.39665 1.56738,10.4921l-0.129926 13.6836c0,3.8836 0.186621,6.76087 0.569312,8.61173 0.370879,1.83432 1.08193,3.82927 2.10598,5.93525l-11.6 0c-0.29883,-0.783099 -0.683883,-1.93826 -1.12445,-3.45839 -0.186621,-0.700419 -0.328358,-1.15516 -0.41222,-1.38076 -2.01031,1.95007 -4.14346,3.4017 -6.42188,4.38441 -2.27725,0.967358 -4.71277,1.45281 -7.3042,1.45281 -4.55568,0 -8.1558,-1.23902 -10.7744,-3.70407 -2.63395,-2.47686 -3.94502,-5.60689 -3.94502,-9.39483 0,-2.49222 0.596478,-4.72458 1.79298,-6.68882 1.1965,-1.96424 2.87845,-3.45957 5.02577,-4.49898 2.1485,-1.03941 5.26791,-1.95361 9.32632,-2.73317 5.46634,-1.0276 9.26608,-1.99495 11.3756,-2.87727l0 -1.16579c0,-2.26307 -0.558681,-3.85762 -1.6666,-4.82852 -1.11264,-0.950822 -3.20326,-1.43627 -6.29196,-1.43627 -2.09417,0 -3.71824,0.41222 -4.88403,1.23784 -1.16579,0.810265 -2.10598,2.25126 -2.83239,4.3159zm15.675 9.5094c-1.49887,0.497262 -3.87652,1.09256 -7.13293,1.79298 -3.24815,0.695694 -5.36948,1.37958 -6.37936,2.03275 -1.52486,1.09728 -2.2926,2.46505 -2.2926,4.13164 0,1.65124 0.611833,3.05798 1.83786,4.25448 1.22367,1.1965 2.77569,1.79652 4.66788,1.79652 2.12134,0 4.13164,-0.699238 6.04982,-2.07881 1.42564,-1.05594 2.35048,-2.35166 2.78986,-3.88833 0.314185,-0.996886 0.459465,-2.90444 0.459465,-5.70965l0 -2.33158zm52.2302 21.2665l0 -6.63567c-1.62407,2.36583 -3.74541,4.23204 -6.36401,5.59626 -2.63395,1.35241 -5.40846,2.03747 -8.32825,2.03747 -2.97412,0 -5.6376,-0.657898 -7.99989,-1.95361 -2.36229,-1.30753 -4.07141,-3.14539 -5.1368,-5.50768 -1.05594,-2.36229 -1.58273,-5.6376 -1.58273,-9.80823l0 -28.0168 11.7146 0 0 20.3417c0,6.23881 0.213787,10.0527 0.657898,11.463 0.427574,1.39493 1.20713,2.50403 2.34693,3.32965 1.13862,0.82562 2.59143,1.22248 4.34189,1.22248 2.00676,0 3.80329,-0.538602 5.3813,-1.63589 1.58273,-1.10791 2.66466,-2.46151 3.24579,-4.08558 0.584667,-1.63589 0.882315,-5.62225 0.882315,-11.9555l0 -18.6798 11.7193 0 0 44.2882 -10.8783 0zm43.3173 -44.2882l0 9.33813 -7.99989 0 0 17.853c0,3.61667 0.0720498,5.72265 0.229142,6.32267 0.157092,0.596478 0.497262,1.08193 1.03941,1.47879 0.539783,0.382691 1.20831,0.584667 1.97606,0.584667 1.09728,0 2.66466,-0.386234 4.72812,-1.12681l0.998067 9.08537c-2.73317,1.16579 -5.81005,1.75046 -9.26844,1.75046 -2.10716,0 -4.01353,-0.355525 -5.71084,-1.05476 -1.69376,-0.711049 -2.9316,-1.63589 -3.72651,-2.76034 -0.799635,-1.12681 -1.33824,-2.64813 -1.65124,-4.57103 -0.244497,-1.35359 -0.370879,-4.11275 -0.370879,-8.2562l0 -19.3058 -5.3813 0 0 -9.33813 5.3813 0 0 -8.81016 11.7571 -6.8341 0 15.6443 7.99989 0zm5.42736 21.5122c0,-3.88715 0.967358,-7.65972 2.87491,-11.3024 1.92172,-3.63084 4.63954,-6.42188 8.1558,-8.32943 3.51627,-1.92172 7.44594,-2.88908 11.7878,-2.88908 6.69237,0 12.1859,2.17449 16.4734,6.53173 4.28519,4.35724 6.41834,9.85429 6.41834,16.5006 0,6.68882 -2.16386,12.2426 -6.47504,16.6577 -4.33126,4.41039 -9.76571,6.60496 -16.3281,6.60496 -4.07495,0 -7.93139,-0.914206 -11.6201,-2.74852 -3.68399,-1.83786 -6.49039,-4.52969 -8.41211,-8.07194 -1.90755,-3.54343 -2.87491,-7.85934 -2.87491,-12.9536zm12.0134 0.626007c0,4.39976 1.03941,7.76012 3.13358,10.0905 2.08,2.3363 4.65607,3.50564 7.71406,3.50564 3.06153,0 5.62579,-1.16933 7.69043,-3.50564 2.07527,-2.3304 3.11468,-5.72147 3.11468,-10.1779 0,-4.32653 -1.03941,-7.67154 -3.11468,-10.0067 -2.06464,-2.33512 -4.62891,-3.50091 -7.69043,-3.50091 -3.05798,0 -5.63406,1.16579 -7.71406,3.50091 -2.09417,2.33512 -3.13358,5.71084 -3.13358,10.0941zm92.2486 8.05777l11.6886 1.94889c-1.5095,4.28519 -3.87179,7.54515 -7.1164,9.78106 -3.23397,2.24772 -7.28884,3.36036 -12.1587,3.36036 -7.70225,0 -13.3965,-2.50757 -17.0971,-7.54515 -2.91979,-4.02888 -4.38441,-9.12789 -4.38441,-15.2628 0,-7.34554 1.91936,-13.0942 5.76399,-17.253 3.83045,-4.15881 8.68496,-6.23408 14.5517,-6.23408 6.58961,0 11.7843,2.17449 15.6017,6.53173 3.79974,4.35724 5.62225,11.0201 5.46634,20.0015l-29.3703 0c0.0838613,3.47493 1.02405,6.18093 2.83239,8.10029 1.80833,1.93708 4.07495,2.90444 6.76205,2.90444 1.83786,0 3.37453,-0.497262 4.62773,-1.49415 1.25438,-1.00988 2.20638,-2.6186 2.83239,-4.83915zm0.669709 -11.8457c-0.0850424,-3.4017 -0.952003,-5.97777 -2.6186,-7.74359 -1.6666,-1.76581 -3.70407,-2.64813 -6.09234,-2.64813 -2.56545,0 -4.67143,0.940191 -6.33802,2.80522 -1.66187,1.84967 -2.48749,4.38441 -2.46151,7.58649l17.5105 0zm17.0699 13.2985l11.7607 -1.79652c0.497262,2.27725 1.50596,4.01707 3.04617,5.19822 1.52131,1.18114 3.65801,1.77644 6.41716,1.77644 3.03554,0 5.31279,-0.553957 6.8341,-1.67723 1.04059,-0.768925 1.55202,-1.82369 1.55202,-3.1194 0,-0.894127 -0.282294,-1.63589 -0.840975,-2.22055 -0.581123,-0.553957 -1.89219,-1.06657 -3.91313,-1.53667 -9.4527,-2.07881 -15.4458,-3.98636 -17.9806,-5.70965 -3.50091,-2.38946 -5.25137,-5.72265 -5.25137,-9.97595 0,-3.83045 1.5095,-7.06443 4.54032,-9.66649 3.032,-2.62214 7.72941,-3.92967 14.0934,-3.92967 6.06518,0 10.576,0.993343 13.5229,2.95877 2.94696,1.9796 4.96908,4.89939 6.08053,8.77118l-11.0461 2.03393c-0.470096,-1.71975 -1.36777,-3.04617 -2.69065,-3.95565 -1.32643,-0.924836 -3.20326,-1.38076 -5.65296,-1.38076 -3.08869,0 -5.29743,0.425212 -6.63567,1.29217 -0.882315,0.615376 -1.32288,1.41029 -1.32288,2.37764 0,0.840975 0.386234,1.54021 1.16579,2.12134 1.05594,0.783099 4.69859,1.88038 10.9516,3.30602 6.23408,1.40674 10.5913,3.14539 13.0682,5.21003 2.44615,2.09063 3.67218,4.99506 3.67218,8.71094 0,4.05841 -1.69612,7.56051 -5.09782,10.4768 -3.38752,2.91979 -8.39794,4.3726 -15.049,4.3726 -6.03447,0 -10.8051,-1.22721 -14.3332,-3.67336 -3.51627,-2.43434 -5.80887,-5.76753 -6.8908,-9.96414zm71.9341 -31.6488l0 9.33813 -7.99989 0 0 17.853c0,3.61667 0.0720498,5.72265 0.229142,6.32267 0.157092,0.596478 0.497262,1.08193 1.03941,1.47879 0.538602,0.382691 1.20831,0.584667 1.97606,0.584667 1.09728,0 2.66466,-0.386234 4.72812,-1.12681l0.998067 9.08537c-2.73317,1.16579 -5.81005,1.75046 -9.26962,1.75046 -2.10598,0 -4.01353,-0.355525 -5.70965,-1.05476 -1.69376,-0.711049 -2.9316,-1.63589 -3.72651,-2.76034 -0.799635,-1.12681 -1.33824,-2.64813 -1.65124,-4.57103 -0.245678,-1.35359 -0.370879,-4.11275 -0.370879,-8.2562l0 -19.3058 -5.38248 0 0 -9.33813 5.38248 0 0 -8.81016 11.7571 -6.8341 0 15.6443 7.99989 0zm8.14517 -6.00848l0 -10.8476 11.7181 0 0 10.8476 -11.7181 0zm0 50.2967l0 -44.2882 11.7181 0 0 44.2882 -11.7181 0zm22.8492 -44.2882l10.8051 0 0 6.03565c3.85998,-4.69741 8.46999,-7.04435 13.8099,-7.04435 2.8312,0 5.29743,0.581123 7.37271,1.75046 2.09417,1.16579 3.80329,2.9316 5.14034,5.29389 1.93472,-2.36229 4.04424,-4.1281 6.29196,-5.29389 2.25126,-1.16933 4.65489,-1.75046 7.21561,-1.75046 3.24933,0 6.00848,0.668528 8.26093,1.99141 2.24654,1.31107 3.92849,3.25996 5.03758,5.81005 0.810265,1.89219 1.21067,4.95372 1.21067,9.18104l0 28.3144 -11.7181 0 0 -25.3108c0,-4.39858 -0.398046,-7.23097 -1.20831,-8.51133 -1.08193,-1.6666 -2.74852,-2.50757 -4.99506,-2.50757 -1.65596,0 -3.19145,0.496081 -4.64426,1.5095 -1.43745,0.998067 -2.47686,2.46151 -3.11468,4.39976 -0.642543,1.93353 -0.970901,4.97971 -0.970901,9.15387l0 21.2665 -11.7158 0 0 -24.2713c0,-4.31472 -0.213787,-7.08923 -0.627188,-8.34361 -0.41222,-1.25319 -1.06539,-2.17803 -1.93353,-2.78986 -0.882315,-0.611833 -2.06346,-0.924836 -3.57414,-0.924836 -1.80715,0 -3.43241,0.485451 -4.86868,1.46698 -1.45281,0.967358 -2.49222,2.37764 -3.1194,4.21196 -0.622463,1.83904 -0.936648,4.86986 -0.936648,9.12789l0 21.5228 -11.7181 0 0 -44.2882zm85.5869 13.5123l-10.6338 -1.9229c1.19296,-4.28519 3.2446,-7.44594 6.16203,-9.5094 2.93514,-2.04929 7.26168,-3.08869 13.0139,-3.08869 5.2372,0 9.12434,0.627188 11.6851,1.86503 2.54891,1.23902 4.35724,2.80168 5.39665,4.70922 1.03941,1.90755 1.56738,5.39665 1.56738,10.4921l-0.129926 13.6836c0,3.8836 0.186621,6.76087 0.569312,8.61173 0.370879,1.83432 1.08193,3.82927 2.10598,5.93525l-11.6 0c-0.29883,-0.783099 -0.685064,-1.93826 -1.12445,-3.45839 -0.186621,-0.700419 -0.328358,-1.15516 -0.41222,-1.38076 -2.01031,1.95007 -4.14346,3.4017 -6.42188,4.38441 -2.27725,0.967358 -4.71277,1.45281 -7.3042,1.45281 -4.55568,0 -8.15699,-1.23902 -10.7744,-3.70407 -2.63395,-2.47686 -3.94502,-5.60689 -3.94502,-9.39483 0,-2.49222 0.596478,-4.72458 1.79298,-6.68882 1.1965,-1.96424 2.87845,-3.45957 5.02577,-4.49898 2.1485,-1.03941 5.26791,-1.95361 9.32632,-2.73317 5.46634,-1.0276 9.2649,-1.99495 11.3756,-2.87727l0 -1.16579c0,-2.26307 -0.558681,-3.85762 -1.6666,-4.82852 -1.11264,-0.950822 -3.20326,-1.43627 -6.29196,-1.43627 -2.09417,0 -3.71824,0.41222 -4.88403,1.23784 -1.16579,0.810265 -2.10598,2.25126 -2.83239,4.3159zm15.675 9.5094c-1.49887,0.497262 -3.87652,1.09256 -7.13293,1.79298 -3.24815,0.695694 -5.36948,1.37958 -6.37936,2.03275 -1.52486,1.09728 -2.2926,2.46505 -2.2926,4.13164 0,1.65124 0.610652,3.05798 1.83786,4.25448 1.22367,1.1965 2.77569,1.79652 4.6667,1.79652 2.12134,0 4.13164,-0.699238 6.051,-2.07881 1.42564,-1.05594 2.35048,-2.35166 2.78986,-3.88833 0.314185,-0.996886 0.459465,-2.90444 0.459465,-5.70965l0 -2.33158zm72.4455 7.17427l11.6886 1.94889c-1.5095,4.28519 -3.87179,7.54515 -7.11758,9.78106 -3.23279,2.24772 -7.28884,3.36036 -12.1575,3.36036 -7.70225,0 -13.3977,-2.50757 -17.0971,-7.54515 -2.91979,-4.02888 -4.38441,-9.12789 -4.38441,-15.2628 0,-7.34554 1.91936,-13.0942 5.76399,-17.253 3.83045,-4.15881 8.68378,-6.23408 14.5517,-6.23408 6.58961,0 11.7831,2.17449 15.6017,6.53173 3.79974,4.35724 5.62225,11.0201 5.46634,20.0015l-29.3703 0c0.0838613,3.47493 1.02405,6.18093 2.83239,8.10029 1.80833,1.93708 4.07495,2.90444 6.76087,2.90444 1.83904,0 3.37571,-0.497262 4.62891,-1.49415 1.25438,-1.00988 2.2052,-2.6186 2.83239,-4.83915zm0.668528 -11.8457c-0.0838613,-3.4017 -0.950822,-5.97777 -2.61742,-7.74359 -1.6666,-1.76581 -3.70407,-2.64813 -6.09234,-2.64813 -2.56545,0 -4.67143,0.940191 -6.33802,2.80522 -1.66187,1.84967 -2.48749,4.38441 -2.46151,7.58649l17.5093 0zm44.5906 -18.3503l10.9315 0 0 6.50575c1.41029,-2.23591 3.33319,-4.04424 5.75218,-5.42382 2.42017,-1.39493 5.11081,-2.09063 8.05777,-2.09063 5.14034,0 9.5094,2.02212 13.0835,6.051 3.58477,4.0277 5.3813,9.65113 5.3813,16.8514 0,7.38924 -1.80833,13.1414 -5.41201,17.2424 -3.61667,4.09739 -7.99989,6.15022 -13.1367,6.15022 -2.45088,0 -4.67143,-0.485451 -6.66284,-1.45281 -1.9796,-0.982712 -4.07377,-2.64931 -6.28015,-5.01042l0 22.3213 -11.7146 0 0 -61.1443zm11.6 21.3976c0,4.96789 0.982712,8.65307 2.96231,11.0189 1.96542,2.37764 4.36905,3.57414 7.21679,3.57414 2.72136,0 4.98443,-1.09728 6.79158,-3.2765 1.80833,-2.17803 2.71781,-5.76281 2.71781,-10.7319 0,-4.65607 -0.936648,-8.10383 -2.80168,-10.3504 -1.86503,-2.24772 -4.17417,-3.37571 -6.92151,-3.37571 -2.85955,0 -5.2372,1.09728 -7.12939,3.31784 -1.89574,2.2052 -2.83593,5.48051 -2.83593,9.82358zm49.6695 -7.88532l-10.6327 -1.9229c1.19178,-4.28519 3.2446,-7.44594 6.16085,-9.5094 2.93633,-2.04929 7.26286,-3.08869 13.015,-3.08869 5.23601,0 9.12316,0.627188 11.6839,1.86503 2.55009,1.23902 4.35842,2.80168 5.39783,4.70922 1.03941,1.90755 1.5662,5.39665 1.5662,10.4921l-0.129926 13.6836c0,3.8836 0.187802,6.76087 0.570493,8.61173 0.370879,1.83432 1.08075,3.82927 2.10598,5.93525l-11.6012 0c-0.297648,-0.783099 -0.683883,-1.93826 -1.12327,-3.45839 -0.187802,-0.700419 -0.328358,-1.15516 -0.413401,-1.38076 -2.01031,1.95007 -4.14227,3.4017 -6.4207,4.38441 -2.27843,0.967358 -4.71277,1.45281 -7.3042,1.45281 -4.55568,0 -8.15699,-1.23902 -10.7744,-3.70407 -2.63395,-2.47686 -3.94502,-5.60689 -3.94502,-9.39483 0,-2.49222 0.596478,-4.72458 1.79298,-6.68882 1.1965,-1.96424 2.87727,-3.45957 5.02577,-4.49898 2.1485,-1.03941 5.26672,-1.95361 9.32632,-2.73317 5.46516,-1.0276 9.2649,-1.99495 11.3744,-2.87727l0 -1.16579c0,-2.26307 -0.5575,-3.85762 -1.6666,-4.82852 -1.11146,-0.950822 -3.20208,-1.43627 -6.29078,-1.43627 -2.09417,0 -3.71942,0.41222 -4.88521,1.23784 -1.16579,0.810265 -2.10598,2.25126 -2.83239,4.3159zm15.675 9.5094c-1.49769,0.497262 -3.87534,1.09256 -7.13175,1.79298 -3.24933,0.695694 -5.37067,1.37958 -6.37936,2.03275 -1.52486,1.09728 -2.29378,2.46505 -2.29378,4.13164 0,1.65124 0.611833,3.05798 1.83904,4.25448 1.22248,1.1965 2.77451,1.79652 4.6667,1.79652 2.12134,0 4.13164,-0.699238 6.051,-2.07881 1.42564,-1.05594 2.35048,-2.35166 2.78986,-3.88833 0.313003,-0.996886 0.458284,-2.90444 0.458284,-5.70965l0 -2.33158zm23.0748 -29.0302l0 -10.8476 11.7193 0 0 10.8476 -11.7193 0zm0 50.2967l0 -44.2882 11.7193 0 0 44.2882 -11.7193 0zm18.0951 0l15.9726 -22.8185 -15.3041 -21.4697 14.3108 0 7.8428 12.1741 8.2562 -12.1741 13.7674 0 -15.0218 20.9689 16.386 23.3193 -14.3793 0 -9.00859 -13.7214 -9.09718 13.7214 -13.7249 0z"/>
    <path class="fil5" d="M1739.6 1591.28l-10.6338 -1.9229c1.19296,-4.28519 3.24579,-7.44594 6.16203,-9.5094 2.93514,-2.04929 7.26168,-3.08869 13.0139,-3.08869 5.2372,0 9.12434,0.627188 11.6851,1.86503 2.54891,1.23902 4.35724,2.80168 5.39665,4.70922 1.03941,1.90755 1.56738,5.39665 1.56738,10.4921l-0.129926 13.6836c0,3.8836 0.187802,6.76087 0.569312,8.61173 0.370879,1.83432 1.08193,3.82927 2.10598,5.93525l-11.6 0c-0.29883,-0.783099 -0.683883,-1.93826 -1.12327,-3.45839 -0.187802,-0.700419 -0.329539,-1.15516 -0.413401,-1.38076 -2.01031,1.95007 -4.14346,3.4017 -6.42188,4.38441 -2.27725,0.967358 -4.71277,1.45281 -7.3042,1.45281 -4.55568,0 -8.1558,-1.23902 -10.7744,-3.70407 -2.63395,-2.47686 -3.94384,-5.60689 -3.94384,-9.39483 0,-2.49222 0.595297,-4.72458 1.7918,-6.68882 1.1965,-1.96424 2.87845,-3.45957 5.02695,-4.49898 2.14732,-1.03941 5.26672,-1.95361 9.32514,-2.73317 5.46634,-1.0276 9.26608,-1.99495 11.3756,-2.87727l0 -1.16579c0,-2.26307 -0.558681,-3.85762 -1.6666,-4.82852 -1.11264,-0.950822 -3.20326,-1.43627 -6.29196,-1.43627 -2.09417,0 -3.71824,0.41222 -4.88403,1.23784 -1.16579,0.810265 -2.10598,2.25126 -2.83239,4.3159zm15.675 9.5094c-1.49887,0.497262 -3.87534,1.09256 -7.13293,1.79298 -3.24815,0.695694 -5.36948,1.37958 -6.37818,2.03275 -1.52604,1.09728 -2.29378,2.46505 -2.29378,4.13164 0,1.65124 0.611833,3.05798 1.83786,4.25448 1.22367,1.1965 2.77569,1.79652 4.66788,1.79652 2.12134,0 4.13164,-0.699238 6.04982,-2.07881 1.42564,-1.05594 2.35048,-2.35166 2.79105,-3.88833 0.313003,-0.996886 0.458284,-2.90444 0.458284,-5.70965l0 -2.33158zm-15.7624 -28.9841l-5.33641 0c-0.0307098,-0.642543 -0.0425212,-1.13862 -0.0425212,-1.5095 0,-2.91979 0.711049,-5.16751 2.12134,-6.73489 1.4221,-1.56738 3.24579,-2.35048 5.46634,-2.35048 0.967358,0 1.87684,0.10276 2.71781,0.313003 0.82562,0.203157 2.35048,0.799635 4.55568,1.79652 2.22055,0.982712 3.94502,1.47879 5.19467,1.47879 0.89767,0 1.63943,-0.282294 2.23591,-0.839794 0.600022,-0.555138 0.982712,-1.49533 1.13862,-2.79105l5.42382 0c-0.0259852,3.74659 -0.726404,6.43724 -2.10598,8.04596 -1.36777,1.60872 -3.14539,2.42017 -5.30925,2.42017 -0.955546,0 -1.88038,-0.100397 -2.80522,-0.29883 -0.627188,-0.157092 -2.23591,-0.726404 -4.78127,-1.70794 -2.56545,-0.970901 -4.43047,-1.45281 -5.59626,-1.45281 -0.882315,0 -1.58155,0.271663 -2.07881,0.810265 -0.512617,0.542145 -0.768925,1.47879 -0.798454,2.82057zm36.1194 27.4746c0,-3.88715 0.967358,-7.65972 2.87373,-11.3024 1.9229,-3.63084 4.64072,-6.42188 8.15699,-8.32943 3.51627,-1.92172 7.44594,-2.88908 11.7878,-2.88908 6.69237,0 12.1847,2.17449 16.4734,6.53173 4.28519,4.35724 6.41834,9.85429 6.41834,16.5006 0,6.68882 -2.16386,12.2426 -6.47504,16.6577 -4.33126,4.41039 -9.76571,6.60496 -16.3293,6.60496 -4.07377,0 -7.93021,-0.914206 -11.6189,-2.74852 -3.68517,-1.83786 -6.49039,-4.52969 -8.41329,-8.07194 -1.90637,-3.54343 -2.87373,-7.85934 -2.87373,-12.9536zm12.0134 0.626007c0,4.39976 1.03941,7.76012 3.13358,10.0905 2.08,2.3363 4.65607,3.50564 7.71406,3.50564 3.06153,0 5.62579,-1.16933 7.69043,-3.50564 2.07527,-2.3304 3.11468,-5.72147 3.11468,-10.1779 0,-4.32653 -1.03941,-7.67154 -3.11468,-10.0067 -2.06464,-2.33512 -4.62891,-3.50091 -7.69043,-3.50091 -3.05798,0 -5.63406,1.16579 -7.71406,3.50091 -2.09417,2.33512 -3.13358,5.71084 -3.13358,10.0941z"/>
   </g>
   <line class="fil5" x1="3054.93" y1="1458.3" x2="3054.93" y2= "1458.3" />
   <line class="fil5" x1="3034.73" y1="655.607" x2="3034.73" y2= "655.607" />
   <g>
    <path class="fil6 str4" d="M2589.17 1207.34l152.4 0 0 0c4.22968,46.947 21.7709,82.4675 52.3129,106.557 30.8574,24.0894 76.4354,36.045 136.738,36.045 52.6247,0 94.1325,-10.5476 124.362,-31.4728 30.229,-21.2771 45.4221,-49.06 45.4221,-83.3475 0,-21.9811 -7.67508,-40.9704 -22.8681,-56.6194 -15.349,-16.177 -43.5417,-27.4321 -84.5782,-33.5859l-164.147 -25.1442c-67.3489,-10.0232 -120.446,-32.3527 -159.289,-66.9934 -38.8443,-34.9914 -58.2659,-82.6447 -58.2659,-142.779 0,-73.6774 26.4718,-132.934 79.4095,-177.596 52.9401,-44.6638 128.434,-66.9934 226.643,-66.9934 96.0129,0 171.036,21.0988 224.76,63.2999 53.8803,42.2011 82.5419,103.567 85.8302,183.924l0 0 -152.398 0 0 0c-1.8792,-44.6614 -16.9164,-78.0701 -45.4209,-100.402 -28.3498,-22.6827 -69.6982,-33.9355 -123.894,-33.9355 -39.3144,0 -72.2057,9.49404 -98.5181,28.3097 -26.3147,18.6385 -39.4715,43.7815 -39.4715,75.7846 0,24.2654 8.92945,44.8386 26.6277,61.1927 17.6983,16.1758 48.3986,27.4297 91.7844,33.5847l173.859 27.2549c64.8437,10.374 113.867,32.3527 146.914,66.4666 33.3614,33.9355 49.966,81.5864 49.966,142.603 0,77.0154 -28.977,137.679 -86.774,182.343 -57.7958,44.6626 -144.567,66.9945 -260.155,66.9945 -101.339,0 -180.282,-22.3319 -236.825,-66.9945 -56.2272,-45.0146 -84.4211,-107.788 -84.4211,-188.497l0 0z"/>
    <path id="1" class="fil5" d="M2589.17 1207.34l152.4 0 0 0c4.22968,46.947 21.7709,82.4675 52.3129,106.557 30.8574,24.0894 76.4354,36.045 136.738,36.045 52.6247,0 94.1325,-10.5476 124.362,-31.4728 30.229,-21.2771 45.4221,-49.06 45.4221,-83.3475 0,-21.9811 -7.67508,-40.9704 -22.8681,-56.6194 -15.349,-16.177 -43.5417,-27.4321 -84.5782,-33.5859l-164.147 -25.1442c-67.3489,-10.0232 -120.446,-32.3527 -159.289,-66.9934 -38.8443,-34.9914 -58.2659,-82.6447 -58.2659,-142.779 0,-73.6774 26.4718,-132.934 79.4095,-177.596 52.9401,-44.6638 128.434,-66.9934 226.643,-66.9934 96.0129,0 171.036,21.0988 224.76,63.2999 53.8803,42.2011 82.5419,103.567 85.8302,183.924l0 0 -152.398 0 0 0c-1.8792,-44.6614 -16.9164,-78.0701 -45.4209,-100.402 -28.3498,-22.6827 -69.6982,-33.9355 -123.894,-33.9355 -39.3144,0 -72.2057,9.49404 -98.5181,28.3097 -26.3147,18.6385 -39.4715,43.7815 -39.4715,75.7846 0,24.2654 8.92945,44.8386 26.6277,61.1927 17.6983,16.1758 48.3986,27.4297 91.7844,33.5847l173.859 27.2549c64.8437,10.374 113.867,32.3527 146.914,66.4666 33.3614,33.9355 49.966,81.5864 49.966,142.603 0,77.0154 -28.977,137.679 -86.774,182.343 -57.7958,44.6626 -144.567,66.9945 -260.155,66.9945 -101.339,0 -180.282,-22.3319 -236.825,-66.9945 -56.2272,-45.0146 -84.4211,-107.788 -84.4211,-188.497l0 0z"/>
   </g>
   <line class="fil5" x1="2047.84" y1="680.401" x2="2047.84" y2= "680.401" />
   <line class="fil5" x1="2639.89" y1="1458.3" x2="2639.89" y2= "1458.3" />
   <line class="fil5" x1="2395.86" y1="655.607" x2="2395.86" y2= "655.607" />
   <g>
    <polygon class="fil6 str4" points="2089.79,1458.3 2089.79,699.917 2624.04,699.917 2624.04,824.588 2242.18,824.588 2242.18,1001.83 2609.79,1001.83 2609.79,1126.5 2242.18,1126.5 2242.18,1333.64 2640.49,1333.64 2640.49,1458.3 "/>
    <polygon id="1" class="fil5" points="2089.79,1458.3 2089.79,699.917 2624.04,699.917 2624.04,824.588 2242.18,824.588 2242.18,1001.83 2609.79,1001.83 2609.79,1126.5 2242.18,1126.5 2242.18,1333.64 2640.49,1333.64 2640.49,1458.3 "/>
   </g>
   <line class="fil5" x1="1389.76" y1="680.401" x2="1389.76" y2= "680.401" />
   <line class="fil5" x1="1774.91" y1="655.607" x2="1774.91" y2= "655.607" />
   <path class="fil5" d="M1622.98 1333.64l147.702 0c73.1436,0 131.096,-22.8587 174.011,-68.5761 43.0728,-45.7174 64.6866,-109.02 64.6866,-190.082 0,-82.1155 -21.6138,-144.186 -64.6866,-186.561 -42.9145,-42.5531 -100.243,-63.8291 -172.133,-63.8291l-149.58 0 0 509.047z"/>
   <g>
    <path class="fil6 str4" d="M1431.71 1458.3l0 -758.387 323.594 0c116.219,0 207.219,33.4099 273.003,100.406 66.098,66.6402 99.1453,162.474 99.1453,287.493 0,110.25 -32.7342,199.573 -98.2051,267.973 -65.4709,68.4036 -154.906,102.515 -268.461,102.515l-329.075 0z"/>
    <path id="1" class="fil5" d="M1431.71 1458.3l0 -758.387 323.594 0c116.219,0 207.219,33.4099 273.003,100.406 66.098,66.6402 99.1453,162.474 99.1453,287.493 0,110.25 -32.7342,199.573 -98.2051,267.973 -65.4709,68.4036 -154.906,102.515 -268.461,102.515l-329.075 0z"/>
   </g>
   <line class="fil5" x1="529.376" y1="1458.3" x2="529.376" y2= "1458.3" />
   <line class="fil5" x1="529.376" y1="655.607" x2="529.376" y2= "655.607" />
   <polygon class="fil5 str5" points="159.108,699.917 373.376,699.917 761.185,1283.7 761.185,1283.7 761.185,699.917 899.331,699.917 899.331,1458.3 694.618,1458.3 297.096,862.744 297.254,862.744 297.254,1458.3 159.108,1458.3 "/>
   <g>
    <path class="fil6 str6" d="M810.292 699.917l152.398 0 0 458.408c0,61.8943 16.1333,110.777 48.2427,146.825 32.4212,36.0462 78.9394,54.1579 139.866,54.1579 62.6515,0 109.641,-17.0557 140.81,-50.9936 31.4834,-34.2875 47.3013,-85.105 47.3013,-152.449l0 -455.948 152.398 0 0 458.936c0,112.36 -30.3873,193.596 -91.3143,243.709 -60.927,50.1136 -150.206,75.259 -267.99,75.259 -101.651,0 -180.747,-26.7281 -237.291,-80.3568 -56.2296,-53.6299 -84.4223,-122.911 -84.4223,-208.191l0 -489.357zm340.508 -44.3095l0 0m72.0498 802.697l0 0m-488.68 -777.903l0 0"/>
    <path id="1" class="fil7" d="M810.292 699.917l152.398 0 0 458.408c0,61.8943 16.1333,110.777 48.2427,146.825 32.4212,36.0462 78.9394,54.1579 139.866,54.1579 62.6515,0 109.641,-17.0557 140.81,-50.9936 31.4834,-34.2875 47.3013,-85.105 47.3013,-152.449l0 -455.948 152.398 0 0 458.936c0,112.36 -30.3873,193.596 -91.3143,243.709 -60.927,50.1136 -150.206,75.259 -267.99,75.259 -101.651,0 -180.747,-26.7281 -237.291,-80.3568 -56.2296,-53.6299 -84.4223,-122.911 -84.4223,-208.191l0 -489.357zm340.508 -44.3095l0 0m72.0498 802.697l0 0m-488.68 -777.903l0 0"/>
   </g>
   <path class="fil7" d="M2022.96 1544.53l7.76248 17.9144c-1.7918,1.45635 -5.77107,2.65285 -11.9402,3.71588 -6.16912,0.993343 -14.195,1.92172 -24.015,2.71663 -11.4134,11.1465 -22.7571,20.4338 -34.102,27.7994 -11.3437,7.43058 -22.554,12.8698 -33.7004,16.386 -2.58671,0.729947 -5.57264,1.58982 -8.95544,2.5182 -2.05637,0 -4.31118,-0.461828 -6.76442,-1.26146 -2.52293,-0.859873 -5.24074,-2.05637 -8.23022,-3.64619 -3.04972,-1.92172 -5.50295,-3.77966 -7.16246,-5.6376 -1.65833,-1.79298 -2.52293,-3.64974 -2.52293,-5.64115 0,-3.84581 1.85794,-7.62901 5.64233,-11.2114 3.77966,-3.64974 9.28734,-7.0975 16.5195,-10.3504 14.5281,-6.69945 28.7892,-13.53 42.9193,-20.3641 2.05637,0 3.58596,0.396865 4.51434,1.26146 0.859873,0.79491 1.32643,1.85676 1.32643,3.18319 0,3.51627 -2.52293,6.4337 -7.49909,8.82197 -4.97262,2.38946 -7.49554,4.11275 -7.49554,5.17578 0.92838,1.32643 1.72329,1.92172 2.38827,1.92172 1.65951,0 5.37421,-2.5182 11.1465,-7.56051 5.77107,-5.04113 8.55739,-8.22904 8.42392,-9.55546l-0.929561 -4.44465 0.398046 -0.79491c3.31784,-2.98593 5.84076,-5.6376 7.43058,-7.9621 1.65833,-2.31977 2.45324,-4.17771 2.45324,-5.6376 0,-3.24933 -1.58982,-7.56405 -4.84269,-13.0032 -3.24815,-5.43917 -8.09084,-12.0052 -14.593,-19.6342 -4.90766,-5.97423 -9.81886,-11.2799 -14.795,-16.0577 -4.90766,-4.70922 -9.61688,-8.89048 -14.1312,-12.5367 -1.85794,-1.52486 -3.3828,-3.05444 -4.70922,-4.5793 -1.26146,-1.45989 -2.31977,-2.85128 -3.11822,-4.17771 -1.39139,-2.58789 -2.51938,-4.71277 -3.3828,-6.37109 -0.859873,-1.72447 -1.58982,-2.78278 -2.25599,-3.31429 -0.595297,-0.798454 -1.45989,-1.72801 -2.58671,-2.78632 -1.12799,-1.12799 -2.45442,-2.38827 -3.97928,-3.84935 -2.72136,-2.85128 -4.84269,-6.76442 -6.30259,-11.8103 -1.52486,-5.10609 -2.25481,-11.3402 -2.25481,-18.9042 0,-4.91238 0.66026,-9.68539 2.05519,-14.2647 1.32643,-4.57575 3.31784,-8.69204 5.90572,-12.3382 0.398046,-0.79491 0.79491,-1.65833 1.19296,-2.72136 0.396865,-1.06303 0.79491,-2.18984 1.32643,-3.51627 2.98475,-6.10416 8.02588,-12.6713 15.1931,-19.7039 7.0975,-7.0975 16.451,-14.5281 27.9293,-22.4205 1.58982,-0.796092 3.44658,-1.85794 5.6376,-3.1194 2.25481,-1.32643 4.71277,-2.98475 7.4294,-5.10609 1.52604,-1.26146 3.25287,-2.45796 5.11081,-3.45131 1.9229,-1.06303 4.11275,-2.05637 6.70063,-2.92097 3.51627,-1.45635 7.49554,-2.98475 11.8717,-4.70922 6.50102,-3.31665 11.8752,-5.77107 16.1214,-7.36444 4.31236,-1.52604 7.49554,-2.32095 9.75507,-2.32095 4.24267,0 7.43058,1.32643 9.61688,3.91431 2.12488,2.58789 3.18319,6.30259 3.18319,11.2102 0,5.50768 -0.396865,9.885 -1.25674,13.3363 -0.864598,3.45131 -1.99141,5.77107 -3.38752,6.89907 -15.323,12.2083 -27.5963,21.3622 -36.9486,27.5313 -9.28852,6.16912 -15.8545,9.22238 -19.6389,9.22238 -1.78825,0 -3.18437,-0.530334 -4.24622,-1.5284 -1.05831,-1.05831 -1.52486,-2.65285 -1.52486,-4.70922 0,-3.51627 2.85483,-7.36089 8.69086,-11.5433 5.83722,-4.24622 8.69204,-7.4294 8.55858,-9.62042l-1.72447 -1.19178c-0.664985,0 -1.39493,0.198432 -2.25481,0.596478 -0.863417,0.396865 -1.72683,0.92838 -2.58789,1.52486 -11.4122,9.22238 -20.0358,17.5128 -25.7419,24.8135 -5.77225,7.29711 -8.69204,13.7332 -8.69204,19.1723 0,4.24622 0.729947,8.62236 2.25953,13.0032 1.45517,4.37614 3.64619,8.95544 6.50102,13.5997 2.05637,3.24815 5.10609,7.36089 9.0204,12.3371 3.97928,4.97734 8.95544,11.0118 15.0596,17.9806 8.42392,9.75035 14.9261,17.2494 19.4393,22.5551 4.51079,5.30806 7.09868,8.09439 7.56051,8.35896 2.58789,3.3828 4.84269,6.76442 6.63567,10.0823 1.79298,3.3828 3.04972,6.63567 3.7147,9.75507 0.596478,2.45324 1.06303,5.50413 1.32643,9.15387 0.264576,3.58123 0.398046,8.02706 0.398046,13.2017 0,2.91979 0.466552,4.57575 1.39493,5.04113 0.859873,0.463009 2.38473,0.666166 4.44465,0.666166 0.796092,0 1.39139,-0.134651 1.8544,-0.466552 0.466552,-0.333083 0.92838,-0.729947 1.45989,-1.26146zm-0.194889 0l0.79491 -1.52486c0.729947,-1.06303 1.72447,-2.38946 2.98593,-3.91431 1.19178,-1.52486 2.65167,-3.3828 4.37614,-5.43917 9.15742,-8.55739 18.1129,-18.7743 26.8699,-30.5857 8.75701,-11.8717 17.3794,-25.4749 25.9379,-40.8629 1.06185,-1.45989 2.25481,-3.31784 3.51627,-5.64115 1.32643,-2.31977 2.72136,-5.24074 4.31118,-8.75701 0,-0.79491 -0.198432,-1.39139 -0.596478,-1.72329 -0.396865,-0.398046 -1.06185,-0.596478 -1.98787,-0.596478 -0.729947,0 -1.99023,0.198432 -3.78321,0.661441 -1.72447,0.465371 -3.0509,0.664985 -3.97928,0.664985l-24.282 0c-1.05949,0 -2.71781,-0.064963 -5.17578,-0.199613 -2.38473,-0.133469 -4.11275,-0.198432 -5.10609,-0.198432 -1.32643,-0.596478 -2.52293,-1.1965 -3.58123,-1.65833 -1.12799,-0.398046 -2.19102,-0.929561 -3.25287,-1.39493 -1.52486,-0.527972 -2.71781,-1.25792 -3.58123,-2.05637 -0.864598,-0.861055 -1.26146,-1.85794 -1.26146,-3.0509 0,-8.294 0.863417,-14.5966 2.65285,-19.0377 1.72683,-4.38087 4.37968,-6.57071 8.02942,-6.57071 3.64738,0 7.02899,0.133469 10.2169,0.466552 3.18437,0.331902 5.97069,0.729947 8.49007,1.25674 1.92527,-0.396865 3.7147,-0.79491 5.43799,-1.19178 3.45131,0 6.43724,0.133469 8.89048,0.396865 2.45442,0.26812 4.38087,0.596478 5.64233,0.998067 1.72329,-0.401589 3.3828,-0.729947 4.97262,-1.06303 1.59336,-0.331902 3.3828,-0.664985 5.37421,-1.06185l6.36755 1.92172c4.5793,-0.526791 9.42199,-6.82938 14.5316,-19.0377 5.10727,-12.1398 10.6149,-18.244 16.451,-18.244 3.04972,0 5.50768,0.993343 7.16246,2.91979 1.65951,1.9229 2.52293,4.77419 2.52293,8.55858 0,2.98475 -0.863417,6.89907 -2.65285,11.7418 -1.72329,4.84269 -2.72136,8.49243 -2.98475,10.9468 0.263395,0.531515 0.596478,1.05831 1.05831,1.65833 0.466552,0.596478 1.13154,1.25792 2.05637,2.05637 0.799635,0.463009 1.33115,1.39139 1.65951,2.58789 0.331902,1.25792 0.466552,2.78632 0.466552,4.57575 0,7.76248 -0.333083,13.7981 -1.06303,17.9794 -0.729947,4.24622 -1.85794,6.36755 -3.3828,6.50102l-13.2666 2.71781c-0.26812,1.32997 -0.600022,2.92097 -0.92838,4.77773 -0.398046,1.85794 -0.929561,4.04778 -1.59455,6.5022 -2.18984,6.50102 -4.64426,14.7265 -7.36089,24.68 -2.72254,9.94878 -5.77225,21.759 -9.1586,35.3588 -2.05637,10.8783 -3.64619,19.7039 -4.77419,26.4045 -1.12681,6.76442 -1.65833,11.2752 -1.65833,13.5985 0,2.05637 0.331902,3.65092 0.993343,4.64426 0.664985,1.06303 1.59455,1.58982 2.91979,1.58982 0.731129,0 3.58241,-1.85676 8.42511,-5.6376 4.90766,-3.77966 11.6768,-9.3523 20.3677,-16.7179l7.56051 17.9144c-1.32643,1.39139 -3.11822,3.11468 -5.43917,5.04113 -2.32331,1.9229 -5.10609,4.04424 -8.35896,6.23408 -1.32643,1.39611 -2.91979,2.98593 -4.84269,4.77773 -1.99141,1.72447 -4.11275,3.78084 -6.43606,6.10416 -2.32095,2.58789 -4.64426,5.17578 -6.89907,7.75894 -2.25599,2.58789 -4.57575,5.11081 -6.89907,7.56523 -3.1194,3.38162 -6.16912,5.83604 -9.15505,7.29593 -2.98475,1.52958 -5.77107,2.25481 -8.35896,2.25481 -5.70611,0 -9.94878,-1.65478 -12.7351,-5.04113 -2.78632,-3.3828 -4.18125,-8.48889 -4.18125,-15.388 0,-7.49909 0.266939,-14.0013 0.79491,-19.5054 0.530334,-5.50768 1.32997,-9.95233 2.52174,-13.3351 0.531515,-0.993343 0.929561,-1.9229 1.12799,-2.72136 0,-1.25792 0.198432,-3.04972 0.596478,-5.24074 0.396865,-2.18984 0.863417,-4.77419 1.39493,-7.75894 0.729947,-5.04467 1.58982,-10.087 2.51938,-15.1931 1.39493,-3.05444 2.91979,-6.36755 4.44465,-9.88382 0,-0.664985 -0.531515,-1.26146 -1.52486,-1.72801l-1.9229 1.12799c-1.99141,3.11822 -4.51434,6.37109 -7.62901,9.81886 -3.1194,3.45131 -6.76914,7.03254 -11.0803,10.8134 -6.56716,6.30259 -13.3363,12.7386 -20.1657,19.2408 -0.401589,0.661441 -1.12799,1.58982 -2.12606,2.91979 -1.06185,1.25792 -2.18984,2.91625 -3.51627,4.84269 -0.661441,-1.5284 -1.45989,-3.51627 -2.45324,-5.97423 -0.929561,-2.38473 -1.9229,-5.10609 -2.98593,-8.22549 -0.263395,-0.79491 -0.595297,-1.52486 -0.993343,-2.18984 -0.333083,-0.596478 -0.798454,-1.12799 -1.32643,-1.52486zm107.672 0l1.19296 -1.32643 0.530334 -1.99141c3.51627,-4.77419 9.68539,-11.0118 18.5074,-18.7058 8.75701,-7.69752 14.8612,-13.9316 18.244,-18.7093 1.32997,-2.05637 2.78632,-3.58241 4.44465,-4.51079 1.72801,-0.863417 3.38634,-1.32643 5.11081,-1.32643 4.50961,0 8.35896,1.12799 11.4087,3.3828 3.1194,2.25481 5.24074,5.70611 6.23763,10.2169 0.929561,4.04778 1.78943,8.09557 2.51938,12.1398 0.79491,4.11156 1.45989,8.15935 1.99141,12.3418 0.863417,2.58671 1.99141,6.50102 3.24933,11.7418 1.32997,5.23956 2.32331,8.22549 2.91979,9.0204 0.664985,1.26146 1.65833,2.18984 2.91979,2.78632 1.32643,0.596478 2.91625,0.863417 4.90766,0.863417 2.32449,0 4.70922,-0.396865 7.16719,-1.26146 2.45324,-0.863417 4.97262,-2.25481 7.56051,-4.37614 1.99141,-1.65833 3.98282,-3.38634 6.17266,-5.11081 2.12134,-1.7918 4.24267,-3.51627 6.29905,-5.1746l7.76248 17.9144c-2.05637,2.05637 -4.84269,4.4411 -8.29046,7.0975 -3.38634,2.65285 -7.49909,5.70375 -12.3418,9.22002 -5.30452,3.91313 -9.81886,6.76914 -13.5997,8.69086 -3.7147,1.85794 -6.56598,2.78632 -8.55739,2.78632 -11.7418,0 -19.4357,-1.39021 -22.887,-4.11156 -3.51745,-2.72254 -7.43058,-10.2819 -11.6768,-22.6898 -0.531515,-1.06185 -1.32643,-2.32331 -2.32095,-3.7147 -1.06185,-1.45989 -2.25481,-3.1194 -3.51627,-5.04113 -1.59336,-2.98593 -2.91979,-5.24074 -4.11275,-6.70063 -1.12681,-1.52486 -2.12488,-2.25481 -2.91979,-2.25481 -2.05637,0 -4.84269,1.39139 -8.35896,4.17771 -3.44776,2.78632 -7.76366,6.96757 -12.8048,12.5402 -0.661441,-1.65833 -1.45989,-3.7147 -2.45442,-6.03919 -0.92838,-2.31977 -1.92172,-5.04113 -2.98475,-8.16053 -0.263395,-0.79491 -0.596478,-1.52486 -0.993343,-2.18984 -0.333083,-0.596478 -0.799635,-1.12799 -1.32643,-1.52486zm81.199 -153.313c3.25287,0 5.6376,0.664985 7.0975,1.92172 1.52486,1.32643 2.25599,3.18437 2.25599,5.64233 -0.796092,3.64619 -1.39139,6.70063 -1.9229,9.15387 -1.32643,4.64426 -2.45442,8.49361 -3.44776,11.4784 -0.92838,2.98475 -1.65951,5.10609 -2.18984,6.36755 -1.1965,2.85128 -2.78632,5.37421 -4.77773,7.49554 -1.99141,2.18984 -4.44583,4.04778 -7.29711,5.77107 -2.98475,2.05637 -5.43917,3.51627 -7.49554,4.38087 -1.99141,0.79491 -3.38634,1.19178 -4.18125,1.05831 -2.18984,-0.263395 -4.31118,-0.526791 -6.30259,-0.729947 -1.99141,-0.129926 -3.97928,-0.263395 -5.90572,-0.263395 -1.72329,-0.929561 -3.04972,-2.65285 -3.97928,-5.24074 -0.993343,-2.58789 -1.45989,-6.10416 -1.45989,-10.4803 0,-3.91786 2.32449,-8.82551 7.09868,-14.6616 4.71277,-5.90572 8.89048,-9.09009 12.5402,-9.48695 2.18984,-2.72136 4.77419,-5.77225 7.75894,-9.28852 1.26146,-0.92838 2.98948,-1.65833 5.04585,-2.25481 2.05637,-0.600022 4.4411,-0.863417 7.16246,-0.863417zm29.9893 153.313c1.19178,-1.26146 2.31977,-2.85128 3.51272,-4.77419 1.13154,-1.85794 2.72136,-3.91431 4.64308,-6.10416l12.8048 -11.2102c0.531515,-0.401589 0.799635,-0.92838 0.864598,-1.59455 0.064963,-0.595297 0.133469,-1.52486 0.133469,-2.65167 -0.133469,-1.72801 -0.333083,-3.05444 -0.600022,-4.11275 0,-2.98593 0.600022,-7.9621 1.72683,-14.9946 1.19296,-6.96403 2.25599,-11.1453 3.11586,-12.6064l-1.12799 -3.7147c1.65951,-8.62354 4.04778,-18.1093 7.10222,-28.4597 3.04972,-10.2819 6.49748,-21.4283 10.3468,-33.502 1.32524,-2.05637 2.65167,-4.70922 4.11275,-7.89359 1.39493,-3.18319 3.05326,-6.76914 4.84269,-10.7472 2.18984,-6.76914 5.10963,-13.7981 8.75583,-21.2287 3.65092,-7.36562 7.6987,-14.9297 12.2733,-22.6886 6.03919,-10.2854 11.4784,-17.9794 16.1876,-23.1552 4.71277,-5.17578 8.95898,-7.75894 12.7386,-7.75894 7.49554,0 12.6713,1.45635 15.4576,4.37614 2.78632,2.91979 4.17771,8.35896 4.17771,16.386 0,2.12488 -0.328358,5.30925 -1.05949,9.62042 -0.729947,4.37614 -1.06185,7.62901 -1.06185,9.81886 0,2.25599 -0.729947,5.3057 -2.12134,9.35349 -1.45989,3.97928 -2.18984,7.69398 -2.18984,11.0803 -0.134651,1.05831 -0.466552,2.05637 -0.929561,3.11468l0.199613 2.72136c-0.531515,1.79298 -1.32643,3.97928 -2.38946,6.56716 -0.993343,2.58789 -2.38827,5.70611 -4.04778,9.35703 -0.92838,3.24815 -2.05637,6.96403 -3.51627,11.2752 -1.39139,4.24622 -3.11468,8.95544 -5.04113,13.9966 -0.79491,1.26146 -1.78943,2.85601 -2.98593,4.77773 -1.25674,1.85794 -2.58671,3.97928 -3.9781,6.30377 -0.398046,1.65833 -1.06303,3.58123 -1.99141,5.83604 -0.859873,2.18984 -2.12134,4.77773 -3.64738,7.76248 -0.798454,1.52604 -1.85676,3.25287 -3.11822,5.04231 -1.32643,1.7918 -2.85483,4.11275 -4.71277,6.96757 -0.726404,1.32643 -1.58982,2.91625 -2.51938,4.90766 -0.863417,1.9229 -1.92172,4.11275 -3.11822,6.56598 -1.39139,2.19102 -3.24933,4.91238 -5.6376,8.16053 -2.32449,3.25287 -4.97734,7.09868 -7.9621,11.4784 -3.97928,7.16246 -8.16053,13.9316 -12.4067,20.4338 0,12.5367 2.45796,22.0236 7.49909,28.4597 4.97262,6.36873 12.4717,9.62042 22.4205,9.62042 0.664985,0 2.58789,-0.465371 5.84076,-1.39493 3.24933,-0.863417 7.69398,-2.31977 13.4013,-4.24622 1.65833,-1.06303 3.7147,-2.5182 6.03447,-4.44465 2.32449,-1.85794 4.97734,-4.11275 7.9621,-6.70063l7.56405 17.9144c-3.38634,2.98475 -6.76914,6.03565 -10.087,9.15387 -3.3828,3.1194 -6.83056,6.16912 -10.3468,9.15505 -3.98282,3.31784 -8.09557,5.90454 -12.2083,7.62901 -4.17771,1.7918 -8.22549,2.65285 -12.2733,2.65285 -2.05637,0 -5.23956,-0.199613 -9.48577,-0.661441 -4.31236,-0.466552 -7.49554,-0.729947 -9.75035,-0.729947 -7.23215,0 -13.2028,-2.92097 -17.9806,-8.69204 -4.70804,-5.83604 -8.02588,-14.593 -9.94878,-26.2698 -0.26812,-1.1965 -0.664985,-2.19102 -1.13154,-3.1194 -0.396865,-0.92838 -1.25792,-1.9229 -2.38473,-3.11822 -1.72801,1.65833 -3.65092,3.7147 -5.90572,6.03801 -2.32331,2.32095 -5.04113,4.97734 -8.294,7.9621l-7.75894 -17.9144zm92.6773 -152.518l-1.32643 -0.729947c-7.30066,6.96757 -12.7398,13.5985 -16.4545,19.8373 -3.64619,6.16912 -5.50413,12.2083 -5.50413,18.0443 0,0.92838 -0.466552,2.45324 -1.26146,4.5793 -0.863417,2.12134 -2.12488,4.84269 -3.77966,8.22549 -2.12606,4.04778 -4.2474,8.42392 -6.43724,13.2017 -2.45324,7.29593 -4.37968,13.2017 -5.6376,17.7124 -1.32997,4.50961 -1.92645,7.76248 -1.92645,9.68539l1.12799 1.59336c1.19532,-0.133469 2.58671,-1.32643 4.31472,-3.51627 1.65478,-2.18984 3.58123,-5.43917 5.83604,-9.68539 0.994524,-2.32449 2.51938,-5.04113 4.44583,-8.16053 1.9229,-3.1194 4.11275,-6.8341 6.63095,-11.0803 2.0611,-2.85128 5.37421,-10.2169 9.88854,-21.9587 4.51079,-11.8067 6.96403,-19.3058 7.36208,-22.5551 0.133469,-2.58789 0.530334,-5.17578 1.06185,-7.69398 0.596478,-2.52293 1.12799,-4.97616 1.65951,-7.49909zm16.9164 152.518c0.527972,-0.398046 0.929561,-0.859873 1.25792,-1.32643 0.333083,-0.531515 0.466552,-1.19296 0.466552,-1.99141 2.25481,-1.78825 4.70922,-4.24267 7.49554,-7.43058 2.78632,-3.18319 5.90454,-6.89907 9.42081,-11.1417 2.85128,-3.84935 5.83722,-7.76248 8.82197,-11.6768 3.05444,-3.84935 6.36755,-7.76248 9.82004,-11.6118 2.85128,-3.91431 5.70611,-7.95737 8.49243,-12.1398 2.78632,-4.24622 5.70257,-8.35896 8.82197,-12.3371 5.1746,-2.52293 9.22238,-4.2474 12.0737,-5.30925 2.85128,-0.994524 4.77773,-1.52486 5.83722,-1.52486 1.92645,0 3.45131,0.595297 4.44465,1.85676 1.06303,1.19296 1.59455,2.98593 1.59455,5.30925 0,0.79491 -0.199613,1.9229 -0.596478,3.31429 -0.401589,1.45989 -0.864598,2.98475 -1.39493,4.64308 -0.859873,2.65758 -1.9229,5.30925 -3.1194,8.0306 -0.993343,4.51079 -2.25481,9.0204 -3.64619,13.5997 -1.45989,4.51079 -2.78632,8.95544 -4.11275,13.4013 -1.26146,5.57264 -2.25481,10.6787 -2.98475,15.323 -0.729947,4.64426 -1.06303,8.95544 -1.06303,12.8698 0,7.23097 0.333083,12.6052 1.06303,16.1214 0.729947,3.44776 1.72329,5.04113 2.98475,4.64426 1.32643,-0.79491 2.91625,-1.72447 4.84269,-2.85128 1.98787,-1.06303 4.24622,-2.32449 6.83056,-3.78439 2.32331,-2.45324 4.97616,-5.50413 7.89595,-9.08891 2.92097,-3.64619 6.4337,-7.89359 10.55,-12.8698 2.38473,-3.58123 4.77419,-7.16246 7.22742,-10.6787 0.92838,-0.998067 1.99141,-2.25599 3.18791,-3.65092 1.25792,-1.45989 2.38473,-2.85128 3.3828,-4.31118 2.5182,-6.23763 5.23956,-10.8134 8.29046,-13.8666 3.05326,-3.0509 6.43606,-4.57575 10.2169,-4.57575 3.3828,0 6.03919,0.398046 8.02588,1.26146 2.05637,0.859873 3.45131,2.12134 4.18243,3.78084 0.396865,0.92838 0.729947,2.45324 0.993343,4.64308 0.266939,2.25599 0.396865,5.10727 0.396865,8.75701 0,1.45989 0.26812,3.51627 0.864598,6.23408 0.596478,2.72136 0.863417,4.71277 0.863417,6.03919 0,4.77773 0.859873,8.35896 2.51938,10.7484 1.72329,2.38827 4.31118,3.58123 7.82745,3.58123 0.998067,0 2.25481,-0.198432 3.64974,-0.596478 1.46108,-0.398046 2.85246,-0.863417 4.31236,-1.39493l7.76248 17.9144c-7.76248,4.70922 -14.1312,8.22549 -19.1723,10.6149 -4.97616,2.38473 -8.69204,3.58123 -11.1453,3.58123 -6.5022,0 -11.8103,-1.65951 -15.923,-5.04231 -4.17771,-3.31665 -7.23215,-8.35896 -9.15505,-14.9249 -0.263395,-1.59455 -0.79491,-3.1194 -1.65833,-4.71277 -0.863417,-1.52486 -1.9229,-3.0509 -3.18437,-4.64426 -1.19178,1.32643 -2.52174,2.85483 -3.9781,4.64426 -1.52958,1.85676 -3.1194,3.64974 -4.77773,5.43917 -3.51745,4.31472 -7.03372,8.49243 -10.4815,12.5402 -3.51627,4.11275 -7.10104,8.16053 -10.7472,12.2083 -4.51079,5.30452 -9.09009,9.15387 -13.6682,11.5433 -4.64426,2.38473 -8.95544,3.58123 -12.9347,3.58123 -5.97069,0 -10.7484,-1.79298 -14.3982,-5.37421 -3.64619,-3.51627 -5.97069,-8.82551 -6.96403,-15.7895 -1.1965,-6.7656 -1.99141,-12.0099 -2.38946,-15.7895 -0.331902,-3.71588 -0.396865,-5.97069 -0.198432,-6.7656 -0.198432,-3.78439 -0.596478,-6.63567 -1.06303,-8.55739 -0.396865,-1.92645 -1.12681,-2.92097 -1.98669,-2.92097l-1.1965 0.596478 -11.0768 11.4134c-0.401589,0.92838 -1.06303,2.05637 -1.92645,3.3828 -0.92838,1.39139 -2.18984,3.04972 -3.71588,4.97616 -0.530334,-1.92645 -1.39021,-4.37968 -2.71663,-7.23097 -1.26146,-2.85601 -2.98593,-6.37228 -5.04231,-10.6835zm161.741 0l1.19296 -1.32643c0.461828,-1.85794 1.59336,-3.77966 3.38162,-5.83604 1.72447,-2.05637 4.2474,-4.18243 7.49554,-6.23881 4.2474,-2.71663 7.56405,-4.90766 9.95351,-6.56598 2.45324,-1.72447 3.91431,-2.91979 4.37968,-3.71588 1.19296,-1.39493 1.98787,-2.52174 2.32095,-3.31665 1.45989,-0.994524 3.18319,-2.45442 5.30806,-4.2474 2.05637,-1.78825 4.37732,-4.04306 6.96521,-6.63095 0.92838,-0.600022 1.85676,-1.65951 2.91979,-3.05444 1.05831,-1.45989 2.05637,-3.04972 3.11468,-4.90766 1.65951,-1.12681 3.58596,-2.65285 5.70729,-4.44465 2.12488,-1.79298 4.64308,-4.11275 7.49436,-6.96875 3.25287,-3.51154 6.89907,-7.36089 11.0165,-11.5421 4.04306,-4.24267 8.62236,-8.62354 13.6635,-13.1331 1.65951,-0.79491 3.25287,-1.39493 4.77773,-1.85794 1.46108,-0.466552 2.91743,-0.664985 4.37732,-0.664985 5.83958,0 10.2169,1.39493 13.1367,4.18125 2.85128,2.78632 4.31118,6.7656 4.31118,11.9402 0,1.32643 -0.198432,3.44776 -0.661441,6.43724 -0.465371,2.98475 -0.92838,6.70063 -1.45989,11.2752 -1.79298,13.0682 -3.11822,21.0303 -3.84935,23.8851 -0.79491,2.85128 -3.51627,11.8067 -8.15935,26.8014 -1.06303,2.45442 -2.12134,5.50413 -3.24933,9.15387 -1.06303,3.64738 -2.38946,8.02706 -3.98282,13.2028 0.26812,0.530334 0.92838,1.06185 1.99141,1.58982 0.863417,0 2.52293,-0.929561 4.84269,-2.65285 2.31977,-1.79298 5.43917,-4.37614 9.28852,-7.89241 4.57812,-4.18243 8.15935,-7.36562 10.7472,-9.55546 2.58789,-2.25599 4.17771,-3.51745 4.84269,-3.91431 1.52486,3.51627 2.98593,6.70063 4.2474,9.62042 1.32524,2.91979 2.38473,5.70611 3.31311,8.294 -1.65833,1.05831 -3.18319,2.1863 -4.57457,3.51272 -1.32643,1.26146 -2.58789,2.72136 -3.78439,4.24622 -2.71781,1.85794 -5.83604,3.91431 -9.41845,6.23763 -3.58123,2.32095 -7.49436,4.84269 -11.7418,7.56051 -1.99141,1.99141 -4.57812,4.3159 -7.89595,7.16719 -3.31784,2.78632 -7.03372,5.90454 -11.1465,9.42199l-3.7147 0.729947c-1.78825,2.5182 -3.51627,4.37614 -5.17105,5.70257 -1.59455,1.26146 -3.05444,2.18984 -4.38087,2.72136 -2.05637,0.729947 -4.11275,1.52486 -6.16912,2.18984 -2.12488,0.729947 -4.31118,1.45635 -6.63449,2.25481 -1.39139,-0.396865 -2.45442,-1.26028 -3.1194,-2.52174 -0.661441,-1.32643 -0.92838,-2.98593 -0.79491,-5.04231 -1.9229,-3.51627 -3.44776,-7.56405 -4.64426,-12.0737 -1.12799,-4.51079 -1.72329,-9.55192 -1.72329,-15.1246 0,-1.06303 0.064963,-2.18984 0.198432,-3.31784 0.133469,-1.19296 0.263395,-2.18984 0.396865,-3.1194 -0.92838,-3.3828 -1.39021,-5.37421 -1.39021,-6.03447 0,-3.84935 1.45517,-7.09868 4.4411,-9.62042 2.9883,-2.51938 6.37109,-3.78084 10.1519,-3.78084 1.92172,0 3.31784,0.993343 4.18125,2.98475 0.79491,2.05637 1.72329,3.0509 2.58316,3.0509 0.929561,0 1.85794,-1.78943 2.85601,-5.37421 0.92838,-3.51627 1.92172,-8.75701 2.78632,-15.6561 0.92838,-5.90454 1.52486,-11.0768 1.78825,-15.5214 0.26812,-4.38087 0.333083,-7.76366 0.333083,-10.0834 0,-1.72801 -0.333083,-2.98948 -1.06303,-3.78439 -0.661441,-0.859873 -1.85676,-1.26028 -3.58123,-1.26028 -1.65833,0 -7.0975,3.84817 -16.3211,11.6118 -9.21884,7.76248 -22.0236,19.3708 -38.4746,34.7623 -0.530334,0.929561 -1.26028,1.98787 -2.25835,3.31784 -0.92838,1.25792 -2.05637,2.91625 -3.3828,4.84269 -0.531515,-1.92645 -1.39139,-4.37968 -2.71781,-7.23097 -1.26146,-2.85601 -2.98475,-6.37228 -5.04113,-10.6835z"/>
  </g>
 </g>
</svg>
